<?xml version="1.0" encoding="UTF-8" standalone="no"?>
<!-- Created with Inkscape (http://www.inkscape.org/) -->

<svg
   xmlns:dc="http://purl.org/dc/elements/1.1/"
   xmlns:cc="http://creativecommons.org/ns#"
   xmlns:rdf="http://www.w3.org/1999/02/22-rdf-syntax-ns#"
   xmlns:svg="http://www.w3.org/2000/svg"
   xmlns="http://www.w3.org/2000/svg"
   xmlns:sodipodi="http://sodipodi.sourceforge.net/DTD/sodipodi-0.dtd"
   xmlns:inkscape="http://www.inkscape.org/namespaces/inkscape"
   version="1.1"
   id="svg2"
   xml:space="preserve"
   width="421.61652"
   height="394.06131"
   viewBox="0 0 421.61651 394.06131"
   sodipodi:docname="logo.svg"
   inkscape:version="0.92.3 (2405546, 2018-03-11)"><metadata
     id="metadata8"><rdf:RDF><cc:Work
         rdf:about=""><dc:format>image/svg+xml</dc:format><dc:type
           rdf:resource="http://purl.org/dc/dcmitype/StillImage" /><dc:title></dc:title></cc:Work></rdf:RDF></metadata><defs
     id="defs6"><clipPath
       clipPathUnits="userSpaceOnUse"
       id="clipPath18"><path
         d="M 0,368.504 H 368.504 V 0 H 0 Z"
         id="path16"
         inkscape:connector-curvature="0" /></clipPath></defs><sodipodi:namedview
     pagecolor="#ffffff"
     bordercolor="#666666"
     borderopacity="1"
     objecttolerance="10"
     gridtolerance="10"
     guidetolerance="10"
     inkscape:pageopacity="0"
     inkscape:pageshadow="2"
     inkscape:window-width="1635"
     inkscape:window-height="980"
     id="namedview4"
     showgrid="false"
     fit-margin-top="0"
     fit-margin-left="0"
     fit-margin-right="0"
     fit-margin-bottom="0"
     inkscape:zoom="0.67927564"
     inkscape:cx="210.80828"
     inkscape:cy="-52.802567"
     inkscape:window-x="0"
     inkscape:window-y="0"
     inkscape:window-maximized="0"
     inkscape:current-layer="g120" /><g
     id="g10"
     inkscape:groupmode="layer"
     inkscape:label="LogoGrainDinfo"
     transform="matrix(1.3333333,0,0,-1.3333333,-34.861066,442.69999)"><g
       id="g12"><g
         id="g14"
         clip-path="url(#clipPath18)"><g
           id="g20"
           transform="translate(332.1922,184.252)"><path
             d="m 0,0 c 0,-81.613 -66.16,-147.773 -147.773,-147.773 -81.613,0 -147.773,66.16 -147.773,147.773 0,81.613 66.16,147.773 147.773,147.773 C -66.16,147.773 0,81.613 0,0"
             style="fill:#364041;fill-opacity:1;fill-rule:nonzero;stroke:none"
             id="path22"
             inkscape:connector-curvature="0" /></g><g
           id="g24"
           transform="translate(74.847,251.8829)"><path
             d="m 0,0 1.471,2.176 19.673,-13.301 5.665,8.378 2.102,-1.421 -7.136,-10.555 z"
             style="fill:#ffffff;fill-opacity:1;fill-rule:nonzero;stroke:none"
             id="path26"
             inkscape:connector-curvature="0" /></g><g
           id="g28"
           transform="translate(87.574,269.1841)"><path
             d="M 0,0 10.5,10.801 12.345,9.008 3.676,0.09 l 5.907,-5.742 8.594,8.841 1.845,-1.793 -8.594,-8.841 7.405,-7.2 8.595,8.841 1.845,-1.793 -10.425,-10.725 z"
             style="fill:#ffffff;fill-opacity:1;fill-rule:nonzero;stroke:none"
             id="path30"
             inkscape:connector-curvature="0" /></g><g
           id="g32"
           transform="translate(115.388,266.7906)"><path
             d="M 0,0 1.046,2.385 C 4.004,0.934 6.323,0.805 8.004,1.998 8.723,2.507 9.279,3.154 9.673,3.938 10.066,4.721 10.229,5.511 10.159,6.309 10.09,7.107 9.831,7.822 9.383,8.453 8.873,9.172 8.13,9.704 7.155,10.049 c -1.346,0.477 -3.384,0.755 -6.113,0.834 -2.746,0.082 -4.551,0.27 -5.416,0.562 -1.474,0.473 -2.628,1.297 -3.462,2.472 -0.662,0.934 -1.042,1.942 -1.14,3.027 -0.097,1.084 0.103,2.135 0.601,3.153 0.497,1.018 1.222,1.864 2.174,2.54 1.011,0.717 2.133,1.137 3.368,1.26 1.234,0.124 2.817,-0.137 4.75,-0.781 L 1.108,20.549 c -1.564,0.496 -2.751,0.713 -3.561,0.65 -0.809,-0.063 -1.549,-0.333 -2.22,-0.808 -0.865,-0.614 -1.386,-1.378 -1.562,-2.292 -0.177,-0.914 0.007,-1.755 0.552,-2.522 0.33,-0.467 0.748,-0.849 1.253,-1.149 0.504,-0.299 1.197,-0.524 2.077,-0.673 0.475,-0.072 1.904,-0.132 4.289,-0.178 2.827,-0.054 4.965,-0.37 6.414,-0.949 1.447,-0.58 2.554,-1.409 3.319,-2.487 C 12.772,8.586 13.14,6.817 12.773,4.833 12.406,2.849 11.377,1.258 9.687,0.058 8.384,-0.866 6.957,-1.355 5.406,-1.412 3.854,-1.469 2.052,-0.998 0,0"
             style="fill:#ffffff;fill-opacity:1;fill-rule:nonzero;stroke:none"
             id="path34"
             inkscape:connector-curvature="0" /></g><g
           id="g36"
           transform="translate(162.9676,307.2818)"><path
             d="m 0,0 -1.441,-2.408 c -1.8,0.992 -3.641,1.612 -5.522,1.858 -1.881,0.246 -3.619,0.145 -5.213,-0.302 -1.985,-0.556 -3.738,-1.573 -5.26,-3.051 -1.522,-1.478 -2.543,-3.19 -3.061,-5.135 -0.519,-1.945 -0.518,-3.847 0.003,-5.706 0.534,-1.904 1.551,-3.57 3.053,-4.999 1.501,-1.429 3.29,-2.381 5.365,-2.857 2.076,-0.476 4.186,-0.414 6.331,0.187 2.604,0.73 4.601,2.081 5.991,4.054 1.389,1.973 1.922,4.176 1.599,6.609 l -8.07,-2.261 -0.684,2.444 L 4,-8.511 c 1.072,-3.918 0.781,-7.349 -0.874,-10.293 -1.655,-2.945 -4.41,-4.957 -8.264,-6.037 -4.68,-1.311 -8.832,-0.756 -12.456,1.669 -2.787,1.866 -4.632,4.411 -5.535,7.634 -0.672,2.397 -0.695,4.797 -0.07,7.2 0.626,2.402 1.825,4.479 3.598,6.232 1.773,1.752 3.985,3 6.635,3.743 2.144,0.601 4.272,0.78 6.382,0.535 C -4.475,1.929 -2.28,1.204 0,0"
             style="fill:#ffffff;fill-opacity:1;fill-rule:nonzero;stroke:none"
             id="path38"
             inkscape:connector-curvature="0" /></g><g
           id="g40"
           transform="translate(177.3474,310.2222)"><path
             d="m 0,0 0.145,-8.933 4.528,0.037 c 1.754,0.029 3.048,0.216 3.884,0.564 0.836,0.347 1.483,0.891 1.943,1.631 0.459,0.74 0.681,1.562 0.667,2.468 -0.015,0.881 -0.266,1.678 -0.755,2.392 -0.489,0.713 -1.124,1.217 -1.904,1.515 -0.781,0.297 -2.072,0.43 -3.873,0.401 z m -2.668,2.53 5.234,0.085 c 2.919,0.048 4.898,-0.04 5.938,-0.261 1.566,-0.333 2.847,-1.078 3.843,-2.237 0.996,-1.159 1.507,-2.597 1.535,-4.315 0.024,-1.431 -0.293,-2.695 -0.948,-3.791 -0.655,-1.096 -1.603,-1.931 -2.845,-2.506 -1.242,-0.575 -2.964,-0.887 -5.168,-0.934 l 9.65,-12.05 -3.25,-0.052 -9.65,12.049 -1.484,-0.024 0.197,-12.203 -2.626,-0.042 z"
             style="fill:#ffffff;fill-opacity:1;fill-rule:nonzero;stroke:none"
             id="path42"
             inkscape:connector-curvature="0" /></g><g
           id="g44"
           transform="translate(211.4207,304.3331)"><path
             d="m 0,0 -6.471,-8.303 8.771,-1.96 z m 1.541,5.378 6.231,-28.326 -2.768,0.619 -2.15,9.342 -11.05,2.469 -5.882,-7.547 -2.86,0.639 17.852,22.944 z"
             style="fill:#ffffff;fill-opacity:1;fill-rule:nonzero;stroke:none"
             id="path46"
             inkscape:connector-curvature="0" /></g><g
           id="g48"
           transform="translate(232.4275,303.6363)"><path
             d="m 0,0 2.427,-1.006 -10.063,-24.283 -2.427,1.006 z"
             style="fill:#ffffff;fill-opacity:1;fill-rule:nonzero;stroke:none"
             id="path50"
             inkscape:connector-curvature="0" /></g><g
           id="g52"
           transform="translate(230.451,276.2794)"><path
             d="m 0,0 14.079,22.197 0.483,-0.306 3.981,-26.385 10.792,17.015 2.187,-1.388 -14.078,-22.196 -0.498,0.315 -3.992,26.102 -10.66,-16.809 z"
             style="fill:#ffffff;fill-opacity:1;fill-rule:nonzero;stroke:none"
             id="path54"
             inkscape:connector-curvature="0" /></g><g
           id="g56"
           transform="translate(271.0066,279.6187)"><path
             d="m 0,0 10.62,-10.683 -1.825,-1.815 -8.768,8.821 -5.842,-5.807 8.692,-8.745 -1.824,-1.814 -8.693,8.745 -7.325,-7.282 8.693,-8.744 -1.826,-1.814 -10.544,10.607 z"
             style="fill:#ffffff;fill-opacity:1;fill-rule:nonzero;stroke:none"
             id="path58"
             inkscape:connector-curvature="0" /></g><g
           id="g60"
           transform="translate(268.1404,251.8457)"><path
             d="m 0,0 2.367,-1.087 c -1.502,-2.932 -1.671,-5.248 -0.508,-6.95 0.498,-0.728 1.135,-1.295 1.912,-1.702 0.776,-0.407 1.563,-0.583 2.363,-0.528 0.798,0.057 1.517,0.303 2.157,0.74 0.728,0.497 1.272,1.231 1.634,2.2 0.5,1.337 0.813,3.37 0.939,6.097 0.129,2.744 0.348,4.546 0.656,5.405 0.498,1.467 1.341,2.607 2.531,3.42 0.944,0.646 1.959,1.008 3.046,1.087 1.086,0.079 2.132,-0.14 3.142,-0.654 1.009,-0.515 1.843,-1.255 2.502,-2.218 0.699,-1.023 1.1,-2.153 1.202,-3.389 0.102,-1.236 -0.186,-2.815 -0.864,-4.736 l -2.552,0.852 c 0.523,1.556 0.76,2.739 0.711,3.55 C 21.189,2.897 20.933,3.642 20.469,4.32 19.87,5.196 19.115,5.73 18.204,5.922 17.294,6.115 16.449,5.945 15.673,5.414 15.201,5.091 14.811,4.68 14.503,4.181 14.194,3.682 13.958,2.993 13.794,2.116 13.713,1.642 13.629,0.214 13.542,-2.169 c -0.103,-2.827 -0.456,-4.959 -1.06,-6.397 -0.604,-1.438 -1.452,-2.53 -2.544,-3.276 -1.573,-1.076 -3.348,-1.413 -5.326,-1.012 -1.977,0.401 -3.55,1.457 -4.72,3.168 -0.902,1.318 -1.367,2.753 -1.397,4.306 C -1.535,-3.828 -1.033,-2.034 0,0"
             style="fill:#ffffff;fill-opacity:1;fill-rule:nonzero;stroke:none"
             id="path62"
             inkscape:connector-curvature="0" /></g><g
           id="g64"
           transform="translate(102.0179,89.4834)"><path
             d="m 0,0 2.509,-1.912 c 3.001,-2.286 5.224,-3.686 6.67,-4.196 2.038,-0.714 4.05,-0.737 6.037,-0.068 1.988,0.669 3.742,2.002 5.262,3.997 1.596,2.094 2.452,4.27 2.57,6.527 0.118,2.256 -0.52,4.349 -1.91,6.279 -1.043,1.447 -3.124,3.359 -6.243,5.736 l -1.535,1.17 z m -3.644,-0.466 16.542,21.709 4.501,-3.43 c 3.247,-2.473 5.405,-4.53 6.474,-6.168 C 25.416,9.303 26.087,6.77 25.886,4.046 25.685,1.322 24.624,-1.299 22.705,-3.817 21.048,-5.992 19.12,-7.548 16.921,-8.484 14.722,-9.422 12.572,-9.712 10.472,-9.355 8.372,-9 5.969,-7.791 3.263,-5.729 Z"
             style="fill:#ffffff;fill-opacity:1;fill-rule:nonzero;stroke:none"
             id="path66"
             inkscape:connector-curvature="0" /></g><g
           id="g68"
           transform="translate(136.1536,95.6934)"><path
             d="m 0,0 14.206,-6.547 -1.119,-2.427 -11.728,5.406 -3.581,-7.769 11.628,-5.358 -1.118,-2.427 -11.628,5.359 -4.489,-9.74 11.627,-5.359 -1.118,-2.426 -14.104,6.5 z"
             style="fill:#ffffff;fill-opacity:1;fill-rule:nonzero;stroke:none"
             id="path70"
             inkscape:connector-curvature="0" /></g><g
           id="g72"
           transform="translate(162.4378,85.9034)"><path
             d="M 0,0 2.691,-0.446 -1.34,-24.773 9.021,-26.49 8.59,-29.09 -4.461,-26.927 Z"
             style="fill:#ffffff;fill-opacity:1;fill-rule:nonzero;stroke:none"
             id="path74"
             inkscape:connector-curvature="0" /></g><g
           id="g76"
           transform="translate(179.6658,75.8457)"><path
             d="m 0,0 -1.909,0.099 0.036,8.6 2.743,-0.141 z"
             style="fill:#ffffff;fill-opacity:1;fill-rule:nonzero;stroke:none"
             id="path78"
             inkscape:connector-curvature="0" /></g><g
           id="g80"
           transform="translate(185.0564,83.6456)"><path
             d="M 0,0 2.727,0.053 3.256,-27.236 0.529,-27.289 Z"
             style="fill:#ffffff;fill-opacity:1;fill-rule:nonzero;stroke:none"
             id="path82"
             inkscape:connector-curvature="0" /></g><g
           id="g84"
           transform="translate(197.409,56.5586)"><path
             d="m 0,0 -4.989,26.834 0.584,0.108 21.682,-17.249 -3.824,20.57 2.646,0.492 L 21.088,3.921 20.485,3.809 -1.005,20.835 2.772,0.516 Z"
             style="fill:#ffffff;fill-opacity:1;fill-rule:nonzero;stroke:none"
             id="path86"
             inkscape:connector-curvature="0" /></g><g
           id="g88"
           transform="translate(217.6736,89.086)"><path
             d="M 0,0 12.621,5.265 13.649,2.799 3.546,-1.416 6.839,-9.311 16.942,-5.096 17.971,-7.562 7.867,-11.776 13.024,-24.141 10.508,-25.19 Z"
             style="fill:#ffffff;fill-opacity:1;fill-rule:nonzero;stroke:none"
             id="path90"
             inkscape:connector-curvature="0" /></g><g
           id="g92"
           transform="translate(244.4705,101.0918)"><path
             d="m 0,0 c -1.636,-1.186 -2.877,-2.735 -3.724,-4.648 -0.847,-1.914 -1.159,-3.891 -0.935,-5.93 0.223,-2.04 0.977,-3.946 2.263,-5.721 1.904,-2.626 4.421,-4.184 7.554,-4.674 3.132,-0.49 5.982,0.197 8.55,2.058 1.716,1.243 3.002,2.81 3.858,4.699 0.857,1.89 1.171,3.853 0.943,5.889 -0.229,2.036 -0.983,3.936 -2.261,5.701 -1.271,1.754 -2.83,3.044 -4.676,3.869 C 9.727,2.069 7.753,2.37 5.651,2.146 3.549,1.922 1.665,1.207 0,0 m -1.655,2.077 c 3.347,2.426 6.958,3.34 10.832,2.74 3.873,-0.598 6.994,-2.531 9.36,-5.796 2.345,-3.235 3.208,-6.794 2.592,-10.679 -0.617,-3.884 -2.544,-6.999 -5.781,-9.346 -3.278,-2.375 -6.857,-3.258 -10.738,-2.648 -3.881,0.608 -6.975,2.506 -9.284,5.691 -1.539,2.123 -2.451,4.463 -2.738,7.021 -0.286,2.557 0.085,4.992 1.115,7.304 1.029,2.313 2.577,4.217 4.642,5.713"
             style="fill:#ffffff;fill-opacity:1;fill-rule:nonzero;stroke:none"
             id="path94"
             inkscape:connector-curvature="0" /></g><g
           id="g96"
           transform="translate(141.7405,131.6563)"><path
             d="m 0,0 c 6.875,-12.131 36.707,-4.041 42.595,-2.157 5.887,1.884 29.452,9.949 29.452,28.082 0,5.416 -2.971,-1.258 -10.39,-1.258 -10.851,0 -14.501,5.095 -29.127,2.336 C 17.443,24.158 13.587,16.219 11.736,16.624 c -1.851,0.405 7.719,10.604 21.827,13.569 9.993,2.101 21.207,-2.423 27.565,-1.819 6.359,0.604 16.624,4.409 7.751,15.568 C 63.626,50.547 52.03,54.726 38.146,55.13 25.732,55.492 4.583,50.008 -8.761,34.103 -19.322,21.515 -20.488,2.426 0,0"
             style="fill:#ffffff;fill-opacity:1;fill-rule:nonzero;stroke:none"
             id="path98"
             inkscape:connector-curvature="0" /></g><g
           id="g100"
           transform="translate(203.6736,211.6968)"><path
             d="m 0,0 c -1.516,-2.141 -2.525,-4.692 -1.972,-6.91 0.537,-2.212 2.285,-4.014 4.251,-5.557 1.971,-1.566 4.208,-2.924 6.489,-4.283 2.266,-1.388 4.601,-2.761 6.922,-4.326 2.305,-1.589 4.731,-3.211 6.891,-5.682 1.042,-1.252 2.024,-2.752 2.564,-4.562 0.549,-1.797 0.607,-3.831 0.177,-5.633 -0.428,-1.812 -1.248,-3.364 -2.195,-4.668 -0.96,-1.3 -2.049,-2.379 -3.196,-3.32 -2.32,-1.844 -4.835,-3.193 -7.583,-4.038 -0.197,-0.061 -0.406,0.05 -0.466,0.247 -0.033,0.107 -0.014,0.22 0.041,0.309 1.501,2.413 3.046,4.596 4.296,6.752 1.239,2.134 2.157,4.275 2.212,5.945 0.038,0.837 -0.064,1.544 -0.274,2.315 -0.226,0.764 -0.595,1.625 -1.14,2.522 -1.059,1.83 -2.781,3.698 -4.718,5.357 -3.9,3.366 -8.469,6.373 -12.406,10.505 -0.967,1.051 -1.887,2.192 -2.642,3.487 -0.75,1.287 -1.311,2.79 -1.398,4.349 -0.07,1.563 0.326,3.09 1.02,4.356 0.7,1.271 1.616,2.337 2.596,3.292 0.139,0.135 0.362,0.132 0.497,-0.007 C 0.086,0.326 0.096,0.136 0,0"
             style="fill:#ffffff;fill-opacity:1;fill-rule:nonzero;stroke:none"
             id="path102"
             inkscape:connector-curvature="0" /></g><g
           id="g104"
           transform="translate(148.4715,220.7315)"><path
             d="m 0,0 c 6.214,8.906 22.364,11.904 29.218,11.904 8.792,0 22.727,-5.992 21.902,-15.386 0,0 -4.948,-0.847 -14.146,1.138 0,0 7.214,-6.956 11.362,-7.447 1.623,0 -11.362,-5.101 -19.479,0 C 20.741,-4.689 20.047,0.75 13.337,1.37 7.4,1.918 1.804,0.902 0,0"
             style="fill:#ffffff;fill-opacity:1;fill-rule:nonzero;stroke:none"
             id="path106"
             inkscape:connector-curvature="0" /></g><g
           id="g108"
           transform="translate(202.4822,217.3526)"><path
             d="M 0,0 C -0.946,3.533 0.009,13.535 10.104,17.171 18.854,20.322 25.657,24.535 25.6,34.04 29.546,26.014 28.692,16.037 27.791,11.527 26.89,7.019 22.173,-2.393 7.203,-3.475 12.614,1.936 13.132,5.574 12.865,7.212 10.604,4.903 6.327,0.516 0,0"
             style="fill:#ffffff;fill-opacity:1;fill-rule:nonzero;stroke:none"
             id="path110"
             inkscape:connector-curvature="0" /></g><g
           id="g112"
           transform="translate(35.1458,214.252)"
           style="fill:#ed8e3b;fill-opacity:1"><path
             d="m 0,0 h 68.167 l -10,-29.061 10,-30.939 H 0 c 0,0 -9,15.239 -9,30 0,14.761 9,30 9,30"
             style="fill:#ed8e3b;fill-opacity:1;fill-rule:nonzero;stroke:none"
             id="path114"
             inkscape:connector-curvature="0" /></g><g
           id="g116"
           transform="translate(65.6458,199.0132)"><path
             d="M 0,0 4.796,-9.718 15.521,-11.276 7.76,-18.841 9.592,-29.522 0,-24.479 l -9.593,-5.043 1.832,10.681 -7.76,7.565 10.725,1.558 z"
             style="fill:#ffffff;fill-opacity:1;fill-rule:nonzero;stroke:none"
             id="path118"
             inkscape:connector-curvature="0" /></g><g
           id="g120"
           transform="translate(333.3582,214.252)"><path
             d="m 0,0 h -68.166 l 10,-29.061 -10,-30.939 H 0 c 0,0 9,15.239 9,30 C 9,-15.239 0,0 0,0"
             style="fill:#ed8e3b;fill-opacity:1;fill-rule:nonzero;stroke:none"
             id="path122"
             inkscape:connector-curvature="0" /></g><g
           id="g124"
           transform="translate(302.8582,199.0132)"><path
             d="m 0,0 -4.796,-9.718 -10.725,-1.558 7.76,-7.565 -1.832,-10.681 9.593,5.043 9.593,-5.043 -1.832,10.681 7.76,7.565 -10.724,1.558 z"
             style="fill:#ffffff;fill-opacity:1;fill-rule:nonzero;stroke:none"
             id="path126"
             inkscape:connector-curvature="0" /></g></g></g></g></svg>