<?xml version="1.0" encoding="UTF-8" standalone="no"?>
<!-- Created with Inkscape (http://www.inkscape.org/) -->

<svg
   xmlns:dc="http://purl.org/dc/elements/1.1/"
   xmlns:cc="http://creativecommons.org/ns#"
   xmlns:rdf="http://www.w3.org/1999/02/22-rdf-syntax-ns#"
   xmlns:svg="http://www.w3.org/2000/svg"
   xmlns="http://www.w3.org/2000/svg"
   xmlns:sodipodi="http://sodipodi.sourceforge.net/DTD/sodipodi-0.dtd"
   xmlns:inkscape="http://www.inkscape.org/namespaces/inkscape"
   version="1.1"
   id="svg834"
   xml:space="preserve"
   width="37.793999"
   height="35.241333"
   viewBox="0 0 37.793999 35.241333"
   sodipodi:docname="logo.svg"
   inkscape:version="0.92.2pre0 (973e216, 2017-07-25)"><metadata
     id="metadata840"><rdf:RDF><cc:Work
         rdf:about=""><dc:format>image/svg+xml</dc:format><dc:type
           rdf:resource="http://purl.org/dc/dcmitype/StillImage" /><dc:title></dc:title></cc:Work></rdf:RDF></metadata><defs
     id="defs838"><clipPath
       clipPathUnits="userSpaceOnUse"
       id="clipPath850"><path
         d="M 0,28.346 H 28.346 V 0 H 0 Z"
         id="path848"
         inkscape:connector-curvature="0" /></clipPath><clipPath
       clipPathUnits="userSpaceOnUse"
       id="clipPath958"><path
         d="M 0,28.346 H 28.346 V 0 H 0 Z"
         id="path956"
         inkscape:connector-curvature="0" /></clipPath><clipPath
       clipPathUnits="userSpaceOnUse"
       id="clipPath1066"><path
         d="M 0,28.346 H 28.346 V 0 H 0 Z"
         id="path1064"
         inkscape:connector-curvature="0" /></clipPath><clipPath
       clipPathUnits="userSpaceOnUse"
       id="clipPath1174"><path
         d="M 0,28.346 H 28.346 V 0 H 0 Z"
         id="path1172"
         inkscape:connector-curvature="0" /></clipPath><clipPath
       clipPathUnits="userSpaceOnUse"
       id="clipPath1282"><path
         d="M 0,28.346 H 28.346 V 0 H 0 Z"
         id="path1280"
         inkscape:connector-curvature="0" /></clipPath><clipPath
       clipPathUnits="userSpaceOnUse"
       id="clipPath1390"><path
         d="M 0,28.346 H 28.346 V 0 H 0 Z"
         id="path1388"
         inkscape:connector-curvature="0" /></clipPath><clipPath
       clipPathUnits="userSpaceOnUse"
       id="clipPath1498"><path
         d="M 0,28.346 H 28.346 V 0 H 0 Z"
         id="path1496"
         inkscape:connector-curvature="0" /></clipPath><clipPath
       clipPathUnits="userSpaceOnUse"
       id="clipPath1606"><path
         d="M 0,28.346 H 28.346 V 0 H 0 Z"
         id="path1604"
         inkscape:connector-curvature="0" /></clipPath></defs><sodipodi:namedview
     pagecolor="#ffffff"
     bordercolor="#666666"
     borderopacity="1"
     objecttolerance="10"
     gridtolerance="10"
     guidetolerance="10"
     inkscape:pageopacity="0"
     inkscape:pageshadow="2"
     inkscape:window-width="1920"
     inkscape:window-height="998"
     id="namedview836"
     showgrid="false"
     inkscape:zoom="7.5490162"
     inkscape:cx="-7.537073"
     inkscape:cy="12.311097"
     inkscape:window-x="0"
     inkscape:window-y="0"
     inkscape:window-maximized="1"
     inkscape:current-layer="g842"
     fit-margin-top="0"
     fit-margin-left="0"
     fit-margin-right="0"
     fit-margin-bottom="0" /><g
     id="g842"
     inkscape:groupmode="layer"
     inkscape:label="logo_tout_les_coloris_dans_le_document_1"
     transform="matrix(1.3333333,0,0,-1.3333333,-26.434741,41.827899)"><g
       id="g844"
       transform="translate(3.484044,-27.425915)"><g
         id="g846"
         clip-path="url(#clipPath850)"><g
           id="g852"
           transform="translate(14.1729,27.3889)"><path
             d="m 0,0 c -7.287,0 -13.215,-5.928 -13.215,-13.216 0,-7.286 5.928,-13.215 13.215,-13.215 7.287,0 13.216,5.929 13.216,13.215 C 13.216,-5.928 7.287,0 0,0"
             style="fill:#363f41;fill-opacity:1;fill-rule:nonzero;stroke:none"
             id="path854"
             inkscape:connector-curvature="0" /></g><g
           id="g856"
           transform="translate(22.0322,17.0535)"><path
             d="M 0,0 H 6.314 V -2.223 -5.761 H 0 l 1.038,2.881 z"
             style="fill:#828487;fill-opacity:1;fill-rule:nonzero;stroke:none"
             id="path858"
             inkscape:connector-curvature="0" /></g><g
           id="g860"
           transform="translate(6.3145,17.0535)"><path
             d="M 0,0 H -6.314 V -2.223 -5.761 H 0 l -1.039,2.881 z"
             style="fill:#828487;fill-opacity:1;fill-rule:nonzero;stroke:none"
             id="path862"
             inkscape:connector-curvature="0" /></g><g
           id="g864"
           transform="translate(25.709,15.4773)"><path
             d="M 0,0 -0.412,-0.858 -1.333,-0.996 -0.667,-1.665 -0.824,-2.608 0,-2.162 0.823,-2.608 0.666,-1.665 1.333,-0.996 0.412,-0.858 Z"
             style="fill:#ffffff;fill-opacity:1;fill-rule:nonzero;stroke:none"
             id="path866"
             inkscape:connector-curvature="0" /></g><g
           id="g868"
           transform="translate(2.6372,15.4773)"><path
             d="M 0,0 0.412,-0.858 1.333,-0.996 0.668,-1.665 0.824,-2.608 0,-2.162 l -0.823,-0.446 0.157,0.943 -0.667,0.669 0.921,0.138 z"
             style="fill:#ffffff;fill-opacity:1;fill-rule:nonzero;stroke:none"
             id="path870"
             inkscape:connector-curvature="0" /></g><g
           id="g872"
           transform="translate(14.3911,15.0403)"><path
             d="M 0,0 C -0.39,0.321 -1.261,0.825 -0.528,1.857 0.207,2.889 0.756,3.095 0.894,3.806 1.032,4.517 0.458,5.067 -0.481,5.319 0.068,4.7 0.458,4.196 -0.184,3.554 -1.044,2.693 -1.421,2.431 -1.536,2.316 -1.651,2.201 -3.026,1.146 0,0"
             style="fill:#ffffff;fill-opacity:1;fill-rule:nonzero;stroke:none"
             id="path874"
             inkscape:connector-curvature="0" /></g><g
           id="g876"
           transform="translate(11.6982,14.2034)"><path
             d="M 0,0 C -0.019,-1.451 0.185,-2.477 0.371,-3.075 0.074,-2.206 -0.333,-1.244 -0.353,0 Z m 5.529,-0.885 c 0.546,-0.054 0.596,-0.324 0.596,-0.622 0,-0.405 -0.417,-0.752 -0.944,-0.82 0.153,0.445 0.271,0.929 0.348,1.442 M 4.611,-3.73 c 0.142,0.207 0.272,0.573 0.388,0.844 0.85,0.002 1.516,0.658 1.516,1.379 0,0.812 -0.475,1.013 -0.929,1.062 C 5.607,-0.228 5.623,0 5.63,0.207 h -6.46 c 0.045,-1.451 0.428,-2.901 1.019,-3.937 z"
             style="fill:#ffffff;fill-opacity:1;fill-rule:nonzero;stroke:none"
             id="path878"
             inkscape:connector-curvature="0" /></g><g
           id="g880"
           transform="translate(9.7363,10.0593)"><path
             d="M 0,0 1.789,-0.829 H 7.085 L 8.874,0 Z"
             style="fill:#ffffff;fill-opacity:1;fill-rule:nonzero;stroke:none"
             id="path882"
             inkscape:connector-curvature="0" /></g></g></g><text
       transform="matrix(0.65249709,0.75779123,0.75779123,-0.65249709,6.895,19.2646)"
       style="font-variant:normal;font-weight:300;font-stretch:normal;font-size:3.4294405px;font-family:'Montserrat Light';-inkscape-font-specification:Montserrat-Light;writing-mode:lr-tb;fill:#ffffff;fill-opacity:1;fill-rule:nonzero;stroke:none"
       id="text886"><tspan
         x="0"
         y="0"
         id="tspan884">L</tspan></text>
<text
       transform="matrix(0.75774998,0.65254499,0.65254499,-0.75774998,8.1543,20.6523)"
       style="font-variant:normal;font-weight:300;font-stretch:normal;font-size:3.42949533px;font-family:'Montserrat Light';-inkscape-font-specification:Montserrat-Light;writing-mode:lr-tb;fill:#ffffff;fill-opacity:1;fill-rule:nonzero;stroke:none"
       id="text890"><tspan
         x="0"
         y="0"
         id="tspan888">’</tspan></text>
<text
       transform="matrix(0.82689179,0.56236106,0.56236106,-0.82689179,8.7969,21.2051)"
       style="font-variant:normal;font-weight:300;font-stretch:normal;font-size:3.42946935px;font-family:'Montserrat Light';-inkscape-font-specification:Montserrat-Light;writing-mode:lr-tb;fill:#ffffff;fill-opacity:1;fill-rule:nonzero;stroke:none"
       id="text894"><tspan
         x="0"
         y="0"
         id="tspan892">I</tspan></text>
<text
       transform="matrix(0.92564493,0.37839327,0.37839327,-0.92564493,9.5713,21.8418)"
       style="font-variant:normal;font-weight:300;font-stretch:normal;font-size:3.42950082px;font-family:'Montserrat Light';-inkscape-font-specification:Montserrat-Light;writing-mode:lr-tb;fill:#ffffff;fill-opacity:1;fill-rule:nonzero;stroke:none"
       id="text898"><tspan
         x="0"
         y="0"
         id="tspan896">N</tspan></text>
<text
       transform="matrix(0.99200866,0.12616976,0.12616976,-0.99200866,12.0063,22.8081)"
       style="font-variant:normal;font-weight:300;font-stretch:normal;font-size:3.4295063px;font-family:'Montserrat Light';-inkscape-font-specification:Montserrat-Light;writing-mode:lr-tb;fill:#ffffff;fill-opacity:1;fill-rule:nonzero;stroke:none"
       id="text902"><tspan
         x="0"
         y="0"
         id="tspan900">S</tspan></text>
<text
       transform="matrix(0.99549665,-0.09479671,-0.09479671,-0.99549665,14.0688,23.061)"
       style="font-variant:normal;font-weight:300;font-stretch:normal;font-size:3.42944407px;font-family:'Montserrat Light';-inkscape-font-specification:Montserrat-Light;writing-mode:lr-tb;fill:#ffffff;fill-opacity:1;fill-rule:nonzero;stroke:none"
       id="text906"><tspan
         x="0"
         y="0"
         id="tspan904">T</tspan></text>
<text
       transform="matrix(0.95013978,-0.3118243,-0.3118243,-0.95013978,15.7593,22.9561)"
       style="font-variant:normal;font-weight:300;font-stretch:normal;font-size:3.42949533px;font-family:'Montserrat Light';-inkscape-font-specification:Montserrat-Light;writing-mode:lr-tb;fill:#ffffff;fill-opacity:1;fill-rule:nonzero;stroke:none"
       id="text910"><tspan
         x="0"
         y="0"
         id="tspan908">A</tspan></text>
<text
       transform="matrix(0.66365408,-0.74803962,-0.74803962,-0.66365408,20.1489,20.751)"
       style="font-variant:normal;font-weight:300;font-stretch:normal;font-size:3.42949748px;font-family:'Montserrat Light';-inkscape-font-specification:Montserrat-Light;writing-mode:lr-tb;fill:#ffffff;fill-opacity:1;fill-rule:nonzero;stroke:none"
       id="text918"><tspan
         x="0"
         y="0"
         id="tspan916">T</tspan></text>
<text
       transform="matrix(0.52708645,-0.84981167,-0.84981167,-0.52708645,4.0396,9.04)"
       style="font-variant:normal;font-weight:300;font-stretch:normal;font-size:2.972188px;font-family:'Montserrat Light';-inkscape-font-specification:Montserrat-Light;writing-mode:lr-tb;fill:#ffffff;fill-opacity:1;fill-rule:nonzero;stroke:none"
       id="text922"><tspan
         x="0"
         y="0"
         id="tspan920">E</tspan></text>
<text
       transform="matrix(0.71553456,-0.69857733,-0.69857733,-0.71553456,5.4224,6.9014)"
       style="font-variant:normal;font-weight:300;font-stretch:normal;font-size:2.97218347px;font-family:'Montserrat Light';-inkscape-font-specification:Montserrat-Light;writing-mode:lr-tb;fill:#ffffff;fill-opacity:1;fill-rule:nonzero;stroke:none"
       id="text926"><tspan
         x="0"
         y="0"
         id="tspan924">N</tspan></text>
<text
       transform="matrix(0.91237546,-0.40935439,-0.40935439,-0.91237546,8.5977,4.2686)"
       style="font-variant:normal;font-weight:300;font-stretch:normal;font-size:2.97224116px;font-family:'Montserrat Light';-inkscape-font-specification:Montserrat-Light;writing-mode:lr-tb;fill:#ffffff;fill-opacity:1;fill-rule:nonzero;stroke:none"
       id="text930"><tspan
         x="0"
         y="0"
         id="tspan928">C</tspan></text>
<text
       transform="matrix(0.98601119,-0.16667916,-0.16667916,-0.98601119,11.085,3.2148)"
       style="font-variant:normal;font-weight:300;font-stretch:normal;font-size:2.97217727px;font-family:'Montserrat Light';-inkscape-font-specification:Montserrat-Light;writing-mode:lr-tb;fill:#ffffff;fill-opacity:1;fill-rule:nonzero;stroke:none"
       id="text934"><tspan
         x="0"
         y="0"
         id="tspan932">O</tspan></text>
<text
       transform="matrix(0.99199584,0.12627053,0.12627053,-0.99199584,14.2554,2.7744)"
       style="font-variant:normal;font-weight:300;font-stretch:normal;font-size:2.9721899px;font-family:'Montserrat Light';-inkscape-font-specification:Montserrat-Light;writing-mode:lr-tb;fill:#ffffff;fill-opacity:1;fill-rule:nonzero;stroke:none"
       id="text938"><tspan
         x="0"
         y="0"
         id="tspan936">M</tspan></text>
<g
       id="g952"
       transform="translate(-44.012359,-28.314948)"
       inkscape:export-filename="/home/olivier/devs/genvisu/genvisu/modeles/visuels/iec/preview.png"
       inkscape:export-xdpi="650.26001"
       inkscape:export-ydpi="650.26001"><g
         id="g954"
         clip-path="url(#clipPath958)"><g
           id="g960"
           transform="translate(14.1729,27.3889)"><path
             d="m 0,0 c -7.287,0 -13.215,-5.928 -13.215,-13.216 0,-7.286 5.928,-13.215 13.215,-13.215 7.287,0 13.216,5.929 13.216,13.215 C 13.216,-5.928 7.287,0 0,0"
             style="fill:#363f41;fill-opacity:1;fill-rule:nonzero;stroke:none"
             id="path962"
             inkscape:connector-curvature="0" /></g><g
           id="g964"
           transform="translate(22.0322,17.0535)"><path
             d="M 0,0 H 6.314 V -2.223 -5.761 H 0 l 1.038,2.881 z"
             style="fill:#828487;fill-opacity:1;fill-rule:nonzero;stroke:none"
             id="path966"
             inkscape:connector-curvature="0" /></g><g
           id="g968"
           transform="translate(6.3145,17.0535)"><path
             d="M 0,0 H -6.314 V -2.223 -5.761 H 0 l -1.039,2.881 z"
             style="fill:#828487;fill-opacity:1;fill-rule:nonzero;stroke:none"
             id="path970"
             inkscape:connector-curvature="0" /></g><g
           id="g972"
           transform="translate(25.709,15.4773)"><path
             d="M 0,0 -0.412,-0.858 -1.333,-0.996 -0.667,-1.665 -0.824,-2.608 0,-2.162 0.823,-2.608 0.666,-1.665 1.333,-0.996 0.412,-0.858 Z"
             style="fill:#ffffff;fill-opacity:1;fill-rule:nonzero;stroke:none"
             id="path974"
             inkscape:connector-curvature="0" /></g><g
           id="g976"
           transform="translate(2.6372,15.4773)"><path
             d="M 0,0 0.412,-0.858 1.333,-0.996 0.668,-1.665 0.824,-2.608 0,-2.162 l -0.823,-0.446 0.157,0.943 -0.667,0.669 0.921,0.138 z"
             style="fill:#ffffff;fill-opacity:1;fill-rule:nonzero;stroke:none"
             id="path978"
             inkscape:connector-curvature="0" /></g><g
           id="g980"
           transform="translate(14.3911,15.0403)"><path
             d="M 0,0 C -0.39,0.321 -1.261,0.825 -0.528,1.857 0.207,2.889 0.756,3.095 0.894,3.806 1.032,4.517 0.458,5.067 -0.481,5.319 0.068,4.7 0.458,4.196 -0.184,3.554 -1.044,2.693 -1.421,2.431 -1.536,2.316 -1.651,2.201 -3.026,1.146 0,0"
             style="fill:#ffffff;fill-opacity:1;fill-rule:nonzero;stroke:none"
             id="path982"
             inkscape:connector-curvature="0" /></g><g
           id="g984"
           transform="translate(11.6982,14.2034)"><path
             d="M 0,0 C -0.019,-1.451 0.185,-2.477 0.371,-3.075 0.074,-2.206 -0.333,-1.244 -0.353,0 Z m 5.529,-0.885 c 0.546,-0.054 0.596,-0.324 0.596,-0.622 0,-0.405 -0.417,-0.752 -0.944,-0.82 0.153,0.445 0.271,0.929 0.348,1.442 M 4.611,-3.73 c 0.142,0.207 0.272,0.573 0.388,0.844 0.85,0.002 1.516,0.658 1.516,1.379 0,0.812 -0.475,1.013 -0.929,1.062 C 5.607,-0.228 5.623,0 5.63,0.207 h -6.46 c 0.045,-1.451 0.428,-2.901 1.019,-3.937 z"
             style="fill:#ffffff;fill-opacity:1;fill-rule:nonzero;stroke:none"
             id="path986"
             inkscape:connector-curvature="0" /></g><g
           id="g988"
           transform="translate(9.7363,10.0593)"><path
             d="M 0,0 1.789,-0.829 H 7.085 L 8.874,0 Z"
             style="fill:#ffffff;fill-opacity:1;fill-rule:nonzero;stroke:none"
             id="path990"
             inkscape:connector-curvature="0" /></g><g
           id="g992"
           transform="translate(5.4966,21.3172)"><path
             d="M 0,0 1.624,-1.404 2.313,-0.608 2.504,-0.774 1.636,-1.777 -0.18,-0.208 Z"
             style="fill:#ffffff;fill-opacity:1;fill-rule:nonzero;stroke:none"
             id="path994"
             inkscape:connector-curvature="0" /></g><g
           id="g996"
           transform="translate(7.0801,22.6702)"><path
             d="m 0,0 c 0.036,-0.042 0.05,-0.089 0.056,-0.143 l 0.037,-0.289 -0.114,-0.099 -0.076,0.261 c -0.057,-0.013 -0.111,0.013 -0.149,0.057 -0.066,0.075 -0.061,0.174 0.01,0.235 C -0.169,0.081 -0.069,0.081 0,0"
             style="fill:#ffffff;fill-opacity:1;fill-rule:nonzero;stroke:none"
             id="path998"
             inkscape:connector-curvature="0" /></g><g
           id="g1000"
           transform="translate(7.979,23.5491)"><path
             d="M 0,0 1.346,-1.987 1.119,-2.141 -0.227,-0.154 Z"
             style="fill:#ffffff;fill-opacity:1;fill-rule:nonzero;stroke:none"
             id="path1002"
             inkscape:connector-curvature="0" /></g><g
           id="g1004"
           transform="translate(9.2632,24.3084)"><path
             d="M 0,0 2.071,-1.261 1.333,0.545 1.584,0.647 2.492,-1.574 2.231,-1.681 0.162,-0.423 0.898,-2.226 0.645,-2.329 -0.263,-0.107 Z"
             style="fill:#ffffff;fill-opacity:1;fill-rule:nonzero;stroke:none"
             id="path1006"
             inkscape:connector-curvature="0" /></g><g
           id="g1008"
           transform="translate(12.7905,25.0667)"><path
             d="m 0,0 c -0.306,-0.039 -0.491,-0.186 -0.466,-0.391 0.078,-0.619 1.378,-0.127 1.484,-0.992 0.048,-0.394 -0.269,-0.694 -0.78,-0.758 -0.347,-0.044 -0.706,0.063 -0.958,0.25 l 0.093,0.25 c 0.248,-0.183 0.566,-0.268 0.835,-0.234 0.344,0.043 0.541,0.209 0.511,0.441 -0.076,0.637 -1.374,0.132 -1.482,0.986 -0.047,0.374 0.254,0.654 0.747,0.716 C 0.26,0.302 0.553,0.249 0.767,0.141 L 0.682,-0.115 C 0.45,-0.002 0.191,0.024 0,0"
             style="fill:#ffffff;fill-opacity:1;fill-rule:nonzero;stroke:none"
             id="path1010"
             inkscape:connector-curvature="0" /></g><g
           id="g1012"
           transform="translate(16.167,25.2776)"><path
             d="m 0,0 -0.024,-0.253 -0.783,0.074 -0.201,-2.14 -0.274,0.026 0.202,2.139 -0.78,0.073 0.024,0.253 z"
             style="fill:#ffffff;fill-opacity:1;fill-rule:nonzero;stroke:none"
             id="path1014"
             inkscape:connector-curvature="0" /></g><g
           id="g1016"
           transform="translate(17.7148,23.2307)"><path
             d="M 0,0 -0.135,1.345 -1.032,0.337 Z m 0.025,-0.276 -1.244,0.407 -0.445,-0.501 -0.278,0.091 1.773,1.95 0.271,-0.088 0.274,-2.621 -0.283,0.093 z"
             style="fill:#ffffff;fill-opacity:1;fill-rule:nonzero;stroke:none"
             id="path1018"
             inkscape:connector-curvature="0" /></g><g
           id="g1020"
           transform="translate(19.8643,23.8884)"><path
             d="m 0,0 0.099,-2.423 1.093,1.615 0.225,-0.151 -1.347,-1.987 -0.232,0.157 -0.1,2.42 -1.092,-1.612 -0.227,0.154 1.346,1.986 z"
             style="fill:#ffffff;fill-opacity:1;fill-rule:nonzero;stroke:none"
             id="path1022"
             inkscape:connector-curvature="0" /></g><g
           id="g1024"
           transform="translate(23.1895,20.9373)"><path
             d="m 0,0 -0.189,-0.168 -0.521,0.587 -1.604,-1.423 -0.183,0.205 1.605,1.423 -0.518,0.584 0.189,0.169 z"
             style="fill:#ffffff;fill-opacity:1;fill-rule:nonzero;stroke:none"
             id="path1026"
             inkscape:connector-curvature="0" /></g><g
           id="g1028"
           transform="translate(6.7251,8.6687)"><path
             d="m 0,0 -0.187,-0.117 -0.621,1.001 -0.595,-0.369 0.554,-0.895 -0.184,-0.114 -0.555,0.893 -0.618,-0.382 0.641,-1.035 -0.187,-0.116 -0.768,1.237 1.773,1.1 z"
             style="fill:#ffffff;fill-opacity:1;fill-rule:nonzero;stroke:none"
             id="path1030"
             inkscape:connector-curvature="0" /></g><g
           id="g1032"
           transform="translate(7.2759,7.9939)"><path
             d="m 0,0 -0.29,-2.079 1.181,1.207 0.168,-0.164 -1.454,-1.485 -0.173,0.17 0.288,2.077 -1.179,-1.205 -0.17,0.167 1.453,1.484 z"
             style="fill:#ffffff;fill-opacity:1;fill-rule:nonzero;stroke:none"
             id="path1034"
             inkscape:connector-curvature="0" /></g><g
           id="g1036"
           transform="translate(10.4683,5.4812)"><path
             d="m 0,0 c -0.429,0.192 -0.924,0.014 -1.113,-0.407 -0.188,-0.418 0.004,-0.913 0.433,-1.106 0.209,-0.094 0.452,-0.098 0.665,-0.024 l 0.068,-0.204 c -0.266,-0.093 -0.572,-0.089 -0.835,0.029 -0.549,0.247 -0.793,0.866 -0.551,1.403 0.239,0.533 0.868,0.756 1.419,0.508 0.261,-0.117 0.466,-0.337 0.571,-0.59 L 0.456,-0.489 C 0.375,-0.276 0.209,-0.094 0,0"
             style="fill:#ffffff;fill-opacity:1;fill-rule:nonzero;stroke:none"
             id="path1038"
             inkscape:connector-curvature="0" /></g><g
           id="g1040"
           transform="translate(11.6104,4.1804)"><path
             d="M 0,0 C -0.076,-0.453 0.244,-0.883 0.701,-0.959 1.158,-1.035 1.594,-0.732 1.67,-0.277 1.746,0.176 1.431,0.6 0.974,0.676 0.517,0.752 0.076,0.455 0,0 M 1.91,-0.318 C 1.814,-0.895 1.263,-1.273 0.666,-1.174 0.065,-1.073 -0.333,-0.537 -0.237,0.04 -0.141,0.617 0.409,0.992 1.01,0.893 1.607,0.793 2.006,0.26 1.91,-0.318"
             style="fill:#ffffff;fill-opacity:1;fill-rule:nonzero;stroke:none"
             id="path1042"
             inkscape:connector-curvature="0" /></g><g
           id="g1044"
           transform="translate(14.5923,4.9138)"><path
             d="M 0,0 0.948,-1.398 1.505,0.195 1.793,0.232 2.061,-1.829 1.843,-1.857 1.618,-0.144 1.061,-1.737 0.919,-1.756 l -0.942,1.4 0.222,-1.714 -0.223,-0.03 -0.268,2.062 z"
             style="fill:#ffffff;fill-opacity:1;fill-rule:nonzero;stroke:none"
             id="path1046"
             inkscape:connector-curvature="0" /></g><g
           id="g1048"
           transform="translate(17.4678,5.5105)"><path
             d="M 0,0 1.339,-1.036 1.372,0.655 1.636,0.78 2.533,-1.1 2.334,-1.194 1.585,0.367 1.552,-1.323 1.423,-1.385 0.09,-0.347 0.836,-1.909 0.631,-2.007 l -0.897,1.88 z"
             style="fill:#ffffff;fill-opacity:1;fill-rule:nonzero;stroke:none"
             id="path1050"
             inkscape:connector-curvature="0" /></g><g
           id="g1052"
           transform="translate(21.5957,5.907)"><path
             d="M 0,0 C 0.294,0.264 0.312,0.6 0.039,0.904 L -0.778,1.816 -0.602,1.975 0.216,1.063 C 0.579,0.658 0.55,0.201 0.145,-0.162 c -0.408,-0.365 -0.867,-0.346 -1.23,0.058 l -0.817,0.913 0.176,0.158 0.818,-0.911 C -0.635,-0.25 -0.294,-0.265 0,0"
             style="fill:#ffffff;fill-opacity:1;fill-rule:nonzero;stroke:none"
             id="path1054"
             inkscape:connector-curvature="0" /></g><g
           id="g1056"
           transform="translate(21.6016,8.657)"><path
             d="M 0,0 2.104,0.131 0.68,1.051 0.808,1.248 2.56,0.116 2.427,-0.089 0.326,-0.222 1.747,-1.14 1.618,-1.34 -0.134,-0.208 Z"
             style="fill:#ffffff;fill-opacity:1;fill-rule:nonzero;stroke:none"
             id="path1058"
             inkscape:connector-curvature="0" /></g></g></g><g
       id="g1060"
       transform="translate(19.825556,3.9820248)"><g
         id="g1062"
         clip-path="url(#clipPath1066)"><g
           id="g1068"
           transform="translate(14.1729,27.3889)"><path
             d="m 0,0 c -7.287,0 -13.215,-5.928 -13.215,-13.216 0,-7.286 5.928,-13.215 13.215,-13.215 7.287,0 13.216,5.929 13.216,13.215 C 13.216,-5.928 7.287,0 0,0"
             style="fill:#363f41;fill-opacity:1;fill-rule:nonzero;stroke:none"
             id="path1070"
             inkscape:connector-curvature="0" /></g><g
           id="g1072"
           transform="translate(22.0322,17.0535)"><path
             d="M 0,0 H 6.314 V -2.223 -5.761 H 0 l 1.038,2.881 z"
             style="fill:#9e6dab;fill-opacity:1;fill-rule:nonzero;stroke:none"
             id="path1074"
             inkscape:connector-curvature="0" /></g><g
           id="g1076"
           transform="translate(6.3145,17.0535)"><path
             d="M 0,0 H -6.314 V -2.223 -5.761 H 0 l -1.039,2.881 z"
             style="fill:#9e6dab;fill-opacity:1;fill-rule:nonzero;stroke:none"
             id="path1078"
             inkscape:connector-curvature="0" /></g><g
           id="g1080"
           transform="translate(25.709,15.4773)"><path
             d="M 0,0 -0.412,-0.858 -1.333,-0.996 -0.667,-1.665 -0.824,-2.608 0,-2.162 0.823,-2.608 0.666,-1.665 1.333,-0.996 0.412,-0.858 Z"
             style="fill:#ffffff;fill-opacity:1;fill-rule:nonzero;stroke:none"
             id="path1082"
             inkscape:connector-curvature="0" /></g><g
           id="g1084"
           transform="translate(2.6372,15.4773)"><path
             d="M 0,0 0.412,-0.858 1.333,-0.996 0.668,-1.665 0.824,-2.608 0,-2.162 l -0.823,-0.446 0.157,0.943 -0.667,0.669 0.921,0.138 z"
             style="fill:#ffffff;fill-opacity:1;fill-rule:nonzero;stroke:none"
             id="path1086"
             inkscape:connector-curvature="0" /></g><g
           id="g1088"
           transform="translate(14.3911,15.0403)"><path
             d="M 0,0 C -0.39,0.321 -1.261,0.825 -0.528,1.857 0.207,2.889 0.756,3.095 0.894,3.806 1.032,4.517 0.458,5.067 -0.481,5.319 0.068,4.7 0.458,4.196 -0.184,3.554 -1.044,2.693 -1.421,2.431 -1.536,2.316 -1.651,2.201 -3.026,1.146 0,0"
             style="fill:#ffffff;fill-opacity:1;fill-rule:nonzero;stroke:none"
             id="path1090"
             inkscape:connector-curvature="0" /></g><g
           id="g1092"
           transform="translate(11.6982,14.2034)"><path
             d="M 0,0 C -0.019,-1.451 0.185,-2.477 0.371,-3.075 0.074,-2.206 -0.333,-1.244 -0.353,0 Z m 5.529,-0.885 c 0.546,-0.054 0.596,-0.324 0.596,-0.622 0,-0.405 -0.417,-0.752 -0.944,-0.82 0.153,0.445 0.271,0.929 0.348,1.442 M 4.611,-3.73 c 0.142,0.207 0.272,0.573 0.388,0.844 0.85,0.002 1.516,0.658 1.516,1.379 0,0.812 -0.475,1.013 -0.929,1.062 C 5.607,-0.228 5.623,0 5.63,0.207 h -6.46 c 0.045,-1.451 0.428,-2.901 1.019,-3.937 z"
             style="fill:#ffffff;fill-opacity:1;fill-rule:nonzero;stroke:none"
             id="path1094"
             inkscape:connector-curvature="0" /></g><g
           id="g1096"
           transform="translate(9.7363,10.0593)"><path
             d="M 0,0 1.789,-0.829 H 7.085 L 8.874,0 Z"
             style="fill:#ffffff;fill-opacity:1;fill-rule:nonzero;stroke:none"
             id="path1098"
             inkscape:connector-curvature="0" /></g><g
           id="g1100"
           transform="translate(5.4966,21.3172)"><path
             d="M 0,0 1.624,-1.404 2.313,-0.608 2.504,-0.774 1.636,-1.777 -0.18,-0.208 Z"
             style="fill:#ffffff;fill-opacity:1;fill-rule:nonzero;stroke:none"
             id="path1102"
             inkscape:connector-curvature="0" /></g><g
           id="g1104"
           transform="translate(7.0801,22.6702)"><path
             d="m 0,0 c 0.036,-0.042 0.05,-0.089 0.056,-0.143 l 0.037,-0.289 -0.114,-0.099 -0.076,0.261 c -0.057,-0.013 -0.111,0.013 -0.149,0.057 -0.066,0.075 -0.061,0.174 0.01,0.235 C -0.169,0.081 -0.069,0.081 0,0"
             style="fill:#ffffff;fill-opacity:1;fill-rule:nonzero;stroke:none"
             id="path1106"
             inkscape:connector-curvature="0" /></g><g
           id="g1108"
           transform="translate(7.979,23.5491)"><path
             d="M 0,0 1.346,-1.987 1.119,-2.141 -0.227,-0.154 Z"
             style="fill:#ffffff;fill-opacity:1;fill-rule:nonzero;stroke:none"
             id="path1110"
             inkscape:connector-curvature="0" /></g><g
           id="g1112"
           transform="translate(9.2632,24.3084)"><path
             d="M 0,0 2.071,-1.261 1.333,0.545 1.584,0.647 2.492,-1.574 2.231,-1.681 0.162,-0.423 0.898,-2.226 0.645,-2.329 -0.263,-0.107 Z"
             style="fill:#ffffff;fill-opacity:1;fill-rule:nonzero;stroke:none"
             id="path1114"
             inkscape:connector-curvature="0" /></g><g
           id="g1116"
           transform="translate(12.7905,25.0667)"><path
             d="m 0,0 c -0.306,-0.039 -0.491,-0.186 -0.466,-0.391 0.078,-0.619 1.378,-0.127 1.484,-0.992 0.048,-0.394 -0.269,-0.694 -0.78,-0.758 -0.347,-0.044 -0.706,0.063 -0.958,0.25 l 0.093,0.25 c 0.248,-0.183 0.566,-0.268 0.835,-0.234 0.344,0.043 0.541,0.209 0.511,0.441 -0.076,0.637 -1.374,0.132 -1.482,0.986 -0.047,0.374 0.254,0.654 0.747,0.716 C 0.26,0.302 0.553,0.249 0.767,0.141 L 0.682,-0.115 C 0.45,-0.002 0.191,0.024 0,0"
             style="fill:#ffffff;fill-opacity:1;fill-rule:nonzero;stroke:none"
             id="path1118"
             inkscape:connector-curvature="0" /></g><g
           id="g1120"
           transform="translate(16.167,25.2776)"><path
             d="m 0,0 -0.024,-0.253 -0.783,0.074 -0.201,-2.14 -0.274,0.026 0.202,2.139 -0.78,0.073 0.024,0.253 z"
             style="fill:#ffffff;fill-opacity:1;fill-rule:nonzero;stroke:none"
             id="path1122"
             inkscape:connector-curvature="0" /></g><g
           id="g1124"
           transform="translate(17.7148,23.2307)"><path
             d="M 0,0 -0.135,1.345 -1.032,0.337 Z m 0.025,-0.276 -1.244,0.407 -0.445,-0.501 -0.278,0.091 1.773,1.95 0.271,-0.088 0.274,-2.621 -0.283,0.093 z"
             style="fill:#ffffff;fill-opacity:1;fill-rule:nonzero;stroke:none"
             id="path1126"
             inkscape:connector-curvature="0" /></g><g
           id="g1128"
           transform="translate(19.8643,23.8884)"><path
             d="m 0,0 0.099,-2.423 1.093,1.615 0.225,-0.151 -1.347,-1.987 -0.232,0.157 -0.1,2.42 -1.092,-1.612 -0.227,0.154 1.346,1.986 z"
             style="fill:#ffffff;fill-opacity:1;fill-rule:nonzero;stroke:none"
             id="path1130"
             inkscape:connector-curvature="0" /></g><g
           id="g1132"
           transform="translate(23.1895,20.9373)"><path
             d="m 0,0 -0.189,-0.168 -0.521,0.587 -1.604,-1.423 -0.183,0.205 1.605,1.423 -0.518,0.584 0.189,0.169 z"
             style="fill:#ffffff;fill-opacity:1;fill-rule:nonzero;stroke:none"
             id="path1134"
             inkscape:connector-curvature="0" /></g><g
           id="g1136"
           transform="translate(6.7251,8.6687)"><path
             d="m 0,0 -0.187,-0.117 -0.621,1.001 -0.595,-0.369 0.554,-0.895 -0.184,-0.114 -0.555,0.893 -0.618,-0.382 0.641,-1.035 -0.187,-0.116 -0.768,1.237 1.773,1.1 z"
             style="fill:#ffffff;fill-opacity:1;fill-rule:nonzero;stroke:none"
             id="path1138"
             inkscape:connector-curvature="0" /></g><g
           id="g1140"
           transform="translate(7.2759,7.9939)"><path
             d="m 0,0 -0.29,-2.079 1.181,1.207 0.168,-0.164 -1.454,-1.485 -0.173,0.17 0.288,2.077 -1.179,-1.205 -0.17,0.167 1.453,1.484 z"
             style="fill:#ffffff;fill-opacity:1;fill-rule:nonzero;stroke:none"
             id="path1142"
             inkscape:connector-curvature="0" /></g><g
           id="g1144"
           transform="translate(10.4683,5.4812)"><path
             d="m 0,0 c -0.429,0.192 -0.924,0.014 -1.113,-0.407 -0.188,-0.418 0.004,-0.913 0.433,-1.106 0.209,-0.094 0.452,-0.098 0.665,-0.024 l 0.068,-0.204 c -0.266,-0.093 -0.572,-0.089 -0.835,0.029 -0.549,0.247 -0.793,0.866 -0.551,1.403 0.239,0.533 0.868,0.756 1.419,0.508 0.261,-0.117 0.466,-0.337 0.571,-0.59 L 0.456,-0.489 C 0.375,-0.276 0.209,-0.094 0,0"
             style="fill:#ffffff;fill-opacity:1;fill-rule:nonzero;stroke:none"
             id="path1146"
             inkscape:connector-curvature="0" /></g><g
           id="g1148"
           transform="translate(11.6104,4.1804)"><path
             d="M 0,0 C -0.076,-0.453 0.244,-0.883 0.701,-0.959 1.158,-1.035 1.594,-0.732 1.67,-0.277 1.746,0.176 1.431,0.6 0.974,0.676 0.517,0.752 0.076,0.455 0,0 M 1.91,-0.318 C 1.814,-0.895 1.263,-1.273 0.666,-1.174 0.065,-1.073 -0.333,-0.537 -0.237,0.04 -0.141,0.617 0.409,0.992 1.01,0.893 1.607,0.793 2.006,0.26 1.91,-0.318"
             style="fill:#ffffff;fill-opacity:1;fill-rule:nonzero;stroke:none"
             id="path1150"
             inkscape:connector-curvature="0" /></g><g
           id="g1152"
           transform="translate(14.5923,4.9138)"><path
             d="M 0,0 0.948,-1.398 1.505,0.195 1.793,0.232 2.061,-1.829 1.843,-1.857 1.618,-0.144 1.061,-1.737 0.919,-1.756 l -0.942,1.4 0.222,-1.714 -0.223,-0.03 -0.268,2.062 z"
             style="fill:#ffffff;fill-opacity:1;fill-rule:nonzero;stroke:none"
             id="path1154"
             inkscape:connector-curvature="0" /></g><g
           id="g1156"
           transform="translate(17.4678,5.5105)"><path
             d="M 0,0 1.339,-1.036 1.372,0.655 1.636,0.78 2.533,-1.1 2.334,-1.194 1.585,0.367 1.552,-1.323 1.423,-1.385 0.09,-0.347 0.836,-1.909 0.631,-2.007 l -0.897,1.88 z"
             style="fill:#ffffff;fill-opacity:1;fill-rule:nonzero;stroke:none"
             id="path1158"
             inkscape:connector-curvature="0" /></g><g
           id="g1160"
           transform="translate(21.5957,5.907)"><path
             d="M 0,0 C 0.294,0.264 0.312,0.6 0.039,0.904 L -0.778,1.816 -0.602,1.975 0.216,1.063 C 0.579,0.658 0.55,0.201 0.145,-0.162 c -0.408,-0.365 -0.867,-0.346 -1.23,0.058 l -0.817,0.913 0.176,0.158 0.818,-0.911 C -0.635,-0.25 -0.294,-0.265 0,0"
             style="fill:#ffffff;fill-opacity:1;fill-rule:nonzero;stroke:none"
             id="path1162"
             inkscape:connector-curvature="0" /></g><g
           id="g1164"
           transform="translate(21.6016,8.657)"><path
             d="M 0,0 2.104,0.131 0.68,1.051 0.808,1.248 2.56,0.116 2.427,-0.089 0.326,-0.222 1.747,-1.14 1.618,-1.34 -0.134,-0.208 Z"
             style="fill:#ffffff;fill-opacity:1;fill-rule:nonzero;stroke:none"
             id="path1166"
             inkscape:connector-curvature="0" /></g></g></g><g
       id="g1168"
       transform="translate(32.085382,-29.732554)"><g
         id="g1170"
         clip-path="url(#clipPath1174)"><g
           id="g1176"
           transform="translate(14.1729,27.3889)"><path
             d="m 0,0 c -7.287,0 -13.215,-5.928 -13.215,-13.216 0,-7.286 5.928,-13.215 13.215,-13.215 7.287,0 13.216,5.929 13.216,13.215 C 13.216,-5.928 7.287,0 0,0"
             style="fill:#363f41;fill-opacity:1;fill-rule:nonzero;stroke:none"
             id="path1178"
             inkscape:connector-curvature="0" /></g><g
           id="g1180"
           transform="translate(22.0322,17.0535)"><path
             d="M 0,0 H 6.314 V -2.223 -5.761 H 0 l 1.038,2.881 z"
             style="fill:#5a8dcc;fill-opacity:1;fill-rule:nonzero;stroke:none"
             id="path1182"
             inkscape:connector-curvature="0" /></g><g
           id="g1184"
           transform="translate(6.3145,17.0535)"><path
             d="M 0,0 H -6.314 V -2.223 -5.761 H 0 l -1.039,2.881 z"
             style="fill:#5a8dcc;fill-opacity:1;fill-rule:nonzero;stroke:none"
             id="path1186"
             inkscape:connector-curvature="0" /></g><g
           id="g1188"
           transform="translate(25.709,15.4773)"><path
             d="M 0,0 -0.412,-0.858 -1.333,-0.996 -0.667,-1.665 -0.824,-2.608 0,-2.162 0.823,-2.608 0.666,-1.665 1.333,-0.996 0.412,-0.858 Z"
             style="fill:#ffffff;fill-opacity:1;fill-rule:nonzero;stroke:none"
             id="path1190"
             inkscape:connector-curvature="0" /></g><g
           id="g1192"
           transform="translate(2.6372,15.4773)"><path
             d="M 0,0 0.412,-0.858 1.333,-0.996 0.668,-1.665 0.824,-2.608 0,-2.162 l -0.823,-0.446 0.157,0.943 -0.667,0.669 0.921,0.138 z"
             style="fill:#ffffff;fill-opacity:1;fill-rule:nonzero;stroke:none"
             id="path1194"
             inkscape:connector-curvature="0" /></g><g
           id="g1196"
           transform="translate(14.3911,15.0403)"><path
             d="M 0,0 C -0.39,0.321 -1.261,0.825 -0.528,1.857 0.207,2.889 0.756,3.095 0.894,3.806 1.032,4.517 0.458,5.067 -0.481,5.319 0.068,4.7 0.458,4.196 -0.184,3.554 -1.044,2.693 -1.421,2.431 -1.536,2.316 -1.651,2.201 -3.026,1.146 0,0"
             style="fill:#ffffff;fill-opacity:1;fill-rule:nonzero;stroke:none"
             id="path1198"
             inkscape:connector-curvature="0" /></g><g
           id="g1200"
           transform="translate(11.6982,14.2034)"><path
             d="M 0,0 C -0.019,-1.451 0.185,-2.477 0.371,-3.075 0.074,-2.206 -0.333,-1.244 -0.353,0 Z m 5.529,-0.885 c 0.546,-0.054 0.596,-0.324 0.596,-0.622 0,-0.405 -0.417,-0.752 -0.944,-0.82 0.153,0.445 0.271,0.929 0.348,1.442 M 4.611,-3.73 c 0.142,0.207 0.272,0.573 0.388,0.844 0.85,0.002 1.516,0.658 1.516,1.379 0,0.812 -0.475,1.013 -0.929,1.062 C 5.607,-0.228 5.623,0 5.63,0.207 h -6.46 c 0.045,-1.451 0.428,-2.901 1.019,-3.937 z"
             style="fill:#ffffff;fill-opacity:1;fill-rule:nonzero;stroke:none"
             id="path1202"
             inkscape:connector-curvature="0" /></g><g
           id="g1204"
           transform="translate(9.7363,10.0593)"><path
             d="M 0,0 1.789,-0.829 H 7.085 L 8.874,0 Z"
             style="fill:#ffffff;fill-opacity:1;fill-rule:nonzero;stroke:none"
             id="path1206"
             inkscape:connector-curvature="0" /></g><g
           id="g1208"
           transform="translate(5.4966,21.3172)"><path
             d="M 0,0 1.624,-1.404 2.313,-0.608 2.504,-0.774 1.636,-1.777 -0.18,-0.208 Z"
             style="fill:#ffffff;fill-opacity:1;fill-rule:nonzero;stroke:none"
             id="path1210"
             inkscape:connector-curvature="0" /></g><g
           id="g1212"
           transform="translate(7.0801,22.6702)"><path
             d="m 0,0 c 0.036,-0.042 0.05,-0.089 0.056,-0.143 l 0.037,-0.289 -0.114,-0.099 -0.076,0.261 c -0.057,-0.013 -0.111,0.013 -0.149,0.057 -0.066,0.075 -0.061,0.174 0.01,0.235 C -0.169,0.081 -0.069,0.081 0,0"
             style="fill:#ffffff;fill-opacity:1;fill-rule:nonzero;stroke:none"
             id="path1214"
             inkscape:connector-curvature="0" /></g><g
           id="g1216"
           transform="translate(7.979,23.5491)"><path
             d="M 0,0 1.346,-1.987 1.119,-2.141 -0.227,-0.154 Z"
             style="fill:#ffffff;fill-opacity:1;fill-rule:nonzero;stroke:none"
             id="path1218"
             inkscape:connector-curvature="0" /></g><g
           id="g1220"
           transform="translate(9.2632,24.3084)"><path
             d="M 0,0 2.071,-1.261 1.333,0.545 1.584,0.647 2.492,-1.574 2.231,-1.681 0.162,-0.423 0.898,-2.226 0.645,-2.329 -0.263,-0.107 Z"
             style="fill:#ffffff;fill-opacity:1;fill-rule:nonzero;stroke:none"
             id="path1222"
             inkscape:connector-curvature="0" /></g><g
           id="g1224"
           transform="translate(12.7905,25.0667)"><path
             d="m 0,0 c -0.306,-0.039 -0.491,-0.186 -0.466,-0.391 0.078,-0.619 1.378,-0.127 1.484,-0.992 0.048,-0.394 -0.269,-0.694 -0.78,-0.758 -0.347,-0.044 -0.706,0.063 -0.958,0.25 l 0.093,0.25 c 0.248,-0.183 0.566,-0.268 0.835,-0.234 0.344,0.043 0.541,0.209 0.511,0.441 -0.076,0.637 -1.374,0.132 -1.482,0.986 -0.047,0.374 0.254,0.654 0.747,0.716 C 0.26,0.302 0.553,0.249 0.767,0.141 L 0.682,-0.115 C 0.45,-0.002 0.191,0.024 0,0"
             style="fill:#ffffff;fill-opacity:1;fill-rule:nonzero;stroke:none"
             id="path1226"
             inkscape:connector-curvature="0" /></g><g
           id="g1228"
           transform="translate(16.167,25.2776)"><path
             d="m 0,0 -0.024,-0.253 -0.783,0.074 -0.201,-2.14 -0.274,0.026 0.202,2.139 -0.78,0.073 0.024,0.253 z"
             style="fill:#ffffff;fill-opacity:1;fill-rule:nonzero;stroke:none"
             id="path1230"
             inkscape:connector-curvature="0" /></g><g
           id="g1232"
           transform="translate(17.7148,23.2307)"><path
             d="M 0,0 -0.135,1.345 -1.032,0.337 Z m 0.025,-0.276 -1.244,0.407 -0.445,-0.501 -0.278,0.091 1.773,1.95 0.271,-0.088 0.274,-2.621 -0.283,0.093 z"
             style="fill:#ffffff;fill-opacity:1;fill-rule:nonzero;stroke:none"
             id="path1234"
             inkscape:connector-curvature="0" /></g><g
           id="g1236"
           transform="translate(19.8643,23.8884)"><path
             d="m 0,0 0.099,-2.423 1.093,1.615 0.225,-0.151 -1.347,-1.987 -0.232,0.157 -0.1,2.42 -1.092,-1.612 -0.227,0.154 1.346,1.986 z"
             style="fill:#ffffff;fill-opacity:1;fill-rule:nonzero;stroke:none"
             id="path1238"
             inkscape:connector-curvature="0" /></g><g
           id="g1240"
           transform="translate(23.1895,20.9373)"><path
             d="m 0,0 -0.189,-0.168 -0.521,0.587 -1.604,-1.423 -0.183,0.205 1.605,1.423 -0.518,0.584 0.189,0.169 z"
             style="fill:#ffffff;fill-opacity:1;fill-rule:nonzero;stroke:none"
             id="path1242"
             inkscape:connector-curvature="0" /></g><g
           id="g1244"
           transform="translate(6.7251,8.6687)"><path
             d="m 0,0 -0.187,-0.117 -0.621,1.001 -0.595,-0.369 0.554,-0.895 -0.184,-0.114 -0.555,0.893 -0.618,-0.382 0.641,-1.035 -0.187,-0.116 -0.768,1.237 1.773,1.1 z"
             style="fill:#ffffff;fill-opacity:1;fill-rule:nonzero;stroke:none"
             id="path1246"
             inkscape:connector-curvature="0" /></g><g
           id="g1248"
           transform="translate(7.2759,7.9939)"><path
             d="m 0,0 -0.29,-2.079 1.181,1.207 0.168,-0.164 -1.454,-1.485 -0.173,0.17 0.288,2.077 -1.179,-1.205 -0.17,0.167 1.453,1.484 z"
             style="fill:#ffffff;fill-opacity:1;fill-rule:nonzero;stroke:none"
             id="path1250"
             inkscape:connector-curvature="0" /></g><g
           id="g1252"
           transform="translate(10.4683,5.4812)"><path
             d="m 0,0 c -0.429,0.192 -0.924,0.014 -1.113,-0.407 -0.188,-0.418 0.004,-0.913 0.433,-1.106 0.209,-0.094 0.452,-0.098 0.665,-0.024 l 0.068,-0.204 c -0.266,-0.093 -0.572,-0.089 -0.835,0.029 -0.549,0.247 -0.793,0.866 -0.551,1.403 0.239,0.533 0.868,0.756 1.419,0.508 0.261,-0.117 0.466,-0.337 0.571,-0.59 L 0.456,-0.489 C 0.375,-0.276 0.209,-0.094 0,0"
             style="fill:#ffffff;fill-opacity:1;fill-rule:nonzero;stroke:none"
             id="path1254"
             inkscape:connector-curvature="0" /></g><g
           id="g1256"
           transform="translate(11.6104,4.1804)"><path
             d="M 0,0 C -0.076,-0.453 0.244,-0.883 0.701,-0.959 1.158,-1.035 1.594,-0.732 1.67,-0.277 1.746,0.176 1.431,0.6 0.974,0.676 0.517,0.752 0.076,0.455 0,0 M 1.91,-0.318 C 1.814,-0.895 1.263,-1.273 0.666,-1.174 0.065,-1.073 -0.333,-0.537 -0.237,0.04 -0.141,0.617 0.409,0.992 1.01,0.893 1.607,0.793 2.006,0.26 1.91,-0.318"
             style="fill:#ffffff;fill-opacity:1;fill-rule:nonzero;stroke:none"
             id="path1258"
             inkscape:connector-curvature="0" /></g><g
           id="g1260"
           transform="translate(14.5923,4.9138)"><path
             d="M 0,0 0.948,-1.398 1.505,0.195 1.793,0.232 2.061,-1.829 1.843,-1.857 1.618,-0.144 1.061,-1.737 0.919,-1.756 l -0.942,1.4 0.222,-1.714 -0.223,-0.03 -0.268,2.062 z"
             style="fill:#ffffff;fill-opacity:1;fill-rule:nonzero;stroke:none"
             id="path1262"
             inkscape:connector-curvature="0" /></g><g
           id="g1264"
           transform="translate(17.4678,5.5105)"><path
             d="M 0,0 1.339,-1.036 1.372,0.655 1.636,0.78 2.533,-1.1 2.334,-1.194 1.585,0.367 1.552,-1.323 1.423,-1.385 0.09,-0.347 0.836,-1.909 0.631,-2.007 l -0.897,1.88 z"
             style="fill:#ffffff;fill-opacity:1;fill-rule:nonzero;stroke:none"
             id="path1266"
             inkscape:connector-curvature="0" /></g><g
           id="g1268"
           transform="translate(21.5957,5.907)"><path
             d="M 0,0 C 0.294,0.264 0.312,0.6 0.039,0.904 L -0.778,1.816 -0.602,1.975 0.216,1.063 C 0.579,0.658 0.55,0.201 0.145,-0.162 c -0.408,-0.365 -0.867,-0.346 -1.23,0.058 l -0.817,0.913 0.176,0.158 0.818,-0.911 C -0.635,-0.25 -0.294,-0.265 0,0"
             style="fill:#ffffff;fill-opacity:1;fill-rule:nonzero;stroke:none"
             id="path1270"
             inkscape:connector-curvature="0" /></g><g
           id="g1272"
           transform="translate(21.6016,8.657)"><path
             d="M 0,0 2.104,0.131 0.68,1.051 0.808,1.248 2.56,0.116 2.427,-0.089 0.326,-0.222 1.747,-1.14 1.618,-1.34 -0.134,-0.208 Z"
             style="fill:#ffffff;fill-opacity:1;fill-rule:nonzero;stroke:none"
             id="path1274"
             inkscape:connector-curvature="0" /></g></g></g><g
       id="g1276"
       transform="translate(59.740019,-5.8384498)"><g
         id="g1278"
         clip-path="url(#clipPath1282)"><g
           id="g1284"
           transform="translate(14.1729,27.3889)"><path
             d="m 0,0 c -7.287,0 -13.215,-5.928 -13.215,-13.216 0,-7.286 5.928,-13.215 13.215,-13.215 7.287,0 13.216,5.929 13.216,13.215 C 13.216,-5.928 7.287,0 0,0"
             style="fill:#363f41;fill-opacity:1;fill-rule:nonzero;stroke:none"
             id="path1286"
             inkscape:connector-curvature="0" /></g><g
           id="g1288"
           transform="translate(22.0322,17.0535)"><path
             d="M 0,0 H 6.314 V -2.223 -5.761 H 0 l 1.038,2.881 z"
             style="fill:#6bb592;fill-opacity:1;fill-rule:nonzero;stroke:none"
             id="path1290"
             inkscape:connector-curvature="0" /></g><g
           id="g1292"
           transform="translate(6.3145,17.0535)"><path
             d="M 0,0 H -6.314 V -2.223 -5.761 H 0 l -1.039,2.881 z"
             style="fill:#6bb592;fill-opacity:1;fill-rule:nonzero;stroke:none"
             id="path1294"
             inkscape:connector-curvature="0" /></g><g
           id="g1296"
           transform="translate(25.709,15.4773)"><path
             d="M 0,0 -0.412,-0.858 -1.333,-0.996 -0.667,-1.665 -0.824,-2.608 0,-2.162 0.823,-2.608 0.666,-1.665 1.333,-0.996 0.412,-0.858 Z"
             style="fill:#ffffff;fill-opacity:1;fill-rule:nonzero;stroke:none"
             id="path1298"
             inkscape:connector-curvature="0" /></g><g
           id="g1300"
           transform="translate(2.6372,15.4773)"><path
             d="M 0,0 0.412,-0.858 1.333,-0.996 0.668,-1.665 0.824,-2.608 0,-2.162 l -0.823,-0.446 0.157,0.943 -0.667,0.669 0.921,0.138 z"
             style="fill:#ffffff;fill-opacity:1;fill-rule:nonzero;stroke:none"
             id="path1302"
             inkscape:connector-curvature="0" /></g><g
           id="g1304"
           transform="translate(14.3911,15.0403)"><path
             d="M 0,0 C -0.39,0.321 -1.261,0.825 -0.528,1.857 0.207,2.889 0.756,3.095 0.894,3.806 1.032,4.517 0.458,5.067 -0.481,5.319 0.068,4.7 0.458,4.196 -0.184,3.554 -1.044,2.693 -1.421,2.431 -1.536,2.316 -1.651,2.201 -3.026,1.146 0,0"
             style="fill:#ffffff;fill-opacity:1;fill-rule:nonzero;stroke:none"
             id="path1306"
             inkscape:connector-curvature="0" /></g><g
           id="g1308"
           transform="translate(11.6982,14.2034)"><path
             d="M 0,0 C -0.019,-1.451 0.185,-2.477 0.371,-3.075 0.074,-2.206 -0.333,-1.244 -0.353,0 Z m 5.529,-0.885 c 0.546,-0.054 0.596,-0.324 0.596,-0.622 0,-0.405 -0.417,-0.752 -0.944,-0.82 0.153,0.445 0.271,0.929 0.348,1.442 M 4.611,-3.73 c 0.142,0.207 0.272,0.573 0.388,0.844 0.85,0.002 1.516,0.658 1.516,1.379 0,0.812 -0.475,1.013 -0.929,1.062 C 5.607,-0.228 5.623,0 5.63,0.207 h -6.46 c 0.045,-1.451 0.428,-2.901 1.019,-3.937 z"
             style="fill:#ffffff;fill-opacity:1;fill-rule:nonzero;stroke:none"
             id="path1310"
             inkscape:connector-curvature="0" /></g><g
           id="g1312"
           transform="translate(9.7363,10.0593)"><path
             d="M 0,0 1.789,-0.829 H 7.085 L 8.874,0 Z"
             style="fill:#ffffff;fill-opacity:1;fill-rule:nonzero;stroke:none"
             id="path1314"
             inkscape:connector-curvature="0" /></g><g
           id="g1316"
           transform="translate(5.4966,21.3172)"><path
             d="M 0,0 1.624,-1.404 2.313,-0.608 2.504,-0.774 1.636,-1.777 -0.18,-0.208 Z"
             style="fill:#ffffff;fill-opacity:1;fill-rule:nonzero;stroke:none"
             id="path1318"
             inkscape:connector-curvature="0" /></g><g
           id="g1320"
           transform="translate(7.0801,22.6702)"><path
             d="m 0,0 c 0.036,-0.042 0.05,-0.089 0.056,-0.143 l 0.037,-0.289 -0.114,-0.099 -0.076,0.261 c -0.057,-0.013 -0.111,0.013 -0.149,0.057 -0.066,0.075 -0.061,0.174 0.01,0.235 C -0.169,0.081 -0.069,0.081 0,0"
             style="fill:#ffffff;fill-opacity:1;fill-rule:nonzero;stroke:none"
             id="path1322"
             inkscape:connector-curvature="0" /></g><g
           id="g1324"
           transform="translate(7.979,23.5491)"><path
             d="M 0,0 1.346,-1.987 1.119,-2.141 -0.227,-0.154 Z"
             style="fill:#ffffff;fill-opacity:1;fill-rule:nonzero;stroke:none"
             id="path1326"
             inkscape:connector-curvature="0" /></g><g
           id="g1328"
           transform="translate(9.2632,24.3084)"><path
             d="M 0,0 2.071,-1.261 1.333,0.545 1.584,0.647 2.492,-1.574 2.231,-1.681 0.162,-0.423 0.898,-2.226 0.645,-2.329 -0.263,-0.107 Z"
             style="fill:#ffffff;fill-opacity:1;fill-rule:nonzero;stroke:none"
             id="path1330"
             inkscape:connector-curvature="0" /></g><g
           id="g1332"
           transform="translate(12.7905,25.0667)"><path
             d="m 0,0 c -0.306,-0.039 -0.491,-0.186 -0.466,-0.391 0.078,-0.619 1.378,-0.127 1.484,-0.992 0.048,-0.394 -0.269,-0.694 -0.78,-0.758 -0.347,-0.044 -0.706,0.063 -0.958,0.25 l 0.093,0.25 c 0.248,-0.183 0.566,-0.268 0.835,-0.234 0.344,0.043 0.541,0.209 0.511,0.441 -0.076,0.637 -1.374,0.132 -1.482,0.986 -0.047,0.374 0.254,0.654 0.747,0.716 C 0.26,0.302 0.553,0.249 0.767,0.141 L 0.682,-0.115 C 0.45,-0.002 0.191,0.024 0,0"
             style="fill:#ffffff;fill-opacity:1;fill-rule:nonzero;stroke:none"
             id="path1334"
             inkscape:connector-curvature="0" /></g><g
           id="g1336"
           transform="translate(16.167,25.2776)"><path
             d="m 0,0 -0.024,-0.253 -0.783,0.074 -0.201,-2.14 -0.274,0.026 0.202,2.139 -0.78,0.073 0.024,0.253 z"
             style="fill:#ffffff;fill-opacity:1;fill-rule:nonzero;stroke:none"
             id="path1338"
             inkscape:connector-curvature="0" /></g><g
           id="g1340"
           transform="translate(17.7148,23.2307)"><path
             d="M 0,0 -0.135,1.345 -1.032,0.337 Z m 0.025,-0.276 -1.244,0.407 -0.445,-0.501 -0.278,0.091 1.773,1.95 0.271,-0.088 0.274,-2.621 -0.283,0.093 z"
             style="fill:#ffffff;fill-opacity:1;fill-rule:nonzero;stroke:none"
             id="path1342"
             inkscape:connector-curvature="0" /></g><g
           id="g1344"
           transform="translate(19.8643,23.8884)"><path
             d="m 0,0 0.099,-2.423 1.093,1.615 0.225,-0.151 -1.347,-1.987 -0.232,0.157 -0.1,2.42 -1.092,-1.612 -0.227,0.154 1.346,1.986 z"
             style="fill:#ffffff;fill-opacity:1;fill-rule:nonzero;stroke:none"
             id="path1346"
             inkscape:connector-curvature="0" /></g><g
           id="g1348"
           transform="translate(23.1895,20.9373)"><path
             d="m 0,0 -0.189,-0.168 -0.521,0.587 -1.604,-1.423 -0.183,0.205 1.605,1.423 -0.518,0.584 0.189,0.169 z"
             style="fill:#ffffff;fill-opacity:1;fill-rule:nonzero;stroke:none"
             id="path1350"
             inkscape:connector-curvature="0" /></g><g
           id="g1352"
           transform="translate(6.7251,8.6687)"><path
             d="m 0,0 -0.187,-0.117 -0.621,1.001 -0.595,-0.369 0.554,-0.895 -0.184,-0.114 -0.555,0.893 -0.618,-0.382 0.641,-1.035 -0.187,-0.116 -0.768,1.237 1.773,1.1 z"
             style="fill:#ffffff;fill-opacity:1;fill-rule:nonzero;stroke:none"
             id="path1354"
             inkscape:connector-curvature="0" /></g><g
           id="g1356"
           transform="translate(7.2759,7.9939)"><path
             d="m 0,0 -0.29,-2.079 1.181,1.207 0.168,-0.164 -1.454,-1.485 -0.173,0.17 0.288,2.077 -1.179,-1.205 -0.17,0.167 1.453,1.484 z"
             style="fill:#ffffff;fill-opacity:1;fill-rule:nonzero;stroke:none"
             id="path1358"
             inkscape:connector-curvature="0" /></g><g
           id="g1360"
           transform="translate(10.4683,5.4812)"><path
             d="m 0,0 c -0.429,0.192 -0.924,0.014 -1.113,-0.407 -0.188,-0.418 0.004,-0.913 0.433,-1.106 0.209,-0.094 0.452,-0.098 0.665,-0.024 l 0.068,-0.204 c -0.266,-0.093 -0.572,-0.089 -0.835,0.029 -0.549,0.247 -0.793,0.866 -0.551,1.403 0.239,0.533 0.868,0.756 1.419,0.508 0.261,-0.117 0.466,-0.337 0.571,-0.59 L 0.456,-0.489 C 0.375,-0.276 0.209,-0.094 0,0"
             style="fill:#ffffff;fill-opacity:1;fill-rule:nonzero;stroke:none"
             id="path1362"
             inkscape:connector-curvature="0" /></g><g
           id="g1364"
           transform="translate(11.6104,4.1804)"><path
             d="M 0,0 C -0.076,-0.453 0.244,-0.883 0.701,-0.959 1.158,-1.035 1.594,-0.732 1.67,-0.277 1.746,0.176 1.431,0.6 0.974,0.676 0.517,0.752 0.076,0.455 0,0 M 1.91,-0.318 C 1.814,-0.895 1.263,-1.273 0.666,-1.174 0.065,-1.073 -0.333,-0.537 -0.237,0.04 -0.141,0.617 0.409,0.992 1.01,0.893 1.607,0.793 2.006,0.26 1.91,-0.318"
             style="fill:#ffffff;fill-opacity:1;fill-rule:nonzero;stroke:none"
             id="path1366"
             inkscape:connector-curvature="0" /></g><g
           id="g1368"
           transform="translate(14.5923,4.9138)"><path
             d="M 0,0 0.948,-1.398 1.505,0.195 1.793,0.232 2.061,-1.829 1.843,-1.857 1.618,-0.144 1.061,-1.737 0.919,-1.756 l -0.942,1.4 0.222,-1.714 -0.223,-0.03 -0.268,2.062 z"
             style="fill:#ffffff;fill-opacity:1;fill-rule:nonzero;stroke:none"
             id="path1370"
             inkscape:connector-curvature="0" /></g><g
           id="g1372"
           transform="translate(17.4678,5.5105)"><path
             d="M 0,0 1.339,-1.036 1.372,0.655 1.636,0.78 2.533,-1.1 2.334,-1.194 1.585,0.367 1.552,-1.323 1.423,-1.385 0.09,-0.347 0.836,-1.909 0.631,-2.007 l -0.897,1.88 z"
             style="fill:#ffffff;fill-opacity:1;fill-rule:nonzero;stroke:none"
             id="path1374"
             inkscape:connector-curvature="0" /></g><g
           id="g1376"
           transform="translate(21.5957,5.907)"><path
             d="M 0,0 C 0.294,0.264 0.312,0.6 0.039,0.904 L -0.778,1.816 -0.602,1.975 0.216,1.063 C 0.579,0.658 0.55,0.201 0.145,-0.162 c -0.408,-0.365 -0.867,-0.346 -1.23,0.058 l -0.817,0.913 0.176,0.158 0.818,-0.911 C -0.635,-0.25 -0.294,-0.265 0,0"
             style="fill:#ffffff;fill-opacity:1;fill-rule:nonzero;stroke:none"
             id="path1378"
             inkscape:connector-curvature="0" /></g><g
           id="g1380"
           transform="translate(21.6016,8.657)"><path
             d="M 0,0 2.104,0.131 0.68,1.051 0.808,1.248 2.56,0.116 2.427,-0.089 0.326,-0.222 1.747,-1.14 1.618,-1.34 -0.134,-0.208 Z"
             style="fill:#ffffff;fill-opacity:1;fill-rule:nonzero;stroke:none"
             id="path1382"
             inkscape:connector-curvature="0" /></g></g></g><g
       id="g1384"
       transform="translate(-50.986406,25.264191)"><g
         id="g1386"
         clip-path="url(#clipPath1390)"><g
           id="g1392"
           transform="translate(14.1729,27.3889)"><path
             d="m 0,0 c -7.287,0 -13.215,-5.928 -13.215,-13.216 0,-7.286 5.928,-13.215 13.215,-13.215 7.287,0 13.216,5.929 13.216,13.215 C 13.216,-5.928 7.287,0 0,0"
             style="fill:#363f41;fill-opacity:1;fill-rule:nonzero;stroke:none"
             id="path1394"
             inkscape:connector-curvature="0" /></g><g
           id="g1396"
           transform="translate(22.0322,17.0535)"><path
             d="M 0,0 H 6.314 V -2.223 -5.761 H 0 l 1.038,2.881 z"
             style="fill:#edbd45;fill-opacity:1;fill-rule:nonzero;stroke:none"
             id="path1398"
             inkscape:connector-curvature="0" /></g><g
           id="g1400"
           transform="translate(6.3145,17.0535)"><path
             d="M 0,0 H -6.314 V -2.223 -5.761 H 0 l -1.039,2.881 z"
             style="fill:#edbd45;fill-opacity:1;fill-rule:nonzero;stroke:none"
             id="path1402"
             inkscape:connector-curvature="0" /></g><g
           id="g1404"
           transform="translate(25.709,15.4773)"><path
             d="M 0,0 -0.412,-0.858 -1.333,-0.996 -0.667,-1.665 -0.824,-2.608 0,-2.162 0.823,-2.608 0.666,-1.665 1.333,-0.996 0.412,-0.858 Z"
             style="fill:#ffffff;fill-opacity:1;fill-rule:nonzero;stroke:none"
             id="path1406"
             inkscape:connector-curvature="0" /></g><g
           id="g1408"
           transform="translate(2.6372,15.4773)"><path
             d="M 0,0 0.412,-0.858 1.333,-0.996 0.668,-1.665 0.824,-2.608 0,-2.162 l -0.823,-0.446 0.157,0.943 -0.667,0.669 0.921,0.138 z"
             style="fill:#ffffff;fill-opacity:1;fill-rule:nonzero;stroke:none"
             id="path1410"
             inkscape:connector-curvature="0" /></g><g
           id="g1412"
           transform="translate(14.3911,15.0403)"><path
             d="M 0,0 C -0.39,0.321 -1.261,0.825 -0.528,1.857 0.207,2.889 0.756,3.095 0.894,3.806 1.032,4.517 0.458,5.067 -0.481,5.319 0.068,4.7 0.458,4.196 -0.184,3.554 -1.044,2.693 -1.421,2.431 -1.536,2.316 -1.651,2.201 -3.026,1.146 0,0"
             style="fill:#ffffff;fill-opacity:1;fill-rule:nonzero;stroke:none"
             id="path1414"
             inkscape:connector-curvature="0" /></g><g
           id="g1416"
           transform="translate(11.6982,14.2034)"><path
             d="M 0,0 C -0.019,-1.451 0.185,-2.477 0.371,-3.075 0.074,-2.206 -0.333,-1.244 -0.353,0 Z m 5.529,-0.885 c 0.546,-0.054 0.596,-0.324 0.596,-0.622 0,-0.405 -0.417,-0.752 -0.944,-0.82 0.153,0.445 0.271,0.929 0.348,1.442 M 4.611,-3.73 c 0.142,0.207 0.272,0.573 0.388,0.844 0.85,0.002 1.516,0.658 1.516,1.379 0,0.812 -0.475,1.013 -0.929,1.062 C 5.607,-0.228 5.623,0 5.63,0.207 h -6.46 c 0.045,-1.451 0.428,-2.901 1.019,-3.937 z"
             style="fill:#ffffff;fill-opacity:1;fill-rule:nonzero;stroke:none"
             id="path1418"
             inkscape:connector-curvature="0" /></g><g
           id="g1420"
           transform="translate(9.7363,10.0593)"><path
             d="M 0,0 1.789,-0.829 H 7.085 L 8.874,0 Z"
             style="fill:#ffffff;fill-opacity:1;fill-rule:nonzero;stroke:none"
             id="path1422"
             inkscape:connector-curvature="0" /></g><g
           id="g1424"
           transform="translate(5.4966,21.3172)"><path
             d="M 0,0 1.624,-1.404 2.313,-0.608 2.504,-0.774 1.636,-1.777 -0.18,-0.208 Z"
             style="fill:#ffffff;fill-opacity:1;fill-rule:nonzero;stroke:none"
             id="path1426"
             inkscape:connector-curvature="0" /></g><g
           id="g1428"
           transform="translate(7.0801,22.6702)"><path
             d="m 0,0 c 0.036,-0.042 0.05,-0.089 0.056,-0.143 l 0.037,-0.289 -0.114,-0.099 -0.076,0.261 c -0.057,-0.013 -0.111,0.013 -0.149,0.057 -0.066,0.075 -0.061,0.174 0.01,0.235 C -0.169,0.081 -0.069,0.081 0,0"
             style="fill:#ffffff;fill-opacity:1;fill-rule:nonzero;stroke:none"
             id="path1430"
             inkscape:connector-curvature="0" /></g><g
           id="g1432"
           transform="translate(7.979,23.5491)"><path
             d="M 0,0 1.346,-1.987 1.119,-2.141 -0.227,-0.154 Z"
             style="fill:#ffffff;fill-opacity:1;fill-rule:nonzero;stroke:none"
             id="path1434"
             inkscape:connector-curvature="0" /></g><g
           id="g1436"
           transform="translate(9.2632,24.3084)"><path
             d="M 0,0 2.071,-1.261 1.333,0.545 1.584,0.647 2.492,-1.574 2.231,-1.681 0.162,-0.423 0.898,-2.226 0.645,-2.329 -0.263,-0.107 Z"
             style="fill:#ffffff;fill-opacity:1;fill-rule:nonzero;stroke:none"
             id="path1438"
             inkscape:connector-curvature="0" /></g><g
           id="g1440"
           transform="translate(12.7905,25.0667)"><path
             d="m 0,0 c -0.306,-0.039 -0.491,-0.186 -0.466,-0.391 0.078,-0.619 1.378,-0.127 1.484,-0.992 0.048,-0.394 -0.269,-0.694 -0.78,-0.758 -0.347,-0.044 -0.706,0.063 -0.958,0.25 l 0.093,0.25 c 0.248,-0.183 0.566,-0.268 0.835,-0.234 0.344,0.043 0.541,0.209 0.511,0.441 -0.076,0.637 -1.374,0.132 -1.482,0.986 -0.047,0.374 0.254,0.654 0.747,0.716 C 0.26,0.302 0.553,0.249 0.767,0.141 L 0.682,-0.115 C 0.45,-0.002 0.191,0.024 0,0"
             style="fill:#ffffff;fill-opacity:1;fill-rule:nonzero;stroke:none"
             id="path1442"
             inkscape:connector-curvature="0" /></g><g
           id="g1444"
           transform="translate(16.167,25.2776)"><path
             d="m 0,0 -0.024,-0.253 -0.783,0.074 -0.201,-2.14 -0.274,0.026 0.202,2.139 -0.78,0.073 0.024,0.253 z"
             style="fill:#ffffff;fill-opacity:1;fill-rule:nonzero;stroke:none"
             id="path1446"
             inkscape:connector-curvature="0" /></g><g
           id="g1448"
           transform="translate(17.7148,23.2307)"><path
             d="M 0,0 -0.135,1.345 -1.032,0.337 Z m 0.025,-0.276 -1.244,0.407 -0.445,-0.501 -0.278,0.091 1.773,1.95 0.271,-0.088 0.274,-2.621 -0.283,0.093 z"
             style="fill:#ffffff;fill-opacity:1;fill-rule:nonzero;stroke:none"
             id="path1450"
             inkscape:connector-curvature="0" /></g><g
           id="g1452"
           transform="translate(19.8643,23.8884)"><path
             d="m 0,0 0.099,-2.423 1.093,1.615 0.225,-0.151 -1.347,-1.987 -0.232,0.157 -0.1,2.42 -1.092,-1.612 -0.227,0.154 1.346,1.986 z"
             style="fill:#ffffff;fill-opacity:1;fill-rule:nonzero;stroke:none"
             id="path1454"
             inkscape:connector-curvature="0" /></g><g
           id="g1456"
           transform="translate(23.1895,20.9373)"><path
             d="m 0,0 -0.189,-0.168 -0.521,0.587 -1.604,-1.423 -0.183,0.205 1.605,1.423 -0.518,0.584 0.189,0.169 z"
             style="fill:#ffffff;fill-opacity:1;fill-rule:nonzero;stroke:none"
             id="path1458"
             inkscape:connector-curvature="0" /></g><g
           id="g1460"
           transform="translate(6.7251,8.6687)"><path
             d="m 0,0 -0.187,-0.117 -0.621,1.001 -0.595,-0.369 0.554,-0.895 -0.184,-0.114 -0.555,0.893 -0.618,-0.382 0.641,-1.035 -0.187,-0.116 -0.768,1.237 1.773,1.1 z"
             style="fill:#ffffff;fill-opacity:1;fill-rule:nonzero;stroke:none"
             id="path1462"
             inkscape:connector-curvature="0" /></g><g
           id="g1464"
           transform="translate(7.2759,7.9939)"><path
             d="m 0,0 -0.29,-2.079 1.181,1.207 0.168,-0.164 -1.454,-1.485 -0.173,0.17 0.288,2.077 -1.179,-1.205 -0.17,0.167 1.453,1.484 z"
             style="fill:#ffffff;fill-opacity:1;fill-rule:nonzero;stroke:none"
             id="path1466"
             inkscape:connector-curvature="0" /></g><g
           id="g1468"
           transform="translate(10.4683,5.4812)"><path
             d="m 0,0 c -0.429,0.192 -0.924,0.014 -1.113,-0.407 -0.188,-0.418 0.004,-0.913 0.433,-1.106 0.209,-0.094 0.452,-0.098 0.665,-0.024 l 0.068,-0.204 c -0.266,-0.093 -0.572,-0.089 -0.835,0.029 -0.549,0.247 -0.793,0.866 -0.551,1.403 0.239,0.533 0.868,0.756 1.419,0.508 0.261,-0.117 0.466,-0.337 0.571,-0.59 L 0.456,-0.489 C 0.375,-0.276 0.209,-0.094 0,0"
             style="fill:#ffffff;fill-opacity:1;fill-rule:nonzero;stroke:none"
             id="path1470"
             inkscape:connector-curvature="0" /></g><g
           id="g1472"
           transform="translate(11.6104,4.1804)"><path
             d="M 0,0 C -0.076,-0.453 0.244,-0.883 0.701,-0.959 1.158,-1.035 1.594,-0.732 1.67,-0.277 1.746,0.176 1.431,0.6 0.974,0.676 0.517,0.752 0.076,0.455 0,0 M 1.91,-0.318 C 1.814,-0.895 1.263,-1.273 0.666,-1.174 0.065,-1.073 -0.333,-0.537 -0.237,0.04 -0.141,0.617 0.409,0.992 1.01,0.893 1.607,0.793 2.006,0.26 1.91,-0.318"
             style="fill:#ffffff;fill-opacity:1;fill-rule:nonzero;stroke:none"
             id="path1474"
             inkscape:connector-curvature="0" /></g><g
           id="g1476"
           transform="translate(14.5923,4.9138)"><path
             d="M 0,0 0.948,-1.398 1.505,0.195 1.793,0.232 2.061,-1.829 1.843,-1.857 1.618,-0.144 1.061,-1.737 0.919,-1.756 l -0.942,1.4 0.222,-1.714 -0.223,-0.03 -0.268,2.062 z"
             style="fill:#ffffff;fill-opacity:1;fill-rule:nonzero;stroke:none"
             id="path1478"
             inkscape:connector-curvature="0" /></g><g
           id="g1480"
           transform="translate(17.4678,5.5105)"><path
             d="M 0,0 1.339,-1.036 1.372,0.655 1.636,0.78 2.533,-1.1 2.334,-1.194 1.585,0.367 1.552,-1.323 1.423,-1.385 0.09,-0.347 0.836,-1.909 0.631,-2.007 l -0.897,1.88 z"
             style="fill:#ffffff;fill-opacity:1;fill-rule:nonzero;stroke:none"
             id="path1482"
             inkscape:connector-curvature="0" /></g><g
           id="g1484"
           transform="translate(21.5957,5.907)"><path
             d="M 0,0 C 0.294,0.264 0.312,0.6 0.039,0.904 L -0.778,1.816 -0.602,1.975 0.216,1.063 C 0.579,0.658 0.55,0.201 0.145,-0.162 c -0.408,-0.365 -0.867,-0.346 -1.23,0.058 l -0.817,0.913 0.176,0.158 0.818,-0.911 C -0.635,-0.25 -0.294,-0.265 0,0"
             style="fill:#ffffff;fill-opacity:1;fill-rule:nonzero;stroke:none"
             id="path1486"
             inkscape:connector-curvature="0" /></g><g
           id="g1488"
           transform="translate(21.6016,8.657)"><path
             d="M 0,0 2.104,0.131 0.68,1.051 0.808,1.248 2.56,0.116 2.427,-0.089 0.326,-0.222 1.747,-1.14 1.618,-1.34 -0.134,-0.208 Z"
             style="fill:#ffffff;fill-opacity:1;fill-rule:nonzero;stroke:none"
             id="path1490"
             inkscape:connector-curvature="0" /></g></g></g><g
       id="g1492"
       transform="translate(-41.329706,0.073291)"><g
         id="g1494"
         clip-path="url(#clipPath1498)"><g
           id="g1500"
           transform="translate(14.1729,27.3889)"><path
             d="m 0,0 c -7.287,0 -13.215,-5.928 -13.215,-13.216 0,-7.286 5.928,-13.215 13.215,-13.215 7.287,0 13.216,5.929 13.216,13.215 C 13.216,-5.928 7.287,0 0,0"
             style="fill:#363f41;fill-opacity:1;fill-rule:nonzero;stroke:none"
             id="path1502"
             inkscape:connector-curvature="0" /></g><g
           id="g1504"
           transform="translate(22.0322,17.0535)"><path
             d="M 0,0 H 6.314 V -2.223 -5.761 H 0 l 1.038,2.881 z"
             style="fill:#ed8e3b;fill-opacity:1;fill-rule:nonzero;stroke:none"
             id="path1506"
             inkscape:connector-curvature="0" /></g><g
           id="g1508"
           transform="translate(6.3145,17.0535)"><path
             d="M 0,0 H -6.314 V -2.223 -5.761 H 0 l -1.039,2.881 z"
             style="fill:#ed8e3b;fill-opacity:1;fill-rule:nonzero;stroke:none"
             id="path1510"
             inkscape:connector-curvature="0" /></g><g
           id="g1512"
           transform="translate(25.709,15.4773)"><path
             d="M 0,0 -0.412,-0.858 -1.333,-0.996 -0.667,-1.665 -0.824,-2.608 0,-2.162 0.823,-2.608 0.666,-1.665 1.333,-0.996 0.412,-0.858 Z"
             style="fill:#ffffff;fill-opacity:1;fill-rule:nonzero;stroke:none"
             id="path1514"
             inkscape:connector-curvature="0" /></g><g
           id="g1516"
           transform="translate(2.6372,15.4773)"><path
             d="M 0,0 0.412,-0.858 1.333,-0.996 0.668,-1.665 0.824,-2.608 0,-2.162 l -0.823,-0.446 0.157,0.943 -0.667,0.669 0.921,0.138 z"
             style="fill:#ffffff;fill-opacity:1;fill-rule:nonzero;stroke:none"
             id="path1518"
             inkscape:connector-curvature="0" /></g><g
           id="g1520"
           transform="translate(14.3911,15.0403)"><path
             d="M 0,0 C -0.39,0.321 -1.261,0.825 -0.528,1.857 0.207,2.889 0.756,3.095 0.894,3.806 1.032,4.517 0.458,5.067 -0.481,5.319 0.068,4.7 0.458,4.196 -0.184,3.554 -1.044,2.693 -1.421,2.431 -1.536,2.316 -1.651,2.201 -3.026,1.146 0,0"
             style="fill:#ffffff;fill-opacity:1;fill-rule:nonzero;stroke:none"
             id="path1522"
             inkscape:connector-curvature="0" /></g><g
           id="g1524"
           transform="translate(11.6982,14.2034)"><path
             d="M 0,0 C -0.019,-1.451 0.185,-2.477 0.371,-3.075 0.074,-2.206 -0.333,-1.244 -0.353,0 Z m 5.529,-0.885 c 0.546,-0.054 0.596,-0.324 0.596,-0.622 0,-0.405 -0.417,-0.752 -0.944,-0.82 0.153,0.445 0.271,0.929 0.348,1.442 M 4.611,-3.73 c 0.142,0.207 0.272,0.573 0.388,0.844 0.85,0.002 1.516,0.658 1.516,1.379 0,0.812 -0.475,1.013 -0.929,1.062 C 5.607,-0.228 5.623,0 5.63,0.207 h -6.46 c 0.045,-1.451 0.428,-2.901 1.019,-3.937 z"
             style="fill:#ffffff;fill-opacity:1;fill-rule:nonzero;stroke:none"
             id="path1526"
             inkscape:connector-curvature="0" /></g><g
           id="g1528"
           transform="translate(9.7363,10.0593)"><path
             d="M 0,0 1.789,-0.829 H 7.085 L 8.874,0 Z"
             style="fill:#ffffff;fill-opacity:1;fill-rule:nonzero;stroke:none"
             id="path1530"
             inkscape:connector-curvature="0" /></g><g
           id="g1532"
           transform="translate(5.4966,21.3172)"><path
             d="M 0,0 1.624,-1.404 2.313,-0.608 2.504,-0.774 1.636,-1.777 -0.18,-0.208 Z"
             style="fill:#ffffff;fill-opacity:1;fill-rule:nonzero;stroke:none"
             id="path1534"
             inkscape:connector-curvature="0" /></g><g
           id="g1536"
           transform="translate(7.0801,22.6702)"><path
             d="m 0,0 c 0.036,-0.042 0.05,-0.089 0.056,-0.143 l 0.037,-0.289 -0.114,-0.099 -0.076,0.261 c -0.057,-0.013 -0.111,0.013 -0.149,0.057 -0.066,0.075 -0.061,0.174 0.01,0.235 C -0.169,0.081 -0.069,0.081 0,0"
             style="fill:#ffffff;fill-opacity:1;fill-rule:nonzero;stroke:none"
             id="path1538"
             inkscape:connector-curvature="0" /></g><g
           id="g1540"
           transform="translate(7.979,23.5491)"><path
             d="M 0,0 1.346,-1.987 1.119,-2.141 -0.227,-0.154 Z"
             style="fill:#ffffff;fill-opacity:1;fill-rule:nonzero;stroke:none"
             id="path1542"
             inkscape:connector-curvature="0" /></g><g
           id="g1544"
           transform="translate(9.2632,24.3084)"><path
             d="M 0,0 2.071,-1.261 1.333,0.545 1.584,0.647 2.492,-1.574 2.231,-1.681 0.162,-0.423 0.898,-2.226 0.645,-2.329 -0.263,-0.107 Z"
             style="fill:#ffffff;fill-opacity:1;fill-rule:nonzero;stroke:none"
             id="path1546"
             inkscape:connector-curvature="0" /></g><g
           id="g1548"
           transform="translate(12.7905,25.0667)"><path
             d="m 0,0 c -0.306,-0.039 -0.491,-0.186 -0.466,-0.391 0.078,-0.619 1.378,-0.127 1.484,-0.992 0.048,-0.394 -0.269,-0.694 -0.78,-0.758 -0.347,-0.044 -0.706,0.063 -0.958,0.25 l 0.093,0.25 c 0.248,-0.183 0.566,-0.268 0.835,-0.234 0.344,0.043 0.541,0.209 0.511,0.441 -0.076,0.637 -1.374,0.132 -1.482,0.986 -0.047,0.374 0.254,0.654 0.747,0.716 C 0.26,0.302 0.553,0.249 0.767,0.141 L 0.682,-0.115 C 0.45,-0.002 0.191,0.024 0,0"
             style="fill:#ffffff;fill-opacity:1;fill-rule:nonzero;stroke:none"
             id="path1550"
             inkscape:connector-curvature="0" /></g><g
           id="g1552"
           transform="translate(16.167,25.2776)"><path
             d="m 0,0 -0.024,-0.253 -0.783,0.074 -0.201,-2.14 -0.274,0.026 0.202,2.139 -0.78,0.073 0.024,0.253 z"
             style="fill:#ffffff;fill-opacity:1;fill-rule:nonzero;stroke:none"
             id="path1554"
             inkscape:connector-curvature="0" /></g><g
           id="g1556"
           transform="translate(17.7148,23.2307)"><path
             d="M 0,0 -0.135,1.345 -1.032,0.337 Z m 0.025,-0.276 -1.244,0.407 -0.445,-0.501 -0.278,0.091 1.773,1.95 0.271,-0.088 0.274,-2.621 -0.283,0.093 z"
             style="fill:#ffffff;fill-opacity:1;fill-rule:nonzero;stroke:none"
             id="path1558"
             inkscape:connector-curvature="0" /></g><g
           id="g1560"
           transform="translate(19.8643,23.8884)"><path
             d="m 0,0 0.099,-2.423 1.093,1.615 0.225,-0.151 -1.347,-1.987 -0.232,0.157 -0.1,2.42 -1.092,-1.612 -0.227,0.154 1.346,1.986 z"
             style="fill:#ffffff;fill-opacity:1;fill-rule:nonzero;stroke:none"
             id="path1562"
             inkscape:connector-curvature="0" /></g><g
           id="g1564"
           transform="translate(23.1895,20.9373)"><path
             d="m 0,0 -0.189,-0.168 -0.521,0.587 -1.604,-1.423 -0.183,0.205 1.605,1.423 -0.518,0.584 0.189,0.169 z"
             style="fill:#ffffff;fill-opacity:1;fill-rule:nonzero;stroke:none"
             id="path1566"
             inkscape:connector-curvature="0" /></g><g
           id="g1568"
           transform="translate(6.7251,8.6687)"><path
             d="m 0,0 -0.187,-0.117 -0.621,1.001 -0.595,-0.369 0.554,-0.895 -0.184,-0.114 -0.555,0.893 -0.618,-0.382 0.641,-1.035 -0.187,-0.116 -0.768,1.237 1.773,1.1 z"
             style="fill:#ffffff;fill-opacity:1;fill-rule:nonzero;stroke:none"
             id="path1570"
             inkscape:connector-curvature="0" /></g><g
           id="g1572"
           transform="translate(7.2759,7.9939)"><path
             d="m 0,0 -0.29,-2.079 1.181,1.207 0.168,-0.164 -1.454,-1.485 -0.173,0.17 0.288,2.077 -1.179,-1.205 -0.17,0.167 1.453,1.484 z"
             style="fill:#ffffff;fill-opacity:1;fill-rule:nonzero;stroke:none"
             id="path1574"
             inkscape:connector-curvature="0" /></g><g
           id="g1576"
           transform="translate(10.4683,5.4812)"><path
             d="m 0,0 c -0.429,0.192 -0.924,0.014 -1.113,-0.407 -0.188,-0.418 0.004,-0.913 0.433,-1.106 0.209,-0.094 0.452,-0.098 0.665,-0.024 l 0.068,-0.204 c -0.266,-0.093 -0.572,-0.089 -0.835,0.029 -0.549,0.247 -0.793,0.866 -0.551,1.403 0.239,0.533 0.868,0.756 1.419,0.508 0.261,-0.117 0.466,-0.337 0.571,-0.59 L 0.456,-0.489 C 0.375,-0.276 0.209,-0.094 0,0"
             style="fill:#ffffff;fill-opacity:1;fill-rule:nonzero;stroke:none"
             id="path1578"
             inkscape:connector-curvature="0" /></g><g
           id="g1580"
           transform="translate(11.6104,4.1804)"><path
             d="M 0,0 C -0.076,-0.453 0.244,-0.883 0.701,-0.959 1.158,-1.035 1.594,-0.732 1.67,-0.277 1.746,0.176 1.431,0.6 0.974,0.676 0.517,0.752 0.076,0.455 0,0 M 1.91,-0.318 C 1.814,-0.895 1.263,-1.273 0.666,-1.174 0.065,-1.073 -0.333,-0.537 -0.237,0.04 -0.141,0.617 0.409,0.992 1.01,0.893 1.607,0.793 2.006,0.26 1.91,-0.318"
             style="fill:#ffffff;fill-opacity:1;fill-rule:nonzero;stroke:none"
             id="path1582"
             inkscape:connector-curvature="0" /></g><g
           id="g1584"
           transform="translate(14.5923,4.9138)"><path
             d="M 0,0 0.948,-1.398 1.505,0.195 1.793,0.232 2.061,-1.829 1.843,-1.857 1.618,-0.144 1.061,-1.737 0.919,-1.756 l -0.942,1.4 0.222,-1.714 -0.223,-0.03 -0.268,2.062 z"
             style="fill:#ffffff;fill-opacity:1;fill-rule:nonzero;stroke:none"
             id="path1586"
             inkscape:connector-curvature="0" /></g><g
           id="g1588"
           transform="translate(17.4678,5.5105)"><path
             d="M 0,0 1.339,-1.036 1.372,0.655 1.636,0.78 2.533,-1.1 2.334,-1.194 1.585,0.367 1.552,-1.323 1.423,-1.385 0.09,-0.347 0.836,-1.909 0.631,-2.007 l -0.897,1.88 z"
             style="fill:#ffffff;fill-opacity:1;fill-rule:nonzero;stroke:none"
             id="path1590"
             inkscape:connector-curvature="0" /></g><g
           id="g1592"
           transform="translate(21.5957,5.907)"><path
             d="M 0,0 C 0.294,0.264 0.312,0.6 0.039,0.904 L -0.778,1.816 -0.602,1.975 0.216,1.063 C 0.579,0.658 0.55,0.201 0.145,-0.162 c -0.408,-0.365 -0.867,-0.346 -1.23,0.058 l -0.817,0.913 0.176,0.158 0.818,-0.911 C -0.635,-0.25 -0.294,-0.265 0,0"
             style="fill:#ffffff;fill-opacity:1;fill-rule:nonzero;stroke:none"
             id="path1594"
             inkscape:connector-curvature="0" /></g><g
           id="g1596"
           transform="translate(21.6016,8.657)"><path
             d="M 0,0 2.104,0.131 0.68,1.051 0.808,1.248 2.56,0.116 2.427,-0.089 0.326,-0.222 1.747,-1.14 1.618,-1.34 -0.134,-0.208 Z"
             style="fill:#ffffff;fill-opacity:1;fill-rule:nonzero;stroke:none"
             id="path1598"
             inkscape:connector-curvature="0" /></g></g></g><g
       id="g1600"
       transform="translate(-18.111656,-4.986915)"><g
         id="g1602"
         clip-path="url(#clipPath1606)"><g
           id="g1608"
           transform="translate(14.1729,27.3889)"><path
             d="m 0,0 c -7.287,0 -13.215,-5.928 -13.215,-13.216 0,-7.286 5.928,-13.215 13.215,-13.215 7.287,0 13.216,5.929 13.216,13.215 C 13.216,-5.928 7.287,0 0,0"
             style="fill:#363f41;fill-opacity:1;fill-rule:nonzero;stroke:none"
             id="path1610"
             inkscape:connector-curvature="0" /></g><g
           id="g1612"
           transform="translate(22.0322,17.0535)"><path
             d="M 0,0 H 6.314 V -2.223 -5.761 H 0 l 1.038,2.881 z"
             style="fill:#d9483b;fill-opacity:1;fill-rule:nonzero;stroke:none"
             id="path1614"
             inkscape:connector-curvature="0" /></g><g
           id="g1616"
           transform="translate(6.3145,17.0535)"><path
             d="M 0,0 H -6.314 V -2.223 -5.761 H 0 l -1.039,2.881 z"
             style="fill:#d9483b;fill-opacity:1;fill-rule:nonzero;stroke:none"
             id="path1618"
             inkscape:connector-curvature="0" /></g><g
           id="g1620"
           transform="translate(25.709,15.4773)"><path
             d="M 0,0 -0.412,-0.858 -1.333,-0.996 -0.667,-1.665 -0.824,-2.608 0,-2.162 0.823,-2.608 0.666,-1.665 1.333,-0.996 0.412,-0.858 Z"
             style="fill:#ffffff;fill-opacity:1;fill-rule:nonzero;stroke:none"
             id="path1622"
             inkscape:connector-curvature="0" /></g><g
           id="g1624"
           transform="translate(2.6372,15.4773)"><path
             d="M 0,0 0.412,-0.858 1.333,-0.996 0.668,-1.665 0.824,-2.608 0,-2.162 l -0.823,-0.446 0.157,0.943 -0.667,0.669 0.921,0.138 z"
             style="fill:#ffffff;fill-opacity:1;fill-rule:nonzero;stroke:none"
             id="path1626"
             inkscape:connector-curvature="0" /></g><g
           id="g1628"
           transform="translate(14.3911,15.0403)"><path
             d="M 0,0 C -0.39,0.321 -1.261,0.825 -0.528,1.857 0.207,2.889 0.756,3.095 0.894,3.806 1.032,4.517 0.458,5.067 -0.481,5.319 0.068,4.7 0.458,4.196 -0.184,3.554 -1.044,2.693 -1.421,2.431 -1.536,2.316 -1.651,2.201 -3.026,1.146 0,0"
             style="fill:#ffffff;fill-opacity:1;fill-rule:nonzero;stroke:none"
             id="path1630"
             inkscape:connector-curvature="0" /></g><g
           id="g1632"
           transform="translate(11.6982,14.2034)"><path
             d="M 0,0 C -0.019,-1.451 0.185,-2.477 0.371,-3.075 0.074,-2.206 -0.333,-1.244 -0.353,0 Z m 5.529,-0.885 c 0.546,-0.054 0.596,-0.324 0.596,-0.622 0,-0.405 -0.417,-0.752 -0.944,-0.82 0.153,0.445 0.271,0.929 0.348,1.442 M 4.611,-3.73 c 0.142,0.207 0.272,0.573 0.388,0.844 0.85,0.002 1.516,0.658 1.516,1.379 0,0.812 -0.475,1.013 -0.929,1.062 C 5.607,-0.228 5.623,0 5.63,0.207 h -6.46 c 0.045,-1.451 0.428,-2.901 1.019,-3.937 z"
             style="fill:#ffffff;fill-opacity:1;fill-rule:nonzero;stroke:none"
             id="path1634"
             inkscape:connector-curvature="0" /></g><g
           id="g1636"
           transform="translate(9.7363,10.0593)"><path
             d="M 0,0 1.789,-0.829 H 7.085 L 8.874,0 Z"
             style="fill:#ffffff;fill-opacity:1;fill-rule:nonzero;stroke:none"
             id="path1638"
             inkscape:connector-curvature="0" /></g><g
           id="g1640"
           transform="translate(5.4966,21.3172)"><path
             d="M 0,0 1.624,-1.404 2.313,-0.608 2.504,-0.774 1.636,-1.777 -0.18,-0.208 Z"
             style="fill:#ffffff;fill-opacity:1;fill-rule:nonzero;stroke:none"
             id="path1642"
             inkscape:connector-curvature="0" /></g><g
           id="g1644"
           transform="translate(7.0801,22.6702)"><path
             d="m 0,0 c 0.036,-0.042 0.05,-0.089 0.056,-0.143 l 0.037,-0.289 -0.114,-0.099 -0.076,0.261 c -0.057,-0.013 -0.111,0.013 -0.149,0.057 -0.066,0.075 -0.061,0.174 0.01,0.235 C -0.169,0.081 -0.069,0.081 0,0"
             style="fill:#ffffff;fill-opacity:1;fill-rule:nonzero;stroke:none"
             id="path1646"
             inkscape:connector-curvature="0" /></g><g
           id="g1648"
           transform="translate(7.979,23.5491)"><path
             d="M 0,0 1.346,-1.987 1.119,-2.141 -0.227,-0.154 Z"
             style="fill:#ffffff;fill-opacity:1;fill-rule:nonzero;stroke:none"
             id="path1650"
             inkscape:connector-curvature="0" /></g><g
           id="g1652"
           transform="translate(9.2632,24.3084)"><path
             d="M 0,0 2.071,-1.261 1.333,0.545 1.584,0.647 2.492,-1.574 2.231,-1.681 0.162,-0.423 0.898,-2.226 0.645,-2.329 -0.263,-0.107 Z"
             style="fill:#ffffff;fill-opacity:1;fill-rule:nonzero;stroke:none"
             id="path1654"
             inkscape:connector-curvature="0" /></g><g
           id="g1656"
           transform="translate(12.7905,25.0667)"><path
             d="m 0,0 c -0.306,-0.039 -0.491,-0.186 -0.466,-0.391 0.078,-0.619 1.378,-0.127 1.484,-0.992 0.048,-0.394 -0.269,-0.694 -0.78,-0.758 -0.347,-0.044 -0.706,0.063 -0.958,0.25 l 0.093,0.25 c 0.248,-0.183 0.566,-0.268 0.835,-0.234 0.344,0.043 0.541,0.209 0.511,0.441 -0.076,0.637 -1.374,0.132 -1.482,0.986 -0.047,0.374 0.254,0.654 0.747,0.716 C 0.26,0.302 0.553,0.249 0.767,0.141 L 0.682,-0.115 C 0.45,-0.002 0.191,0.024 0,0"
             style="fill:#ffffff;fill-opacity:1;fill-rule:nonzero;stroke:none"
             id="path1658"
             inkscape:connector-curvature="0" /></g><g
           id="g1660"
           transform="translate(16.167,25.2776)"><path
             d="m 0,0 -0.024,-0.253 -0.783,0.074 -0.201,-2.14 -0.274,0.026 0.202,2.139 -0.78,0.073 0.024,0.253 z"
             style="fill:#ffffff;fill-opacity:1;fill-rule:nonzero;stroke:none"
             id="path1662"
             inkscape:connector-curvature="0" /></g><g
           id="g1664"
           transform="translate(17.7148,23.2307)"><path
             d="M 0,0 -0.135,1.345 -1.032,0.337 Z m 0.025,-0.276 -1.244,0.407 -0.445,-0.501 -0.278,0.091 1.773,1.95 0.271,-0.088 0.274,-2.621 -0.283,0.093 z"
             style="fill:#ffffff;fill-opacity:1;fill-rule:nonzero;stroke:none"
             id="path1666"
             inkscape:connector-curvature="0" /></g><g
           id="g1668"
           transform="translate(19.8643,23.8884)"><path
             d="m 0,0 0.099,-2.423 1.093,1.615 0.225,-0.151 -1.347,-1.987 -0.232,0.157 -0.1,2.42 -1.092,-1.612 -0.227,0.154 1.346,1.986 z"
             style="fill:#ffffff;fill-opacity:1;fill-rule:nonzero;stroke:none"
             id="path1670"
             inkscape:connector-curvature="0" /></g><g
           id="g1672"
           transform="translate(23.1895,20.9373)"><path
             d="m 0,0 -0.189,-0.168 -0.521,0.587 -1.604,-1.423 -0.183,0.205 1.605,1.423 -0.518,0.584 0.189,0.169 z"
             style="fill:#ffffff;fill-opacity:1;fill-rule:nonzero;stroke:none"
             id="path1674"
             inkscape:connector-curvature="0" /></g><g
           id="g1676"
           transform="translate(6.7251,8.6687)"><path
             d="m 0,0 -0.187,-0.117 -0.621,1.001 -0.595,-0.369 0.554,-0.895 -0.184,-0.114 -0.555,0.893 -0.618,-0.382 0.641,-1.035 -0.187,-0.116 -0.768,1.237 1.773,1.1 z"
             style="fill:#ffffff;fill-opacity:1;fill-rule:nonzero;stroke:none"
             id="path1678"
             inkscape:connector-curvature="0" /></g><g
           id="g1680"
           transform="translate(7.2759,7.9939)"><path
             d="m 0,0 -0.29,-2.079 1.181,1.207 0.168,-0.164 -1.454,-1.485 -0.173,0.17 0.288,2.077 -1.179,-1.205 -0.17,0.167 1.453,1.484 z"
             style="fill:#ffffff;fill-opacity:1;fill-rule:nonzero;stroke:none"
             id="path1682"
             inkscape:connector-curvature="0" /></g><g
           id="g1684"
           transform="translate(10.4683,5.4812)"><path
             d="m 0,0 c -0.429,0.192 -0.924,0.014 -1.113,-0.407 -0.188,-0.418 0.004,-0.913 0.433,-1.106 0.209,-0.094 0.452,-0.098 0.665,-0.024 l 0.068,-0.204 c -0.266,-0.093 -0.572,-0.089 -0.835,0.029 -0.549,0.247 -0.793,0.866 -0.551,1.403 0.239,0.533 0.868,0.756 1.419,0.508 0.261,-0.117 0.466,-0.337 0.571,-0.59 L 0.456,-0.489 C 0.375,-0.276 0.209,-0.094 0,0"
             style="fill:#ffffff;fill-opacity:1;fill-rule:nonzero;stroke:none"
             id="path1686"
             inkscape:connector-curvature="0" /></g><g
           id="g1688"
           transform="translate(11.6104,4.1804)"><path
             d="M 0,0 C -0.076,-0.453 0.244,-0.883 0.701,-0.959 1.158,-1.035 1.594,-0.732 1.67,-0.277 1.746,0.176 1.431,0.6 0.974,0.676 0.517,0.752 0.076,0.455 0,0 M 1.91,-0.318 C 1.814,-0.895 1.263,-1.273 0.666,-1.174 0.065,-1.073 -0.333,-0.537 -0.237,0.04 -0.141,0.617 0.409,0.992 1.01,0.893 1.607,0.793 2.006,0.26 1.91,-0.318"
             style="fill:#ffffff;fill-opacity:1;fill-rule:nonzero;stroke:none"
             id="path1690"
             inkscape:connector-curvature="0" /></g><g
           id="g1692"
           transform="translate(14.5923,4.9138)"><path
             d="M 0,0 0.948,-1.398 1.505,0.195 1.793,0.232 2.061,-1.829 1.843,-1.857 1.618,-0.144 1.061,-1.737 0.919,-1.756 l -0.942,1.4 0.222,-1.714 -0.223,-0.03 -0.268,2.062 z"
             style="fill:#ffffff;fill-opacity:1;fill-rule:nonzero;stroke:none"
             id="path1694"
             inkscape:connector-curvature="0" /></g><g
           id="g1696"
           transform="translate(17.4678,5.5105)"><path
             d="M 0,0 1.339,-1.036 1.372,0.655 1.636,0.78 2.533,-1.1 2.334,-1.194 1.585,0.367 1.552,-1.323 1.423,-1.385 0.09,-0.347 0.836,-1.909 0.631,-2.007 l -0.897,1.88 z"
             style="fill:#ffffff;fill-opacity:1;fill-rule:nonzero;stroke:none"
             id="path1698"
             inkscape:connector-curvature="0" /></g><g
           id="g1700"
           transform="translate(21.5957,5.907)"><path
             d="M 0,0 C 0.294,0.264 0.312,0.6 0.039,0.904 L -0.778,1.816 -0.602,1.975 0.216,1.063 C 0.579,0.658 0.55,0.201 0.145,-0.162 c -0.408,-0.365 -0.867,-0.346 -1.23,0.058 l -0.817,0.913 0.176,0.158 0.818,-0.911 C -0.635,-0.25 -0.294,-0.265 0,0"
             style="fill:#ffffff;fill-opacity:1;fill-rule:nonzero;stroke:none"
             id="path1702"
             inkscape:connector-curvature="0" /></g><g
           id="g1704"
           transform="translate(21.6016,8.657)"><path
             d="M 0,0 2.104,0.131 0.68,1.051 0.808,1.248 2.56,0.116 2.427,-0.089 0.326,-0.222 1.747,-1.14 1.618,-1.34 -0.134,-0.208 Z"
             style="fill:#ffffff;fill-opacity:1;fill-rule:nonzero;stroke:none"
             id="path1706"
             inkscape:connector-curvature="0" /></g></g></g><rect
       style="fill:#9e6dab;fill-opacity:1;stroke:#ffffff;stroke-width:0.75;stroke-opacity:1"
       id="rect1271"
       width="26.625988"
       height="12.716889"
       x="-8.1848059"
       y="-49.332237"
       transform="scale(1,-1)" /><rect
       transform="scale(1,-1)"
       y="-49.133537"
       x="26.687288"
       height="12.716889"
       width="26.625988"
       id="rect10071"
       style="fill:#d1b9d7;fill-opacity:1;stroke:#ffffff;stroke-width:0.75;stroke-opacity:1" /></g></svg>