<?xml version="1.0" encoding="UTF-8" standalone="no"?>
<svg
   xmlns:dc="http://purl.org/dc/elements/1.1/"
   xmlns:cc="http://creativecommons.org/ns#"
   xmlns:rdf="http://www.w3.org/1999/02/22-rdf-syntax-ns#"
   xmlns:svg="http://www.w3.org/2000/svg"
   xmlns="http://www.w3.org/2000/svg"
   version="1.1"
   id="svg5369"
   viewBox="0 0 119.23755 96.694049">
  <defs
     id="defs5371" />
  <metadata
     id="metadata5374">
    <rdf:RDF>
      <cc:Work
         rdf:about="">
        <dc:format>image/svg+xml</dc:format>
        <dc:type
           rdf:resource="http://purl.org/dc/dcmitype/StillImage" />
        <dc:title></dc:title>
      </cc:Work>
    </rdf:RDF>
  </metadata>
  <g
     transform="translate(396.76163,-364.01518)"
     id="layer1">
    <text
       id="text218"
       style="font-variant:normal;font-weight:900;font-stretch:normal;font-size:19.31914139px;font-family:'Montserrat Black';-inkscape-font-specification:Montserrat-Black;writing-mode:lr-tb;fill:#ca482c;fill-opacity:1;fill-rule:nonzero;stroke:none"
       transform="scale(0.99510112,1.004923)"
       x="-399.27515"
       y="458.14316">
      <tspan
         y="458.14316"
         id="tspan222"
         x="-399.27515">GROS PLAN</tspan>
    </text>
    <path
       d="m -338.46603,425.64683 -34.79875,0 c -0.37875,0 -0.69875,-0.32 -0.69875,-0.6975 l 0,-41.5175 c 0,-0.37875 0.32,-0.6975 0.69875,-0.6975 l 14.1625,0 0.0213,0.0575 0.16625,-0.0575 20.12375,0 c 0.94625,-0.8 1.93375,-1.51875 2.985,-2.09375 l -17.10125,0 36.79625,-12.82125 -0.68875,-1.9775 -42.47,14.79875 -13.995,0 c -1.535,0 -2.79125,1.25625 -2.79125,2.79125 l 0,41.5175 c 0,1.535 1.25625,2.79125 2.79125,2.79125 l 37.6025,0 c 0.25875,0 -0.145,-0.42625 0.0863,-0.4475 -0.95875,-0.275 -2.25875,-0.52625 -2.89,-1.64625"
       style="fill:#ca482c;fill-opacity:1;fill-rule:nonzero;stroke:none"
       id="path286" />
    <g
       transform="matrix(1.25,0,0,-1.25,-305.40679,380.64058)"
       id="g288">
      <path
         id="path290"
         style="fill:#ca482c;fill-opacity:1;fill-rule:nonzero;stroke:none"
         d="m 0,0 -11.956,0 c 0.298,-0.118 0.593,-0.24 0.889,-0.363 0.503,-0.087 0.951,-0.249 1.335,-0.481 0.694,-0.082 1.274,-0.321 1.757,-0.659 0.096,-0.054 0.187,-0.111 0.275,-0.172 l 7.7,0 c 0.303,0 0.558,-0.255 0.558,-0.558 l 0,-9.169 c 0.173,-0.199 0.315,-0.418 0.443,-0.647 0.426,-0.461 0.726,-1.022 0.902,-1.627 0.117,-0.105 0.228,-0.216 0.33,-0.334 l 0,11.777 C 2.233,-1.005 1.228,0 0,0" />
    </g>
    <g
       transform="matrix(1.25,0,0,-1.25,-302.76041,410.19333)"
       id="g292">
      <path
         id="path294"
         style="fill:#ca482c;fill-opacity:1;fill-rule:nonzero;stroke:none"
         d="m 0,0 c -0.032,-0.21 -0.074,-0.419 -0.137,-0.621 0.012,-1.25 -0.459,-2.506 -1.422,-3.312 l 0,-7.872 c 0,-0.302 -0.256,-0.558 -0.558,-0.558 l -7.827,0 c -0.557,-0.816 -1.344,-1.392 -2.264,-1.66 0.12,-0.007 0.239,-0.014 0.369,-0.014 l 9.722,0 c 1.228,0 2.233,1.004 2.233,2.232 l 0,11.989 C 0.08,0.121 0.04,0.061 0,0" />
    </g>
    <path
       d="m -317.72091,415.02433 c -1.685,1.58125 -3.94625,2.485 -6.4,2.56125 0.14375,-4.78875 0.6925,-8.775 1.6025,-11.60875 0.39375,-1.2225 1.58,-4.91625 4.3625,-4.99625 0.2075,0.0312 0.96375,0.18125 1.705,0.815 1.1725,1.00375 1.79375,2.825 1.79375,5.26875 0,3.32625 -1.06,6.07875 -3.06375,7.96 m -0.2325,-17.94625 -0.11125,-0.002 c -4.705,0 -7.04,4.19 -8.17,7.70625 -1.005,3.12875 -1.60125,7.23625 -1.775,12.235 -4.16125,-1.46875 -6.09125,-5.52125 -6.09125,-9.34 0,-3.45625 1.1975,-6.2325 3.56,-8.2525 0.7925,-0.6775 1.60375,-1.16875 2.3175,-1.5125 -0.0575,0.0575 -0.1175,0.11625 -0.18,0.17625 -0.77375,0.75125 -0.79375,1.98625 -0.0425,2.76125 0.75,0.77375 1.985,0.7925 2.76,0.0425 0.86375,-0.8375 3.4925,-3.38625 2.52875,-5.76125 -0.45125,-1.115 -1.57875,-1.80625 -2.9425,-1.80625 l -0.004,0 c -2.625,0.003 -11.90125,3.44625 -11.90125,14.3525 0,7.445 4.58875,11.9775 9.955,13.3625 0.04,1.82875 0.1725,3.6275 0.32875,5.36125 1.04625,-0.19625 2.20375,-0.0475 3.38625,0.6075 0.21875,0.12125 0.425,0.2475 0.6275,0.37625 -0.18875,-1.89375 -0.36125,-3.88875 -0.425,-5.89375 3.45625,-0.0762 6.67125,-1.355 9.08375,-3.62 2.81,-2.63875 4.295,-6.375 4.295,-10.80625 0,-7.57375 -4.71,-9.84375 -7.2,-9.98625"
       style="fill:#ca482c;fill-opacity:1;fill-rule:nonzero;stroke:none"
       id="path298" />
    <g
       transform="matrix(1.25,0,0,-1.25,-328.02879,439.64133)"
       id="g300">
      <path
         id="path302"
         style="fill:#ca482c;fill-opacity:1;fill-rule:nonzero;stroke:none"
         d="m 0,0 c 1.169,0 2.216,0.524 2.92,1.349 l -5.84,0 C -2.216,0.524 -1.169,0 0,0" />
    </g>
    <g
       transform="matrix(1.25,0,0,-1.25,-324.27579,432.42108)"
       id="g304">
      <path
         id="path306"
         style="fill:#ca482c;fill-opacity:1;fill-rule:nonzero;stroke:none"
         d="m 0,0 -6.14,0 c -0.41,0 -0.745,0.335 -0.745,0.744 0,0.41 0.335,0.745 0.745,0.745 l 6.14,0 C 0.409,1.489 0.744,1.154 0.744,0.744 0.744,0.335 0.409,0 0,0 m -1.71,-2.233 -4.396,0 c -0.428,0 -0.779,0.351 -0.779,0.779 0,0.429 0.351,0.779 0.779,0.779 l 4.396,0 c 0.429,0 0.78,-0.35 0.78,-0.779 0,-0.428 -0.351,-0.779 -0.78,-0.779 m 4.028,4.07 c 0,0.632 -0.516,1.148 -1.147,1.148 l -8.436,0 c -0.631,0 -1.147,-0.516 -1.147,-1.148 0,-0.552 0.396,-1.017 0.918,-1.124 -0.522,-0.107 -0.918,-0.571 -0.918,-1.124 l 0,0 c 0,-0.51 0.338,-0.945 0.8,-1.093 -0.462,-0.148 -0.8,-0.583 -0.8,-1.093 l 0,0 c 0,-0.631 0.516,-1.148 1.147,-1.148 l 8.436,0 c 0.631,0 1.147,0.517 1.147,1.148 l 0,0 c 0,0.51 -0.338,0.945 -0.8,1.093 0.462,0.148 0.8,0.583 0.8,1.093 l 0,0 C 2.318,0.142 1.922,0.606 1.4,0.713 1.922,0.82 2.318,1.285 2.318,1.837" />
    </g>
    <path
       d="m -350.76316,396.75045 c -0.235,-0.3 -0.58375,-0.5075 -0.9925,-0.5075 l -13.335,0 c -0.70375,0 -1.27875,0.57625 -1.27875,1.28 l 0,6.3575 c 0,0.70375 0.575,1.27875 1.27875,1.27875 l 13.1,0 c -0.4525,-2.97125 -0.1875,-5.75625 1.2275,-8.40875"
       style="fill:#ca482c;fill-opacity:1;fill-rule:nonzero;stroke:none"
       id="path310" />
    <g
       transform="matrix(1.25,0,0,-1.25,-364.33466,408.3382)"
       id="g312">
      <path
         id="path314"
         style="fill:#ca482c;fill-opacity:1;fill-rule:nonzero;stroke:none"
         d="m 0,0 c -0.899,0 -1.628,-0.729 -1.628,-1.628 0,-0.899 0.729,-1.628 1.628,-1.628 0.899,0 1.628,0.729 1.628,1.628 C 1.628,-0.729 0.899,0 0,0" />
    </g>
    <g
       transform="matrix(1.25,0,0,-1.25,-358.42303,408.3382)"
       id="g316">
      <path
         id="path318"
         style="fill:#ca482c;fill-opacity:1;fill-rule:nonzero;stroke:none"
         d="m 0,0 c -0.899,0 -1.628,-0.729 -1.628,-1.628 0,-0.899 0.729,-1.628 1.628,-1.628 0.899,0 1.628,0.729 1.628,1.628 C 1.628,-0.729 0.899,0 0,0" />
    </g>
    <g
       transform="matrix(1.25,0,0,-1.25,-351.18541,408.84095)"
       id="g320">
      <path
         id="path322"
         style="fill:#ca482c;fill-opacity:1;fill-rule:nonzero;stroke:none"
         d="m 0,0 c -0.286,0.247 -0.653,0.402 -1.061,0.402 -0.899,0 -1.628,-0.729 -1.628,-1.628 0,-0.899 0.729,-1.628 1.628,-1.628 0.532,0 0.999,0.258 1.296,0.652 C 0.262,-1.456 0.154,-0.726 0,0" />
    </g>
    <g
       transform="matrix(1.25,0,0,-1.25,-315.17479,367.42796)"
       id="g324">
      <path
         id="path326"
         style="fill:#ca482c;fill-opacity:1;fill-rule:nonzero;stroke:none"
         d="m 0,0 c 0.138,-0.435 0.606,-0.678 1.041,-0.54 l 0,0 c 0.435,0.137 0.678,0.606 0.54,1.04 L 1.059,2.151 C 0.921,2.586 0.453,2.829 0.018,2.692 l 0,0 C -0.417,2.554 -0.66,2.086 -0.522,1.651 L 0,0 Z" />
    </g>
    <path
       d="m -324.18266,388.13283 c -9.3225,-1.68 -18.245,4.5175 -19.9275,13.8425 -0.2025,1.1375 -0.29,2.27125 -0.26875,3.385 4.4025,-10.01625 14.935,-16.2725 26.12625,-14.965 -1.7675,-1.0875 -3.76375,-1.8725 -5.93,-2.2625"
       style="fill:#ffffff;fill-opacity:1;fill-rule:nonzero;stroke:none"
       id="path330" />
    <path
       d="m -344.58091,416.46546 c -6.69875,-9.6425 -4.31125,-22.89 5.33125,-29.58875 9.6425,-6.7 22.89125,-4.3125 29.59,5.33125 6.6975,9.6425 4.31,22.89125 -5.3325,29.59 -9.64375,6.6975 -22.89125,4.31125 -29.58875,-5.3325 m 31.92875,8.7025 c 11.505,-7.99125 14.35125,-23.79625 6.36,-35.3 -7.98875,-11.5025 -23.79375,-14.3525 -35.2975,-6.36 -11.12625,7.7275 -14.155,22.765 -7.11,34.1525 l -1.76875,1.22875 c -0.9575,-0.505 -2.1525,-0.485 -3.1025,0.175 l -13.66875,9.495 c -1.36,0.945 -1.695,2.81 -0.75125,4.16875 0.9425,1.35625 2.8075,1.69375 4.165,0.75 l 13.6725,-9.495 c 0.94875,-0.66 1.385,-1.7725 1.245,-2.84875 l 1.7675,-1.2275 c 8.2125,10.5775 23.36375,12.99 34.48875,5.26125"
       style="fill:#20b8d1;fill-opacity:1;fill-rule:nonzero;stroke:none"
       id="path334" />
  </g>
</svg>
