<?xml version="1.0" encoding="UTF-8" standalone="no"?>
<!-- Created with Inkscape (http://www.inkscape.org/) -->

<svg
   xmlns:dc="http://purl.org/dc/elements/1.1/"
   xmlns:cc="http://creativecommons.org/ns#"
   xmlns:rdf="http://www.w3.org/1999/02/22-rdf-syntax-ns#"
   xmlns:svg="http://www.w3.org/2000/svg"
   xmlns="http://www.w3.org/2000/svg"
   xmlns:sodipodi="http://sodipodi.sourceforge.net/DTD/sodipodi-0.dtd"
   xmlns:inkscape="http://www.inkscape.org/namespaces/inkscape"
   width="60.240822mm"
   height="19.129459mm"
   viewBox="0 0 60.240822 19.129459"
   version="1.1"
   id="svg1148"
   inkscape:version="0.92.2pre0 (973e216, 2017-07-25)"
   sodipodi:docname="dervis.svg">
  <defs
     id="defs1142">
    <clipPath
       clipPathUnits="userSpaceOnUse"
       id="clipPath118">
      <path
         d="M 0,310.452 H 411.299 V 0 H 0 Z"
         id="path116"
         inkscape:connector-curvature="0" />
    </clipPath>
  </defs>
  <sodipodi:namedview
     id="base"
     pagecolor="#ffffff"
     bordercolor="#666666"
     borderopacity="1.0"
     inkscape:pageopacity="0.0"
     inkscape:pageshadow="2"
     inkscape:zoom="0.7"
     inkscape:cx="-410.35059"
     inkscape:cy="259.00732"
     inkscape:document-units="mm"
     inkscape:current-layer="text110"
     showgrid="false"
     fit-margin-top="0"
     fit-margin-left="0"
     fit-margin-right="0"
     fit-margin-bottom="0"
     inkscape:window-width="1920"
     inkscape:window-height="998"
     inkscape:window-x="0"
     inkscape:window-y="0"
     inkscape:window-maximized="1" />
  <metadata
     id="metadata1145">
    <rdf:RDF>
      <cc:Work
         rdf:about="">
        <dc:format>image/svg+xml</dc:format>
        <dc:type
           rdf:resource="http://purl.org/dc/dcmitype/StillImage" />
        <dc:title />
      </cc:Work>
    </rdf:RDF>
  </metadata>
  <g
     inkscape:label="Calque 1"
     inkscape:groupmode="layer"
     id="layer1"
     transform="translate(-34.13554,-198.23289)">
    <g
       aria-label="DERRIÈRE
LE VISEUR"
       transform="scale(0.99510478,1.0049193)"
       style="font-variant:normal;font-weight:900;font-stretch:normal;font-size:6.98401594px;font-family:'Montserrat Black';-inkscape-font-specification:Montserrat-Black;writing-mode:lr-tb;fill:#ca482c;fill-opacity:1;fill-rule:nonzero;stroke:none;stroke-width:0.35105082"
       id="text110">
      <path
         d="m 55.730139,200.53044 h 2.409486 q 0.81713,0 1.438707,0.30031 0.628561,0.29333 0.970778,0.84507 0.349201,0.55174 0.349201,1.29902 0,0.74729 -0.349201,1.29903 -0.342217,0.55174 -0.970778,0.85205 -0.621577,0.29333 -1.438707,0.29333 h -2.409486 z m 2.339646,3.60375 q 0.530785,0 0.845066,-0.30031 0.321264,-0.3073 0.321264,-0.85904 0,-0.55173 -0.321264,-0.85205 -0.314281,-0.30729 -0.845066,-0.30729 h -0.691418 v 2.31869 z"
         style="stroke-width:0.35105082"
         id="path840" />
      <path
         d="m 65.095705,204.1761 v 1.24315 h -4.064697 v -4.88881 h 3.973905 v 1.24315 H 62.6513 v 0.57269 h 2.067269 v 1.18729 H 62.6513 v 0.64253 z"
         style="stroke-width:0.35105082"
         id="path842" />
      <path
         d="m 67.945183,204.19006 h -0.446977 v 1.22919 h -1.648228 v -4.88881 h 2.353613 q 0.67745,0 1.180299,0.22349 0.502849,0.22349 0.775226,0.64253 0.272376,0.41904 0.272376,0.97776 0,0.5238 -0.237456,0.91491 -0.237457,0.3911 -0.684434,0.62157 l 1.026651,1.50855 h -1.759972 z m 0.824114,-1.81584 q 0,-0.27238 -0.167617,-0.41904 -0.167616,-0.15365 -0.502849,-0.15365 h -0.600625 v 1.14538 h 0.600625 q 0.335233,0 0.502849,-0.14667 0.167617,-0.15364 0.167617,-0.42602 z"
         style="stroke-width:0.35105082"
         id="path844" />
      <path
         d="m 73.008598,204.19006 h -0.446977 v 1.22919 h -1.648228 v -4.88881 h 2.353614 q 0.677449,0 1.180299,0.22349 0.502849,0.22349 0.775225,0.64253 0.272377,0.41904 0.272377,0.97776 0,0.5238 -0.237457,0.91491 -0.237456,0.3911 -0.684433,0.62157 l 1.02665,1.50855 h -1.759972 z m 0.824114,-1.81584 q 0,-0.27238 -0.167616,-0.41904 -0.167617,-0.15365 -0.502849,-0.15365 h -0.600626 v 1.14538 h 0.600626 q 0.335232,0 0.502849,-0.14667 0.167616,-0.15364 0.167616,-0.42602 z"
         style="stroke-width:0.35105082"
         id="path846" />
      <path
         d="m 75.976801,200.53044 h 1.648228 v 4.88881 h -1.648228 z"
         style="stroke-width:0.35105082"
         id="path848" />
      <path
         d="m 82.360194,204.1761 v 1.24315 h -4.064698 v -4.88881 h 3.973906 v 1.24315 h -2.353614 v 0.57269 h 2.067269 v 1.18729 h -2.067269 v 0.64253 z m -3.764385,-5.16119 h 1.501564 l 0.92189,1.11744 H 79.97166 Z"
         style="stroke-width:0.35105082"
         id="path850" />
      <path
         d="m 85.209671,204.19006 h -0.446977 v 1.22919 h -1.648228 v -4.88881 h 2.353614 q 0.677449,0 1.180298,0.22349 0.502849,0.22349 0.775226,0.64253 0.272377,0.41904 0.272377,0.97776 0,0.5238 -0.237457,0.91491 -0.237456,0.3911 -0.684433,0.62157 l 1.02665,1.50855 h -1.759972 z m 0.824114,-1.81584 q 0,-0.27238 -0.167617,-0.41904 -0.167616,-0.15365 -0.502849,-0.15365 h -0.600625 v 1.14538 h 0.600625 q 0.335233,0 0.502849,-0.14667 0.167617,-0.15364 0.167617,-0.42602 z"
         style="stroke-width:0.35105082"
         id="path852" />
      <path
         d="m 92.242571,204.1761 v 1.24315 h -4.064697 v -4.88881 h 3.973905 v 1.24315 h -2.353613 v 0.57269 h 2.067268 v 1.18729 h -2.067268 v 0.64253 z"
         style="stroke-width:0.35105082"
         id="path854" />
      <path
         d="m 55.730139,208.0173 h 1.648228 v 3.61074 h 2.206949 v 1.27807 h -3.855177 z"
         style="stroke-width:0.35105082"
         id="path856" />
      <path
         d="m 64.006197,211.66296 v 1.24315 H 59.9415 v -4.88881 h 3.973905 v 1.24316 h -2.353613 v 0.57269 h 2.067269 v 1.18728 h -2.067269 v 0.64253 z"
         style="stroke-width:0.35105082"
         id="path858" />
      <path
         d="m 72.34511,208.0173 -2.067269,4.88881 H 68.657549 L 66.59028,208.0173 h 1.77394 l 1.166331,2.85646 1.194267,-2.85646 z"
         style="stroke-width:0.35105082"
         id="path860" />
      <path
         d="m 72.589556,208.0173 h 1.648228 v 4.88881 h -1.648228 z"
         style="stroke-width:0.35105082"
         id="path862" />
      <path
         d="m 76.86377,213.01786 q -0.60761,0 -1.187283,-0.1327 -0.572689,-0.13968 -0.942842,-0.37015 l 0.530785,-1.20125 q 0.349201,0.20253 0.78221,0.32825 0.433009,0.11872 0.831098,0.11872 0.342217,0 0.488881,-0.0628 0.146664,-0.0698 0.146664,-0.20254 0,-0.15365 -0.195552,-0.23047 -0.188569,-0.0768 -0.628562,-0.16762 -0.565705,-0.11873 -0.942842,-0.25142 -0.377137,-0.13968 -0.656497,-0.44698 -0.279361,-0.31428 -0.279361,-0.84506 0,-0.46095 0.258409,-0.83809 0.258408,-0.37713 0.768242,-0.59364 0.516817,-0.2165 1.250138,-0.2165 0.50285,0 0.984747,0.11174 0.488881,0.10476 0.859034,0.31428 l -0.495866,1.19427 q -0.719353,-0.36317 -1.361883,-0.36317 -0.635545,0 -0.635545,0.3073 0,0.14666 0.188568,0.22349 0.188569,0.0698 0.621578,0.15364 0.558721,0.10476 0.942842,0.24444 0.384121,0.1327 0.663481,0.44 0.286345,0.30729 0.286345,0.83808 0,0.46094 -0.258409,0.83808 -0.258408,0.37015 -0.775225,0.59364 -0.509833,0.21651 -1.243155,0.21651 z"
         style="stroke-width:0.35105082"
         id="path864" />
      <path
         d="m 83.87572,211.66296 v 1.24315 h -4.064698 v -4.88881 h 3.973905 v 1.24316 h -2.353613 v 0.57269 h 2.067269 v 1.18728 h -2.067269 v 0.64253 z"
         style="stroke-width:0.35105082"
         id="path866" />
      <path
         d="m 87.102335,213.01786 q -1.124426,0 -1.752988,-0.60761 -0.628561,-0.60761 -0.628561,-1.7041 v -2.68885 h 1.648228 v 2.63996 q 0,0.53777 0.188568,0.78221 0.195553,0.24444 0.558721,0.24444 0.363169,0 0.551738,-0.24444 0.195552,-0.24444 0.195552,-0.78221 v -2.63996 h 1.620292 v 2.68885 q 0,1.09649 -0.628562,1.7041 -0.628561,0.60761 -1.752988,0.60761 z"
         style="stroke-width:0.35105082"
         id="path868" />
      <path
         d="M 92.249557,211.67693 H 91.80258 v 1.22918 h -1.648227 v -4.88881 h 2.353613 q 0.67745,0 1.180299,0.22349 0.502849,0.22349 0.775225,0.64253 0.272377,0.41904 0.272377,0.97776 0,0.5238 -0.237456,0.91491 -0.237457,0.3911 -0.684434,0.62158 l 1.02665,1.50854 h -1.759972 z m 0.824114,-1.81585 q 0,-0.27237 -0.167616,-0.41904 -0.167616,-0.15365 -0.502849,-0.15365 H 91.80258 v 1.14538 h 0.600626 q 0.335233,0 0.502849,-0.14666 0.167616,-0.15365 0.167616,-0.42603 z"
         style="stroke-width:0.35105082"
         id="path870" />
    </g>
    <g
       transform="matrix(0.35277777,0,0,-0.35277777,19.612173,238.26694)"
       id="g112">
      <g
         id="g114"
         clip-path="url(#clipPath118)">
        <g
           id="g120"
           transform="translate(74.6296,106.3042)">
          <path
             d="M 0,0 C 0,0.239 0.195,0.434 0.434,0.434 H 10.496 C 10.736,0.434 10.93,0.239 10.93,0 V -4.211 H 0 Z M 13.489,-4.238 V 0 c 0,1.65 -1.342,2.993 -2.993,2.993 H 0.434 C -1.216,2.993 -2.559,1.65 -2.559,0 v -4.211 h -4.479 c -0.707,0 -1.28,-0.573 -1.28,-1.279 0,-0.707 0.573,-1.28 1.28,-1.28 h 19.992 c 2.06,0 3.735,-1.675 3.735,-3.734 v -23.439 c 0,-2.059 -1.675,-3.734 -3.735,-3.734 -0.706,0 -1.279,-0.573 -1.279,-1.28 0,-0.706 0.573,-1.279 1.279,-1.279 3.471,0 6.294,2.823 6.294,6.293 v 23.439 c 0,3.289 -2.539,5.993 -5.759,6.266"
             style="fill:#20b8d1;fill-opacity:1;fill-rule:nonzero;stroke:none"
             id="path122"
             inkscape:connector-curvature="0" />
        </g>
        <g
           id="g124"
           transform="translate(47.4626,68.7235)">
          <path
             d="m 0,0 c -2.059,0 -3.735,1.676 -3.735,3.735 v 23.438 c 0,2.059 1.416,4.327 4.118,5.318 0.663,0.243 -0.267,1.418 -0.267,1.418 -4.188,-1.35 -6.41,-3.266 -6.41,-6.736 V 3.735 c 0,-3.471 2.824,-6.294 6.294,-6.294 h 10.565 c 0.252,0.817 0.503,1.765 0.754,2.559 z"
             style="fill:#ca482c;fill-opacity:1;fill-rule:nonzero;stroke:none"
             id="path126"
             inkscape:connector-curvature="0" />
        </g>
        <g
           id="g128"
           transform="translate(85.4194,84.129)">
          <path
             d="m 0,0 c 0,9.906 -8.059,17.964 -17.964,17.964 -0.707,0 -1.28,-0.573 -1.28,-1.279 0,-0.707 0.573,-1.28 1.28,-1.28 8.494,0 15.405,-6.91 15.405,-15.405 0,-6.21 -3.72,-11.586 -9.025,-14.022 -0.182,-0.93 -0.591,-2.117 -0.22,-2.764 C -8.135,-16.786 0,-7.728 0,0"
             style="fill:#ca482c;fill-opacity:1;fill-rule:nonzero;stroke:none"
             id="path130"
             inkscape:connector-curvature="0" />
        </g>
        <g
           id="g132"
           transform="translate(66.5042,82.067)">
          <path
             d="M 0,0 C 0.134,0.416 0.538,1.673 1.484,1.7 1.555,1.689 1.812,1.638 2.064,1.423 2.464,1.081 2.675,0.461 2.675,-0.37 2.675,-1.502 2.314,-2.438 1.632,-3.079 1.059,-3.617 0.289,-3.924 -0.546,-3.95 -0.497,-2.321 -0.31,-0.964 0,0 m -2.017,1.745 c 0.255,-0.264 0.676,-0.27 0.939,-0.015 0.294,0.285 1.189,1.152 0.861,1.961 -0.154,0.379 -0.538,0.614 -1.002,0.614 H -1.22 c -0.893,-10e-4 -4.05,-1.172 -4.05,-4.884 0,-2.533 1.562,-4.075 3.388,-4.546 0.023,-1.053 0.132,-2.084 0.229,-3.009 0.054,-0.511 0.105,-0.994 0.136,-1.426 0.12,-1.697 0.102,-4.065 0.102,-4.089 -0.003,-0.367 0.292,-0.666 0.659,-0.669 h 0.006 c 0.364,0 0.661,0.293 0.664,0.658 0,0.099 0.018,2.444 -0.106,4.194 -0.032,0.455 -0.085,0.949 -0.14,1.471 -0.089,0.844 -0.187,1.778 -0.217,2.716 1.176,0.026 2.27,0.461 3.091,1.232 0.956,0.898 1.461,2.169 1.461,3.677 0,2.577 -1.602,3.349 -2.45,3.398 L 1.515,3.029 c -1.601,0 -2.395,-1.426 -2.78,-2.623 -0.342,-1.064 -0.544,-2.462 -0.604,-4.163 -1.416,0.5 -2.072,1.879 -2.072,3.178 0,1.176 0.407,2.121 1.211,2.809 0.27,0.23 0.546,0.397 0.789,0.514 -0.02,-0.019 -0.04,-0.039 -0.062,-0.06 -0.263,-0.255 -0.27,-0.676 -0.014,-0.939"
             style="fill:#ca482c;fill-opacity:1;fill-rule:nonzero;stroke:none"
             id="path134"
             inkscape:connector-curvature="0" />
        </g>
        <g
           id="g136"
           transform="translate(72.8367,69.5744)">
          <path
             d="m 0,0 c -0.432,-0.241 -0.958,-0.446 -1.197,-0.202 -0.102,0.103 -0.118,0.102 -0.118,0.33 0,3.861 1.292,6.46 2.541,8.974 1.052,2.116 2.045,4.114 2.045,6.533 0,2.757 -1.074,5.349 -3.023,7.298 -1.95,1.95 -4.542,3.023 -7.298,3.023 -2.757,0 -5.349,-1.073 -7.299,-3.023 -1.949,-1.949 -3.023,-4.541 -3.023,-7.298 0,-2.496 1.018,-4.508 2.096,-6.638 1.255,-2.481 2.554,-5.047 2.554,-8.895 0,-0.29 -0.074,-0.511 -0.22,-0.657 -0.232,-0.232 -0.716,-0.296 -1.359,-0.296 h -0.06 c 0.049,-0.469 -0.467,-2.09 -0.446,-2.559 2.256,0.016 3.491,2.347 3.491,3.512 0,7.54 -4.649,10.679 -4.649,15.533 0,4.924 3.991,8.915 8.915,8.915 4.923,0 8.914,-3.991 8.914,-8.915 0,-4.724 -4.585,-7.993 -4.585,-15.507 0,-0.972 0.584,-2.353 2.967,-2.353 0.152,0 0.355,-0.02 0.643,-0.004 0.066,0.469 0.04,2.298 0.118,2.766 z"
             style="fill:#ca482c;fill-opacity:1;fill-rule:nonzero;stroke:none"
             id="path138"
             inkscape:connector-curvature="0" />
        </g>
        <g
           id="g140"
           transform="translate(65.8171,59.2571)">
          <path
             d="M 0,0 C 0.982,0 1.861,0.44 2.452,1.133 H -2.452 C -1.861,0.44 -0.982,0 0,0"
             style="fill:#ca482c;fill-opacity:1;fill-rule:nonzero;stroke:none"
             id="path142"
             inkscape:connector-curvature="0" />
        </g>
        <g
           id="g144"
           transform="translate(68.3388,64.1085)">
          <path
             d="m 0,0 h -5.157 c -0.344,0 -0.625,0.281 -0.625,0.625 0,0.344 0.281,0.625 0.625,0.625 H 0 C 0.344,1.25 0.625,0.969 0.625,0.625 0.625,0.281 0.344,0 0,0 m -1.436,-1.875 h -3.692 c -0.36,0 -0.654,0.294 -0.654,0.654 0,0.36 0.294,0.654 0.654,0.654 h 3.692 c 0.36,0 0.655,-0.294 0.655,-0.654 0,-0.36 -0.295,-0.654 -0.655,-0.654 m 3.383,3.418 c 0,0.53 -0.434,0.964 -0.964,0.964 h -7.084 c -0.531,0 -0.964,-0.434 -0.964,-0.964 0,-0.464 0.332,-0.854 0.771,-0.944 -0.439,-0.09 -0.771,-0.48 -0.771,-0.944 v 0 c 0,-0.429 0.283,-0.794 0.672,-0.918 -0.389,-0.125 -0.672,-0.49 -0.672,-0.918 v 0 c 0,-0.53 0.433,-0.964 0.964,-0.964 h 7.084 c 0.53,0 0.964,0.434 0.964,0.964 v 0 c 0,0.428 -0.284,0.793 -0.672,0.918 0.388,0.124 0.672,0.489 0.672,0.918 v 0 c 0,0.464 -0.332,0.854 -0.771,0.944 0.439,0.09 0.771,0.48 0.771,0.944"
             style="fill:#ca482c;fill-opacity:1;fill-rule:nonzero;stroke:none"
             id="path146"
             inkscape:connector-curvature="0" />
        </g>
        <g
           id="g148"
           transform="translate(74.1283,111.0894)">
          <path
             d="m 0,0 c 0.14,-0.373 0.559,-0.563 0.932,-0.423 0.373,0.14 0.563,0.559 0.423,0.932 L 0.824,1.924 C 0.684,2.296 0.265,2.487 -0.108,2.347 v 0 C -0.48,2.207 -0.671,1.788 -0.531,1.415 Z"
             style="fill:#ca482c;fill-opacity:1;fill-rule:nonzero;stroke:none"
             id="path150"
             inkscape:connector-curvature="0" />
        </g>
        <g
           id="g152"
           transform="translate(46.3555,100.654)">
          <path
             d="m 0,0 -0.5,1.33 26.775,10.069 0.5,-1.331 z"
             style="fill:#ca482c;fill-opacity:1;fill-rule:nonzero;stroke:none"
             id="path154"
             inkscape:connector-curvature="0" />
        </g>
      </g>
    </g>
  </g>
</svg>
