<?xml version="1.0" encoding="UTF-8" standalone="no"?>
<!-- Created with Inkscape (http://www.inkscape.org/) -->

<svg
   xmlns:dc="http://purl.org/dc/elements/1.1/"
   xmlns:cc="http://creativecommons.org/ns#"
   xmlns:rdf="http://www.w3.org/1999/02/22-rdf-syntax-ns#"
   xmlns:svg="http://www.w3.org/2000/svg"
   xmlns="http://www.w3.org/2000/svg"
   xmlns:sodipodi="http://sodipodi.sourceforge.net/DTD/sodipodi-0.dtd"
   xmlns:inkscape="http://www.inkscape.org/namespaces/inkscape"
   width="63.821548mm"
   height="14.26978mm"
   viewBox="0 0 63.821548 14.26978"
   version="1.1"
   id="svg1241"
   inkscape:version="0.92.2pre0 (973e216, 2017-07-25)"
   sodipodi:docname="libant.svg">
  <defs
     id="defs1235">
    <clipPath
       clipPathUnits="userSpaceOnUse"
       id="clipPath238">
      <path
         d="M 0,310.452 H 411.299 V 0 H 0 Z"
         id="path236"
         inkscape:connector-curvature="0" />
    </clipPath>
  </defs>
  <sodipodi:namedview
     id="base"
     pagecolor="#ffffff"
     bordercolor="#666666"
     borderopacity="1.0"
     inkscape:pageopacity="0.0"
     inkscape:pageshadow="2"
     inkscape:zoom="0.35"
     inkscape:cx="-536.5352"
     inkscape:cy="321.25222"
     inkscape:document-units="mm"
     inkscape:current-layer="layer1"
     showgrid="false"
     fit-margin-top="0"
     fit-margin-left="0"
     fit-margin-right="0"
     fit-margin-bottom="0"
     inkscape:window-width="1920"
     inkscape:window-height="998"
     inkscape:window-x="0"
     inkscape:window-y="0"
     inkscape:window-maximized="1" />
  <metadata
     id="metadata1238">
    <rdf:RDF>
      <cc:Work
         rdf:about="">
        <dc:format>image/svg+xml</dc:format>
        <dc:type
           rdf:resource="http://purl.org/dc/dcmitype/StillImage" />
        <dc:title></dc:title>
      </cc:Work>
    </rdf:RDF>
  </metadata>
  <g
     inkscape:label="Calque 1"
     inkscape:groupmode="layer"
     id="layer1"
     transform="translate(-94.333272,-219.56154)">
    <g
       transform="matrix(0.35277777,0,0,-0.35277777,76.258562,258.83483)"
       id="g232">
      <g
         id="g234"
         clip-path="url(#clipPath238)">
        <g
           id="g240"
           transform="translate(116.8503,103.9772)">
          <path
             d="m 0,0 h -27.806 c -0.04,-0.334 -0.032,-0.658 -0.016,-0.99 H 0 c 2.391,0 4.337,-1.459 4.337,-3.251 v -17.945 c 0,-1.793 -1.946,-3.251 -4.337,-3.251 -0.274,0 -0.496,-0.222 -0.496,-0.495 v -4.965 l -9.434,5.618 c -1.5,0.216 -1.061,-0.513 -1.283,-0.206 l -0.362,-0.114 c 0.148,-0.362 0.246,-0.008 0.428,-0.157 0.227,-0.186 10.843,-6.543 10.843,-6.543 0.089,-0.069 0.196,-0.104 0.304,-0.104 0.074,0 0.148,0.017 0.217,0.05 0.17,0.084 0.278,0.256 0.278,0.445 v 5.499 c 2.706,0.199 4.832,2.017 4.832,4.223 V -4.241 C 5.327,-1.903 2.937,0 0,0"
             style="fill:#ca482c;fill-opacity:1;fill-rule:nonzero;stroke:none"
             id="path242"
             inkscape:connector-curvature="0" />
        </g>
        <g
           id="g244"
           transform="translate(83.518,78.5401)">
          <path
             d="m 0,0 c -2.391,0 -4.336,1.458 -4.336,3.251 h -0.991 c 0,-2.339 2.39,-4.241 5.327,-4.241 h 11.034 c 0.17,0.297 1.476,0.64 1.593,0.99 z"
             style="fill:#ca482c;fill-opacity:1;fill-rule:nonzero;stroke:none"
             id="path246"
             inkscape:connector-curvature="0" />
        </g>
        <g
           id="g248"
           transform="translate(55.4764,105.5939)">
          <path
             d="m 0,0 c -1.793,0 -3.251,-1.458 -3.251,-3.251 v -17.096 c 0,-1.792 1.458,-3.251 3.251,-3.251 0.274,0 0.495,-0.221 0.495,-0.495 v -5.794 l 8.521,6.144 c 0.093,0.093 0.219,0.145 0.35,0.145 h 20.603 c 1.792,0 3.251,1.459 3.251,3.251 V -3.251 C 33.22,-1.458 31.761,0 29.969,0 Z m 0,-31.578 c -0.064,0 -0.128,0.012 -0.189,0.038 -0.185,0.076 -0.306,0.257 -0.306,0.457 v 6.524 c -2.106,0.245 -3.746,2.041 -3.746,4.212 v 17.096 c 0,2.339 1.902,4.241 4.241,4.241 h 29.969 c 2.338,0 4.241,-1.902 4.241,-4.241 v -17.096 c 0,-2.339 -1.903,-4.241 -4.241,-4.241 H 9.572 L 0.351,-31.433 C 0.256,-31.528 0.129,-31.578 0,-31.578"
             style="fill:#20b8d1;fill-opacity:1;fill-rule:nonzero;stroke:none"
             id="path250"
             inkscape:connector-curvature="0" />
        </g>
        <g
           id="g252"
           transform="translate(62.6278,93.3353)">
          <path
             d="m 0,0 c 0,-1.355 -0.933,-2.288 -2.287,-2.288 -1.333,0 -2.266,0.933 -2.266,2.288 0,1.332 0.933,2.265 2.266,2.265 C -0.933,2.265 0,1.332 0,0"
             style="fill:#20b8d1;fill-opacity:1;fill-rule:nonzero;stroke:none"
             id="path254"
             inkscape:connector-curvature="0" />
        </g>
        <g
           id="g256"
           transform="translate(72.7371,93.3353)">
          <path
             d="m 0,0 c 0,-1.355 -0.933,-2.288 -2.287,-2.288 -1.333,0 -2.266,0.933 -2.266,2.288 0,1.332 0.933,2.265 2.266,2.265 C -0.933,2.265 0,1.332 0,0"
             style="fill:#20b8d1;fill-opacity:1;fill-rule:nonzero;stroke:none"
             id="path258"
             inkscape:connector-curvature="0" />
        </g>
        <g
           id="g260"
           transform="translate(82.8463,93.3353)">
          <path
             d="m 0,0 c 0,-1.355 -0.933,-2.288 -2.287,-2.288 -1.333,0 -2.266,0.933 -2.266,2.288 0,1.332 0.933,2.265 2.266,2.265 C -0.933,2.265 0,1.332 0,0"
             style="fill:#20b8d1;fill-opacity:1;fill-rule:nonzero;stroke:none"
             id="path262"
             inkscape:connector-curvature="0" />
        </g>
        <g
           id="g264"
           transform="translate(112.9939,109.6628)">
          <path
             d="m 0,0 c 0.088,-0.263 0.376,-0.406 0.639,-0.318 v 0 c 0.263,0.089 0.406,0.376 0.317,0.639 L 0.621,1.32 C 0.533,1.583 0.245,1.725 -0.018,1.637 -0.281,1.549 -0.423,1.261 -0.335,0.999 Z"
             style="fill:#ca482c;fill-opacity:1;fill-rule:nonzero;stroke:none"
             id="path266"
             inkscape:connector-curvature="0" />
        </g>
        <g
           id="g268"
           transform="translate(93.1904,103.0188)">
          <path
             d="M 0,0 -0.316,0.939 18.579,7.296 18.895,6.357 Z"
             style="fill:#ca482c;fill-opacity:1;fill-rule:nonzero;stroke:none"
             id="path270"
             inkscape:connector-curvature="0" />
        </g>
        <g
           id="g272"
           transform="translate(106.5709,78.7357)">
          <path
             d="m 0,0 c -0.282,0 -0.782,0.035 -0.967,0.27 -0.119,0.152 -0.144,0.411 -0.144,0.601 0,3.227 1.08,5.4 2.124,7.502 0.879,1.768 1.708,3.438 1.708,5.46 0,2.304 -0.897,4.471 -2.526,6.1 -1.63,1.63 -3.796,2.527 -6.101,2.527 -2.304,0 -4.47,-0.897 -6.1,-2.527 -1.629,-1.629 -2.526,-3.796 -2.526,-6.1 0,-2.087 0.85,-3.768 1.751,-5.548 1.05,-2.075 2.135,-4.219 2.135,-7.436 0,-0.242 -0.062,-0.427 -0.184,-0.548 C -11.024,0.107 -11.426,0 -11.963,0 l -13.395,-0.329 c 0.235,-0.401 1.841,-0.472 2.076,-0.857 l 11.319,0.01 c 1.915,0 2.492,1.045 2.492,2.025 0,6.303 -3.886,8.926 -3.886,12.984 0,4.115 3.336,7.451 7.451,7.451 4.116,0 7.452,-3.336 7.452,-7.451 0,-3.949 -3.833,-6.681 -3.833,-12.962 0,-0.813 0.438,-2.044 2.43,-2.044 0.138,0 0.543,-0.327 0.674,-0.367 0.166,-0.05 0.251,0.182 0.746,0.182 -0.27,0.397 -0.726,0.765 -0.953,1.162 z"
             style="fill:#ca482c;fill-opacity:1;fill-rule:nonzero;stroke:none"
             id="path274"
             inkscape:connector-curvature="0" />
        </g>
        <g
           id="g276"
           transform="translate(101.2655,89.9419)">
          <path
             d="M 0,0 C 0.112,0.348 0.449,1.398 1.241,1.421 1.3,1.412 1.515,1.369 1.726,1.189 2.059,0.904 2.236,0.385 2.236,-0.31 2.236,-1.255 1.934,-2.038 1.364,-2.573 0.885,-3.023 0.242,-3.28 -0.456,-3.302 -0.415,-1.94 -0.259,-0.806 0,0 m -1.686,1.458 c 0.213,-0.22 0.565,-0.225 0.785,-0.012 0.246,0.238 0.993,0.963 0.719,1.639 -0.128,0.317 -0.449,0.513 -0.837,0.513 H -1.02 c -0.746,0 -3.385,-0.98 -3.385,-4.082 0,-2.117 1.306,-3.406 2.832,-3.8 0.019,-0.88 0.11,-1.742 0.192,-2.515 0.045,-0.427 0.087,-0.83 0.113,-1.192 0.1,-1.419 0.086,-3.398 0.085,-3.417 -0.002,-0.307 0.244,-0.558 0.551,-0.56 h 0.005 c 0.304,0 0.552,0.245 0.555,0.55 0,0.083 0.015,2.043 -0.089,3.506 -0.027,0.38 -0.07,0.793 -0.116,1.23 -0.075,0.704 -0.157,1.485 -0.182,2.269 0.983,0.022 1.897,0.386 2.583,1.03 0.799,0.751 1.222,1.813 1.222,3.073 0,2.155 -1.339,2.8 -2.048,2.841 L 1.267,2.532 c -1.339,0 -2.003,-1.192 -2.324,-2.192 -0.286,-0.89 -0.455,-2.058 -0.505,-3.48 -1.184,0.418 -1.732,1.57 -1.732,2.656 0,0.983 0.34,1.773 1.012,2.348 0.225,0.192 0.456,0.332 0.659,0.43 C -1.639,2.277 -1.656,2.261 -1.674,2.243 -1.894,2.03 -1.9,1.679 -1.686,1.458"
             style="fill:#ca482c;fill-opacity:1;fill-rule:nonzero;stroke:none"
             id="path278"
             inkscape:connector-curvature="0" />
        </g>
        <g
           id="g280"
           transform="translate(100.6912,70.8761)">
          <path
             d="m 0,0 c 0.821,0 1.556,0.368 2.05,0.947 h -4.1 C -1.556,0.368 -0.821,0 0,0"
             style="fill:#ca482c;fill-opacity:1;fill-rule:nonzero;stroke:none"
             id="path282"
             inkscape:connector-curvature="0" />
        </g>
        <g
           id="g284"
           transform="translate(102.799,74.9312)">
          <path
             d="m 0,0 h -4.311 c -0.287,0 -0.522,0.235 -0.522,0.523 0,0.287 0.235,0.522 0.522,0.522 H 0 C 0.287,1.045 0.523,0.81 0.523,0.523 0.523,0.235 0.287,0 0,0 m -1.2,-1.568 h -3.086 c -0.301,0 -0.547,0.247 -0.547,0.547 0,0.301 0.246,0.547 0.547,0.547 H -1.2 c 0.301,0 0.547,-0.246 0.547,-0.547 0,-0.3 -0.246,-0.547 -0.547,-0.547 M 1.627,1.29 c 0,0.443 -0.362,0.806 -0.805,0.806 H -5.1 c -0.443,0 -0.806,-0.363 -0.806,-0.806 0,-0.388 0.278,-0.714 0.645,-0.789 -0.367,-0.075 -0.645,-0.402 -0.645,-0.789 0,-0.359 0.238,-0.664 0.562,-0.768 -0.324,-0.104 -0.562,-0.409 -0.562,-0.767 v 0 c 0,-0.443 0.363,-0.806 0.806,-0.806 h 5.922 c 0.443,0 0.805,0.363 0.805,0.806 v 0 c 0,0.358 -0.237,0.663 -0.562,0.767 0.325,0.104 0.562,0.409 0.562,0.768 0,0.387 -0.277,0.714 -0.644,0.789 0.367,0.075 0.644,0.401 0.644,0.789"
             style="fill:#ca482c;fill-opacity:1;fill-rule:nonzero;stroke:none"
             id="path286"
             inkscape:connector-curvature="0" />
        </g>
      </g>
    </g>
    <g
       aria-label="LIBRE ANTENNE"
       transform="matrix(0.34933104,0,0,0.35277777,121.55018,225.91213)"
       style="font-variant:normal;font-weight:900;font-stretch:normal;font-size:20.05069923px;font-family:'Montserrat Black';-inkscape-font-specification:Montserrat-Black;writing-mode:lr-tb;fill:#ca482c;fill-opacity:1;fill-rule:nonzero;stroke:none"
       id="text292">
      <path
         inkscape:connector-curvature="0"
         d="m 1.1428899,-14.035489 h 4.731965 V -3.669278 H 12.210876 V 0 H 1.1428899 Z"
         id="path1161" />
      <path
         inkscape:connector-curvature="0"
         d="m 12.852499,-14.035489 h 4.731965 V 0 h -4.731965 z"
         id="path1163" />
      <path
         inkscape:connector-curvature="0"
         d="m 30.737723,-7.3385559 q 1.243144,0.4611661 1.924867,1.3433968 0.681724,0.8822308 0.681724,2.1253741 0,1.8446644 -1.523853,2.86725 Q 30.296608,0 27.409307,0 h -7.899975 v -14.035489 h 7.498961 q 2.807098,0 4.230698,1.002534 1.44365,1.002535 1.44365,2.666743 0,0.9824848 -0.501268,1.764462 -0.481216,0.7819773 -1.44365,1.2631941 z m -6.576629,-3.3885681 v 2.0852726 h 2.205577 q 1.543904,0 1.543904,-1.0426363 0,-1.0426363 -1.543904,-1.0426363 z m 2.847199,7.4187586 q 1.563955,0 1.563955,-1.1027884 0,-1.1027885 -1.563955,-1.1027885 h -2.847199 v 2.2055769 z"
         id="path1165" />
      <path
         inkscape:connector-curvature="0"
         d="M 40.041248,-3.5289231 H 38.758003 V 0 h -4.731965 v -14.035489 h 6.757086 q 1.944918,0 3.388568,0.641622 1.44365,0.641622 2.225627,1.844664 0.781978,1.203042 0.781978,2.8070981 0,1.5038025 -0.681724,2.6266416 -0.681724,1.1228392 -1.964969,1.7845123 L 47.480057,0 h -5.052776 z m 2.365982,-5.2131818 q 0,-0.7819772 -0.481216,-1.2030419 -0.481217,-0.4411152 -1.443651,-0.4411152 h -1.72436 v 3.2883145 h 1.72436 q 0.962434,0 1.443651,-0.4210647 0.481216,-0.4411154 0.481216,-1.2230927 z"
         id="path1167" />
      <path
         inkscape:connector-curvature="0"
         d="M 60.232303,-3.5690245 V 0 H 48.562796 v -14.035489 h 11.408848 v 3.569024 h -6.757085 v 1.6441573 h 5.935007 v 3.4086189 h -5.935007 v 1.8446643 z"
         id="path1169" />
      <path
         inkscape:connector-curvature="0"
         d="M 10.707073,19.048165 H 5.3735874 L 4.4312045,21.49435 H -0.38096329 L 5.7545507,7.458861 H 10.406313 L 16.541827,21.49435 H 11.649456 Z M 9.4037779,15.639546 8.0403304,12.110623 6.6768828,15.639546 Z"
         id="path1171" />
      <path
         inkscape:connector-curvature="0"
         d="M 31.379344,7.458861 V 21.49435 H 27.489509 L 22.156023,15.118228 V 21.49435 H 17.544362 V 7.458861 h 3.889836 l 5.333486,6.376122 V 7.458861 Z"
         id="path1173" />
      <path
         inkscape:connector-curvature="0"
         d="M 36.632628,11.128139 H 32.522235 V 7.458861 h 12.952751 v 3.669278 H 41.364593 V 21.49435 h -4.731965 z"
         id="path1175" />
      <path
         inkscape:connector-curvature="0"
         d="M 58.487892,17.925326 V 21.49435 H 46.818385 V 7.458861 h 11.408848 v 3.569024 h -6.757086 v 1.644158 h 5.935007 v 3.408619 h -5.935007 v 1.844664 z"
         id="path1177" />
      <path
         inkscape:connector-curvature="0"
         d="M 74.869314,7.458861 V 21.49435 H 70.979478 L 65.645992,15.118228 V 21.49435 H 61.034331 V 7.458861 h 3.889836 l 5.333486,6.376122 V 7.458861 Z"
         id="path1179" />
      <path
         inkscape:connector-curvature="0"
         d="M 90.909872,7.458861 V 21.49435 H 87.020036 L 81.68655,15.118228 V 21.49435 H 77.074889 V 7.458861 h 3.889836 l 5.333486,6.376122 V 7.458861 Z"
         id="path1181" />
      <path
         inkscape:connector-curvature="0"
         d="M 104.78496,17.925326 V 21.49435 H 93.115455 V 7.458861 H 104.5243 v 3.569024 h -6.757083 v 1.644158 h 5.935003 v 3.408619 h -5.935003 v 1.844664 z"
         id="path1183" />
    </g>
  </g>
</svg>
