<?xml version="1.0" encoding="UTF-8" standalone="no"?>
<!-- Created with Inkscape (http://www.inkscape.org/) -->

<svg
   xmlns:dc="http://purl.org/dc/elements/1.1/"
   xmlns:cc="http://creativecommons.org/ns#"
   xmlns:rdf="http://www.w3.org/1999/02/22-rdf-syntax-ns#"
   xmlns:svg="http://www.w3.org/2000/svg"
   xmlns="http://www.w3.org/2000/svg"
   xmlns:sodipodi="http://sodipodi.sourceforge.net/DTD/sodipodi-0.dtd"
   xmlns:inkscape="http://www.inkscape.org/namespaces/inkscape"
   width="222.77916mm"
   height="229.40942mm"
   viewBox="0 0 789.37497 812.86803"
   id="svg4402"
   version="1.1"
   inkscape:version="0.91 r13725"
   sodipodi:docname="logo_ri.svg">
  <defs
     id="defs4404" />
  <sodipodi:namedview
     id="base"
     pagecolor="#ffffff"
     bordercolor="#666666"
     borderopacity="1.0"
     inkscape:pageopacity="0.0"
     inkscape:pageshadow="2"
     inkscape:zoom="0.35"
     inkscape:cx="-433.16969"
     inkscape:cy="657.86258"
     inkscape:document-units="px"
     inkscape:current-layer="layer1"
     showgrid="false"
     fit-margin-top="0"
     fit-margin-left="0"
     fit-margin-right="0"
     fit-margin-bottom="0"
     inkscape:window-width="1920"
     inkscape:window-height="1031"
     inkscape:window-x="0"
     inkscape:window-y="0"
     inkscape:window-maximized="1" />
  <metadata
     id="metadata4407">
    <rdf:RDF>
      <cc:Work
         rdf:about="">
        <dc:format>image/svg+xml</dc:format>
        <dc:type
           rdf:resource="http://purl.org/dc/dcmitype/StillImage" />
        <dc:title></dc:title>
      </cc:Work>
    </rdf:RDF>
  </metadata>
  <g
     inkscape:label="Calque 1"
     inkscape:groupmode="layer"
     id="layer1"
     transform="translate(-113.88397,-377.35677)">
    <g
       transform="matrix(1.25,0,0,-1.25,-1151.2949,1378.6394)"
       id="g4351">
      <g
         transform="translate(1619.6431,658.06769)"
         id="g104">
        <path
           inkscape:connector-curvature="0"
           id="path106"
           style="fill:#ffffff;fill-opacity:1;fill-rule:nonzero;stroke:none"
           d="m 0,0 -583.5,0 c -13.2,0 -24,-10.8 -24,-24 l 0,-357 c 0,-13.2 10.8,-24 24,-24 l 295.834,0 c 29.333,0 38.166,16 38.166,31 0,96.5 -59.5,136.667 -59.5,198.791 0,63.006 51.077,114.083 114.084,114.083 63.006,0 114.083,-51.077 114.083,-114.083 0,-60.457 -58.681,-102.291 -58.681,-198.458 0,-12.438 4.514,-31.333 35.014,-31.333 L 0,-405 c 13.2,0 24,10.8 24,24 l 0,357 C 24,-10.8 13.2,0 0,0 m 0,-18 c 3.253,0 6,-2.748 6,-6 l 0,-357 c 0,-3.252 -2.747,-6 -6,-6 l -104.5,0 c -4.312,0 -11.969,0.537 -14.799,4.134 -1.83,2.326 -2.215,6.286 -2.215,9.199 0,49.412 16.534,82.682 32.522,114.855 13.452,27.071 26.159,52.64 26.159,83.603 0,35.28 -13.739,68.45 -38.687,93.396 -24.947,24.948 -58.116,38.687 -93.396,38.687 -35.281,0 -68.45,-13.739 -93.397,-38.687 -24.948,-24.946 -38.687,-58.116 -38.687,-93.396 0,-31.95 13.025,-57.693 26.815,-84.947 16.069,-31.758 32.685,-64.598 32.685,-113.844 0,-3.706 -0.945,-6.531 -2.812,-8.397 -2.967,-2.968 -9.13,-4.603 -17.354,-4.603 l -295.834,0 c -3.252,0 -6,2.748 -6,6 l 0,357 c 0,3.252 2.748,6 6,6 L 0,-18" />
      </g>
      <g
         transform="translate(1424.3101,267.90069)"
         id="g108">
        <path
           inkscape:connector-curvature="0"
           id="path110"
           style="fill:none;stroke:#ffffff;stroke-width:17;stroke-linecap:round;stroke-linejoin:miter;stroke-miterlimit:10;stroke-dasharray:none;stroke-opacity:1"
           d="M 0,0 C 0,0 0.25,30.675 -1.333,53 -2.565,70.369 -6.19,93.02 -6.033,115.667 -5.719,161.021 2.1,205 29,205 c 0,0 23.333,-1.333 23.333,-35 0,-72.666 -101.666,-71.333 -101.666,-2.666 0,41.217 34.999,53.992 43.333,53.999 5.667,0.006 9.667,-5 -4.105,-18.349" />
      </g>
      <g
         transform="translate(1393.7408,165.23469)"
         id="g112">
        <path
           inkscape:connector-curvature="0"
           id="path114"
           style="fill:#ffffff;fill-opacity:1;fill-rule:nonzero;stroke:none"
           d="M 0,0 C 7.562,-8.871 18.812,-14.503 31.382,-14.503 43.951,-14.503 55.2,-8.871 62.763,0 L 0,0 Z" />
      </g>
      <g
         transform="translate(1457.3931,212.81769)"
         id="g116">
        <path
           inkscape:connector-curvature="0"
           id="path118"
           style="fill:#ffffff;fill-opacity:1;fill-rule:nonzero;stroke:none"
           d="m 0,0 -66,0 c -4.399,0 -8,3.6 -8,8 0,4.4 3.601,8 8,8 L 0,16 C 4.4,16 8,12.4 8,8 8,3.6 4.4,0 0,0 m -18.375,-24 -47.25,0 c -4.605,0 -8.375,3.769 -8.375,8.375 0,4.606 3.77,8.375 8.375,8.375 l 47.25,0 c 4.606,0 8.375,-3.769 8.375,-8.375 0,-4.606 -3.769,-8.375 -8.375,-8.375 M 15.05,7.667 c 5.612,1.15 9.867,6.144 9.867,12.083 0,6.783 -5.55,12.333 -12.333,12.333 l -90.667,0 c -6.783,0 -12.333,-5.55 -12.333,-12.333 0,-5.939 4.255,-10.933 9.866,-12.083 -5.611,-1.151 -9.866,-6.145 -9.866,-12.084 0,-5.484 3.629,-10.159 8.603,-11.75 -4.974,-1.59 -8.603,-6.265 -8.603,-11.75 0,-6.783 5.55,-12.333 12.333,-12.333 l 90.667,0 c 6.783,0 12.333,5.55 12.333,12.333 0,5.485 -3.63,10.16 -8.605,11.75 4.975,1.591 8.605,6.266 8.605,11.75 0,5.939 -4.255,10.933 -9.867,12.084" />
      </g>
      <g
         transform="translate(1221.1021,447.23469)"
         id="g120">
        <path
           inkscape:connector-curvature="0"
           id="path122"
           style="fill:#ffffff;fill-opacity:1;fill-rule:nonzero;stroke:none"
           d="m 0,0 -114.667,0 c -6.05,0 -11,4.949 -11,11 l 0,54.667 c 0,6.049 4.95,11 11,11 L 0,76.667 c 6.05,0 11,-4.951 11,-11 L 11,11 C 11,4.949 6.05,0 0,0" />
      </g>
      <g
         transform="translate(1130.4351,402.40069)"
         id="g124">
        <path
           inkscape:connector-curvature="0"
           id="path126"
           style="fill:#ffffff;fill-opacity:1;fill-rule:nonzero;stroke:none"
           d="m 0,0 c 0,-9.665 -7.835,-17.5 -17.5,-17.5 -9.665,0 -17.5,7.835 -17.5,17.5 0,9.665 7.835,17.5 17.5,17.5 C -7.835,17.5 0,9.665 0,0" />
      </g>
      <g
         transform="translate(1181.2681,402.40069)"
         id="g128">
        <path
           inkscape:connector-curvature="0"
           id="path130"
           style="fill:#ffffff;fill-opacity:1;fill-rule:nonzero;stroke:none"
           d="m 0,0 c 0,-9.665 -7.835,-17.5 -17.5,-17.5 -9.665,0 -17.5,7.835 -17.5,17.5 0,9.665 7.835,17.5 17.5,17.5 C -7.835,17.5 0,9.665 0,0" />
      </g>
      <g
         transform="translate(1232.1021,402.40069)"
         id="g132">
        <path
           inkscape:connector-curvature="0"
           id="path134"
           style="fill:#ffffff;fill-opacity:1;fill-rule:nonzero;stroke:none"
           d="m 0,0 c 0,-9.665 -7.835,-17.5 -17.5,-17.5 -9.665,0 -17.5,7.835 -17.5,17.5 0,9.665 7.835,17.5 17.5,17.5 C -7.835,17.5 0,9.665 0,0" />
      </g>
      <g
         transform="translate(1524.6431,776.81769)"
         id="g136">
        <path
           inkscape:connector-curvature="0"
           id="path138"
           style="fill:none;stroke:#ffffff;stroke-width:18;stroke-linecap:butt;stroke-linejoin:miter;stroke-miterlimit:10;stroke-dasharray:none;stroke-opacity:1"
           d="M 0,0 -369.5,-128.75" />
      </g>
      <g
         transform="translate(1535.6509,771.67949)"
         id="g140">
        <path
           inkscape:connector-curvature="0"
           id="path142"
           style="fill:#ffffff;fill-opacity:1;fill-rule:nonzero;stroke:none"
           d="m 0,0 -5.615,17.746 c -1.48,4.673 1.135,9.707 5.808,11.187 4.674,1.479 9.708,-1.136 11.187,-5.809 L 16.996,5.378 C 18.475,0.705 15.861,-4.33 11.188,-5.809 6.514,-7.288 1.479,-4.674 0,0" />
      </g>
    </g>
  </g>
</svg>
