<?xml version="1.0" encoding="UTF-8" standalone="no"?>
<!-- Created with Inkscape (http://www.inkscape.org/) -->

<svg
   xmlns:dc="http://purl.org/dc/elements/1.1/"
   xmlns:cc="http://creativecommons.org/ns#"
   xmlns:rdf="http://www.w3.org/1999/02/22-rdf-syntax-ns#"
   xmlns:svg="http://www.w3.org/2000/svg"
   xmlns="http://www.w3.org/2000/svg"
   xmlns:sodipodi="http://sodipodi.sourceforge.net/DTD/sodipodi-0.dtd"
   xmlns:inkscape="http://www.inkscape.org/namespaces/inkscape"
   width="65.178413mm"
   height="21.343424mm"
   viewBox="0 0 65.178413 21.343424"
   version="1.1"
   id="svg1293"
   inkscape:version="0.92.2pre0 (973e216, 2017-07-25)"
   sodipodi:docname="gropla.svg">
  <defs
     id="defs1287" />
  <sodipodi:namedview
     id="base"
     pagecolor="#ffffff"
     bordercolor="#666666"
     borderopacity="1.0"
     inkscape:pageopacity="0.0"
     inkscape:pageshadow="2"
     inkscape:zoom="0.49497475"
     inkscape:cx="-938.3787"
     inkscape:cy="260.33403"
     inkscape:document-units="mm"
     inkscape:current-layer="layer1"
     showgrid="false"
     fit-margin-top="0"
     fit-margin-left="0"
     fit-margin-right="0"
     fit-margin-bottom="0"
     inkscape:window-width="1920"
     inkscape:window-height="998"
     inkscape:window-x="0"
     inkscape:window-y="0"
     inkscape:window-maximized="1" />
  <metadata
     id="metadata1290">
    <rdf:RDF>
      <cc:Work
         rdf:about="">
        <dc:format>image/svg+xml</dc:format>
        <dc:type
           rdf:resource="http://purl.org/dc/dcmitype/StillImage" />
        <dc:title />
      </cc:Work>
    </rdf:RDF>
  </metadata>
  <g
     inkscape:label="Calque 1"
     inkscape:groupmode="layer"
     id="layer1"
     transform="translate(-92.142937,-196.36996)">
    <g
       aria-label="
GROS PLAN"
       transform="scale(0.99510478,1.0049193)"
       style="font-variant:normal;font-weight:900;font-stretch:normal;font-size:6.98401594px;font-family:'Montserrat Black';-inkscape-font-specification:Montserrat-Black;writing-mode:lr-tb;fill:#ca482c;fill-opacity:1;fill-rule:nonzero;stroke:none;stroke-width:0.35105082"
       id="text60">
      <path
         d="m 119.12445,206.397 h 1.43172 v 2.06727 q -0.43301,0.30032 -1.0057,0.46095 -0.57269,0.16063 -1.12442,0.16063 -0.78221,0 -1.40379,-0.32126 -0.62158,-0.32825 -0.97776,-0.90793 -0.3492,-0.58665 -0.3492,-1.32696 0,-0.74031 0.3492,-1.31998 0.35618,-0.58666 0.98474,-0.90792 0.63555,-0.32825 1.43173,-0.32825 0.71935,0 1.28506,0.24444 0.57268,0.23746 0.94982,0.6984 l -1.05458,0.92888 q -0.46095,-0.53777 -1.0965,-0.53777 -0.54475,0 -0.86601,0.32825 -0.32127,0.32824 -0.32127,0.89395 0,0.55174 0.31428,0.88697 0.32127,0.33523 0.85205,0.33523 0.31428,0 0.60063,-0.11873 z"
         style="stroke-width:0.35105082"
         id="path843" />
      <path
         d="m 123.14027,207.74492 h -0.44698 v 1.22919 h -1.64823 v -4.88882 h 2.35361 q 0.67745,0 1.1803,0.22349 0.50285,0.22349 0.77523,0.64253 0.27238,0.41904 0.27238,0.97776 0,0.52381 -0.23746,0.91491 -0.23746,0.39111 -0.68443,0.62158 l 1.02665,1.50855 h -1.75998 z m 0.82411,-1.81585 q 0,-0.27237 -0.16762,-0.41904 -0.16761,-0.15364 -0.50285,-0.15364 h -0.60062 v 1.14537 h 0.60062 q 0.33524,0 0.50285,-0.14666 0.16762,-0.15365 0.16762,-0.42603 z"
         style="stroke-width:0.35105082"
         id="path845" />
      <path
         d="m 128.6716,209.08585 q -0.7892,0 -1.41776,-0.32825 -0.62856,-0.32825 -0.98475,-0.90792 -0.35618,-0.58666 -0.35618,-1.31998 0,-0.73332 0.35618,-1.31299 0.35619,-0.58666 0.98475,-0.91491 0.62856,-0.32825 1.41776,-0.32825 0.78919,0 1.41775,0.32825 0.62856,0.32825 0.98475,0.91491 0.35618,0.57967 0.35618,1.31299 0,0.73332 -0.35618,1.31998 -0.35619,0.57967 -0.98475,0.90792 -0.62856,0.32825 -1.41775,0.32825 z m 0,-1.33395 q 0.30729,0 0.55173,-0.14666 0.25143,-0.15365 0.39809,-0.42603 0.14667,-0.27936 0.14667,-0.64951 0,-0.37015 -0.14667,-0.64253 -0.14666,-0.27936 -0.39809,-0.42602 -0.24444,-0.15365 -0.55173,-0.15365 -0.3073,0 -0.55873,0.15365 -0.24444,0.14666 -0.3911,0.42602 -0.14666,0.27238 -0.14666,0.64253 0,0.37015 0.14666,0.64951 0.14666,0.27238 0.3911,0.42603 0.25143,0.14666 0.55873,0.14666 z"
         style="stroke-width:0.35105082"
         id="path847" />
      <path
         d="m 133.51851,209.08585 q -0.60761,0 -1.18728,-0.1327 -0.57269,-0.13968 -0.94285,-0.37015 l 0.53079,-1.20125 q 0.3492,0.20254 0.78221,0.32825 0.43301,0.11873 0.8311,0.11873 0.34221,0 0.48888,-0.0629 0.14666,-0.0698 0.14666,-0.20254 0,-0.15364 -0.19555,-0.23047 -0.18857,-0.0768 -0.62856,-0.16761 -0.56571,-0.11873 -0.94284,-0.25143 -0.37714,-0.13968 -0.6565,-0.44698 -0.27936,-0.31428 -0.27936,-0.84506 0,-0.46095 0.25841,-0.83808 0.25841,-0.37714 0.76824,-0.59365 0.51682,-0.2165 1.25014,-0.2165 0.50285,0 0.98474,0.11174 0.48889,0.10476 0.85904,0.31429 l -0.49587,1.19426 q -0.71935,-0.36317 -1.36188,-0.36317 -0.63555,0 -0.63555,0.3073 0,0.14666 0.18857,0.22349 0.18857,0.0698 0.62158,0.15365 0.55872,0.10476 0.94284,0.24444 0.38412,0.13269 0.66348,0.43999 0.28635,0.3073 0.28635,0.83808 0,0.46095 -0.25841,0.83808 -0.25841,0.37016 -0.77523,0.59365 -0.50983,0.2165 -1.24315,0.2165 z"
         style="stroke-width:0.35105082"
         id="path849" />
      <path
         d="m 140.78188,204.08529 q 0.67745,0 1.1803,0.22349 0.50285,0.22349 0.77523,0.64253 0.27238,0.41904 0.27238,0.97776 0,0.55873 -0.27238,0.97777 -0.27238,0.41904 -0.77523,0.64253 -0.50285,0.22349 -1.1803,0.22349 h -0.70538 v 1.20125 h -1.64823 v -4.88882 z m -0.10476,2.41647 q 0.33524,0 0.50285,-0.14666 0.16762,-0.15365 0.16762,-0.42603 0,-0.27237 -0.16762,-0.41904 -0.16761,-0.15364 -0.50285,-0.15364 h -0.60062 v 1.14537 z"
         style="stroke-width:0.35105082"
         id="path851" />
      <path
         d="m 143.35199,204.08529 h 1.64823 v 3.61074 h 2.20695 v 1.27808 h -3.85518 z"
         style="stroke-width:0.35105082"
         id="path853" />
      <path
         d="m 150.89473,208.12206 h -1.85775 l -0.32824,0.85205 h -1.67617 l 2.13711,-4.88882 h 1.62029 l 2.13711,4.88882 h -1.7041 z m -0.45396,-1.18729 -0.47491,-1.22918 -0.47491,1.22918 z"
         style="stroke-width:0.35105082"
         id="path855" />
      <path
         d="m 158.09526,204.08529 v 4.88882 h -1.35489 l -1.85775,-2.22092 v 2.22092 h -1.60633 v -4.88882 h 1.3549 l 1.85775,2.22092 v -2.22092 z"
         style="stroke-width:0.35105082"
         id="path857" />
    </g>
    <g
       id="g70"
       transform="matrix(0.35277777,0,0,-0.35277777,102.75167,213.76382)">
      <path
         d="m 0,0 h -27.839 c -0.303,0 -0.559,0.256 -0.559,0.558 v 33.214 c 0,0.303 0.256,0.558 0.559,0.558 h 11.33 l 0.017,-0.046 0.133,0.046 H -0.26 c 0.757,0.64 1.547,1.215 2.388,1.675 h -13.681 l 29.437,10.257 -0.551,1.582 -33.976,-11.839 h -11.196 c -1.228,0 -2.233,-1.005 -2.233,-2.233 V 0.558 c 0,-1.228 1.005,-2.233 2.233,-2.233 H 2.243 c 0.207,0 -0.115,0.341 0.069,0.358 C 1.545,-1.097 0.505,-0.896 0,0"
         style="fill:#ca482c;fill-opacity:1;fill-rule:nonzero;stroke:none"
         id="path72"
         inkscape:connector-curvature="0" />
    </g>
    <g
       id="g74"
       transform="matrix(0.35277777,0,0,-0.35277777,112.08173,201.06202)">
      <path
         d="m 0,0 h -11.956 c 0.298,-0.118 0.593,-0.24 0.889,-0.363 0.503,-0.087 0.951,-0.249 1.335,-0.481 0.694,-0.082 1.274,-0.321 1.757,-0.659 0.096,-0.054 0.187,-0.111 0.275,-0.172 H 0 c 0.303,0 0.558,-0.255 0.558,-0.558 v -9.169 c 0.173,-0.199 0.315,-0.418 0.443,-0.647 0.426,-0.461 0.726,-1.022 0.902,-1.627 0.117,-0.105 0.228,-0.216 0.33,-0.334 V -2.233 C 2.233,-1.005 1.228,0 0,0"
         style="fill:#ca482c;fill-opacity:1;fill-rule:nonzero;stroke:none"
         id="path76"
         inkscape:connector-curvature="0" />
    </g>
    <g
       id="g78"
       transform="matrix(0.35277777,0,0,-0.35277777,112.82859,209.40246)">
      <path
         d="m 0,0 c -0.032,-0.21 -0.074,-0.419 -0.137,-0.621 0.012,-1.25 -0.459,-2.506 -1.422,-3.312 v -7.872 c 0,-0.302 -0.256,-0.558 -0.558,-0.558 h -7.827 c -0.557,-0.816 -1.344,-1.392 -2.264,-1.66 0.12,-0.007 0.239,-0.014 0.369,-0.014 h 9.722 c 1.228,0 2.233,1.004 2.233,2.232 V 0.184 C 0.08,0.121 0.04,0.061 0,0"
         style="fill:#ca482c;fill-opacity:1;fill-rule:nonzero;stroke:none"
         id="path80"
         inkscape:connector-curvature="0" />
    </g>
    <g
       id="g82"
       transform="matrix(0.35277777,0,0,-0.35277777,108.6064,210.76587)">
      <path
         d="m 0,0 c -1.348,-1.265 -3.157,-1.988 -5.12,-2.049 0.115,3.831 0.554,7.02 1.282,9.287 0.315,0.978 1.264,3.933 3.49,3.997 C -0.182,11.21 0.423,11.09 1.016,10.583 1.954,9.78 2.451,8.323 2.451,6.368 2.451,3.707 1.603,1.505 0,0 m -0.186,14.357 -0.089,0.002 c -3.764,0 -5.632,-3.352 -6.536,-6.165 -0.804,-2.503 -1.281,-5.789 -1.42,-9.788 -3.329,1.175 -4.873,4.417 -4.873,7.472 0,2.765 0.958,4.986 2.848,6.602 0.634,0.542 1.283,0.935 1.854,1.21 -0.046,-0.046 -0.094,-0.093 -0.144,-0.141 -0.619,-0.601 -0.634,-1.589 -0.034,-2.209 0.6,-0.619 1.588,-0.634 2.208,-0.034 0.691,0.67 2.795,2.709 2.023,4.609 -0.361,0.892 -1.263,1.445 -2.354,1.445 h -0.003 c -2.1,-0.002 -9.521,-2.757 -9.521,-11.482 0,-5.956 3.671,-9.582 7.964,-10.69 0.032,-1.463 0.138,-2.902 0.263,-4.289 0.837,0.157 1.763,0.038 2.709,-0.486 0.175,-0.097 0.34,-0.198 0.502,-0.301 -0.151,1.515 -0.289,3.111 -0.34,4.715 2.765,0.061 5.337,1.084 7.267,2.896 2.248,2.111 3.436,5.1 3.436,8.645 0,6.059 -3.768,7.875 -5.76,7.989"
         style="fill:#ca482c;fill-opacity:1;fill-rule:nonzero;stroke:none"
         id="path84"
         inkscape:connector-curvature="0" />
    </g>
    <g
       id="g86"
       transform="matrix(0.35277777,0,0,-0.35277777,105.6973,217.71338)">
      <path
         d="M 0,0 C 1.169,0 2.216,0.524 2.92,1.349 H -2.92 C -2.216,0.524 -1.169,0 0,0"
         style="fill:#ca482c;fill-opacity:1;fill-rule:nonzero;stroke:none"
         id="path88"
         inkscape:connector-curvature="0" />
    </g>
    <g
       id="g90"
       transform="matrix(0.35277777,0,0,-0.35277777,106.75648,215.67563)">
      <path
         d="m 0,0 h -6.14 c -0.41,0 -0.745,0.335 -0.745,0.744 0,0.41 0.335,0.745 0.745,0.745 H 0 C 0.409,1.489 0.744,1.154 0.744,0.744 0.744,0.335 0.409,0 0,0 m -1.71,-2.233 h -4.395 c -0.429,0 -0.78,0.351 -0.78,0.779 0,0.429 0.351,0.779 0.78,0.779 h 4.395 c 0.429,0 0.78,-0.35 0.78,-0.779 0,-0.428 -0.351,-0.779 -0.78,-0.779 m 4.028,4.07 c 0,0.632 -0.516,1.148 -1.147,1.148 h -8.436 c -0.631,0 -1.147,-0.516 -1.147,-1.148 0,-0.552 0.396,-1.017 0.918,-1.124 -0.522,-0.107 -0.918,-0.571 -0.918,-1.124 v 0 c 0,-0.51 0.338,-0.945 0.8,-1.093 -0.462,-0.148 -0.8,-0.583 -0.8,-1.093 v 0 c 0,-0.631 0.516,-1.148 1.147,-1.148 h 8.436 c 0.631,0 1.147,0.517 1.147,1.148 v 0 c 0,0.51 -0.338,0.945 -0.8,1.093 0.462,0.148 0.8,0.583 0.8,1.093 v 0 C 2.318,0.142 1.922,0.606 1.4,0.713 1.922,0.82 2.318,1.285 2.318,1.837"
         style="fill:#ca482c;fill-opacity:1;fill-rule:nonzero;stroke:none"
         id="path92"
         inkscape:connector-curvature="0" />
    </g>
    <g
       id="g94"
       transform="matrix(0.35277777,0,0,-0.35277777,99.281114,205.60862)">
      <path
         d="m 0,0 c -0.188,0.24 -0.467,0.406 -0.794,0.406 h -10.668 c -0.563,0 -1.023,-0.461 -1.023,-1.024 v -5.086 c 0,-0.563 0.46,-1.023 1.023,-1.023 h 10.48 C -1.344,-4.35 -1.131,-2.122 0,0"
         style="fill:#ca482c;fill-opacity:1;fill-rule:nonzero;stroke:none"
         id="path96"
         inkscape:connector-curvature="0" />
    </g>
    <g
       id="g98"
       transform="matrix(0.35277777,0,0,-0.35277777,95.450935,208.8789)">
      <path
         d="m 0,0 c -0.899,0 -1.628,-0.729 -1.628,-1.628 0,-0.899 0.729,-1.628 1.628,-1.628 0.899,0 1.628,0.729 1.628,1.628 C 1.628,-0.729 0.899,0 0,0"
         style="fill:#ca482c;fill-opacity:1;fill-rule:nonzero;stroke:none"
         id="path100"
         inkscape:connector-curvature="0" />
    </g>
    <g
       id="g102"
       transform="matrix(0.35277777,0,0,-0.35277777,97.119362,208.8789)">
      <path
         d="m 0,0 c -0.899,0 -1.628,-0.729 -1.628,-1.628 0,-0.899 0.729,-1.628 1.628,-1.628 0.899,0 1.628,0.729 1.628,1.628 C 1.628,-0.729 0.899,0 0,0"
         style="fill:#ca482c;fill-opacity:1;fill-rule:nonzero;stroke:none"
         id="path104"
         inkscape:connector-curvature="0" />
    </g>
    <path
       inkscape:connector-curvature="0"
       id="path108"
       style="fill:#ca482c;fill-opacity:1;fill-rule:nonzero;stroke:none;stroke-width:0.35277778"
       d="m 99.161981,209.02079 c -0.100894,-0.0871 -0.230364,-0.14182 -0.374297,-0.14182 -0.317147,0 -0.574322,0.25718 -0.574322,0.57433 0,0.31714 0.257175,0.57432 0.574322,0.57432 0.187678,0 0.352425,-0.091 0.4572,-0.23001 0.0095,-0.26318 -0.02858,-0.5207 -0.0829,-0.77682" />
    <g
       id="g110"
       transform="matrix(0.35277777,0,0,-0.35277777,109.32498,197.33312)">
      <path
         d="m 0,0 c 0.138,-0.435 0.606,-0.678 1.041,-0.54 0.435,0.137 0.678,0.606 0.54,1.04 L 1.059,2.151 C 0.921,2.586 0.453,2.829 0.018,2.692 v 0 C -0.417,2.554 -0.66,2.086 -0.522,1.651 Z"
         style="fill:#ca482c;fill-opacity:1;fill-rule:nonzero;stroke:none"
         id="path112"
         inkscape:connector-curvature="0" />
    </g>
    <g
       id="g114"
       transform="matrix(0.35277777,0,0,-0.35277777,106.78276,203.1765)">
      <path
         d="m 0,0 c -7.458,1.344 -14.596,-3.614 -15.942,-11.074 -0.162,-0.91 -0.232,-1.817 -0.215,-2.708 3.522,8.013 11.948,13.018 20.901,11.972 C 3.33,-0.94 1.733,-0.312 0,0"
         style="fill:#ffffff;fill-opacity:1;fill-rule:nonzero;stroke:none"
         id="path116"
         inkscape:connector-curvature="0" />
    </g>
    <g
       id="g118"
       transform="matrix(0.35277777,0,0,-0.35277777,101.02592,211.17259)">
      <path
         d="m 0,0 c -5.359,7.714 -3.449,18.312 4.265,23.671 7.714,5.36 18.313,3.45 23.672,-4.265 C 33.295,11.692 31.385,1.093 23.671,-4.266 15.956,-9.624 5.358,-7.715 0,0 m 25.543,-6.962 c 9.204,6.393 11.481,19.037 5.088,28.24 C 24.24,30.48 11.596,32.76 2.393,26.366 -6.508,20.184 -8.931,8.154 -3.295,-0.956 L -4.71,-1.939 c -0.766,0.404 -1.722,0.388 -2.482,-0.14 l -10.935,-7.596 c -1.088,-0.756 -1.356,-2.248 -0.601,-3.335 0.754,-1.085 2.246,-1.355 3.332,-0.6 l 10.938,7.596 c 0.759,0.528 1.108,1.418 0.996,2.279 l 1.414,0.982 c 6.57,-8.462 18.691,-10.392 27.591,-4.209"
         style="fill:#20b8d1;fill-opacity:1;fill-rule:nonzero;stroke:none"
         id="path120"
         inkscape:connector-curvature="0" />
    </g>
  </g>
</svg>
