<?xml version="1.0" encoding="UTF-8" standalone="no"?>
<!-- Created with Inkscape (http://www.inkscape.org/) -->

<svg
   xmlns:dc="http://purl.org/dc/elements/1.1/"
   xmlns:cc="http://creativecommons.org/ns#"
   xmlns:rdf="http://www.w3.org/1999/02/22-rdf-syntax-ns#"
   xmlns:svg="http://www.w3.org/2000/svg"
   xmlns="http://www.w3.org/2000/svg"
   xmlns:sodipodi="http://sodipodi.sourceforge.net/DTD/sodipodi-0.dtd"
   xmlns:inkscape="http://www.inkscape.org/namespaces/inkscape"
   width="63.679245mm"
   height="23.41927mm"
   viewBox="0 0 63.679245 23.41927"
   version="1.1"
   id="svg1237"
   inkscape:version="0.92.2pre0 (973e216, 2017-07-25)"
   sodipodi:docname="hiscom.svg">
  <defs
     id="defs1231">
    <clipPath
       clipPathUnits="userSpaceOnUse"
       id="clipPath126">
      <path
         d="M 0,310.452 H 411.299 V 0 H 0 Z"
         id="path124"
         inkscape:connector-curvature="0" />
    </clipPath>
  </defs>
  <sodipodi:namedview
     id="base"
     pagecolor="#ffffff"
     bordercolor="#666666"
     borderopacity="1.0"
     inkscape:pageopacity="0.0"
     inkscape:pageshadow="2"
     inkscape:zoom="0.35"
     inkscape:cx="-442.51841"
     inkscape:cy="181.39974"
     inkscape:document-units="mm"
     inkscape:current-layer="layer1"
     showgrid="false"
     fit-margin-top="0"
     fit-margin-left="0"
     fit-margin-right="0"
     fit-margin-bottom="0"
     inkscape:window-width="1920"
     inkscape:window-height="998"
     inkscape:window-x="0"
     inkscape:window-y="0"
     inkscape:window-maximized="1" />
  <metadata
     id="metadata1234">
    <rdf:RDF>
      <cc:Work
         rdf:about="">
        <dc:format>image/svg+xml</dc:format>
        <dc:type
           rdf:resource="http://purl.org/dc/dcmitype/StillImage" />
        <dc:title></dc:title>
      </cc:Work>
    </rdf:RDF>
  </metadata>
  <g
     inkscape:label="Calque 1"
     inkscape:groupmode="layer"
     id="layer1"
     transform="translate(-69.457996,-173.40941)">
    <g
       aria-label="L’HISTOIRE EN COMMUN"
       transform="matrix(0.34933236,0,0,0.35277777,86.622045,183.74828)"
       style="font-variant:normal;font-weight:900;font-stretch:normal;font-size:19.89459991px;font-family:'Montserrat Black';-inkscape-font-specification:Montserrat-Black;writing-mode:lr-tb;fill:#ca482c;fill-opacity:1;fill-rule:nonzero;stroke:none"
       id="text118">
      <path
         inkscape:connector-curvature="0"
         d="M 1.1339922,-13.92622 H 5.8291178 V -3.6407118 H 12.115811 V 0 H 1.1339922 Z"
         id="path1141" />
      <path
         inkscape:connector-curvature="0"
         d="m 14.642426,-14.960739 q 1.153886,0 1.889987,0.696311 0.7361,0.696311 0.7361,1.850198 0,0.517259 -0.139262,1.034519 -0.139263,0.517259 -0.636628,1.5716732 l -1.392622,2.9642954 h -2.785244 l 0.99473,-3.3621876 q -0.616732,-0.298419 -0.95494,-0.855468 -0.338209,-0.576943 -0.338209,-1.352832 0,-1.153887 0.736101,-1.850198 0.7361,-0.696311 1.889987,-0.696311 z"
         id="path1143" />
      <path
         inkscape:connector-curvature="0"
         d="M 31.751782,-13.92622 V 0 H 27.056657 V -5.1328068 H 22.719634 V 0 h -4.695126 v -13.92622 h 4.695126 v 4.9338608 h 4.337023 V -13.92622 Z"
         id="path1145" />
      <path
         inkscape:connector-curvature="0"
         d="m 33.562192,-13.92622 h 4.695126 V 0 h -4.695126 z"
         id="path1147" />
      <path
         inkscape:connector-curvature="0"
         d="m 45.35969,0.3183136 q -1.73083,0 -3.382082,-0.3779974 -1.631357,-0.397892 -2.685771,-1.0544138 l 1.511989,-3.4218712 q 0.99473,0.5769434 2.228196,0.9350462 1.233465,0.3382082 2.367457,0.3382082 0.974835,0 1.392622,-0.1790514 0.417787,-0.198946 0.417787,-0.5769434 0,-0.4376812 -0.557049,-0.6565218 -0.537154,-0.2188406 -1.790514,-0.4774704 -1.611463,-0.3382082 -2.685771,-0.7162056 -1.074309,-0.397892 -1.870093,-1.2732544 -0.795784,-0.895257 -0.795784,-2.4072466 0,-1.313044 0.736101,-2.387352 0.7361,-1.074308 2.188406,-1.691041 1.4722,-0.616733 3.561133,-0.616733 1.432411,0 2.805138,0.318314 1.392622,0.298419 2.447036,0.895257 l -1.412516,3.4019766 q -2.049144,-1.0345196 -3.879447,-1.0345196 -1.810409,0 -1.810409,0.8753628 0,0.4177866 0.537154,0.6366272 0.537155,0.198946 1.77062,0.4376812 1.591568,0.298419 2.685771,0.696311 1.094203,0.3779974 1.889987,1.2533598 0.815678,0.8753624 0.815678,2.387352 0,1.3130436 -0.7361,2.387352 -0.7361,1.0544138 -2.208301,1.691041 -1.452305,0.6167326 -3.541238,0.6167326 z"
         id="path1149" />
      <path
         inkscape:connector-curvature="0"
         d="M 56.401193,-10.285508 H 52.3228 v -3.640712 h 12.851911 v 3.640712 H 61.096318 V 0 h -4.695125 z"
         id="path1151" />
      <path
         inkscape:connector-curvature="0"
         d="m 72.832138,0.3183136 q -2.24809,0 -4.038604,-0.9350462 -1.790514,-0.9350462 -2.805138,-2.586298 -1.014625,-1.6711464 -1.014625,-3.7600794 0,-2.088933 1.014625,-3.740185 1.014624,-1.671146 2.805138,-2.606192 1.790514,-0.935047 4.038604,-0.935047 2.24809,0 4.038604,0.935047 1.790514,0.935046 2.805138,2.606192 1.014625,1.651252 1.014625,3.740185 0,2.088933 -1.014625,3.7600794 -1.014624,1.6512518 -2.805138,2.586298 -1.790514,0.9350462 -4.038604,0.9350462 z m 0,-3.7998686 q 0.875362,0 1.571673,-0.4177866 0.716206,-0.4376812 1.133993,-1.2135706 0.417786,-0.795784 0.417786,-1.8501978 0,-1.0544138 -0.417786,-1.8303032 -0.417787,-0.795784 -1.133993,-1.2135708 -0.696311,-0.437681 -1.571673,-0.437681 -0.875362,0 -1.591568,0.437681 -0.696311,0.4177868 -1.114098,1.2135708 -0.417786,0.7758894 -0.417786,1.8303032 0,1.0544138 0.417786,1.8501978 0.417787,0.7758894 1.114098,1.2135706 0.716206,0.4177866 1.591568,0.4177866 z"
         id="path1153" />
      <path
         inkscape:connector-curvature="0"
         d="m 81.4465,-13.92622 h 4.695125 V 0 H 81.4465 Z"
         id="path1155" />
      <path
         inkscape:connector-curvature="0"
         d="M 94.019891,-3.5014496 H 92.746636 V 0 h -4.695125 v -13.92622 h 6.70448 q 1.929776,0 3.362187,0.636627 1.432412,0.636627 2.208302,1.830303 0.77589,1.193676 0.77589,2.7852444 0,1.492095 -0.67642,2.6061926 -0.676414,1.1140976 -1.949669,1.7706194 L 101.40079,0 h -5.013442 z m 2.347563,-5.172596 q 0,-0.7758894 -0.477471,-1.193676 -0.47747,-0.4376814 -1.432411,-0.4376814 h -1.710936 v 3.2627146 h 1.710936 q 0.954941,0 1.432411,-0.4177866 0.477471,-0.4376812 0.477471,-1.2135706 z"
         id="path1157" />
      <path
         inkscape:connector-curvature="0"
         d="M 114.05375,-3.5412388 V 0 h -11.57866 v -13.92622 h 11.32003 v 3.541239 h -6.70448 v 1.631357 h 5.8888 v 3.382082 h -5.8888 v 1.8303032 z"
         id="path1159" />
      <path
         inkscape:connector-curvature="0"
         d="m 12.712649,17.785772 v 3.541239 H 1.1339922 V 7.4007912 H 12.45402 V 10.94203 H 5.7495394 v 1.631357 h 5.8888016 v 3.382082 H 5.7495394 v 1.830303 z"
         id="path1161" />
      <path
         inkscape:connector-curvature="0"
         d="M 28.966537,7.4007912 V 21.327011 h -3.859552 l -5.291963,-6.326483 v 6.326483 H 15.239264 V 7.4007912 h 3.859552 l 5.291963,6.3264828 V 7.4007912 Z"
         id="path1163" />
      <path
         inkscape:connector-curvature="0"
         d="m 44.703166,21.645325 q -2.208301,0 -3.97892,-0.915152 -1.770619,-0.935046 -2.785244,-2.586298 -0.99473,-1.671146 -0.99473,-3.779974 0,-2.108827 0.99473,-3.760079 1.014625,-1.6711466 2.785244,-2.5862982 1.770619,-0.9350462 3.97892,-0.9350462 2.029249,0 3.620817,0.7162056 1.591568,0.7162056 2.626087,2.0690384 l -2.964295,2.6459814 q -1.293149,-1.631357 -3.043874,-1.631357 -1.4722,0 -2.367457,0.954941 -0.895257,0.935046 -0.895257,2.526614 0,1.591568 0.895257,2.546509 0.895257,0.935046 2.367457,0.935046 1.750725,0 3.043874,-1.631357 l 2.964295,2.645982 q -1.034519,1.352833 -2.626087,2.069038 -1.591568,0.716206 -3.620817,0.716206 z"
         id="path1165" />
      <path
         inkscape:connector-curvature="0"
         d="m 58.669174,21.645325 q -2.24809,0 -4.038604,-0.935046 -1.790514,-0.935047 -2.805138,-2.586298 -1.014625,-1.671147 -1.014625,-3.76008 0,-2.088933 1.014625,-3.740185 1.014624,-1.671146 2.805138,-2.6061922 1.790514,-0.9350462 4.038604,-0.9350462 2.24809,0 4.038604,0.9350462 1.790514,0.9350462 2.805139,2.6061922 1.014624,1.651252 1.014624,3.740185 0,2.088933 -1.014624,3.76008 -1.014625,1.651251 -2.805139,2.586298 -1.790514,0.935046 -4.038604,0.935046 z m 0,-3.799869 q 0.875363,0 1.571674,-0.417786 0.716205,-0.437682 1.133992,-1.213571 0.417786,-0.795784 0.417786,-1.850198 0,-1.054414 -0.417786,-1.830303 -0.417787,-0.795784 -1.133992,-1.213571 -0.696311,-0.437681 -1.571674,-0.437681 -0.875362,0 -1.591568,0.437681 -0.696311,0.417787 -1.114097,1.213571 -0.417787,0.775889 -0.417787,1.830303 0,1.054414 0.417787,1.850198 0.417786,0.775889 1.114097,1.213571 0.716206,0.417786 1.591568,0.417786 z"
         id="path1167" />
      <path
         inkscape:connector-curvature="0"
         d="m 80.095659,21.327011 -0.03979,-6.346377 -3.023979,5.093017 h -2.069039 l -3.023979,-4.874177 v 6.127537 H 67.661534 V 7.4007912 h 3.859553 l 4.535968,7.4206858 4.416602,-7.4206858 h 3.859552 l 0.03979,13.9262198 z"
         id="path1169" />
      <path
         inkscape:connector-curvature="0"
         d="m 98.299219,21.327011 -0.03979,-6.346377 -3.023979,5.093017 h -2.069039 l -3.023979,-4.874177 v 6.127537 H 85.865094 V 7.4007912 h 3.859553 l 4.535968,7.4206858 4.416602,-7.4206858 h 3.859553 l 0.0398,13.9262198 z"
         id="path1171" />
      <path
         inkscape:connector-curvature="0"
         d="m 110.73335,21.645325 q -3.20304,0 -4.99355,-1.73083 -1.79051,-1.730831 -1.79051,-4.854283 V 7.4007912 h 4.69512 V 14.92095 q 0,1.531884 0.53716,2.228195 0.55705,0.696311 1.59156,0.696311 1.03452,0 1.57168,-0.696311 0.55705,-0.696311 0.55705,-2.228195 V 7.4007912 h 4.61554 v 7.6594208 q 0,3.123452 -1.79051,4.854283 -1.79051,1.73083 -4.99354,1.73083 z"
         id="path1173" />
      <path
         inkscape:connector-curvature="0"
         d="M 133.15456,7.4007912 V 21.327011 H 129.295 l -5.29196,-6.326483 v 6.326483 h -4.57576 V 7.4007912 h 3.85955 l 5.29197,6.3264828 V 7.4007912 Z"
         id="path1175" />
    </g>
    <g
       transform="matrix(0.35277777,0,0,-0.35277777,51.512403,217.24012)"
       id="g120">
      <g
         id="g122"
         clip-path="url(#clipPath126)">
        <g
           id="g128"
           transform="translate(86.3011,121.8579)">
          <path
             d="m 0,0 c 0.127,-0.377 0.539,-0.582 0.916,-0.456 v 0 c 0.378,0.127 0.583,0.539 0.456,0.917 L 0.891,1.893 C 0.765,2.271 0.352,2.476 -0.025,2.349 v 0 C -0.403,2.223 -0.608,1.81 -0.481,1.433 Z"
             style="fill:#ca482c;fill-opacity:1;fill-rule:nonzero;stroke:none"
             id="path130"
             inkscape:connector-curvature="0" />
        </g>
        <g
           id="g132"
           transform="translate(55.0344,74.4298)">
          <path
             d="m 0,0 c -0.611,-0.196 -1.177,-0.49 -1.686,-0.859 l 0.023,38.219 -0.005,-4.609 c -0.002,0.022 -0.177,2.267 1.103,3.659 0.173,0.189 0.372,0.352 0.589,0.495 z M 2.326,40.118 C 0.325,40.036 -1.269,39.314 -2.405,38.067 -4.283,36.005 -4.174,33.091 -4.14,32.594 l -0.025,-38.29 c -0.002,-3.299 2.701,-5.985 6.024,-5.987 l 11.188,-0.007 c -1.078,0.653 -1.825,1.47 -1.825,2.478 L 1.86,-9.207 c -1.958,0.001 -3.55,1.576 -3.549,3.51 0.002,1.934 1.576,3.507 3.51,3.506 L 8.953,-2.195 C 9.08,-1.402 9.606,-0.521 9.43,0.281 L 2.476,0.285 2.501,37.658 34.102,37.64 34.077,0.266 26.483,0.271 c 0.421,-0.773 2.039,-1.616 2.02,-2.478 l 8.049,-0.004 0.027,42.325 c 0,0 -34.252,0.01 -34.253,0.004"
             style="fill:#ca482c;fill-opacity:1;fill-rule:nonzero;stroke:none"
             id="path134"
             inkscape:connector-curvature="0" />
        </g>
        <g
           id="g136"
           transform="translate(91.5822,65.2026)">
          <path
             d="m 0,0 -11.141,0.007 c 0.085,-1.119 -0.811,-1.881 -1.683,-2.476 l 12.823,-0.007 z"
             style="fill:#ca482c;fill-opacity:1;fill-rule:nonzero;stroke:none"
             id="path138"
             inkscape:connector-curvature="0" />
        </g>
        <g
           id="g140"
           transform="translate(56.9222,69.4276)">
          <path
             d="m 0,0 -0.001,-1.496 9.007,-0.08 c -0.159,0.638 -0.09,1.146 0.329,1.562 z"
             style="fill:#ca482c;fill-opacity:1;fill-rule:nonzero;stroke:none"
             id="path142"
             inkscape:connector-curvature="0" />
        </g>
        <g
           id="g144"
           transform="translate(88.3327,69.4092)">
          <path
             d="m 0,0 -7.561,0.004 c 0.347,-0.354 0.42,-0.974 0.33,-1.495 l 7.23,-0.005 z"
             style="fill:#ca482c;fill-opacity:1;fill-rule:nonzero;stroke:none"
             id="path146"
             inkscape:connector-curvature="0" />
        </g>
        <g
           id="g148"
           transform="translate(62.4606,69.4132)">
          <path
             d="m 0,0 v -11.554 l -2.77,4.274 -2.769,-4.274 V 0 Z"
             style="fill:#20b8d1;fill-opacity:1;fill-rule:nonzero;stroke:none"
             id="path150"
             inkscape:connector-curvature="0" />
        </g>
        <g
           id="g152"
           transform="translate(82.7609,74.6997)">
          <path
             d="m 0,0 c -0.443,0 -1.23,-0.064 -1.521,0.305 -0.188,0.239 -0.227,0.646 -0.227,0.945 0,5.076 1.698,8.494 3.341,11.799 1.382,2.781 2.687,5.408 2.687,8.589 0,3.624 -1.411,7.031 -3.974,9.594 -2.563,2.563 -5.97,3.974 -9.595,3.974 -3.624,0 -7.031,-1.411 -9.594,-3.974 -2.563,-2.563 -3.974,-5.97 -3.974,-9.594 0,-3.283 1.338,-5.927 2.754,-8.727 1.651,-3.262 3.358,-6.636 3.358,-11.695 0,-0.381 -0.097,-0.671 -0.289,-0.862 -0.305,-0.305 -0.948,-0.343 -1.793,-0.343 h -0.079 c 0.065,-0.616 0.104,-1.86 0.132,-2.476 2.967,0.021 3.878,2.15 3.878,3.681 0,9.914 -6.112,14.04 -6.112,20.422 0,6.472 5.247,11.719 11.719,11.719 6.473,0 11.72,-5.247 11.72,-11.719 0,-6.211 -6.028,-10.508 -6.028,-20.388 0,-1.277 0.484,-3.717 3.617,-3.717 0.199,0 0.514,-0.01 0.908,-0.01 0.088,0.617 0.147,1.862 0.25,2.476 z"
             style="fill:#ca482c;fill-opacity:1;fill-rule:nonzero;stroke:none"
             id="path154"
             inkscape:connector-curvature="0" />
        </g>
        <g
           id="g156"
           transform="translate(74.4163,92.2058)">
          <path
             d="M 0,0 C 0.176,0.547 0.707,2.199 1.951,2.235 2.044,2.221 2.382,2.154 2.714,1.87 3.239,1.421 3.516,0.606 3.516,-0.487 3.516,-1.974 3.042,-3.206 2.146,-4.047 1.392,-4.755 0.38,-5.159 -0.717,-5.193 -0.653,-3.051 -0.408,-1.268 0,0 m -2.652,2.294 c 0.336,-0.346 0.888,-0.355 1.235,-0.02 0.386,0.375 1.562,1.515 1.131,2.578 C -0.488,5.35 -0.992,5.66 -1.602,5.66 h -0.002 c -1.174,-0.001 -5.324,-1.542 -5.324,-6.421 0,-3.33 2.053,-5.357 4.454,-5.977 0.03,-1.384 0.173,-2.739 0.301,-3.955 0.071,-0.672 0.138,-1.307 0.178,-1.875 0.158,-2.232 0.135,-5.344 0.135,-5.376 -0.004,-0.482 0.384,-0.876 0.866,-0.88 h 0.007 c 0.479,0 0.869,0.386 0.873,0.866 0.001,0.13 0.024,3.212 -0.139,5.514 -0.042,0.598 -0.111,1.247 -0.183,1.934 -0.117,1.108 -0.247,2.337 -0.286,3.57 1.546,0.034 2.984,0.606 4.063,1.619 1.257,1.181 1.922,2.852 1.922,4.834 0,3.388 -2.107,4.404 -3.221,4.467 l -0.05,0.002 c -2.105,0 -3.149,-1.875 -3.655,-3.448 -0.45,-1.399 -0.716,-3.237 -0.794,-5.473 -1.861,0.657 -2.725,2.47 -2.725,4.178 0,1.546 0.536,2.788 1.593,3.692 0.354,0.303 0.717,0.523 1.037,0.677 C -2.578,3.582 -2.605,3.556 -2.633,3.528 -2.979,3.193 -2.988,2.64 -2.652,2.294"
             style="fill:#ca482c;fill-opacity:1;fill-rule:nonzero;stroke:none"
             id="path158"
             inkscape:connector-curvature="0" />
        </g>
        <g
           id="g160"
           transform="translate(73.5129,62.2185)">
          <path
             d="M 0,0 C 1.291,0 2.447,0.579 3.224,1.49 H -3.224 C -2.447,0.579 -1.291,0 0,0"
             style="fill:#ca482c;fill-opacity:1;fill-rule:nonzero;stroke:none"
             id="path162"
             inkscape:connector-curvature="0" />
        </g>
        <g
           id="g164"
           transform="translate(76.8281,68.5965)">
          <path
             d="m 0,0 h -6.78 c -0.452,0 -0.822,0.37 -0.822,0.822 0,0.452 0.37,0.822 0.822,0.822 H 0 c 0.452,0 0.822,-0.37 0.822,-0.822 C 0.822,0.37 0.452,0 0,0 m -1.888,-2.465 h -4.854 c -0.473,0 -0.86,0.387 -0.86,0.86 0,0.473 0.387,0.86 0.86,0.86 h 4.854 c 0.474,0 0.861,-0.387 0.861,-0.86 0,-0.473 -0.387,-0.86 -0.861,-0.86 M 2.56,2.029 c 0,0.697 -0.57,1.267 -1.267,1.267 h -9.314 c -0.697,0 -1.267,-0.57 -1.267,-1.267 0,-0.61 0.437,-1.123 1.013,-1.241 -0.576,-0.119 -1.013,-0.632 -1.013,-1.242 v 0 c 0,-0.563 0.373,-1.043 0.884,-1.207 -0.511,-0.163 -0.884,-0.643 -0.884,-1.207 v 0 c 0,-0.697 0.57,-1.267 1.267,-1.267 h 9.314 c 0.697,0 1.267,0.57 1.267,1.267 v 0 c 0,0.564 -0.373,1.044 -0.884,1.207 0.511,0.164 0.884,0.644 0.884,1.207 v 0 c 0,0.61 -0.437,1.123 -1.014,1.242 0.577,0.118 1.014,0.631 1.014,1.241"
             style="fill:#ca482c;fill-opacity:1;fill-rule:nonzero;stroke:none"
             id="path166"
             inkscape:connector-curvature="0" />
        </g>
        <g
           id="g168"
           transform="translate(58.1792,112.4039)">
          <path
             d="m 0,0 -0.453,1.347 27.112,9.122 0.453,-1.347 z"
             style="fill:#ca482c;fill-opacity:1;fill-rule:nonzero;stroke:none"
             id="path170"
             inkscape:connector-curvature="0" />
        </g>
      </g>
    </g>
  </g>
</svg>
