<?xml version="1.0" encoding="UTF-8" standalone="no"?>
<!-- Created with Inkscape (http://www.inkscape.org/) -->

<svg
   xmlns:dc="http://purl.org/dc/elements/1.1/"
   xmlns:cc="http://creativecommons.org/ns#"
   xmlns:rdf="http://www.w3.org/1999/02/22-rdf-syntax-ns#"
   xmlns:svg="http://www.w3.org/2000/svg"
   xmlns="http://www.w3.org/2000/svg"
   xmlns:sodipodi="http://sodipodi.sourceforge.net/DTD/sodipodi-0.dtd"
   xmlns:inkscape="http://www.inkscape.org/namespaces/inkscape"
   width="67.20443mm"
   height="22.963457mm"
   viewBox="0 0 67.20443 22.963457"
   version="1.1"
   id="svg1174"
   inkscape:version="0.92.2pre0 (973e216, 2017-07-25)"
   sodipodi:docname="insquo.svg">
  <defs
     id="defs1168">
    <clipPath
       clipPathUnits="userSpaceOnUse"
       id="clipPath114">
      <path
         d="M 0,310.452 H 411.299 V 0 H 0 Z"
         id="path112"
         inkscape:connector-curvature="0" />
    </clipPath>
  </defs>
  <sodipodi:namedview
     id="base"
     pagecolor="#ffffff"
     bordercolor="#666666"
     borderopacity="1.0"
     inkscape:pageopacity="0.0"
     inkscape:pageshadow="2"
     inkscape:zoom="0.35"
     inkscape:cx="-590.14235"
     inkscape:cy="240.53837"
     inkscape:document-units="mm"
     inkscape:current-layer="g108"
     showgrid="false"
     fit-margin-top="0"
     fit-margin-left="0"
     fit-margin-right="0"
     fit-margin-bottom="0"
     inkscape:window-width="1920"
     inkscape:window-height="998"
     inkscape:window-x="0"
     inkscape:window-y="0"
     inkscape:window-maximized="1" />
  <metadata
     id="metadata1171">
    <rdf:RDF>
      <cc:Work
         rdf:about="">
        <dc:format>image/svg+xml</dc:format>
        <dc:type
           rdf:resource="http://purl.org/dc/dcmitype/StillImage" />
        <dc:title></dc:title>
      </cc:Work>
    </rdf:RDF>
  </metadata>
  <g
     inkscape:label="Calque 1"
     inkscape:groupmode="layer"
     id="layer1"
     transform="translate(-108.51683,-189.51232)">
    <g
       id="g98"
       transform="matrix(0.35277777,0,0,-0.35277777,113.08136,192.37253)">
      <path
         d="M 0,0 C 0.545,-0.226 0.9,-0.907 1.341,-1.384 0.708,-1.842 0.12,-2.397 -0.576,-2.715 c -0.336,-0.153 -1.161,0.009 -1.273,0.253 -0.438,0.955 -0.68,2.001 -1.025,3.108 C -1.915,0.447 -0.896,0.371 0,0 m 35.985,-28.773 c -0.095,0.087 -0.132,0.374 -0.062,0.481 2.409,3.686 1.22,8.2 -2.665,10.078 -0.069,0.033 -0.15,0.139 -0.148,0.209 0.061,1.532 0.132,3.065 0.202,4.597 -0.209,0.479 -0.418,0.958 -0.628,1.437 -4.733,7.358 -15.434,3.882 -18.452,-1.878 -0.052,-0.099 -0.246,-0.19 -0.365,-0.179 -1.697,0.153 -3.404,0.258 -5.077,0.55 -0.313,0.054 -0.727,0.891 -0.695,1.338 0.155,2.153 0.267,4.335 0.723,6.435 C 10.383,1.504 6.392,7.521 -0.508,8.093 -1.342,8.163 -2.198,7.964 -3.043,7.889 -3.435,7.718 -3.827,7.547 -4.219,7.376 -5.534,6.417 -6.739,5.344 -6.387,3.513 c 0.11,-0.572 0.75,-1.021 1.026,-1.586 0.789,-1.618 2.02,-3.219 2.179,-4.911 0.684,-7.289 -1.648,-14.321 -2.176,-21.515 -0.136,-1.841 -1.511,-2.008 -2.529,-2.647 -1.016,-0.639 -2.233,-1.379 -3.343,-1.349 -1.599,0.043 -1.13,-1.088 -1.264,-1.692 -0.883,-3.999 -0.394,-7.915 0.96,-11.747 0.087,-0.245 0.16,-0.495 0.239,-0.742 0.257,-0.588 0.513,-1.176 0.77,-1.763 0.736,-1.243 1.375,-2.558 2.233,-3.711 1.07,-1.438 2.461,-2.649 3.454,-4.132 0.905,-1.353 1.626,-0.569 2.449,-0.124 2.193,1.186 4.364,2.414 6.57,3.576 0.985,0.519 1.974,0.789 3.019,0.849 0.515,0.507 1.154,0.921 1.82,1.392 -0.92,0.176 -1.893,0.358 -2.64,0.059 -3.319,-1.331 -6.523,-2.946 -9.777,-4.439 -0.154,-0.071 -0.45,-0.078 -0.552,0.02 -4.118,3.955 -6.405,8.839 -7.106,14.456 -0.278,2.228 -0.273,4.491 -0.378,6.402 1.182,0.36 2.096,0.578 2.964,0.913 3.004,1.16 4.683,3.068 4.943,6.578 0.464,6.244 2.255,12.363 1.899,18.671 0.532,0.035 1.087,0.007 1.613,0.12 1.272,0.274 2.409,0.796 2.501,2.31 0.085,1.382 -0.765,2.173 -2.006,2.483 -1.355,0.339 -2.768,0.455 -4.106,0.841 -0.62,0.179 -1.419,0.66 -1.615,1.195 -0.462,1.258 0.097,2.307 1.347,2.869 5.27,2.369 12.122,-2.476 11.709,-8.387 -0.172,-2.471 -0.849,-4.904 -1.18,-7.37 -0.276,-2.049 0.084,-3.981 1.81,-5.369 0.291,-0.234 0.828,-0.164 1.252,-0.235 3.945,-0.468 7.649,-0.079 11.065,2.006 0.516,0.316 0.766,1.068 1.139,1.618 -0.602,-0.111 -1.24,-0.13 -1.798,-0.351 -1.526,-0.606 -3.018,-1.297 -4.523,-1.954 2.832,3.85 7.754,6.13 12.087,4.727 2.846,-0.922 4.887,-3.714 4.693,-6.209 -0.209,-2.687 -2.095,-3.904 -4.269,-4.884 -0.193,-0.087 -0.45,-0.463 -0.398,-0.573 0.102,-0.217 0.391,-0.466 0.619,-0.483 1.724,-0.131 2.89,0.839 3.908,2.073 0.071,0.086 0.259,0.195 0.306,0.164 2.379,-1.587 4.179,-3.822 2.835,-6.755 -0.588,-1.282 -1.925,-2.217 -2.903,-3.326 -0.277,-0.315 -0.487,-0.688 -0.728,-1.034 0.434,-0.089 0.93,-0.356 1.29,-0.23 0.704,0.246 1.333,0.71 2.015,1.097 1.514,-1.626 1.543,-4.624 -0.232,-6.77 -0.997,-1.204 -2.336,-2.121 -3.488,-3.202 -0.178,-0.167 -0.179,-0.521 -0.262,-0.789 0.269,-0.072 0.596,-0.28 0.799,-0.193 0.902,0.384 1.769,0.852 2.619,1.275 -0.003,-0.033 -0.014,-0.193 -0.041,-0.351 -0.541,-3.213 -2.684,-5.055 -5.539,-6.077 -2.994,-1.071 -6.024,-1.589 -9.076,-1.728 0.53,-0.386 1.259,-0.706 1.627,-1.409 2.865,0.284 5.711,0.909 8.528,1.929 0.152,0.067 0.304,0.133 0.457,0.2 0.09,0.055 0.177,0.117 0.271,0.164 2.733,1.348 4.692,3.435 4.829,6.524 0.069,1.548 0.482,2.748 1.18,4.039 1.38,2.553 0.999,5.602 -0.723,7.201"
         style="fill:#ca482c;fill-opacity:1;fill-rule:nonzero;stroke:none"
         id="path100"
         inkscape:connector-curvature="0" />
    </g>
    <g
       aria-label="INSOUMIS.ES AU QUOTIDIEN"
       transform="matrix(0.34933049,0,0,0.35277777,129.33383,201.12674)"
       style="font-variant:normal;font-weight:900;font-stretch:normal;font-size:18.39979935px;font-family:'Montserrat Black';-inkscape-font-specification:Montserrat-Black;writing-mode:lr-tb;fill:#ca482c;fill-opacity:1;fill-rule:nonzero;stroke:none"
       id="text106">
      <path
         inkscape:connector-curvature="0"
         d="M 1.0487886,-12.87986 H 5.3911412 V 0 H 1.0487886 Z"
         id="path1057" />
      <path
         inkscape:connector-curvature="0"
         d="M 19.853384,-12.87986 V 0 H 16.283823 L 11.389476,-5.8511362 V 0 H 7.1575222 v -12.87986 h 3.5695608 l 4.894347,5.8511366 V -12.87986 Z"
         id="path1059" />
      <path
         inkscape:connector-curvature="0"
         d="m 26.330113,0.29439679 q -1.600782,0 -3.127965,-0.34959619 -1.508784,-0.36799598 -2.483973,-0.9751894 l 1.398384,-3.1647655 q 0.91999,0.5335942 2.060778,0.8647906 1.140787,0.3127966 2.189576,0.3127966 0.90159,0 1.287986,-0.1655982 0.386396,-0.183998 0.386396,-0.5335942 0,-0.4047956 -0.515195,-0.6071933 -0.496794,-0.2023978 -1.655982,-0.4415952 -1.490383,-0.3127966 -2.483972,-0.6623928 -0.99359,-0.367996 -1.729582,-1.1775872 -0.735992,-0.8279909 -0.735992,-2.2263757 0,-1.2143863 0.680793,-2.2079763 0.680793,-0.993589 2.023978,-1.563983 1.361585,-0.570393 3.293564,-0.570393 1.324786,0 2.594372,0.294396 1.287986,0.275997 2.263175,0.827991 l -1.306386,3.1463661 q -1.895179,-0.9567895 -3.587961,-0.9567895 -1.674381,0 -1.674381,0.8095911 0,0.3863958 0.496794,0.5887936 0.496795,0.183998 1.637582,0.4047956 1.471984,0.275997 2.483973,0.643993 1.011989,0.3495962 1.747981,1.1591873 0.754392,0.8095912 0.754392,2.2079759 0,1.2143868 -0.680793,2.207976 -0.680792,0.97518933 -2.042377,1.56398291 -1.343186,0.57039378 -3.275165,0.57039378 z"
         id="path1061" />
      <path
         inkscape:connector-curvature="0"
         d="m 40.49796,0.29439679 q -2.079177,0 -3.735159,-0.86479057 -1.655982,-0.86479052 -2.594372,-2.39197392 -0.938389,-1.5455831 -0.938389,-3.4775621 0,-1.9319789 0.938389,-3.4591622 0.93839,-1.545583 2.594372,-2.410374 1.655982,-0.86479 3.735159,-0.86479 2.079178,0 3.73516,0.86479 1.655982,0.864791 2.594371,2.410374 0.93839,1.5271833 0.93839,3.4591622 0,1.931979 -0.93839,3.4775621 -0.938389,1.5271834 -2.594371,2.39197392 -1.655982,0.86479057 -3.73516,0.86479057 z m 0,-3.51436169 q 0.809592,0 1.453585,-0.3863958 0.662392,-0.4047956 1.048788,-1.1223877 0.386396,-0.735992 0.386396,-1.7111814 0,-0.9751893 -0.386396,-1.6927815 -0.386396,-0.735992 -1.048788,-1.1223878 -0.643993,-0.4047956 -1.453585,-0.4047956 -0.809591,0 -1.471984,0.4047956 -0.643993,0.3863958 -1.030388,1.1223878 -0.386396,0.7175922 -0.386396,1.6927815 0,0.9751894 0.386396,1.7111814 0.386395,0.7175921 1.030388,1.1223877 0.662393,0.3863958 1.471984,0.3863958 z"
         id="path1063" />
      <path
         inkscape:connector-curvature="0"
         d="m 54.629008,0.29439679 q -2.962368,0 -4.61835,-1.60078259 -1.655982,-1.6007825 -1.655982,-4.489551 V -12.87986 h 4.342353 v 6.9551246 q 0,1.4167846 0.496794,2.0607775 0.515195,0.643993 1.471984,0.643993 0.95679,0 1.453585,-0.643993 0.515194,-0.6439929 0.515194,-2.0607775 V -12.87986 h 4.268753 v 7.0839232 q 0,2.8887685 -1.655982,4.489551 -1.655981,1.60078259 -4.618349,1.60078259 z"
         id="path1065" />
      <path
         inkscape:connector-curvature="0"
         d="m 73.819999,0 -0.0368,-5.869536 -2.796769,4.7103486 h -1.913579 l -2.79677,-4.5079508 V 0 h -3.955957 v -12.87986 h 3.569561 l 4.195154,6.8631256 4.084756,-6.8631256 h 3.569561 L 77.775956,0 Z"
         id="path1067" />
      <path
         inkscape:connector-curvature="0"
         d="m 78.806342,-12.87986 h 4.342352 V 0 h -4.342352 z"
         id="path1069" />
      <path
         inkscape:connector-curvature="0"
         d="m 89.717423,0.29439679 q -1.600782,0 -3.127965,-0.34959619 -1.508784,-0.36799598 -2.483973,-0.9751894 l 1.398384,-3.1647655 q 0.91999,0.5335942 2.060778,0.8647906 1.140787,0.3127966 2.189576,0.3127966 0.90159,0 1.287986,-0.1655982 0.386396,-0.183998 0.386396,-0.5335942 0,-0.4047956 -0.515195,-0.6071933 -0.496794,-0.2023978 -1.655982,-0.4415952 -1.490383,-0.3127966 -2.483972,-0.6623928 -0.99359,-0.367996 -1.729582,-1.1775872 -0.735992,-0.8279909 -0.735992,-2.2263757 0,-1.2143863 0.680793,-2.2079763 0.680793,-0.993589 2.023978,-1.563983 1.361585,-0.570393 3.293564,-0.570393 1.324786,0 2.594372,0.294396 1.287986,0.275997 2.263175,0.827991 l -1.306386,3.1463661 q -1.895179,-0.9567895 -3.587961,-0.9567895 -1.674381,0 -1.674381,0.8095911 0,0.3863958 0.496794,0.5887936 0.496795,0.183998 1.637582,0.4047956 1.471984,0.275997 2.483973,0.643993 1.011989,0.3495962 1.747981,1.1591873 0.754392,0.8095912 0.754392,2.2079759 0,1.2143868 -0.680793,2.207976 -0.680792,0.97518933 -2.042377,1.56398291 -1.343186,0.57039378 -3.275165,0.57039378 z"
         id="path1071" />
      <path
         inkscape:connector-curvature="0"
         d="m 98.880525,0.18399799 q -1.048789,0 -1.747981,-0.66239277 -0.680793,-0.68079262 -0.680793,-1.72958112 0,-1.0487886 0.680793,-1.6927816 0.699192,-0.6623927 1.747981,-0.6623927 1.048789,0 1.729585,0.6623927 0.69919,0.643993 0.69919,1.6927816 0,1.0487885 -0.69919,1.72958112 -0.680796,0.66239277 -1.729585,0.66239277 z"
         id="path1073" />
      <path
         inkscape:connector-curvature="0"
         d="M 112.71717,-3.2751643 V 0 h -10.70868 v -12.87986 h 10.46949 v 3.2751647 h -6.20074 v 1.5087836 h 5.44634 v 3.1279659 h -5.44634 v 1.6927815 z"
         id="path1075" />
      <path
         inkscape:connector-curvature="0"
         d="m 119.5067,0.29439679 q -1.60078,0 -3.12797,-0.34959619 -1.50878,-0.36799598 -2.48397,-0.9751894 l 1.39839,-3.1647655 q 0.91999,0.5335942 2.06077,0.8647906 1.14079,0.3127966 2.18958,0.3127966 0.90159,0 1.28799,-0.1655982 0.38639,-0.183998 0.38639,-0.5335942 0,-0.4047956 -0.51519,-0.6071933 -0.4968,-0.2023978 -1.65599,-0.4415952 -1.49038,-0.3127966 -2.48397,-0.6623928 -0.99359,-0.367996 -1.72958,-1.1775872 -0.73599,-0.8279909 -0.73599,-2.2263757 0,-1.2143863 0.68079,-2.2079763 0.68079,-0.993589 2.02398,-1.563983 1.36158,-0.570393 3.29356,-0.570393 1.32479,0 2.59437,0.294396 1.28799,0.275997 2.26318,0.827991 l -1.30639,3.1463661 q -1.89517,-0.9567895 -3.58796,-0.9567895 -1.67438,0 -1.67438,0.8095911 0,0.3863958 0.4968,0.5887936 0.49679,0.183998 1.63758,0.4047956 1.47198,0.275997 2.48397,0.643993 1.01199,0.3495962 1.74798,1.1591873 0.75439,0.8095912 0.75439,2.2079759 0,1.2143868 -0.68079,2.207976 -0.68079,0.97518933 -2.04238,1.56398291 -1.34318,0.57039378 -3.27516,0.57039378 z"
         id="path1077" />
      <path
         inkscape:connector-curvature="0"
         d="M 9.8254929,18.620598 H 4.9311462 L 4.0663557,20.865374 H -0.34959619 L 5.2807424,7.9855141 H 9.5494959 L 15.179834,20.865374 H 10.690283 Z M 8.6295059,15.492632 7.3783195,12.254268 6.1271332,15.492632 Z"
         id="path1079" />
      <path
         inkscape:connector-curvature="0"
         d="m 20.810174,21.15977 q -2.962368,0 -4.61835,-1.600782 -1.655982,-1.600783 -1.655982,-4.489551 V 7.9855141 h 4.342353 v 6.9551239 q 0,1.416785 0.496794,2.060778 0.515195,0.643993 1.471984,0.643993 0.95679,0 1.453584,-0.643993 0.515195,-0.643993 0.515195,-2.060778 V 7.9855141 h 4.268753 v 7.0839229 q 0,2.888768 -1.655982,4.489551 -1.655982,1.600782 -4.618349,1.600782 z"
         id="path1081" />
      <path
         inkscape:connector-curvature="0"
         d="m 47.269086,22.484556 q -0.680793,0.809591 -1.637582,1.214387 -0.95679,0.423195 -2.115977,0.423195 -1.159188,0 -2.079178,-0.294397 -0.91999,-0.275997 -1.83998,-0.956789 -0.919989,-0.662393 -2.097577,-1.89518 -1.619182,-0.331196 -2.851969,-1.251186 -1.232786,-0.93839 -1.931978,-2.299975 -0.680793,-1.361585 -0.680793,-2.999167 0,-1.931979 0.93839,-3.459162 0.938389,-1.5455836 2.594371,-2.4103742 1.655982,-0.8647905 3.73516,-0.8647905 2.079177,0 3.735159,0.8647905 1.655982,0.8647906 2.594372,2.4103742 0.938389,1.527183 0.938389,3.459162 0,2.115977 -1.122387,3.753559 -1.122388,1.619182 -3.035967,2.391974 0.275997,0.294397 0.551994,0.404795 0.294397,0.128799 0.643993,0.128799 0.956789,0 1.78478,-0.827991 z M 39.301973,11.205479 q -0.809591,0 -1.471984,0.404796 -0.643993,0.386395 -1.030389,1.122387 -0.386396,0.717592 -0.386396,1.692782 0,0.975189 0.386396,1.711181 0.386396,0.717592 1.030389,1.122388 0.662393,0.386396 1.471984,0.386396 0.809591,0 1.453584,-0.386396 0.662393,-0.404796 1.048788,-1.122388 0.386396,-0.735992 0.386396,-1.711181 0,-0.97519 -0.386396,-1.692782 -0.386395,-0.735992 -1.048788,-1.122387 -0.643993,-0.404796 -1.453584,-0.404796 z"
         id="path1083" />
      <path
         inkscape:connector-curvature="0"
         d="m 52.715426,21.15977 q -2.962368,0 -4.61835,-1.600782 -1.655982,-1.600783 -1.655982,-4.489551 V 7.9855141 h 4.342353 v 6.9551239 q 0,1.416785 0.496795,2.060778 0.515194,0.643993 1.471984,0.643993 0.956789,0 1.453584,-0.643993 0.515194,-0.643993 0.515194,-2.060778 V 7.9855141 h 4.268754 v 7.0839229 q 0,2.888768 -1.655982,4.489551 -1.655982,1.600782 -4.61835,1.600782 z"
         id="path1085" />
      <path
         inkscape:connector-curvature="0"
         d="m 66.423276,21.15977 q -2.079177,0 -3.735159,-0.86479 -1.655982,-0.864791 -2.594372,-2.391974 -0.938389,-1.545583 -0.938389,-3.477562 0,-1.931979 0.938389,-3.459162 0.93839,-1.5455836 2.594372,-2.4103742 1.655982,-0.8647905 3.735159,-0.8647905 2.079178,0 3.73516,0.8647905 1.655981,0.8647906 2.594371,2.4103742 0.93839,1.527183 0.93839,3.459162 0,1.931979 -0.93839,3.477562 -0.93839,1.527183 -2.594371,2.391974 -1.655982,0.86479 -3.73516,0.86479 z m 0,-3.514361 q 0.809591,0 1.453584,-0.386396 0.662393,-0.404796 1.048789,-1.122388 0.386396,-0.735992 0.386396,-1.711181 0,-0.97519 -0.386396,-1.692782 -0.386396,-0.735992 -1.048789,-1.122387 -0.643993,-0.404796 -1.453584,-0.404796 -0.809591,0 -1.471984,0.404796 -0.643993,0.386395 -1.030388,1.122387 -0.386396,0.717592 -0.386396,1.692782 0,0.975189 0.386396,1.711181 0.386395,0.717592 1.030388,1.122388 0.662393,0.386396 1.471984,0.386396 z"
         id="path1087" />
      <path
         inkscape:connector-curvature="0"
         d="M 75.897331,11.352677 H 72.125372 V 7.9855141 h 11.886271 v 3.3671629 h -3.771959 v 9.512697 h -4.342353 z"
         id="path1089" />
      <path
         inkscape:connector-curvature="0"
         d="m 84.158843,7.9855141 h 4.342352 V 20.865374 h -4.342352 z"
         id="path1091" />
      <path
         inkscape:connector-curvature="0"
         d="m 89.531584,7.9855141 h 6.347931 q 2.152777,0 3.790359,0.7911913 1.655986,0.7727916 2.557576,2.2263756 0.91999,1.453584 0.91999,3.422363 0,1.968778 -0.91999,3.422363 -0.90159,1.453584 -2.557576,2.244775 -1.637582,0.772792 -3.790359,0.772792 h -6.347931 z m 6.163933,9.4942969 q 1.398385,0 2.226376,-0.791192 0.846391,-0.809591 0.846391,-2.263175 0,-1.453584 -0.846391,-2.244776 -0.827991,-0.809591 -2.226376,-0.809591 h -1.82158 v 6.108734 z"
         id="path1093" />
      <path
         inkscape:connector-curvature="0"
         d="m 102.76105,7.9855141 h 4.34235 V 20.865374 h -4.34235 z"
         id="path1095" />
      <path
         inkscape:connector-curvature="0"
         d="m 118.84247,17.590209 v 3.275165 H 108.13379 V 7.9855141 h 10.46948 v 3.2751639 h -6.20073 v 1.508784 h 5.44634 v 3.127966 h -5.44634 v 1.692781 z"
         id="path1097" />
      <path
         inkscape:connector-curvature="0"
         d="M 132.78952,7.9855141 V 20.865374 h -3.56956 l -4.89435,-5.851137 v 5.851137 h -4.23195 V 7.9855141 h 3.56956 l 4.89434,5.8511359 V 7.9855141 Z"
         id="path1099" />
    </g>
    <g
       transform="matrix(0.35277777,0,0,-0.35277777,90.902084,232.72138)"
       id="g108">
      <g
         id="g110"
         clip-path="url(#clipPath114)">
        <g
           id="g116"
           transform="translate(78.8682,81.0505)">
          <path
             d="M 0,0 C 0.166,0.424 0.667,1.703 1.652,1.67 1.725,1.655 1.989,1.585 2.237,1.345 2.629,0.964 2.809,0.306 2.755,-0.558 2.682,-1.733 2.247,-2.683 1.497,-3.304 0.867,-3.826 0.047,-4.096 -0.822,-4.069 -0.666,-2.379 -0.384,-0.982 0,0 m -1.983,1.943 c 0.248,-0.29 0.684,-0.324 0.975,-0.076 0.324,0.277 1.309,1.12 1.021,1.982 -0.136,0.403 -0.519,0.673 -1.001,0.703 H -0.99 c -0.927,0.057 -4.283,-0.957 -4.523,-4.813 -0.163,-2.632 1.36,-4.335 3.226,-4.943 -0.044,-1.095 0.003,-2.173 0.044,-3.14 0.023,-0.535 0.045,-1.039 0.049,-1.491 0.015,-1.771 -0.156,-4.23 -0.158,-4.255 -0.026,-0.381 0.261,-0.711 0.642,-0.738 10e-4,0 0.003,0 0.005,0 0.379,-0.024 0.706,0.262 0.733,0.641 0.007,0.103 0.177,2.538 0.161,4.365 -0.004,0.474 -0.027,0.991 -0.05,1.537 -0.038,0.882 -0.08,1.859 -0.051,2.836 1.224,-0.049 2.389,0.332 3.291,1.08 1.052,0.871 1.659,2.159 1.756,3.726 C 4.302,2.034 2.687,2.94 1.81,3.045 L 1.77,3.049 C 0.107,3.152 -0.811,1.722 -1.288,0.504 -1.712,-0.58 -2.013,-2.019 -2.184,-3.783 c -1.439,0.611 -2.032,2.086 -1.948,3.436 0.076,1.222 0.56,2.178 1.44,2.84 C -2.397,2.715 -2.1,2.871 -1.84,2.977 -1.861,2.958 -1.884,2.938 -1.907,2.918 -2.197,2.67 -2.231,2.233 -1.983,1.943"
             style="fill:#20b8d1;fill-opacity:1;fill-rule:nonzero;stroke:none"
             id="path118"
             inkscape:connector-curvature="0" />
        </g>
        <g
           id="g120"
           transform="translate(84.3069,67.06)">
          <path
             d="m 0,0 c -0.464,-0.223 -0.691,0.2 -0.923,0.469 -0.099,0.114 -0.116,0.114 -0.101,0.35 0.249,4.012 1.759,6.63 3.22,9.161 1.229,2.13 2.389,4.142 2.546,6.655 0.178,2.865 -0.77,5.627 -2.67,7.778 -1.899,2.152 -4.523,3.435 -7.387,3.613 -2.864,0.178 -5.627,-0.77 -7.778,-2.67 -2.151,-1.899 -3.434,-4.523 -3.612,-7.387 -0.162,-2.594 0.766,-4.75 1.748,-7.032 1.144,-2.66 2.327,-5.41 2.079,-9.408 -0.019,-0.301 -0.11,-0.525 -0.271,-0.667 -0.256,-0.226 -0.376,0.042 -1.044,0.084 l -0.062,0.004 c 0.021,-0.49 -0.413,-1.095 -0.421,-1.584 2.346,-0.129 3.184,0.862 3.259,2.072 0.487,7.835 -4.14,11.396 -3.827,16.44 0.318,5.115 4.723,9.004 9.838,8.686 C -0.291,26.246 3.598,21.842 3.28,16.726 2.975,11.818 -2,8.718 -2.486,0.91 c -0.062,-1.01 -0.018,-2.28 2.458,-2.434 0.158,-0.01 1.111,0.17 1.411,0.168 0.1,0.483 -0.194,1.021 -0.083,1.501 z"
             style="fill:#ca482c;fill-opacity:1;fill-rule:nonzero;stroke:none"
             id="path122"
             inkscape:connector-curvature="0" />
        </g>
        <g
           id="g124"
           transform="translate(76.6807,57.3956)">
          <path
             d="M 0,0 C 1.021,-0.063 1.962,0.337 2.621,1.019 L -2.475,1.336 C -1.905,0.577 -1.021,0.063 0,0"
             style="fill:#ca482c;fill-opacity:1;fill-rule:nonzero;stroke:none"
             id="path126"
             inkscape:connector-curvature="0" />
        </g>
        <g
           id="g128"
           transform="translate(79.6142,62.2733)">
          <path
             d="m 0,0 -5.358,0.333 c -0.358,0.022 -0.632,0.333 -0.609,0.69 0.022,0.357 0.332,0.631 0.689,0.609 L 0.081,1.299 C 0.438,1.277 0.712,0.966 0.69,0.609 0.668,0.252 0.357,-0.022 0,0 m -1.613,-1.856 -3.836,0.239 c -0.374,0.023 -0.661,0.348 -0.638,0.722 0.023,0.374 0.349,0.661 0.722,0.638 l 3.837,-0.239 c 0.374,-0.023 0.661,-0.348 0.637,-0.722 -0.023,-0.374 -0.348,-0.661 -0.722,-0.638 M 2.123,1.478 C 2.157,2.028 1.734,2.507 1.184,2.541 L -6.177,2.999 C -6.728,3.033 -7.207,2.611 -7.241,2.06 -7.271,1.578 -6.951,1.151 -6.501,1.029 -6.962,0.964 -7.333,0.58 -7.363,0.098 v 0 c -0.028,-0.445 0.243,-0.843 0.639,-0.998 -0.412,-0.104 -0.73,-0.465 -0.758,-0.91 v 0 c -0.034,-0.551 0.389,-1.029 0.939,-1.064 l 7.361,-0.457 c 0.551,-0.035 1.03,0.388 1.064,0.939 v 0 c 0.028,0.445 -0.243,0.843 -0.639,0.997 0.412,0.104 0.73,0.465 0.758,0.911 v 0 c 0.03,0.482 -0.291,0.909 -0.74,1.03 0.461,0.066 0.832,0.449 0.862,0.932"
             style="fill:#ca482c;fill-opacity:1;fill-rule:nonzero;stroke:none"
             id="path130"
             inkscape:connector-curvature="0" />
        </g>
      </g>
    </g>
  </g>
</svg>
