<?xml version="1.0" encoding="UTF-8" standalone="no"?>
<!-- Created with Inkscape (http://www.inkscape.org/) -->

<svg
   xmlns:dc="http://purl.org/dc/elements/1.1/"
   xmlns:cc="http://creativecommons.org/ns#"
   xmlns:rdf="http://www.w3.org/1999/02/22-rdf-syntax-ns#"
   xmlns:svg="http://www.w3.org/2000/svg"
   xmlns="http://www.w3.org/2000/svg"
   xmlns:sodipodi="http://sodipodi.sourceforge.net/DTD/sodipodi-0.dtd"
   xmlns:inkscape="http://www.inkscape.org/namespaces/inkscape"
   width="55.760986mm"
   height="19.052221mm"
   viewBox="0 0 55.760986 19.052221"
   version="1.1"
   id="svg1222"
   inkscape:version="0.92.2pre0 (973e216, 2017-07-25)"
   sodipodi:docname="lentre.svg">
  <defs
     id="defs1216">
    <clipPath
       clipPathUnits="userSpaceOnUse"
       id="clipPath126">
      <path
         d="M 0,310.452 H 411.299 V 0 H 0 Z"
         id="path124"
         inkscape:connector-curvature="0" />
    </clipPath>
  </defs>
  <sodipodi:namedview
     id="base"
     pagecolor="#ffffff"
     bordercolor="#666666"
     borderopacity="1.0"
     inkscape:pageopacity="0.0"
     inkscape:pageshadow="2"
     inkscape:zoom="0.35"
     inkscape:cx="-528.91061"
     inkscape:cy="333.14706"
     inkscape:document-units="mm"
     inkscape:current-layer="layer1"
     showgrid="false"
     fit-margin-top="0"
     fit-margin-left="0"
     fit-margin-right="0"
     fit-margin-bottom="0"
     inkscape:window-width="1920"
     inkscape:window-height="998"
     inkscape:window-x="0"
     inkscape:window-y="0"
     inkscape:window-maximized="1" />
  <metadata
     id="metadata1219">
    <rdf:RDF>
      <cc:Work
         rdf:about="">
        <dc:format>image/svg+xml</dc:format>
        <dc:type
           rdf:resource="http://purl.org/dc/dcmitype/StillImage" />
        <dc:title></dc:title>
      </cc:Work>
    </rdf:RDF>
  </metadata>
  <g
     inkscape:label="Calque 1"
     inkscape:groupmode="layer"
     id="layer1"
     transform="translate(-92.315932,-217.92627)">
    <g
       aria-label="L’ENTRETIEN"
       transform="matrix(0.34933186,0,0,0.35277777,105.92186,229.78662)"
       style="font-variant:normal;font-weight:900;font-stretch:normal;font-size:17.78269958px;font-family:'Montserrat Black';-inkscape-font-specification:Montserrat-Black;writing-mode:lr-tb;fill:#ca482c;fill-opacity:1;fill-rule:nonzero;stroke:none"
       id="text118">
      <path
         inkscape:connector-curvature="0"
         d="M 1.0136139,-12.44789 H 5.210331 v 9.193656 h 5.619333 V 0 H 1.0136139 Z"
         id="path1145" />
      <path
         inkscape:connector-curvature="0"
         d="m 13.088067,-13.37259 q 1.031396,0 1.689356,0.622394 0.65796,0.622395 0.65796,1.653791 0,0.462351 -0.124479,0.924701 -0.124479,0.46235 -0.569046,1.4048331 l -1.244789,2.6496222 h -2.489578 l 0.889135,-3.0052762 q -0.551264,-0.2667405 -0.85357,-0.7646561 -0.302305,-0.515698 -0.302305,-1.209224 0,-1.031396 0.657959,-1.653791 0.65796,-0.622394 1.689357,-0.622394 z"
         id="path1147" />
      <path
         inkscape:connector-curvature="0"
         d="M 26.460657,-3.1653205 V 0 H 16.111126 v -12.44789 h 10.118356 v 3.1653208 h -5.99277 v 1.4581814 h 5.26368 v 3.0230589 h -5.26368 v 1.6360084 z"
         id="path1149" />
      <path
         inkscape:connector-curvature="0"
         d="M 40.651251,-12.44789 V 0 H 37.201408 L 32.471209,-5.6548985 V 0 h -4.09002 v -12.44789 h 3.449843 l 4.730198,5.6548988 V -12.44789 Z"
         id="path1151" />
      <path
         inkscape:connector-curvature="0"
         d="M 44.972447,-9.1936557 H 41.326994 V -12.44789 h 11.487624 v 3.2542343 H 49.169165 V 0 h -4.196718 z"
         id="path1153" />
      <path
         inkscape:connector-curvature="0"
         d="M 59.002999,-3.1297551 H 57.864906 V 0 h -4.196717 v -12.44789 h 5.99277 q 1.724922,0 3.005276,0.569047 1.280355,0.569046 1.97388,1.636008 0.693525,1.066962 0.693525,2.489578 0,1.3337024 -0.604612,2.3295336 -0.604611,0.9958312 -1.742704,1.5826603 L 65.600381,0 H 61.11914 Z m 2.098359,-4.6235019 q 0,-0.6935253 -0.426785,-1.066962 -0.426785,-0.3912194 -1.280355,-0.3912194 h -1.529312 v 2.9163627 h 1.529312 q 0.85357,0 1.280355,-0.3734366 0.426785,-0.3912194 0.426785,-1.0847447 z"
         id="path1155" />
      <path
         inkscape:connector-curvature="0"
         d="M 76.91018,-3.1653205 V 0 H 66.560649 v -12.44789 h 10.118356 v 3.1653208 h -5.99277 v 1.4581814 h 5.263679 v 3.0230589 h -5.263679 v 1.6360084 z"
         id="path1157" />
      <path
         inkscape:connector-curvature="0"
         d="M 81.533677,-9.1936557 H 77.888224 V -12.44789 h 11.487624 v 3.2542343 H 85.730394 V 0 h -4.196717 z"
         id="path1159" />
      <path
         inkscape:connector-curvature="0"
         d="m 90.229419,-12.44789 h 4.196717 V 0 h -4.196717 z"
         id="path1161" />
      <path
         inkscape:connector-curvature="0"
         d="M 106.4828,-3.1653205 V 0 H 96.133273 v -12.44789 h 10.118357 v 3.1653208 h -5.99277 v 1.4581814 h 5.26368 v 3.0230589 h -5.26368 v 1.6360084 z"
         id="path1163" />
      <path
         inkscape:connector-curvature="0"
         d="M 120.67339,-12.44789 V 0 h -3.44984 l -4.7302,-5.6548985 V 0 h -4.09002 v -12.44789 h 3.44984 l 4.7302,5.6548988 V -12.44789 Z"
         id="path1165" />
    </g>
    <g
       transform="matrix(0.35277777,0,0,-0.35277777,71.969404,259.45474)"
       id="g120">
      <g
         id="g122"
         clip-path="url(#clipPath126)">
        <g
           id="g128"
           transform="translate(68.2366,107.7467)">
          <path
             d="M 0,0 H -4.786 V 1.64 H 0 C 0.453,1.64 0.82,1.273 0.82,0.82 0.82,0.367 0.453,0 0,0"
             style="fill:#20b8d1;fill-opacity:1;fill-rule:nonzero;stroke:none"
             id="path130"
             inkscape:connector-curvature="0" />
        </g>
        <g
           id="g132"
           transform="translate(66.549,104.6302)">
          <path
             d="M 0,0 H -2.753 V 1.64 H 0 C 0.453,1.64 0.82,1.273 0.82,0.82 0.82,0.367 0.453,0 0,0"
             style="fill:#20b8d1;fill-opacity:1;fill-rule:nonzero;stroke:none"
             id="path134"
             inkscape:connector-curvature="0" />
        </g>
        <g
           id="g136"
           transform="translate(70.6117,110.4532)">
          <path
             d="M 0,0 H -6.046 V 1.64 H 0 C 0.453,1.64 0.82,1.273 0.82,0.82 0.82,0.367 0.453,0 0,0"
             style="fill:#20b8d1;fill-opacity:1;fill-rule:nonzero;stroke:none"
             id="path138"
             inkscape:connector-curvature="0" />
        </g>
        <g
           id="g140"
           transform="translate(76.7451,110.4532)">
          <path
             d="M 0,0 H 6.046 V 1.64 H 0 C -0.453,1.64 -0.82,1.273 -0.82,0.82 -0.82,0.367 -0.453,0 0,0"
             style="fill:#20b8d1;fill-opacity:1;fill-rule:nonzero;stroke:none"
             id="path142"
             inkscape:connector-curvature="0" />
        </g>
        <g
           id="g144"
           transform="translate(78.9242,107.7467)">
          <path
             d="M 0,0 H 4.786 V 1.64 H 0 C -0.453,1.64 -0.82,1.273 -0.82,0.82 -0.82,0.367 -0.453,0 0,0"
             style="fill:#20b8d1;fill-opacity:1;fill-rule:nonzero;stroke:none"
             id="path146"
             inkscape:connector-curvature="0" />
        </g>
        <g
           id="g148"
           transform="translate(80.8079,104.6302)">
          <path
             d="M 0,0 H 2.436 V 1.64 H 0 C -0.453,1.64 -0.82,1.273 -0.82,0.82 -0.82,0.367 -0.453,0 0,0"
             style="fill:#20b8d1;fill-opacity:1;fill-rule:nonzero;stroke:none"
             id="path150"
             inkscape:connector-curvature="0" />
        </g>
        <g
           id="g152"
           transform="translate(79.7271,96.5763)">
          <path
             d="m 0,0 -0.123,-1.311 2.798,-0.001 h 1.982 c -0.009,-2.58 -0.022,-6.408 -0.022,-6.43 0,-5.887 -4.789,-10.766 -10.651,-10.876 -5.886,0.11 -10.675,4.989 -10.675,10.876 0,0.012 -0.004,1.155 -0.009,2.611 l -0.013,3.819 h 1.982 L -12.159,-1.316 -12.494,0 h -5.535 l 0.017,-5.135 c 0.005,-1.444 0.008,-2.581 0.008,-2.607 0,-6.597 5.367,-12.065 11.988,-12.188 6.596,0.123 11.963,5.591 11.963,12.187 0,0.054 0.015,4.571 0.024,7.085 L 5.973,0 Z"
             style="fill:#ca482c;fill-opacity:1;fill-rule:nonzero;stroke:none"
             id="path154"
             inkscape:connector-curvature="0" />
        </g>
        <g
           id="g156"
           transform="translate(86.8262,100.5872)">
          <path
             d="M 0,0 H -4.424 -5.737 V -1.312 H 0 c 0.733,0 1.584,-0.582 1.584,-1.333 0,-0.068 -0.01,-2.638 -0.021,-5.03 -0.008,-2.084 -0.016,-4.033 -0.016,-4.078 0,-7.312 -5.449,-13.643 -12.674,-14.727 l -0.559,-0.083 v -6.301 h 6.204 c 0.744,0 1.35,-0.606 1.35,-1.349 0,-0.744 -0.606,-1.35 -1.35,-1.35 h -15.291 c -0.744,0 -1.349,0.606 -1.349,1.35 0,0.743 0.605,1.349 1.349,1.349 h 6.205 v 6.301 l -0.559,0.083 c -7.226,1.084 -12.674,7.415 -12.674,14.728 0,0.044 -0.007,1.621 -0.014,3.451 -0.011,2.546 -0.024,5.582 -0.024,5.656 0,0.751 0.852,1.333 1.585,1.333 h 5.736 v 0.067 C -20.808,-0.863 -21.364,0 -21.364,0 h -0.466 -4.424 c -1.37,0 -2.897,-1.086 -2.897,-2.645 0,-0.074 0.013,-3.113 0.023,-5.661 0.008,-1.829 0.015,-3.404 0.015,-3.447 0,-7.767 5.649,-14.517 13.232,-15.93 v -3.869 h -4.892 c -1.468,0 -2.662,-1.194 -2.662,-2.661 0,-1.468 1.194,-2.662 2.662,-2.662 h 15.291 c 1.468,0 2.662,1.194 2.662,2.662 0,1.467 -1.194,2.661 -2.662,2.661 h -4.892 v 3.869 c 7.584,1.413 13.233,8.163 13.233,15.93 0,0.054 0.008,1.996 0.017,4.073 0.01,2.394 0.02,4.967 0.02,5.035 C 2.896,-1.086 1.37,0 0,0"
             style="fill:#ca482c;fill-opacity:1;fill-rule:nonzero;stroke:none"
             id="path158"
             inkscape:connector-curvature="0" />
        </g>
        <g
           id="g160"
           transform="translate(77.1888,89.0765)">
          <path
             d="m 0,0 c -0.34,0 1.103,-0.067 1.559,0.384 0.252,0.249 0.556,0.639 0.624,2.179 0.174,3.895 1.305,6.524 2.566,9.062 1.062,2.136 2.064,4.153 2.064,6.596 0,2.784 -1.084,5.401 -3.052,7.369 -1.968,1.968 -4.585,3.052 -7.369,3.052 -2.783,0 -5.4,-1.084 -7.369,-3.052 -1.968,-1.968 -3.052,-4.585 -3.052,-7.369 0,-2.521 1.028,-4.552 2.116,-6.702 1.267,-2.506 2.578,-5.096 2.578,-8.982 0,-0.292 -0.087,-1.76 0.098,-2.008 0.431,-0.575 1.537,-0.533 1.537,-0.533 l 0.56,0.005 c 6.741,-0.181 5.071,1.144 5.071,1.144 0,0 -3.665,-0.265 -5.33,0.234 -0.621,0.185 -0.515,0.839 -0.515,1.158 0,7.614 -4.695,10.783 -4.695,15.684 0,4.971 4.03,9.001 9.001,9.001 4.971,0 9.001,-4.03 9.001,-9.001 0,-4.77 -4.63,-8.07 -4.63,-15.658 C 0.763,1.582 0.191,1.215 -3.353,1.086 -3.506,1.081 -5.433,0 -5.13,0 l 3.034,-0.004 z"
             style="fill:#20b8d1;fill-opacity:1;fill-rule:nonzero;stroke:none"
             id="path162"
             inkscape:connector-curvature="0" />
        </g>
        <g
           id="g164"
           transform="translate(74.3059,104.1245)">
          <path
             d="M 0,0 C 0.135,0.42 0.543,1.689 1.499,1.716 1.57,1.706 1.83,1.654 2.084,1.436 2.487,1.092 2.7,0.466 2.7,-0.374 2.7,-1.516 2.337,-2.462 1.648,-3.109 1.069,-3.652 0.292,-3.962 -0.551,-3.988 -0.501,-2.343 -0.313,-0.974 0,0 m -2.037,1.762 c 0.258,-0.266 0.683,-0.273 0.949,-0.015 0.296,0.288 1.2,1.163 0.869,1.979 -0.156,0.383 -0.543,0.621 -1.012,0.621 h -10e-4 c -0.902,-0.001 -4.089,-1.184 -4.089,-4.931 0,-2.558 1.577,-4.115 3.421,-4.591 0.023,-1.063 0.133,-2.104 0.231,-3.038 0.055,-0.516 0.106,-1.003 0.137,-1.439 0.122,-1.714 0.104,-4.105 0.104,-4.129 -0.003,-0.37 0.294,-0.673 0.665,-0.676 h 0.005 c 0.368,0 0.668,0.297 0.671,0.665 0.001,0.1 0.018,2.467 -0.107,4.235 -0.033,0.459 -0.085,0.957 -0.141,1.485 -0.09,0.851 -0.189,1.795 -0.219,2.742 1.187,0.026 2.291,0.466 3.12,1.244 0.965,0.906 1.476,2.19 1.476,3.712 0,2.602 -1.618,3.382 -2.474,3.431 L 1.53,3.058 c -1.617,0 -2.419,-1.44 -2.807,-2.648 -0.345,-1.075 -0.55,-2.486 -0.61,-4.203 -1.43,0.505 -2.092,1.897 -2.092,3.209 0,1.187 0.411,2.141 1.223,2.835 0.272,0.233 0.55,0.402 0.796,0.52 C -1.98,2.751 -2,2.731 -2.022,2.71 -2.288,2.452 -2.295,2.028 -2.037,1.762"
             style="fill:#20b8d1;fill-opacity:1;fill-rule:nonzero;stroke:none"
             id="path166"
             inkscape:connector-curvature="0" />
        </g>
        <g
           id="g168"
           transform="translate(73.6121,81.0938)">
          <path
             d="M 0,0 C 0.992,0 1.879,0.444 2.476,1.144 H -2.476 C -1.879,0.444 -0.992,0 0,0"
             style="fill:#20b8d1;fill-opacity:1;fill-rule:nonzero;stroke:none"
             id="path170"
             inkscape:connector-curvature="0" />
        </g>
        <g
           id="g172"
           transform="translate(76.1582,85.9922)">
          <path
             d="m 0,0 h -5.207 c -0.347,0 -0.631,0.284 -0.631,0.631 0,0.347 0.284,0.631 0.631,0.631 H 0 C 0.347,1.262 0.631,0.978 0.631,0.631 0.631,0.284 0.347,0 0,0 m -1.45,-1.894 h -3.728 c -0.363,0 -0.66,0.298 -0.66,0.661 0,0.364 0.297,0.661 0.66,0.661 h 3.728 c 0.364,0 0.661,-0.297 0.661,-0.661 0,-0.363 -0.297,-0.661 -0.661,-0.661 m 3.416,3.452 c 0,0.535 -0.438,0.973 -0.973,0.973 h -7.154 c -0.535,0 -0.973,-0.438 -0.973,-0.973 0,-0.468 0.336,-0.862 0.779,-0.953 C -6.798,0.514 -7.134,0.12 -7.134,-0.348 v 0 c 0,-0.433 0.287,-0.802 0.679,-0.927 -0.392,-0.126 -0.679,-0.495 -0.679,-0.928 v 0 c 0,-0.535 0.438,-0.973 0.973,-0.973 h 7.154 c 0.535,0 0.973,0.438 0.973,0.973 v 0 c 0,0.433 -0.287,0.802 -0.679,0.928 0.392,0.125 0.679,0.494 0.679,0.927 v 0 C 1.966,0.12 1.63,0.514 1.187,0.605 1.63,0.696 1.966,1.09 1.966,1.558"
             style="fill:#20b8d1;fill-opacity:1;fill-rule:nonzero;stroke:none"
             id="path174"
             inkscape:connector-curvature="0" />
        </g>
      </g>
    </g>
  </g>
</svg>
