<?xml version="1.0" encoding="UTF-8" standalone="no"?>
<!-- Created with Inkscape (http://www.inkscape.org/) -->

<svg
   xmlns:dc="http://purl.org/dc/elements/1.1/"
   xmlns:cc="http://creativecommons.org/ns#"
   xmlns:rdf="http://www.w3.org/1999/02/22-rdf-syntax-ns#"
   xmlns:svg="http://www.w3.org/2000/svg"
   xmlns="http://www.w3.org/2000/svg"
   xmlns:sodipodi="http://sodipodi.sourceforge.net/DTD/sodipodi-0.dtd"
   xmlns:inkscape="http://www.inkscape.org/namespaces/inkscape"
   width="59.931374mm"
   height="18.964622mm"
   viewBox="0 0 59.931374 18.964622"
   version="1.1"
   id="svg1185"
   inkscape:version="0.92.2pre0 (973e216, 2017-07-25)"
   sodipodi:docname="siecom.svg">
  <defs
     id="defs1179">
    <clipPath
       clipPathUnits="userSpaceOnUse"
       id="clipPath256">
      <path
         d="M 0,310.452 H 411.299 V 0 H 0 Z"
         id="path254"
         inkscape:connector-curvature="0" />
    </clipPath>
  </defs>
  <sodipodi:namedview
     id="base"
     pagecolor="#ffffff"
     bordercolor="#666666"
     borderopacity="1.0"
     inkscape:pageopacity="0.0"
     inkscape:pageshadow="2"
     inkscape:zoom="0.35"
     inkscape:cx="-498.17244"
     inkscape:cy="210.12438"
     inkscape:document-units="mm"
     inkscape:current-layer="layer1"
     showgrid="false"
     fit-margin-top="0"
     fit-margin-left="0"
     fit-margin-right="0"
     fit-margin-bottom="0"
     inkscape:window-width="1920"
     inkscape:window-height="998"
     inkscape:window-x="0"
     inkscape:window-y="0"
     inkscape:window-maximized="1" />
  <metadata
     id="metadata1182">
    <rdf:RDF>
      <cc:Work
         rdf:about="">
        <dc:format>image/svg+xml</dc:format>
        <dc:type
           rdf:resource="http://purl.org/dc/dcmitype/StillImage" />
        <dc:title></dc:title>
      </cc:Work>
    </rdf:RDF>
  </metadata>
  <g
     inkscape:label="Calque 1"
     inkscape:groupmode="layer"
     id="layer1"
     transform="translate(-84.183124,-185.46412)">
    <g
       transform="matrix(0.35277777,0,0,-0.35277777,67.131081,227.96283)"
       id="g250">
      <g
         id="g252"
         clip-path="url(#clipPath256)">
        <g
           id="g258"
           transform="translate(112.2095,77.1546)">
          <path
             d="m 0,0 c 0,-0.269 -0.227,-0.496 -0.496,-0.496 h -8.639 c -0.356,0 -0.989,0.044 -1.223,0.342 -0.151,0.192 -0.183,0.519 -0.183,0.76 0,4.085 1.367,6.835 2.688,9.495 1.112,2.238 2.163,4.352 2.163,6.911 0,2.917 -1.136,5.659 -3.198,7.721 -2.063,2.062 -4.805,3.198 -7.721,3.198 -2.917,0 -5.659,-1.136 -7.721,-3.198 -2.062,-2.062 -3.198,-4.804 -3.198,-7.721 0,-2.641 1.077,-4.769 2.217,-7.022 1.328,-2.626 2.702,-5.34 2.702,-9.411 0,-0.307 -0.079,-0.54 -0.233,-0.694 -0.245,-0.246 -0.755,-0.381 -1.435,-0.381 h -37.612 c -0.268,0 -0.496,0.227 -0.496,0.496 v 29.512 c 0,0.269 0.228,0.496 0.496,0.496 h 23.225 l 0.014,-0.041 0.118,0.041 H -0.496 C -0.227,30.008 0,29.781 0,29.512 Z m -0.496,31.496 h -33.765 l 26.156,9.114 -0.489,1.405 -30.189,-10.519 h -23.106 c -1.091,0 -1.984,-0.893 -1.984,-1.984 V 0 c 0,-1.091 0.893,-1.984 1.984,-1.984 h 37.612 c 2.425,0 3.156,1.323 3.156,2.563 0,7.977 -4.919,11.297 -4.919,16.433 0,5.209 4.222,9.431 9.431,9.431 5.208,0 9.431,-4.222 9.431,-9.431 0,-4.998 -4.851,-8.456 -4.851,-16.406 0,-1.028 0.373,-2.59 2.894,-2.59 h 8.639 c 1.091,0 1.984,0.893 1.984,1.984 v 29.512 c 0,1.091 -0.893,1.984 -1.984,1.984"
             style="fill:#ca482c;fill-opacity:1;fill-rule:nonzero;stroke:none"
             id="path260"
             inkscape:connector-curvature="0" />
        </g>
        <g
           id="g262"
           transform="translate(96.36,90.8421)">
          <path
             d="M 0,0 C 0.141,0.44 0.569,1.77 1.57,1.798 1.645,1.787 1.917,1.733 2.184,1.505 2.606,1.144 2.829,0.488 2.829,-0.392 2.829,-1.589 2.448,-2.58 1.727,-3.257 1.12,-3.827 0.306,-4.151 -0.577,-4.179 -0.525,-2.455 -0.328,-1.02 0,0 m -2.134,1.846 c 0.27,-0.279 0.715,-0.286 0.994,-0.016 0.311,0.302 1.257,1.219 0.91,2.074 -0.163,0.401 -0.568,0.65 -1.059,0.65 h -0.002 c -0.945,0 -4.284,-1.24 -4.284,-5.166 0,-2.68 1.652,-4.312 3.584,-4.81 0.024,-1.114 0.139,-2.204 0.242,-3.183 0.058,-0.541 0.111,-1.051 0.144,-1.509 0.127,-1.795 0.108,-4.3 0.108,-4.325 -0.003,-0.388 0.309,-0.706 0.697,-0.709 h 0.006 c 0.385,0 0.699,0.311 0.703,0.697 0,0.105 0.019,2.585 -0.112,4.437 -0.035,0.481 -0.09,1.003 -0.148,1.556 -0.094,0.892 -0.198,1.881 -0.23,2.873 1.244,0.028 2.401,0.488 3.27,1.303 1.011,0.95 1.546,2.295 1.546,3.89 0,2.727 -1.695,3.544 -2.592,3.595 l -0.04,0.001 c -1.694,0 -2.534,-1.508 -2.941,-2.774 -0.362,-1.126 -0.576,-2.605 -0.639,-4.404 -1.498,0.528 -2.193,1.987 -2.193,3.362 0,1.244 0.432,2.244 1.282,2.971 0.285,0.244 0.577,0.421 0.834,0.544 C -2.074,2.883 -2.096,2.861 -2.119,2.839 -2.397,2.569 -2.404,2.124 -2.134,1.846"
             style="fill:#ca482c;fill-opacity:1;fill-rule:nonzero;stroke:none"
             id="path264"
             inkscape:connector-curvature="0" />
        </g>
        <g
           id="g266"
           transform="translate(95.633,66.7108)">
          <path
             d="M 0,0 C 1.039,0 1.969,0.466 2.594,1.199 H -2.594 C -1.969,0.466 -1.039,0 0,0"
             style="fill:#ca482c;fill-opacity:1;fill-rule:nonzero;stroke:none"
             id="path268"
             inkscape:connector-curvature="0" />
        </g>
        <g
           id="g270"
           transform="translate(98.3008,71.8433)">
          <path
             d="m 0,0 h -5.456 c -0.364,0 -0.661,0.298 -0.661,0.661 0,0.364 0.297,0.662 0.661,0.662 H 0 C 0.364,1.323 0.661,1.025 0.661,0.661 0.661,0.298 0.364,0 0,0 m -1.519,-1.984 h -3.906 c -0.381,0 -0.692,0.312 -0.692,0.692 0,0.381 0.311,0.693 0.692,0.693 h 3.906 c 0.381,0 0.692,-0.312 0.692,-0.693 0,-0.38 -0.311,-0.692 -0.692,-0.692 M 2.06,1.633 c 0,0.56 -0.459,1.019 -1.02,1.019 h -7.495 c -0.561,0 -1.019,-0.459 -1.019,-1.019 0,-0.491 0.351,-0.904 0.815,-0.999 -0.464,-0.095 -0.815,-0.508 -0.815,-0.999 0,-0.454 0.3,-0.84 0.711,-0.971 -0.411,-0.132 -0.711,-0.518 -0.711,-0.972 0,-0.561 0.458,-1.019 1.019,-1.019 H 1.04 c 0.561,0 1.02,0.458 1.02,1.019 0,0.454 -0.3,0.84 -0.712,0.972 0.412,0.131 0.712,0.517 0.712,0.971 0,0.491 -0.352,0.904 -0.816,0.999 0.464,0.095 0.816,0.508 0.816,0.999"
             style="fill:#ca482c;fill-opacity:1;fill-rule:nonzero;stroke:none"
             id="path272"
             inkscape:connector-curvature="0" />
        </g>
        <g
           id="g274"
           transform="translate(61.2243,82.3604)">
          <path
             d="m 0,0 c -0.799,0 -1.447,-0.648 -1.447,-1.447 0,-0.799 0.648,-1.446 1.447,-1.446 0.799,0 1.447,0.647 1.447,1.446 C 1.447,-0.648 0.799,0 0,0"
             style="fill:#20b8d1;fill-opacity:1;fill-rule:nonzero;stroke:none"
             id="path276"
             inkscape:connector-curvature="0" />
        </g>
        <g
           id="g278"
           transform="translate(65.4266,82.3604)">
          <path
             d="m 0,0 c -0.799,0 -1.447,-0.648 -1.447,-1.447 0,-0.799 0.648,-1.446 1.447,-1.446 0.799,0 1.447,0.647 1.447,1.446 C 1.447,-0.648 0.799,0 0,0"
             style="fill:#20b8d1;fill-opacity:1;fill-rule:nonzero;stroke:none"
             id="path280"
             inkscape:connector-curvature="0" />
        </g>
        <g
           id="g282"
           transform="translate(69.6288,82.3604)">
          <path
             d="m 0,0 c -0.799,0 -1.447,-0.648 -1.447,-1.447 0,-0.799 0.648,-1.446 1.447,-1.446 0.799,0 1.447,0.647 1.447,1.446 C 1.447,-0.648 0.799,0 0,0"
             style="fill:#20b8d1;fill-opacity:1;fill-rule:nonzero;stroke:none"
             id="path284"
             inkscape:connector-curvature="0" />
        </g>
        <g
           id="g286"
           transform="translate(104.7701,118.0427)">
          <path
             d="m 0,0 c 0.122,-0.386 0.538,-0.602 0.925,-0.48 v 0 c 0.386,0.122 0.602,0.538 0.48,0.925 L 0.941,1.912 C 0.818,2.298 0.402,2.514 0.016,2.392 v 0 C -0.37,2.27 -0.586,1.853 -0.464,1.467 Z"
             style="fill:#ca482c;fill-opacity:1;fill-rule:nonzero;stroke:none"
             id="path288"
             inkscape:connector-curvature="0" />
        </g>
        <g
           id="g290"
           transform="translate(73.3231,88.004)">
          <path
             d="M 0,0 1.533,4.6 H 3.88 V 5.521 H 1.201 C 1.003,5.521 0.827,5.395 0.764,5.206 L -0.349,1.868 -3.162,14.504 c -0.046,0.208 -0.228,0.357 -0.441,0.361 -0.207,0.004 -0.4,-0.138 -0.454,-0.344 l -2.367,-9 h -3.485 c -0.132,0 -0.258,-0.056 -0.345,-0.155 l -0.625,-0.708 -0.539,1.599 c -0.063,0.19 -0.24,0.316 -0.442,0.314 -0.2,-0.003 -0.375,-0.134 -0.434,-0.325 l -1.312,-4.243 -1.278,6.273 c -0.039,0.193 -0.197,0.34 -0.393,0.365 -0.195,0.025 -0.385,-0.077 -0.472,-0.254 l -1.409,-2.866 h -2.515 V 4.6 h 2.802 c 0.175,0 0.336,0.1 0.413,0.257 l 0.94,1.913 1.369,-6.716 c 0.042,-0.207 0.219,-0.358 0.429,-0.369 0.212,-0.011 0.401,0.124 0.463,0.325 l 1.422,4.601 0.338,-1.003 c 0.052,-0.156 0.184,-0.272 0.345,-0.305 0.161,-0.032 0.328,0.024 0.437,0.147 l 1.014,1.15 h 3.632 c 0.21,0 0.393,0.141 0.446,0.343 l 1.974,7.508 2.762,-12.405 c 0.045,-0.203 0.219,-0.35 0.426,-0.36 0.008,-0.001 0.016,-0.001 0.024,-0.001 0.197,0 0.374,0.126 0.437,0.315 m 3.88,14.556 v -16.4 c 0,-1.042 -0.853,-1.895 -1.896,-1.895 h -19.761 c -1.043,0 -1.896,0.853 -1.896,1.895 v 16.4 c 0,1.043 0.853,1.896 1.896,1.896 H 1.984 c 1.043,0 1.896,-0.853 1.896,-1.896"
             style="fill:#20b8d1;fill-opacity:1;fill-rule:nonzero;stroke:none"
             id="path292"
             inkscape:connector-curvature="0" />
        </g>
      </g>
    </g>
    <g
       aria-label="SCIENCE COMMUNE"
       transform="matrix(0.34933115,0,0,0.35277777,108.69409,194.67458)"
       style="font-variant:normal;font-weight:900;font-stretch:normal;font-size:18.62849998px;font-family:'Montserrat Black';-inkscape-font-specification:Montserrat-Black;writing-mode:lr-tb;fill:#ca482c;fill-opacity:1;fill-rule:nonzero;stroke:none"
       id="text298">
      <path
         inkscape:connector-curvature="0"
         d="m 5.923863,0.298056 q -1.6206795,0 -3.166845,-0.3539415 -1.527537,-0.37257 -2.5148475,-0.9873105 l 1.415766,-3.204102 q 0.931425,0.5402265 2.086392,0.8755395 1.154967,0.3166845 2.2167915,0.3166845 0.9127965,0 1.303995,-0.1676565 0.3911985,-0.186285 0.3911985,-0.5402265 0,-0.409827 -0.521598,-0.6147405 Q 6.631746,-4.582611 5.4581505,-4.8247815 3.949242,-5.141466 2.943303,-5.4954075 1.937364,-5.8679775 1.192224,-6.6876315 0.447084,-7.525914 0.447084,-8.94168 q 0,-1.229481 0.6892545,-2.23542 0.6892545,-1.005939 2.049135,-1.583422 1.378509,-0.577484 3.3345015,-0.577484 1.341252,0 2.6266185,0.298056 1.3039945,0.279428 2.2913055,0.838283 l -1.322624,3.185473 Q 8.19654,-9.984876 6.482718,-9.984876 q -1.6951935,0 -1.6951935,0.819654 0,0.3911985 0.5029695,0.596112 0.5029695,0.186285 1.6579365,0.409827 1.49028,0.2794275 2.5148475,0.6519975 1.024567,0.3539415 1.769707,1.1735955 0.763769,0.819654 0.763769,2.23542 0,1.229481 -0.689255,2.23542 -0.689254,0.9873105 -2.067763,1.5834225 Q 7.8798555,0.298056 5.923863,0.298056 Z"
         id="path1105" />
      <path
         inkscape:connector-curvature="0"
         d="m 20.174665,0.298056 q -2.067763,0 -3.7257,-0.856911 -1.657936,-0.8755395 -2.60799,-2.421705 -0.931425,-1.564794 -0.931425,-3.539415 0,-1.974621 0.931425,-3.520786 0.950054,-1.564794 2.60799,-2.421705 1.657937,-0.87554 3.7257,-0.87554 1.900107,0 3.390387,0.670626 1.49028,0.670626 2.458962,1.937364 l -2.775646,2.4775905 q -1.210853,-1.527537 -2.850161,-1.527537 -1.378509,0 -2.216791,0.894168 -0.838283,0.8755395 -0.838283,2.3658195 0,1.49028 0.838283,2.384448 0.838282,0.8755395 2.216791,0.8755395 1.639308,0 2.850161,-1.527537 l 2.775646,2.4775905 q -0.968682,1.266738 -2.458962,1.937364 -1.49028,0.670626 -3.390387,0.670626 z"
         id="path1107" />
      <path
         inkscape:connector-curvature="0"
         d="m 26.247556,-13.03995 h 4.396326 V 0 h -4.396326 z"
         id="path1109" />
      <path
         inkscape:connector-curvature="0"
         d="M 43.274005,-3.315873 V 0 H 32.432218 v -13.03995 h 10.599617 v 3.315873 H 36.75403 v 1.527537 h 5.514036 v 3.166845 H 36.75403 v 1.713822 z"
         id="path1111" />
      <path
         inkscape:connector-curvature="0"
         d="M 58.13955,-13.03995 V 0 H 54.525621 L 49.57044,-5.923863 V 0 h -4.284555 v -13.03995 h 3.613929 l 4.955181,5.923863 v -5.923863 z"
         id="path1113" />
      <path
         inkscape:connector-curvature="0"
         d="m 66.57826,0.298056 q -2.067763,0 -3.7257,-0.856911 -1.657936,-0.8755395 -2.60799,-2.421705 -0.931425,-1.564794 -0.931425,-3.539415 0,-1.974621 0.931425,-3.520786 0.950054,-1.564794 2.60799,-2.421705 1.657937,-0.87554 3.7257,-0.87554 1.900107,0 3.390387,0.670626 1.49028,0.670626 2.458962,1.937364 l -2.775646,2.4775905 q -1.210853,-1.527537 -2.850161,-1.527537 -1.378509,0 -2.216791,0.894168 -0.838283,0.8755395 -0.838283,2.3658195 0,1.49028 0.838283,2.384448 0.838282,0.8755395 2.216791,0.8755395 1.639308,0 2.850161,-1.527537 l 2.775646,2.4775905 q -0.968682,1.266738 -2.458962,1.937364 -1.49028,0.670626 -3.390387,0.670626 z"
         id="path1115" />
      <path
         inkscape:connector-curvature="0"
         d="M 83.492936,-3.315873 V 0 H 72.651149 v -13.03995 h 10.599617 v 3.315873 h -6.277805 v 1.527537 h 5.514036 v 3.166845 h -5.514036 v 1.713822 z"
         id="path1117" />
      <path
         inkscape:connector-curvature="0"
         d="m 7.8053415,22.652256 q -2.0677635,0 -3.7257,-0.856911 -1.6579365,-0.875539 -2.60799,-2.421705 -0.931425,-1.564794 -0.931425,-3.539415 0,-1.974621 0.931425,-3.520786 0.9500535,-1.564794 2.60799,-2.4217051 1.6579365,-0.8755395 3.7257,-0.8755395 1.900107,0 3.3903865,0.670626 1.49028,0.6706256 2.458962,1.9373636 l -2.775646,2.477591 q -1.2108525,-1.527537 -2.8501605,-1.527537 -1.378509,0 -2.2167915,0.894168 -0.8382825,0.875539 -0.8382825,2.365819 0,1.49028 0.8382825,2.384448 0.8382825,0.87554 2.2167915,0.87554 1.639308,0 2.8501605,-1.527537 l 2.775646,2.47759 q -0.968682,1.266738 -2.458962,1.937364 -1.4902795,0.670626 -3.3903865,0.670626 z"
         id="path1119" />
      <path
         inkscape:connector-curvature="0"
         d="m 20.528607,22.652256 q -2.10502,0 -3.781585,-0.875539 -1.676565,-0.87554 -2.626619,-2.421705 -0.950053,-1.564794 -0.950053,-3.520787 0,-1.955992 0.950053,-3.502158 0.950054,-1.564794 2.626619,-2.4403331 1.676565,-0.8755395 3.781585,-0.8755395 2.105021,0 3.781586,0.8755395 1.676565,0.8755391 2.626618,2.4403331 0.950054,1.546166 0.950054,3.502158 0,1.955993 -0.950054,3.520787 -0.950053,1.546165 -2.626618,2.421705 -1.676565,0.875539 -3.781586,0.875539 z m 0,-3.558043 q 0.819654,0 1.471652,-0.391199 0.670626,-0.409827 1.061824,-1.136338 0.391199,-0.74514 0.391199,-1.732451 0,-0.98731 -0.391199,-1.713822 -0.391198,-0.74514 -1.061824,-1.136338 -0.651998,-0.409827 -1.471652,-0.409827 -0.819654,0 -1.49028,0.409827 -0.651997,0.391198 -1.043196,1.136338 -0.391198,0.726512 -0.391198,1.713822 0,0.987311 0.391198,1.732451 0.391199,0.726511 1.043196,1.136338 0.670626,0.391199 1.49028,0.391199 z"
         id="path1121" />
      <path
         inkscape:connector-curvature="0"
         d="M 40.23756,22.3542 40.2003,16.411709 37.368768,21.180605 H 35.431407 L 32.599875,16.616622 V 22.3542 H 28.594747 V 9.3142504 h 3.613929 l 4.247298,6.9484306 4.135527,-6.9484306 H 44.20543 L 44.242687,22.3542 Z"
         id="path1123" />
      <path
         inkscape:connector-curvature="0"
         d="m 56.928697,22.3542 -0.03726,-5.942491 -2.831532,4.768896 H 52.122544 L 49.291012,16.616622 V 22.3542 H 45.285885 V 9.3142504 h 3.613929 l 4.247298,6.9484306 4.135527,-6.9484306 h 3.613929 L 60.933825,22.3542 Z"
         id="path1125" />
      <path
         inkscape:connector-curvature="0"
         d="m 68.217567,22.652256 q -2.999188,0 -4.675753,-1.620679 -1.676565,-1.62068 -1.676565,-4.545354 V 9.3142504 h 4.396326 v 7.0415726 q 0,1.434395 0.502969,2.086392 0.521598,0.651998 1.49028,0.651998 0.968682,0 1.471652,-0.651998 0.521598,-0.651997 0.521598,-2.086392 V 9.3142504 h 4.321812 v 7.1719726 q 0,2.924674 -1.676565,4.545354 -1.676565,1.620679 -4.675754,1.620679 z"
         id="path1127" />
      <path
         inkscape:connector-curvature="0"
         d="M 88.857949,9.3142504 V 22.3542 H 85.24402 L 80.288839,16.430337 V 22.3542 H 76.004284 V 9.3142504 h 3.613929 l 4.955181,5.9238626 V 9.3142504 Z"
         id="path1129" />
      <path
         inkscape:connector-curvature="0"
         d="M 101.39493,19.038327 V 22.3542 H 90.553142 V 9.3142504 h 10.599618 v 3.3158726 h -6.277806 v 1.527537 h 5.514036 v 3.166845 h -5.514036 v 1.713822 z"
         id="path1131" />
    </g>
  </g>
</svg>
