<?xml version="1.0" encoding="UTF-8" standalone="no"?>
<!-- Created with Inkscape (http://www.inkscape.org/) -->

<svg
   xmlns:dc="http://purl.org/dc/elements/1.1/"
   xmlns:cc="http://creativecommons.org/ns#"
   xmlns:rdf="http://www.w3.org/1999/02/22-rdf-syntax-ns#"
   xmlns:svg="http://www.w3.org/2000/svg"
   xmlns="http://www.w3.org/2000/svg"
   xmlns:sodipodi="http://sodipodi.sourceforge.net/DTD/sodipodi-0.dtd"
   xmlns:inkscape="http://www.inkscape.org/namespaces/inkscape"
   width="409.22223mm"
   height="176.3889mm"
   viewBox="0 0 409.22223 176.3889"
   version="1.1"
   id="svg8"
   inkscape:version="0.92.2pre0 (973e216, 2017-07-25)"
   sodipodi:docname="ltd.svg">
  <defs
     id="defs2" />
  <sodipodi:namedview
     id="base"
     pagecolor="#ffffff"
     bordercolor="#666666"
     borderopacity="1.0"
     inkscape:pageopacity="0.0"
     inkscape:pageshadow="2"
     inkscape:zoom="0.49497475"
     inkscape:cx="664.91989"
     inkscape:cy="296.34424"
     inkscape:document-units="mm"
     inkscape:current-layer="layer1"
     showgrid="false"
     fit-margin-top="0"
     fit-margin-left="0"
     fit-margin-right="0"
     fit-margin-bottom="0"
     inkscape:window-width="1920"
     inkscape:window-height="998"
     inkscape:window-x="0"
     inkscape:window-y="0"
     inkscape:window-maximized="1" />
  <metadata
     id="metadata5">
    <rdf:RDF>
      <cc:Work
         rdf:about="">
        <dc:format>image/svg+xml</dc:format>
        <dc:type
           rdf:resource="http://purl.org/dc/dcmitype/StillImage" />
        <dc:title></dc:title>
      </cc:Work>
    </rdf:RDF>
  </metadata>
  <g
     inkscape:label="Calque 1"
     inkscape:groupmode="layer"
     id="layer1"
     transform="translate(223.55172,-50.852185)">
    <path
       style="fill:#ea0905;fill-opacity:1;stroke-width:0.35277778"
       d="M -223.55172,139.04663 V 50.852185 H -18.940612 185.6705 v 88.194445 88.19445 H -18.940612 -223.55172 Z m 183.095398,58.11631 c 0.68115,-0.33756 1.66389,-1.00825 2.18387,-1.4904 l 0.94543,-0.87665 0.10918,1.31773 0.10918,1.31774 h 4.93889 4.93889 v -9.87778 c 0,-10.54482 -0.13559,-11.58309 -1.80462,-13.81915 -0.45945,-0.61553 -1.74949,-1.56803 -2.86676,-2.11667 l -2.0314,-0.99752 h -10.93611 c -11.7902,0 -13.37098,0.18897 -15.11588,1.80693 -1.27479,1.18206 -1.86647,2.44951 -2.16198,4.63127 l -0.25085,1.85208 h 5.15711 c 5.09678,0 5.16082,-0.01 5.4741,-0.83372 0.42839,-1.12676 1.18881,-1.27252 6.66779,-1.27813 6.53106,-0.007 7.44411,0.47799 7.45684,3.95827 l 0.005,1.31726 -1.4993,-0.78809 c -1.42271,-0.74783 -1.90484,-0.78809 -9.43681,-0.78809 -8.86028,0 -11.04137,0.37421 -12.77555,2.19193 -1.38912,1.45603 -1.68834,2.59933 -1.68834,6.45113 0,3.72787 0.30455,4.98689 1.52281,6.29532 1.97101,2.11693 3.98773,2.4919 12.94108,2.40617 5.73481,-0.0549 7.08519,-0.16797 8.11762,-0.67963 z m -11.84267,-6.77595 c -1.08093,-1.08093 -0.97417,-2.41437 0.278,-3.47231 0.67965,-0.57423 1.39105,-0.62779 7.0288,-0.52917 5.27747,0.0923 6.36541,0.20268 6.85758,0.6956 0.81228,0.81351 0.73067,2.33551 -0.17377,3.24079 -0.70846,0.70913 -1.16641,0.76722 -6.91035,0.8766 l -6.15161,0.11713 z m 96.568152,6.9112 c 4.077279,-1.30434 6.607497,-4.63911 6.628903,-8.73673 0.0087,-1.65794 -0.119786,-2.21743 -0.546696,-2.38125 -0.706685,-0.27118 -7.831473,-0.27253 -8.840939,-0.002 -0.480914,0.12903 -0.831692,0.58177 -0.964241,1.24451 -0.347239,1.73621 -2.36874,2.40688 -7.275689,2.41387 -7.10408,0.0101 -8.11685,-0.68854 -8.10907,-5.59411 0.006,-3.67855 0.15129,-4.26846 1.25346,-5.08333 1.33015,-0.98343 6.10516,-1.49435 9.689456,-1.03678 2.522347,0.32201 3.09783,0.52156 3.775241,1.3091 0.439586,0.51105 0.799247,1.24219 0.799247,1.62475 0,0.66428 0.226148,0.69117 5.027083,0.59769 l 5.027083,-0.0978 0.11956,-1.41112 c 0.163047,-1.92438 -0.534821,-4.87531 -1.418706,-5.99899 -1.090803,-1.38674 -3.121099,-2.53606 -5.627102,-3.18543 -1.881992,-0.48767 -3.816594,-0.56116 -12.120485,-0.46044 -9.518637,0.11547 -9.939267,0.14984 -11.468547,0.93714 -2.38422,1.22744 -3.46736,2.32164 -4.51624,4.56237 -0.87083,1.86035 -0.9597,2.45952 -1.07104,7.22079 -0.0988,4.22481 -0.007,5.53927 0.49302,7.05556 1.45534,4.41373 4.13641,6.57471 9.11667,7.34817 2.71725,0.422 18.493373,0.16505 20.029032,-0.32622 z m 76.52303,-0.35041 c 3.72424,-1.19336 5.61164,-3.51861 5.61164,-6.91343 v -1.59883 h -4.91435 c -4.82778,0 -4.91634,0.014 -5.02708,0.79375 -0.213,1.49976 -2.06725,2.03045 -6.9919,2.00109 -5.53986,-0.033 -6.69899,-0.3986 -7.37874,-2.32714 -0.90555,-2.56919 -0.94665,-2.55399 6.92102,-2.56131 3.84126,-0.004 9.32567,-0.0102 12.18758,-0.0148 l 5.20347,-0.008 v -3.51042 c 0,-4.42622 -0.47419,-6.64767 -1.81375,-8.49688 -1.26598,-1.74763 -3.70251,-2.96273 -7.00569,-3.49375 -3.02188,-0.48579 -16.40815,-0.47914 -18.685599,0.009 -2.578636,0.55302 -4.856322,2.23871 -6.155553,4.55565 -1.075052,1.91716 -1.089403,2.00964 -1.204401,7.76111 -0.105714,5.2871 -0.04579,6.00948 0.653527,7.87822 0.953061,2.54682 2.237438,4.04293 4.55238,5.30288 2.46731,1.34288 4.966976,1.60772 13.960476,1.4791 6.73351,-0.0963 8.06906,-0.20967 10.08697,-0.85627 z m -18.92961,-17.59629 c 0.35582,-1.50298 1.38367,-2.12438 3.97244,-2.40162 3.26414,-0.34956 8.10158,0.037 9.16253,0.73215 0.86558,0.56714 1.57991,1.88245 1.28988,2.37503 -0.0857,0.14552 -3.41801,0.26458 -7.40516,0.26458 h -7.24937 z m 47.511,15.61042 c 0.0215,-1.64923 0.0392,-3.31611 0.0392,-3.70417 0,-0.38805 -0.0176,-0.86934 -0.0392,-1.06953 -0.025,-0.23352 -1.52477,-0.32835 -4.18433,-0.26458 l -4.14514,0.0994 -0.10174,3.50267 c -0.056,1.92647 -0.0212,3.7124 0.0771,3.96875 0.13391,0.34897 1.20103,0.46608 4.24688,0.46608 h 4.06802 z m -297.24638,2.09343 c 2.75185,-0.66362 4.66069,-2.19945 5.67705,-4.56769 0.89457,-2.08444 0.8987,-14.86106 0.005,-16.9237 -2.00746,-4.6356 -4.82953,-5.21502 -24.56422,-5.04341 l -11.46527,0.0997 -0.0926,13.05139 c -0.051,7.17826 -0.0206,13.2392 0.0675,13.46876 0.12081,0.31482 3.74334,0.38677 14.74099,0.29281 8.01946,-0.0685 15.05345,-0.23855 15.63108,-0.37786 z m -21.70392,-13.20593 v -6.35 h 8.14877 c 9.14218,0 10.18388,0.2105 10.87667,2.19785 0.4943,1.41795 0.48529,6.9122 -0.0137,8.34356 -0.69863,2.0041 -1.46473,2.15859 -10.70395,2.15859 h -8.3078 z m 40.26959,0.68268 c 0.0291,-7.16645 0.0688,-13.22834 0.0882,-13.47087 0.0264,-0.33024 -1.02776,-0.44098 -4.19806,-0.44098 h -4.23333 l -0.0926,13.05139 c -0.051,7.17826 -0.021,13.23806 0.0666,13.46623 0.10917,0.28448 1.44107,0.41632 4.23778,0.41949 l 4.07857,0.005 z m 14.76375,5.24696 c 0,-8.54835 0.18633,-9.49575 2.0886,-10.61945 1.57081,-0.9279 8.24332,-0.86005 9.81765,0.0998 0.63059,0.38448 1.17909,0.74108 1.2189,0.79243 0.0398,0.0514 0.15887,3.98276 0.26458,8.73644 l 0.19221,8.64306 4.056938,0.10565 c 2.23132,0.0581 4.57289,0.0112 5.20348,-0.10418 l 1.14652,-0.20983 v -7.93393 c 0,-6.88114 0.0798,-8.0557 0.60128,-8.85159 0.93497,-1.42695 2.49116,-1.87974 6.46047,-1.87974 3.76626,0 5.28393,0.44266 5.98058,1.74435 0.2195,0.41015 0.36323,3.95205 0.36323,8.95115 v 8.27244 l 5.20347,-0.0472 5.20348,-0.0472 v -9.34862 c 0,-10.74209 -0.21253,-11.88112 -2.68231,-14.37559 -1.68156,-1.69837 -3.10667,-2.43615 -5.63008,-2.91471 -2.42627,-0.46013 -10.38206,-0.44339 -12.07017,0.0254 -1.70924,0.47466 -3.52339,2.0731 -4.42802,3.90152 l -0.71172,1.43851 -0.52472,-1.00493 c -0.71437,-1.36812 -2.2132,-2.71832 -4.11549,-3.70734 -1.47679,-0.7678 -1.9934,-0.82536 -7.408328,-0.82536 -5.3273,0 -5.94419,0.066 -7.27576,0.77828 -0.80021,0.42806 -1.87177,1.27368 -2.38125,1.87916 l -0.92632,1.10086 v -1.79095 -1.79096 h -4.93889 -4.93889 v 13.41859 13.41858 l 5.11528,-0.0457 5.11528,-0.0457 z m 100.894438,-0.12574 c 0.19834,-8.74626 0.29426,-9.10034 2.81333,-10.38547 1.1469395,-0.58513 2.0797495,-0.7101 5.3005595,-0.7101 4.38996,0 6.21867002,0.59719 6.98603,2.28136 0.2873,0.63055 0.42251,3.43079 0.42295,8.75955 l 7.1e-4,7.83271 5.11462,0.0894 5.1146305,0.0894 v -9.2858 c 0,-10.32914 -0.2198,-11.77586 -2.1422305,-14.10031 -2.20971,-2.67174 -5.83671,-3.78022 -12.36914,-3.78022 -5.81175,0 -9.1149595,1.00154 -10.6819895,3.2388 -0.54132,0.77284 -0.55947,0.73898 -0.55947,-1.04363 v -1.84239 h -5.29167 -5.29166 v 13.17037 c 0,7.24371 0.0989,13.26926 0.21974,13.39012 0.12086,0.12086 2.46242,0.18701 5.20347,0.14699 l 4.98373,-0.0727 z m 76.121489,2.75096 0.09788,-5.02708 h 8.633373 8.633368 v 5.09321 5.09321 l 4.233333,-0.004 4.233334,-0.004 0.0441,-12.67344 c 0.02427,-6.97039 0.0441,-12.91156 0.0441,-13.2026 0,-0.29104 -0.01983,-0.68791 -0.0441,-0.88194 -0.02664,-0.21314 -1.719792,-0.35278 -4.277431,-0.35278 h -4.233335 v 4.7625 4.7625 h -8.632815 -8.632818 l -0.09843,-4.67431 -0.09844,-4.6743 h -4.233333 -4.233334 l -0.09263,13.05138 c -0.05095,7.17826 -0.01249,13.26024 0.08547,13.5155 0.136659,0.35613 1.143187,0.43854 4.325962,0.35417 l 4.147866,-0.10997 z m 86.633703,-8.07892 c 0.12548,-1.48448 0.22814,-5.29448 0.22814,-8.46667 v -5.7676 h -4.05695 -4.05694 v 5.7676 c 0,3.17219 0.10266,6.98219 0.22814,8.46667 l 0.22818,2.69906 h 3.60062 3.60063 z m -307.74323,-20.43671 c 0.58408,-0.11287 1.29845,-0.44171 1.5875,-0.73075 0.46553,-0.46554 0.52554,-0.44211 0.52554,0.20521 0,0.66956 0.2068,0.73075 2.46944,0.73075 h 2.46945 v -6.17361 -6.17361 h -2.46945 -2.46944 v 3.32254 c 0,1.82739 -0.0986,3.57951 -0.21914,3.8936 -0.53257,1.38787 -3.64462,2.04635 -5.42531,1.14794 -0.84173,-0.42468 -0.88998,-0.62148 -1.05833,-4.31633 l -0.17639,-3.87136 -2.4082,-0.10493 -2.40821,-0.10492 0.11515,4.94984 0.11515,4.94984 1.10763,1.10662 c 1.51976,1.51839 4.35605,1.9206 8.24461,1.16917 z m -13.30794,-0.29744 c 1.25579,-0.5745 1.66265,-2.09403 1.66265,-6.20974 0,-3.841 -0.0215,-3.94669 -1.00098,-4.92619 -1.29926,-1.29926 -2.62915,-1.476 -10.11152,-1.34378 l -5.99723,0.10597 -0.0963,6.46862 -0.0963,6.46862 7.50461,-0.13755 c 4.12753,-0.0757 7.78828,-0.26733 8.13501,-0.42595 z m -11.39013,-5.99419 v -3.02816 h 3.88055 c 3.48015,0 3.95752,0.077 4.62645,0.7459 0.62481,0.6248 0.72032,1.05427 0.58837,2.64542 -0.0866,1.04474 -0.27632,2.01878 -0.42152,2.16452 -0.1452,0.14575 -2.15622,0.31798 -4.46893,0.38274 l -4.20492,0.11774 z m 94.015278,6.17271 c 1.35819,-0.16124 3.12015,-0.47143 3.91546,-0.68932 3.30541,-0.90556 5.41676,-3.42762 5.42735,-6.48307 l 0.006,-1.6757 h -4.93889 c -4.56541,0 -4.93889,0.0492 -4.93889,0.65088 0,0.35798 -0.33389,0.9533 -0.74197,1.32292 -0.64232,0.58178 -1.42709,0.68839 -5.84316,0.79378 -5.429758,0.12959 -6.766528,-0.12742 -7.716418,-1.48358 -0.28331,-0.40449 -0.51512,-1.25573 -0.51512,-1.89166 v -1.15623 h 12.383498 12.3835 l -0.12447,-4.33162 c -0.10951,-3.81097 -0.2328,-4.54205 -1.02569,-6.08219 -1.07049,-2.07935 -2.94783,-3.50307 -5.63386,-4.27258 -2.56393,-0.73453 -16.009528,-1.0871 -19.687878,-0.51626 -6.62919,1.02878 -8.87843,4.23579 -8.87843,12.65903 0,5.14321 0.63538,7.60823 2.51003,9.73795 2.60733,2.96209 5.37339,3.62725 15.305248,3.68052 3.10444,0.0167 6.75569,-0.10164 8.11389,-0.26287 z m -15.345838,-17.43646 c 0,-0.455 0.334,-1.12969 0.74222,-1.49931 0.63166,-0.57193 1.4226,-0.69052 5.309638,-0.79612 2.51208,-0.0683 5.11558,-0.0212 5.78556,0.10444 1.35802,0.25477 2.62647,1.40381 2.62647,2.37922 0,0.59608 -0.48612,0.63903 -7.23194,0.63903 h -7.231948 z m 142.34583,17.37616 c 6.128604,-0.73823 8.87451,-2.82984 9.085143,-6.92035 l 0.08708,-1.69105 -5.001299,-0.0977 c -4.968879,-0.0971 -5.002036,-0.0925 -5.115278,0.70555 -0.214034,1.50843 -2.053516,2.03684 -7.092668,2.03746 -6.14806,7.4e-4 -7.66159,-0.69058 -7.66159,-3.49953 v -1.07701 l 12.394351,-0.0927 12.394347,-0.0927 -0.06329,-3.70416 c -0.07173,-4.19806 -0.388437,-5.72915 -1.53791,-7.43485 -1.044431,-1.54983 -2.653965,-2.61158 -5.134057,-3.38677 -1.693301,-0.52926 -3.38934,-0.62714 -10.997881,-0.63471 -11.04467,-0.011 -12.05554,0.18077 -14.64772,2.77863 -2.33565,2.34076 -2.99285,4.52681 -2.98698,9.93556 0.01,9.08076 2.99022,12.6556 11.10831,13.32401 3.46803,0.28555 12.278113,0.19864 15.169444,-0.14964 z M 21.981608,146.66021 c 0,-2.13316 1.42031,-2.67469 7.01507,-2.67469 2.519368,0 4.963243,0.14546 5.430832,0.32324 1.169131,0.4445 2.017988,1.3579 2.017988,2.17141 0,0.64983 -0.324467,0.68035 -7.23194,0.68035 -6.00785,0 -7.23195,-0.0847 -7.23195,-0.50031 z m 95.570252,17.08929 c 7.13164,-0.58989 9.16213,-2.30113 9.25181,-7.79721 0.0734,-4.49659 -0.69169,-6.08569 -3.59097,-7.4586 -2.19197,-1.03797 -4.20024,-1.27423 -12.84922,-1.51163 -4.6506,-0.12764 -8.73841,-0.38342 -9.08403,-0.56839 -0.83163,-0.44507 -0.80127,-1.60524 0.054,-2.06296 0.38876,-0.20805 3.10938,-0.36519 6.32293,-0.36519 5.50193,0 5.66634,0.0217 6.6887,0.88195 1.01066,0.85041 1.2278,0.88194 6.07343,0.88194 h 5.0253 l -0.20666,-1.74492 c -0.39935,-3.37192 -1.50211,-4.54 -5.26939,-5.58154 -1.86902,-0.51673 -3.85451,-0.61023 -12.96667,-0.6106 -12.35894,-3.5e-4 -13.430433,0.18124 -15.667609,2.65753 -1.565074,1.73235 -1.758287,2.51644 -1.528342,6.20216 0.156167,2.50318 0.331565,3.15811 1.12401,4.19706 2.050224,2.68799 5.144697,3.34166 15.895551,3.35778 8.37687,0.0126 8.99583,0.13898 8.99583,1.83737 0,1.49491 -1.29985,1.75484 -8.10939,1.62163 l -6.05345,-0.11841 -0.94427,-1.14926 -0.944277,-1.14926 -5.224332,0.0909 -5.224336,0.0909 0.238615,1.76389 c 0.561428,4.15024 2.729706,5.87388 8.189261,6.50992 3.425109,0.39902 15.102859,0.4137 19.803539,0.0249 z m -246.89148,-0.4494 c 0.0112,-0.24253 0.0509,-4.56847 0.0882,-9.61319 l 0.0678,-9.17222 5.90903,-0.0967 5.90902,-0.0967 v -3.34643 -3.34642 l -16.13958,0.0918 -16.13958,0.0917 -0.10144,3.2632 -0.10143,3.26319 h 6.01046 6.01046 v 9.70139 9.70139 h 4.23334 c 3.14058,0 4.2386,-0.11383 4.25376,-0.44098 z m 61.993498,-2.99861 0.10143,-3.26319 h 7.17963 c 8.82033,0 8.75146,-0.0301 9.02168,3.93692 l 0.17639,2.58947 4.32152,0.099 4.32153,0.0991 -0.0169,-3.27405 c -0.0198,-3.82512 -0.61095,-5.39192 -2.3563,-6.24521 -0.62618,-0.30615 -1.14212,-0.63958 -1.14652,-0.74098 -0.004,-0.1014 0.5431,-0.48116 1.21668,-0.84391 1.80478,-0.97193 2.40484,-2.82915 2.25008,-6.96407 -0.15826,-4.22836 -0.87418,-5.73688 -3.3204,-6.99643 l -1.72118,-0.88623 -14.38605,-0.10646 -14.38605,-0.10646 v 13.0819 13.0819 l 4.32153,-0.0991 4.32153,-0.099 z m 0.075,-12.96458 v -2.99861 l 6.2618,0.021 c 6.81265,0.0229 9.5145,0.31344 9.99678,1.07507 0.595,0.93963 0.36584,3.44615 -0.38358,4.19557 -0.6618,0.6618 -1.17593,0.70556 -8.29028,0.70556 h -7.58472 v -2.99862 z m 37.74722,13.05278 v -3.35139 l 7.32014,0.0112 c 8.91608,0.0136 8.65518,-0.0975 8.90764,3.79532 l 0.17638,2.71985 4.3215295,0.099 4.32153,0.0991 -7.1e-4,-3.27405 c -7e-4,-3.97599 -0.58692,-5.42739 -2.58678,-6.4041 l -1.35261,-0.6606 1.45408,-0.65101 c 2.00794,-0.89899 2.49305,-2.19537 2.45902,-6.57131 -0.0331,-4.25688 -0.49066,-5.62167 -2.31662,-6.9101 -2.07352,-1.4631 -4.6576495,-1.67908 -18.8231995,-1.57326 l -12.52361,0.0935 -0.0925,12.96458 -0.0925,12.96459 h 4.41406 4.41407 v -3.35139 z m 0,-13.07744 v -3.02328 l 7.70776,0.11286 c 5.88256,0.0861 7.84569,0.22751 8.29027,0.59703 0.40786,0.339 0.58252,1.04698 0.58252,2.36124 0,2.93643 -0.11892,2.97542 -9.07432,2.97542 h -7.50623 z m 37.4310595,14.92952 c 0.0352,-1.44337 0.0259,-13.49991 -0.0163,-20.99027 l -0.0204,-3.61598 h -4.23333 -4.23332998 v 13.05278 13.05278 h 4.23332998 4.23333 z m 52.9114875,-6.26181 c 0.114307,-4.17159 0.233369,-7.60011 0.264583,-7.61893 0.03122,-0.0188 0.334568,-0.34041 0.674116,-0.71465 1.663245,-1.83317 2.490805,-2.07336 7.143751,-2.07336 3.971304,0 4.537766,0.0796 5.697636,0.80089 0.70835,0.44049 1.383037,1.04879 1.499306,1.35177 0.116265,0.30299 0.211391,4.0304 0.211391,8.28314 v 7.73226 h 5.30285 5.30285 l -0.03471,-8.6652 c -0.03827,-9.53984 -0.221267,-10.70851 -2.082791,-13.30063 -2.191992,-3.0523 -5.194194,-3.97094 -12.897955,-3.94665 -4.644986,0.0146 -5.538572,0.11437 -7.312032,0.81606 -1.225413,0.48485 -2.369037,1.24173 -2.906508,1.92359 l -0.886139,1.12422 -0.0039,-1.85208 -0.0039,-1.85209 H 55.495527 50.20386 v 12.6412 c 0,6.95267 0.110006,12.75121 0.244457,12.88566 0.134451,0.13445 2.476013,0.2006 5.203472,0.14699 l 4.959015,-0.0975 z M -50.082162,128.71944 c 3.94506,-1.15655 5.79033,-3.27889 5.87498,-6.7571 l 0.043,-1.76565 -4.93889,-0.0118 c -4.87314,-0.0117 -4.9404,-10e-4 -5.05275,0.7906 -0.23501,1.65607 -1.51402,2.01979 -7.10256,2.01979 -6.73284,0 -7.47697,-0.35096 -7.85389,-3.70417 l -0.0991,-0.88194 h 12.43972 c 11.21664,0 12.45776,-0.0568 12.62315,-0.57821 0.10089,-0.31801 0.0923,-2.28932 -0.0191,-4.38068 -0.27063,-5.0824 -1.23694,-7.21911 -4.01244,-8.87241 -2.93822,-1.75022 -4.83892,-2.01515 -14.50499,-2.02177 -7.54316,-0.005 -8.86752,0.077 -10.40694,0.64585 -2.54601,0.94077 -4.23217,2.42745 -5.36132,4.72704 -0.96176,1.95866 -0.98869,2.17202 -0.98869,7.83433 0,5.17472 0.0825,5.99904 0.74284,7.42626 1.53532,3.31819 4.16396,5.33325 7.8055,5.98354 2.8827,0.51478 18.68295,0.17036 20.8115,-0.45366 z m -18.95289,-17.15039 c 0,-0.36656 0.28708,-1.021 0.63795,-1.45431 0.52832,-0.65245 1.14969,-0.83392 3.61597,-1.05606 1.63791,-0.14752 4.30058,-0.15049 5.91703,-0.007 3.09615,0.2756 3.96388,0.74093 4.45623,2.3897 l 0.23703,0.79375 h -7.4321 c -7.05165,-1e-5 -7.43211,-0.0341 -7.43211,-0.66649 z m 60.8938395,17.12716 c 3.24122,-1.04988 4.545,-2.65288 4.94824,-6.08389 0.49003,-4.16939 -0.58157,-7.32505 -2.95895,-8.71351 -2.37288,-1.38584 -4.5627395,-1.69043 -13.6706295,-1.90142 -4.98779,-0.11555 -9.01103,-0.35687 -9.26042,-0.55546 -0.63832,-0.50828 -0.54104,-1.59829 0.17639,-1.97636 0.65546,-0.34539 4.84276,-0.55226 9.32154,-0.4605 2.2834,0.0468 2.863,0.18618 3.70417,0.89097 0.96203,0.80605 1.1714,0.83133 5.9360895,0.71684 2.71639,-0.0653 5.03279,-0.12376 5.14755,-0.12996 0.16536,-0.009 -0.0924,-2.63939 -0.33038,-3.37097 -0.0301,-0.0924 -0.0547,-0.30215 -0.0547,-0.466 0,-0.53211 -1.5604,-2.07768 -2.65294,-2.62773 -1.86921,-0.94106 -5.0903595,-1.32472 -12.8692795,-1.53278 -15.39147,-0.41169 -19.24519,0.93931 -19.6714,6.89621 -0.346,4.83575 1.22408,7.8786 4.67835,9.06676 1.42317,0.48953 3.59224,0.64655 11.22923,0.81289 8.8314,0.19236 9.49888,0.25203 9.96597,0.89095 0.62955,0.86114 0.62957,1.297 1.4e-4,2.15821 -0.46212,0.63227 -0.96938,0.68479 -6.61459,0.68479 -6.87353,0 -7.90784,-0.17439 -8.4798,-1.42971 l -0.40144,-0.88107 -5.31265,0.0971 -5.31265,0.0971 0.11049,1.52527 c 0.28391,3.9189 2.5544,6.03313 7.28474,6.78342 0.97014,0.15387 6.60577,0.23777 12.52361,0.18645 8.86924,-0.0769 11.0766095,-0.19596 12.5632895,-0.67751 z m -73.9466195,-3.04937 v -3.52201 l -9.4368,-0.094 -9.436808,-0.094 v -9.6134 -9.6134 l -4.32153,2e-4 -4.32153,2.1e-4 v 13.22916 13.22917 h 13.758338 13.75833 z"
       id="path941"
       inkscape:connector-curvature="0" />
  </g>
</svg>
