<?xml version="1.0" encoding="UTF-8" standalone="no"?>
<!-- Created with Inkscape (http://www.inkscape.org/) -->

<svg
   xmlns:dc="http://purl.org/dc/elements/1.1/"
   xmlns:cc="http://creativecommons.org/ns#"
   xmlns:rdf="http://www.w3.org/1999/02/22-rdf-syntax-ns#"
   xmlns:svg="http://www.w3.org/2000/svg"
   xmlns="http://www.w3.org/2000/svg"
   xmlns:sodipodi="http://sodipodi.sourceforge.net/DTD/sodipodi-0.dtd"
   xmlns:inkscape="http://www.inkscape.org/namespaces/inkscape"
   width="38.658459mm"
   height="34.133907mm"
   viewBox="0 0 136.97879 120.94692"
   id="svg4471"
   version="1.1"
   inkscape:version="0.91 r13725"
   sodipodi:docname="dervis.svg">
  <defs
     id="defs4473">
    <clipPath
       clipPathUnits="userSpaceOnUse"
       id="clipPath210">
      <path
         d="m 0,310.452 411.299,0 L 411.299,0 0,0 0,310.452 Z"
         id="path212"
         inkscape:connector-curvature="0" />
    </clipPath>
    <clipPath
       clipPathUnits="userSpaceOnUse"
       id="clipPath180">
      <path
         d="m 248.418,36.068 134.861,0 0,117.474 -134.861,0 0,-117.474 z"
         id="path182"
         inkscape:connector-curvature="0" />
    </clipPath>
    <radialGradient
       fx="0"
       fy="0"
       cx="0"
       cy="0"
       r="1"
       gradientUnits="userSpaceOnUse"
       gradientTransform="matrix(59.362656,0,0,-69.723106,315.84872,94.804634)"
       spreadMethod="pad"
       id="radialGradient188">
      <stop
         style="stop-opacity:1;stop-color:#ffffff"
         offset="0"
         id="stop190" />
      <stop
         style="stop-opacity:1;stop-color:#ffffff"
         offset="0.174692"
         id="stop192" />
      <stop
         style="stop-opacity:1;stop-color:#e6e7e9"
         offset="0.45795"
         id="stop194" />
      <stop
         style="stop-opacity:1;stop-color:#d1d3d4"
         offset="1"
         id="stop196" />
    </radialGradient>
  </defs>
  <sodipodi:namedview
     id="base"
     pagecolor="#ffffff"
     bordercolor="#666666"
     borderopacity="1.0"
     inkscape:pageopacity="0.0"
     inkscape:pageshadow="2"
     inkscape:zoom="0.35"
     inkscape:cx="-658.56664"
     inkscape:cy="226.86173"
     inkscape:document-units="px"
     inkscape:current-layer="layer1"
     showgrid="false"
     fit-margin-top="0"
     fit-margin-left="0"
     fit-margin-right="0"
     fit-margin-bottom="0"
     inkscape:window-width="1920"
     inkscape:window-height="1031"
     inkscape:window-x="0"
     inkscape:window-y="0"
     inkscape:window-maximized="1" />
  <metadata
     id="metadata4476">
    <rdf:RDF>
      <cc:Work
         rdf:about="">
        <dc:format>image/svg+xml</dc:format>
        <dc:type
           rdf:resource="http://purl.org/dc/dcmitype/StillImage" />
        <dc:title></dc:title>
      </cc:Work>
    </rdf:RDF>
  </metadata>
  <g
     inkscape:label="Calque 1"
     inkscape:groupmode="layer"
     id="layer1"
     transform="translate(-339.28092,-638.27702)">
    <text
       y="728.76141"
       x="339.54971"
       transform="scale(0.99510222,1.0049219)"
       style="font-variant:normal;font-weight:900;font-stretch:normal;font-size:24.58089066px;font-family:'Montserrat Black';-inkscape-font-specification:Montserrat-Black;writing-mode:lr-tb;fill:#ca482c;fill-opacity:1;fill-rule:nonzero;stroke:none"
       id="text200">
      <tspan
         x="339.54971 358.2066 375.16742 392.98856 410.80969 418.97055 435.93137 453.75253"
         y="728.76141"
         sodipodi:role="line"
         id="tspan202">DERRIÈRE</tspan>
      <tspan
         x="339.54971 354.37198 371.79984 379.64114 398.88797 407.51587 424.3046 441.73245 460.70892 478.9971"
         y="755.11212"
         sodipodi:role="line"
         id="tspan204">LE VISEUR</tspan>
    </text>
    <g
       transform="matrix(1.25,0,0,-1.25,10.903661,819.43988)"
       id="g206">
      <g
         id="g208"
         clip-path="url(#clipPath210)">
        <g
           id="g214"
           transform="translate(321.1729,137.8004)">
          <path
             d="m 0,0 c 0,0.238 0.193,0.431 0.431,0.431 l 9.995,0 c 0.238,0 0.431,-0.193 0.431,-0.431 l 0,-4.183 L 0,-4.183 0,0 Z m 13.399,-4.21 0,4.21 c 0,1.639 -1.334,2.973 -2.973,2.973 l -9.995,0 C -1.208,2.973 -2.542,1.639 -2.542,0 l 0,-4.183 -4.449,0 c -0.702,0 -1.271,-0.569 -1.271,-1.271 0,-0.701 0.569,-1.27 1.271,-1.27 l 19.859,0 c 2.045,0 3.709,-1.665 3.709,-3.71 l 0,-23.282 c 0,-2.045 -1.664,-3.709 -3.709,-3.709 -0.702,0 -1.271,-0.569 -1.271,-1.271 0,-0.702 0.569,-1.271 1.271,-1.271 3.447,0 6.251,2.804 6.251,6.251 l 0,23.282 c 0,3.268 -2.521,5.953 -5.72,6.224"
             style="fill:#20b8d1;fill-opacity:1;fill-rule:nonzero;stroke:none"
             id="path216"
             inkscape:connector-curvature="0" />
        </g>
        <g
           id="g218"
           transform="translate(294.1877,100.4713)">
          <path
             d="m 0,0 c -2.045,0 -3.71,1.664 -3.71,3.71 l 0,23.281 c 0,2.046 1.406,4.298 4.09,5.282 0.659,0.242 -0.265,1.409 -0.265,1.409 -4.16,-1.341 -6.366,-3.244 -6.366,-6.691 l 0,-23.281 c 0,-3.447 2.804,-6.252 6.251,-6.252 l 10.495,0 C 10.744,-1.73 10.994,-0.788 11.243,0 L 0,0 Z"
             style="fill:#ca482c;fill-opacity:1;fill-rule:nonzero;stroke:none"
             id="path220"
             inkscape:connector-curvature="0" />
        </g>
        <g
           id="g222"
           transform="translate(331.8905,115.7736)">
          <path
             d="m 0,0 c 0,9.839 -8.005,17.844 -17.844,17.844 -0.702,0 -1.271,-0.569 -1.271,-1.271 0,-0.702 0.569,-1.271 1.271,-1.271 8.438,0 15.302,-6.864 15.302,-15.302 0,-6.168 -3.695,-11.508 -8.965,-13.928 -0.181,-0.924 -0.587,-2.103 -0.218,-2.746 C -8.08,-16.674 0,-7.676 0,0"
             style="fill:#ca482c;fill-opacity:1;fill-rule:nonzero;stroke:none"
             id="path224"
             inkscape:connector-curvature="0" />
        </g>
        <g
           id="g226"
           transform="translate(313.1019,113.7254)">
          <path
             d="M 0,0 C 0.133,0.413 0.534,1.662 1.474,1.689 1.544,1.678 1.8,1.627 2.051,1.413 2.447,1.074 2.657,0.458 2.657,-0.368 2.657,-1.492 2.299,-2.422 1.621,-3.058 1.052,-3.593 0.287,-3.898 -0.542,-3.924 -0.493,-2.305 -0.308,-0.958 0,0 m -2.004,1.733 c 0.254,-0.261 0.672,-0.268 0.933,-0.015 0.292,0.284 1.181,1.145 0.855,1.948 -0.153,0.376 -0.534,0.61 -0.995,0.61 l -10e-4,0 c -0.887,-10e-4 -4.022,-1.164 -4.022,-4.851 0,-2.516 1.551,-4.048 3.364,-4.516 0.023,-1.045 0.131,-2.07 0.228,-2.988 0.054,-0.508 0.104,-0.987 0.135,-1.417 0.119,-1.686 0.102,-4.038 0.102,-4.061 -0.003,-0.365 0.29,-0.663 0.654,-0.666 l 0.006,0 c 0.361,0 0.656,0.292 0.659,0.655 10e-4,0.098 0.018,2.427 -0.105,4.166 -0.032,0.451 -0.084,0.942 -0.138,1.461 -0.089,0.837 -0.187,1.765 -0.216,2.697 1.168,0.026 2.254,0.458 3.07,1.224 0.949,0.892 1.451,2.155 1.451,3.652 0,2.56 -1.591,3.327 -2.433,3.375 L 1.505,3.008 c -1.59,0 -2.379,-1.416 -2.761,-2.604 -0.34,-1.058 -0.541,-2.446 -0.6,-4.136 -1.407,0.497 -2.059,1.866 -2.059,3.157 0,1.168 0.405,2.107 1.203,2.79 0.268,0.229 0.542,0.395 0.784,0.511 -0.02,-0.02 -0.04,-0.04 -0.061,-0.06 C -2.251,2.412 -2.257,1.995 -2.004,1.733"
             style="fill:#ca482c;fill-opacity:1;fill-rule:nonzero;stroke:none"
             id="path228"
             inkscape:connector-curvature="0" />
        </g>
        <g
           id="g230"
           transform="translate(319.3919,101.3165)">
          <path
             d="m 0,0 c -0.429,-0.24 -0.952,-0.443 -1.189,-0.201 -0.101,0.103 -0.117,0.102 -0.117,0.328 0,3.835 1.283,6.417 2.524,8.915 1.044,2.101 2.031,4.085 2.031,6.489 0,2.738 -1.067,5.312 -3.003,7.249 -1.936,1.936 -4.511,3.003 -7.249,3.003 -2.739,0 -5.313,-1.067 -7.25,-3.003 -1.936,-1.937 -3.002,-4.511 -3.002,-7.249 0,-2.48 1.011,-4.478 2.081,-6.594 1.247,-2.465 2.537,-5.014 2.537,-8.836 0,-0.288 -0.073,-0.507 -0.218,-0.652 -0.231,-0.23 -0.712,-0.294 -1.35,-0.294 l -0.06,0 c 0.049,-0.466 -0.464,-2.076 -0.443,-2.542 2.241,0.016 3.468,2.331 3.468,3.488 0,7.49 -4.618,10.608 -4.618,15.43 0,4.89 3.964,8.854 8.855,8.854 4.89,0 8.855,-3.964 8.855,-8.854 0,-4.693 -4.555,-7.94 -4.555,-15.404 0,-0.966 0.58,-2.337 2.948,-2.337 0.151,0 0.352,-0.02 0.638,-0.004 C 0.949,-1.748 0.922,0.069 1,0.533 L 0,0 Z"
             style="fill:#ca482c;fill-opacity:1;fill-rule:nonzero;stroke:none"
             id="path232"
             inkscape:connector-curvature="0" />
        </g>
        <g
           id="g234"
           transform="translate(312.4193,91.0682)">
          <path
             d="m 0,0 c 0.976,0 1.849,0.437 2.436,1.126 l -4.872,0 C -1.849,0.437 -0.976,0 0,0"
             style="fill:#ca482c;fill-opacity:1;fill-rule:nonzero;stroke:none"
             id="path236"
             inkscape:connector-curvature="0" />
        </g>
        <g
           id="g238"
           transform="translate(314.9241,95.8871)">
          <path
             d="m 0,0 -5.123,0 c -0.341,0 -0.621,0.279 -0.621,0.621 0,0.341 0.28,0.621 0.621,0.621 l 5.123,0 c 0.342,0 0.621,-0.28 0.621,-0.621 C 0.621,0.279 0.342,0 0,0 m -1.426,-1.863 -3.668,0 c -0.357,0 -0.65,0.293 -0.65,0.65 0,0.358 0.293,0.65 0.65,0.65 l 3.668,0 c 0.357,0 0.65,-0.292 0.65,-0.65 0,-0.357 -0.293,-0.65 -0.65,-0.65 m 3.36,3.396 c 0,0.526 -0.431,0.957 -0.957,0.957 l -7.038,0 c -0.526,0 -0.957,-0.431 -0.957,-0.957 0,-0.461 0.33,-0.849 0.766,-0.938 -0.436,-0.089 -0.766,-0.477 -0.766,-0.938 l 0,0 c 0,-0.426 0.282,-0.788 0.668,-0.912 -0.386,-0.123 -0.668,-0.486 -0.668,-0.912 l 0,0 c 0,-0.526 0.431,-0.957 0.957,-0.957 l 7.038,0 c 0.526,0 0.957,0.431 0.957,0.957 l 0,0 c 0,0.426 -0.282,0.789 -0.668,0.912 0.386,0.124 0.668,0.486 0.668,0.912 l 0,0 c 0,0.461 -0.33,0.849 -0.766,0.938 0.436,0.089 0.766,0.477 0.766,0.938"
             style="fill:#ca482c;fill-opacity:1;fill-rule:nonzero;stroke:none"
             id="path240"
             inkscape:connector-curvature="0" />
        </g>
        <g
           id="g242"
           transform="translate(320.6749,142.5536)">
          <path
             d="m 0,0 c 0.139,-0.37 0.555,-0.559 0.926,-0.421 0.37,0.139 0.559,0.556 0.42,0.926 L 0.819,1.911 C 0.68,2.281 0.263,2.47 -0.107,2.331 -0.477,2.192 -0.666,1.776 -0.527,1.406 L 0,0 Z"
             style="fill:#ca482c;fill-opacity:1;fill-rule:nonzero;stroke:none"
             id="path244"
             inkscape:connector-curvature="0" />
        </g>
        <g
           id="g246"
           transform="translate(293.088,132.188)">
          <path
             d="M 0,0 -0.497,1.321 26.1,11.322 26.596,10.001 0,0 Z"
             style="fill:#ca482c;fill-opacity:1;fill-rule:nonzero;stroke:none"
             id="path248"
             inkscape:connector-curvature="0" />
        </g>
      </g>
    </g>
  </g>
</svg>
