<?xml version="1.0" encoding="UTF-8" standalone="no"?>
<!-- Created with Inkscape (http://www.inkscape.org/) -->

<svg
   xmlns:dc="http://purl.org/dc/elements/1.1/"
   xmlns:cc="http://creativecommons.org/ns#"
   xmlns:rdf="http://www.w3.org/1999/02/22-rdf-syntax-ns#"
   xmlns:svg="http://www.w3.org/2000/svg"
   xmlns="http://www.w3.org/2000/svg"
   xmlns:sodipodi="http://sodipodi.sourceforge.net/DTD/sodipodi-0.dtd"
   xmlns:inkscape="http://www.inkscape.org/namespaces/inkscape"
   version="1.1"
   width="117.5873"
   height="210.6521"
   id="svg2"
   sodipodi:docname="discord.svg"
   inkscape:version="0.92.2pre0 (973e216, 2017-07-25)">
  <sodipodi:namedview
     pagecolor="#ffffff"
     bordercolor="#666666"
     borderopacity="1"
     objecttolerance="10"
     gridtolerance="10"
     guidetolerance="10"
     inkscape:pageopacity="0"
     inkscape:pageshadow="2"
     inkscape:window-width="640"
     inkscape:window-height="480"
     id="namedview9"
     showgrid="false"
     fit-margin-top="0"
     fit-margin-left="0"
     fit-margin-right="0"
     fit-margin-bottom="0"
     inkscape:zoom="0.46112005"
     inkscape:cx="71.805457"
     inkscape:cy="150.96173"
     inkscape:window-x="0"
     inkscape:window-y="0"
     inkscape:window-maximized="0"
     inkscape:current-layer="layer1" />
  <defs
     id="defs4" />
  <metadata
     id="metadata7">
    <rdf:RDF>
      <cc:Work
         rdf:about="">
        <dc:format>image/svg+xml</dc:format>
        <dc:type
           rdf:resource="http://purl.org/dc/dcmitype/StillImage" />
        <dc:title></dc:title>
      </cc:Work>
    </rdf:RDF>
  </metadata>
  <g
     transform="translate(-73.270562,-689.71646)"
     id="layer1">
    <g
       transform="matrix(0.47207885,0,0,0.47207885,139.07422,883.80068)"
       id="g3043">
      <path
         d="m 1.7818271,32.065864 c 6.88455,-3.30936 13.5482699,-8.89824 12.5450199,-10.52153 -0.97916,-1.58431 -57.17483,-1.69943 -58.15151,-0.11913 -0.88675,1.43479 1.83033,4.27379 7.68721,8.03214 7.45584,4.7844 12.10657,5.92067 22.85173,5.58319 7.8581501,-0.24681 10.4622201,-0.76091 15.0675501,-2.97467 z m 34.7889699,-21.2364 c 5.69715,-4.7938297 6.10982,-12.6808497 0.95083,-18.1723397 -1.57247,-1.67381 -1.95226,-2.7768003 -1.27389,-3.6996103 4.06409,-5.52842 4.92109,-7.37357 4.92109,-10.59532 0,-3.2103 -0.90228,-5.15698 -4.8826,-10.53431 -0.6299,-0.85099 -0.0949,-2.24391 1.66528,-4.33578 3.67206,-4.36399 4.32104,-8.33871 2.09314,-12.81954 -1.0067,-2.02472 -3.10087,-4.61034 -4.6537,-5.74584 -2.75864,-2.01723 -3.90829,-2.06453 -50.17667,-2.06453 -46.26838,0 -47.41803,0.0473 -50.17667,2.06453 -1.55283,1.1355 -3.647,3.72112 -4.6537,5.74584 -2.2279,4.48083 -1.57892,8.45555 2.09314,12.81954 1.76019,2.09187 2.29518,3.48479 1.66528,4.33578 -3.98032,5.37733 -4.8826,7.32401 -4.8826,10.53431 0,3.22175 0.857,5.0669 4.92109,10.59532 0.67837,0.92281 0.29858,2.0258003 -1.27389,3.6996103 -5.01889,5.34237 -4.60846,13.49451 0.91333,18.1407897 l 3.04747,2.56428 h 48.34655 48.34655 z m -87.63401,-16.0239697 c -2.80187,-1.96251 -3.02104,-7.4106603 -0.39377,-9.7883103 1.60302,-1.45072 5.03992,-1.65499 27.84501,-1.65499 23.93415014,0 26.1487301,0.14636 27.6712601,1.82874 2.42686,2.68165 2.12912,7.7257603 -0.56752,9.6145603 -1.86797,1.30838 -6.21924,1.5567 -27.2774901,1.5567 -21.05825,0 -25.40952,-0.24832 -27.27749,-1.5567 z m 0,-23.0000003 c -3.06222,-2.14486 -3.06222,-7.74174 0,-9.8866 1.90591,-1.33495 7.07353,-1.5567 36.27749,-1.5567 38.17117,0 38.5,0.0555 38.5,6.5 0,6.44448 -0.32883,6.5 -38.5,6.5 -29.20396,0 -34.37158,-0.22175 -36.27749,-1.5567 z m 89.4183,-38.76912 c 5.50842,-3.77017 10.68984,-11.51463 12.82846,-19.17418 0.76783,-2.75 1.8824,-11.66941 2.47683,-19.820914 2.28351,-31.31433 14.31126,-69.70826 31.69658,-101.17909 15.677723,-28.37972 19.627513,-38.21969 22.832203,-56.88099 2.01326,-11.72351 2.00301,-35.81211 -0.0199,-46.75854 -9.272383,-50.17489 -45.709763,-87.09531 -96.742683,-98.02517 -14.4769199,-3.10056 -37.95635,-3.09861 -52.44597,0.004 -51.3099,10.98807 -87.868057,48.24438 -96.811527,98.66034 -2.08752,11.76768 -2.07907,34.15785 0.0173,46 3.31098,18.70287 7.43919,29.52071 19.07641,49.98918 9.66168,16.99372 17.05266,33.52556 23.365257,52.26248 8.10384,24.05363 10.25823,34.71314 13.05246,64.581214 1.44619,15.45852 6.2129,25.27316 14.9795,30.84268 l 4.44578,2.82445 h 48.19503 48.19503 l 4.85919,-3.32582 z m -99.09269,-14.26892 c -4.25138,-4.25138 -5.2272,-8.23756 -6.51138,-26.598764 -2.47366,-35.36829 -16.4157,-77.74056 -37.658237,-114.44995 -11.26193,-19.46183 -15.36106,-30.28508 -17.93396,-47.35239 -6.89014,-45.70581 12.57052,-88.80667 50.014607,-110.77076 32.59585,-19.12021 73.39694014,-20.76742 107.79279,-4.35179 38.86107,18.54668 61.60982,57.62552 59.41176,102.06025 -1.07544,21.74054 -6.41065,39.21443 -17.79237,58.27361 -11.5522,19.34464 -19.3048,36.67017 -27.42278,61.28453 -6.62808,20.09684 -10.2528,37.64484 -11.53059,55.82191 -1.16334,16.549124 -2.04901,20.491954 -5.53315,24.632624 l -2.5626,3.04547 h -18.30411 c -15.6226399,0 -18.3913899,-0.22743 -18.8998499,-1.55244 -0.32765,-0.85384 -0.32759,-6.81634 1.4e-4,-13.25 0.68142,-13.376904 -0.81585,-45.397044 -3.2313301,-69.104434 -0.90594,-8.89151 -1.42322,-16.3903 -1.14953,-16.66399 0.27369,-0.27369 3.2711901,-0.94429 6.6611201,-1.49022 26.9291399,-4.33681 47.3196299,-28.33527 48.8034499,-57.43892 0.80092,-15.70914 -3.02839,-28.321 -11.41893,-37.60832 -4.99615,-5.53015 -10.44714,-8.09544 -18.41782,-8.66763 -19.5690299,-1.40479 -33.76631,16.69705 -40.89933,52.1475 -1.12087,5.57065 -2.31569,14.30699 -2.65515,19.41409 -0.33946,5.10711 -0.99449,9.51883 -1.45563,9.80383 -0.46114,0.285 -2.75471,-0.81111 -5.09684,-2.43579 -21.55342,-14.95118 -23.86089,-47.68877 -4.62921,-65.67775 2.63182,-2.46176 5.18318,-4.47593 5.66968,-4.47593 0.48651,0 1.4343,1.83488 2.1062,4.0775 0.97461,3.25295 1.96186,4.38678 4.88204,5.60691 3.33038,1.39152 3.93322,1.37857 6.68664,-0.14364 3.19946,-1.7688 9.13676,-8.88324 11.8848001,-14.24111 4.05993,-7.91565 0.52147,-17.48114 -6.9877301,-18.88987 -9.69837,-1.81943 -26.21162,5.37552 -36.87599,16.06714 -11.92469,11.95516 -17.49483,25.56116 -17.49483,42.73406 0,11.77875 1.73003,19.31419 6.70446,29.20243 4.9853,9.90983 16.20163,20.92187 26.36552,25.8853 l 7.56997,3.69672 2.84531,22.25228 c 2.38089,18.62029 2.91627,27.02644 3.28008,51.50228 l 0.43478,29.250004 h -17.52863 c -14.71049,0 -17.78502,-0.25639 -19.12337,-1.59474 z m 47.94557,-119.415464 c -0.82297,-1.33161 1.27453,-22.59871 3.1057301,-31.4898 3.51339,-17.05864 9.41633004,-29.70996 15.6299,-33.49839 7.1017699,-4.32996 13.5876299,-1.34261 17.8580499,8.22531 3.2418,7.26329 3.26809,21.60307 0.0548,29.87678 -4.95773,12.76523 -14.5701499,22.34634 -25.9974699,25.9128 -7.11234,2.21976 -9.7326201,2.4592 -10.6509701,0.9733 z"
         id="path3055"
         style="fill:#000000"
         inkscape:connector-curvature="0" />
    </g>
  </g>
</svg>
