<?xml version="1.0" encoding="UTF-8" standalone="no"?>
<!-- Created with Inkscape (http://www.inkscape.org/) -->

<svg
   xmlns:dc="http://purl.org/dc/elements/1.1/"
   xmlns:cc="http://creativecommons.org/ns#"
   xmlns:rdf="http://www.w3.org/1999/02/22-rdf-syntax-ns#"
   xmlns:svg="http://www.w3.org/2000/svg"
   xmlns="http://www.w3.org/2000/svg"
   xmlns:sodipodi="http://sodipodi.sourceforge.net/DTD/sodipodi-0.dtd"
   xmlns:inkscape="http://www.inkscape.org/namespaces/inkscape"
   width="36.004147mm"
   height="34.278687mm"
   viewBox="0 0 127.57375 121.45991"
   id="svg4514"
   version="1.1"
   inkscape:version="0.91 r13725"
   sodipodi:docname="hiscom.svg">
  <defs
     id="defs4516">
    <clipPath
       clipPathUnits="userSpaceOnUse"
       id="clipPath226">
      <path
         d="m 0,310.452 411.299,0 L 411.299,0 0,0 0,310.452 Z"
         id="path228"
         inkscape:connector-curvature="0" />
    </clipPath>
  </defs>
  <sodipodi:namedview
     id="base"
     pagecolor="#ffffff"
     bordercolor="#666666"
     borderopacity="1.0"
     inkscape:pageopacity="0.0"
     inkscape:pageshadow="2"
     inkscape:zoom="0.35"
     inkscape:cx="-1226.9274"
     inkscape:cy="60.729953"
     inkscape:document-units="px"
     inkscape:current-layer="layer1"
     showgrid="false"
     fit-margin-top="0"
     fit-margin-left="0"
     fit-margin-right="0"
     fit-margin-bottom="0"
     inkscape:window-width="1920"
     inkscape:window-height="1031"
     inkscape:window-x="0"
     inkscape:window-y="0"
     inkscape:window-maximized="1" />
  <metadata
     id="metadata4519">
    <rdf:RDF>
      <cc:Work
         rdf:about="">
        <dc:format>image/svg+xml</dc:format>
        <dc:type
           rdf:resource="http://purl.org/dc/dcmitype/StillImage" />
        <dc:title></dc:title>
      </cc:Work>
    </rdf:RDF>
  </metadata>
  <g
     inkscape:label="Calque 1"
     inkscape:groupmode="layer"
     id="layer1"
     transform="translate(-907.64166,-471.63224)">
    <text
       y="569.16748"
       x="911.00879"
       transform="scale(0.99510112,1.004923)"
       style="font-variant:normal;font-weight:900;font-stretch:normal;font-size:19.31914139px;font-family:'Montserrat Black';-inkscape-font-specification:Montserrat-Black;writing-mode:lr-tb;fill:#ca482c;fill-opacity:1;fill-rule:nonzero;stroke:none"
       id="text216">
      <tspan
         x="911.00879 922.2912 927.41077 942.49902 948.91296 961.74091 973.54486 989.00018 995.41412 1009.4205"
         y="569.16748"
         sodipodi:role="line"
         id="tspan218">L’HISTOIRE</tspan>
      <tspan
         x="911.00879 924.70612 940.16138 946.32422 959.78967 975.612 993.28906 1010.9661 1025.8804"
         y="589.87756"
         sodipodi:role="line"
         id="tspan220">EN COMMUN</tspan>
    </text>
    <g
       transform="matrix(1.25,0,0,-1.25,568.25789,657.69522)"
       id="g222">
      <g
         id="g224"
         clip-path="url(#clipPath226)">
        <g
           id="g230"
           transform="translate(335.8234,146.4375)">
          <path
             d="m 0,0 c 0.128,-0.382 0.545,-0.589 0.927,-0.461 0.381,0.128 0.589,0.545 0.46,0.927 L 0.901,1.914 C 0.773,2.296 0.356,2.503 -0.025,2.375 -0.407,2.247 -0.614,1.83 -0.486,1.449 L 0,0 Z"
             style="fill:#ca482c;fill-opacity:1;fill-rule:nonzero;stroke:none"
             id="path232"
             inkscape:connector-curvature="0" />
        </g>
        <g
           id="g234"
           transform="translate(304.2098,98.4832)">
          <path
             d="m 0,0 c -0.618,-0.198 -1.19,-0.495 -1.704,-0.869 l 0.022,38.644 -0.005,-4.661 c -0.002,0.023 -0.178,2.292 1.115,3.7 0.176,0.191 0.376,0.356 0.597,0.501 L 0,0 Z M 2.352,40.563 C 0.329,40.48 -1.283,39.751 -2.432,38.489 -4.331,36.405 -4.22,33.458 -4.186,32.955 L -4.211,-5.759 c -0.002,-3.336 2.73,-6.052 6.091,-6.054 l 11.312,-0.006 c -1.09,0.66 -1.845,1.485 -1.845,2.504 l -9.466,0.006 c -1.98,10e-4 -3.589,1.593 -3.588,3.549 0.001,1.955 1.593,3.546 3.549,3.545 l 7.21,-0.005 c 0.128,0.802 0.661,1.694 0.483,2.504 L 2.504,0.288 2.529,38.076 34.48,38.057 34.455,0.269 26.777,0.274 c 0.426,-0.781 2.062,-1.634 2.042,-2.505 l 8.138,-0.005 0.028,42.795 c 0,0 -34.632,0.01 -34.633,0.004"
             style="fill:#ca482c;fill-opacity:1;fill-rule:nonzero;stroke:none"
             id="path236"
             inkscape:connector-curvature="0" />
        </g>
        <g
           id="g238"
           transform="translate(341.1631,89.1535)">
          <path
             d="m 0,0 -11.264,0.007 c 0.085,-1.131 -0.82,-1.902 -1.703,-2.503 L -0.001,-2.504 0,0 Z"
             style="fill:#ca482c;fill-opacity:1;fill-rule:nonzero;stroke:none"
             id="path240"
             inkscape:connector-curvature="0" />
        </g>
        <g
           id="g242"
           transform="translate(306.1185,93.4254)">
          <path
             d="m 0,0 -0.001,-1.512 9.107,-0.081 c -0.161,0.645 -0.091,1.158 0.332,1.578 L 0,0 Z"
             style="fill:#ca482c;fill-opacity:1;fill-rule:nonzero;stroke:none"
             id="path244"
             inkscape:connector-curvature="0" />
        </g>
        <g
           id="g246"
           transform="translate(337.8775,93.4068)">
          <path
             d="m 0,0 -7.645,0.004 c 0.351,-0.357 0.425,-0.985 0.334,-1.512 L -0.001,-1.512 0,0 Z"
             style="fill:#ca482c;fill-opacity:1;fill-rule:nonzero;stroke:none"
             id="path248"
             inkscape:connector-curvature="0" />
        </g>
        <g
           id="g250"
           transform="translate(311.7184,93.4109)">
          <path
             d="M 0,0 0,-11.682 -2.8,-7.361 -5.601,-11.682 -5.601,0 0,0 Z"
             style="fill:#20b8d1;fill-opacity:1;fill-rule:nonzero;stroke:none"
             id="path252"
             inkscape:connector-curvature="0" />
        </g>
        <g
           id="g254"
           transform="translate(332.2439,98.756)">
          <path
             d="m 0,0 c -0.448,0 -1.243,-0.065 -1.537,0.309 -0.191,0.241 -0.23,0.653 -0.23,0.955 0,5.133 1.717,8.588 3.377,11.93 1.398,2.812 2.718,5.468 2.718,8.684 0,3.664 -1.427,7.109 -4.019,9.701 -2.591,2.591 -6.036,4.018 -9.701,4.018 -3.664,0 -7.109,-1.427 -9.701,-4.018 -2.591,-2.592 -4.018,-6.037 -4.018,-9.701 0,-3.319 1.353,-5.993 2.785,-8.824 1.669,-3.298 3.395,-6.709 3.395,-11.824 0,-0.385 -0.098,-0.679 -0.292,-0.872 -0.308,-0.309 -0.958,-0.347 -1.813,-0.347 l -0.08,0 c 0.066,-0.623 0.105,-1.881 0.134,-2.504 2.999,0.022 3.921,2.175 3.921,3.723 0,10.023 -6.18,14.195 -6.18,20.648 0,6.544 5.305,11.849 11.849,11.849 6.545,0 11.85,-5.305 11.85,-11.849 0,-6.28 -6.095,-10.625 -6.095,-20.614 0,-1.292 0.489,-3.759 3.657,-3.759 0.202,0 0.52,-0.009 0.919,-0.009 0.088,0.623 0.148,1.882 0.252,2.503 L 0,0 Z"
             style="fill:#ca482c;fill-opacity:1;fill-rule:nonzero;stroke:none"
             id="path256"
             inkscape:connector-curvature="0" />
        </g>
        <g
           id="g258"
           transform="translate(323.8068,116.4564)">
          <path
             d="M 0,0 C 0.178,0.553 0.715,2.224 1.973,2.26 2.067,2.246 2.409,2.178 2.744,1.891 3.275,1.437 3.555,0.613 3.555,-0.492 3.555,-1.996 3.076,-3.241 2.17,-4.092 1.408,-4.808 0.385,-5.216 -0.725,-5.251 -0.66,-3.085 -0.412,-1.282 0,0 M -2.681,2.319 C -2.342,1.969 -1.783,1.96 -1.433,2.3 -1.042,2.678 0.147,3.831 -0.289,4.906 -0.493,5.41 -1.003,5.722 -1.62,5.722 l -0.002,0 c -1.187,-0.001 -5.383,-1.558 -5.383,-6.491 0,-3.368 2.076,-5.417 4.503,-6.044 0.031,-1.399 0.175,-2.769 0.305,-3.999 0.072,-0.679 0.139,-1.321 0.18,-1.895 0.16,-2.257 0.137,-5.404 0.136,-5.436 -0.004,-0.487 0.389,-0.886 0.876,-0.89 l 0.007,0 c 0.485,0 0.879,0.391 0.883,0.876 0.001,0.132 0.024,3.248 -0.141,5.575 -0.042,0.604 -0.112,1.261 -0.185,1.955 -0.118,1.121 -0.249,2.363 -0.289,3.61 1.563,0.035 3.017,0.613 4.108,1.637 1.271,1.194 1.943,2.884 1.943,4.888 0,3.425 -2.13,4.452 -3.256,4.517 L 2.014,4.026 c -2.128,0 -3.184,-1.896 -3.695,-3.486 -0.455,-1.415 -0.724,-3.273 -0.803,-5.534 -1.882,0.665 -2.755,2.497 -2.755,4.225 0,1.563 0.542,2.819 1.61,3.733 0.358,0.306 0.725,0.528 1.049,0.684 C -2.606,3.622 -2.634,3.595 -2.662,3.568 -3.012,3.228 -3.021,2.669 -2.681,2.319"
             style="fill:#ca482c;fill-opacity:1;fill-rule:nonzero;stroke:none"
             id="path260"
             inkscape:connector-curvature="0" />
        </g>
        <g
           id="g262"
           transform="translate(322.8934,86.1364)">
          <path
             d="m 0,0 c 1.306,0 2.474,0.585 3.259,1.506 l -6.519,0 C -2.474,0.585 -1.306,0 0,0"
             style="fill:#ca482c;fill-opacity:1;fill-rule:nonzero;stroke:none"
             id="path264"
             inkscape:connector-curvature="0" />
        </g>
        <g
           id="g266"
           transform="translate(326.2453,92.5852)">
          <path
             d="m 0,0 -6.855,0 c -0.457,0 -0.831,0.374 -0.831,0.831 0,0.457 0.374,0.831 0.831,0.831 L 0,1.662 C 0.457,1.662 0.831,1.288 0.831,0.831 0.831,0.374 0.457,0 0,0 m -1.909,-2.493 -4.907,0 c -0.479,0 -0.87,0.392 -0.87,0.87 0,0.478 0.391,0.87 0.87,0.87 l 4.907,0 c 0.479,0 0.87,-0.392 0.87,-0.87 0,-0.478 -0.391,-0.87 -0.87,-0.87 m 4.497,4.544 c 0,0.705 -0.576,1.281 -1.281,1.281 l -9.417,0 c -0.705,0 -1.281,-0.576 -1.281,-1.281 0,-0.617 0.442,-1.135 1.024,-1.255 -0.582,-0.119 -1.024,-0.638 -1.024,-1.255 l 0,0 c 0,-0.569 0.377,-1.055 0.893,-1.22 C -9.014,-1.844 -9.391,-2.33 -9.391,-2.9 l 0,0 c 0,-0.704 0.576,-1.281 1.281,-1.281 l 9.417,0 c 0.705,0 1.281,0.577 1.281,1.281 l 0,0 c 0,0.57 -0.377,1.056 -0.894,1.221 0.517,0.165 0.894,0.651 0.894,1.22 l 0,0 c 0,0.617 -0.442,1.136 -1.025,1.255 0.583,0.12 1.025,0.638 1.025,1.255"
             style="fill:#ca482c;fill-opacity:1;fill-rule:nonzero;stroke:none"
             id="path268"
             inkscape:connector-curvature="0" />
        </g>
        <g
           id="g270"
           transform="translate(307.3895,136.8786)">
          <path
             d="M 0,0 -0.458,1.362 26.955,10.585 27.413,9.223 0,0 Z"
             style="fill:#ca482c;fill-opacity:1;fill-rule:nonzero;stroke:none"
             id="path272"
             inkscape:connector-curvature="0" />
        </g>
      </g>
    </g>
  </g>
</svg>
