<?xml version="1.0" encoding="UTF-8" standalone="no"?>
<!-- Created with Inkscape (http://www.inkscape.org/) -->

<svg
   xmlns:dc="http://purl.org/dc/elements/1.1/"
   xmlns:cc="http://creativecommons.org/ns#"
   xmlns:rdf="http://www.w3.org/1999/02/22-rdf-syntax-ns#"
   xmlns:svg="http://www.w3.org/2000/svg"
   xmlns="http://www.w3.org/2000/svg"
   xmlns:sodipodi="http://sodipodi.sourceforge.net/DTD/sodipodi-0.dtd"
   xmlns:inkscape="http://www.inkscape.org/namespaces/inkscape"
   width="41.59573mm"
   height="36.708279mm"
   viewBox="0 0 147.38645 130.0687"
   id="svg4395"
   version="1.1"
   inkscape:version="0.91 r13725"
   sodipodi:docname="insquo.svg">
  <defs
     id="defs4397">
    <clipPath
       clipPathUnits="userSpaceOnUse"
       id="clipPath180">
      <path
         d="m 0,310.452 411.299,0 L 411.299,0 0,0 0,310.452 Z"
         id="path182"
         inkscape:connector-curvature="0" />
    </clipPath>
    <clipPath
       clipPathUnits="userSpaceOnUse"
       id="clipPath180-8">
      <path
         d="m 0,310.452 411.299,0 L 411.299,0 0,0 0,310.452 Z"
         id="path182-3"
         inkscape:connector-curvature="0" />
    </clipPath>
    <clipPath
       clipPathUnits="userSpaceOnUse"
       id="clipPath180-87">
      <path
         d="m 0,310.452 411.299,0 L 411.299,0 0,0 0,310.452 Z"
         id="path182-9"
         inkscape:connector-curvature="0" />
    </clipPath>
  </defs>
  <sodipodi:namedview
     id="base"
     pagecolor="#ffffff"
     bordercolor="#666666"
     borderopacity="1.0"
     inkscape:pageopacity="0.0"
     inkscape:pageshadow="2"
     inkscape:zoom="0.35"
     inkscape:cx="-494.7564"
     inkscape:cy="-92.788451"
     inkscape:document-units="px"
     inkscape:current-layer="layer1"
     showgrid="false"
     fit-margin-top="0"
     fit-margin-left="0"
     fit-margin-right="0"
     fit-margin-bottom="0"
     inkscape:window-width="1920"
     inkscape:window-height="1031"
     inkscape:window-x="0"
     inkscape:window-y="0"
     inkscape:window-maximized="1" />
  <metadata
     id="metadata4400">
    <rdf:RDF>
      <cc:Work
         rdf:about="">
        <dc:format>image/svg+xml</dc:format>
        <dc:type
           rdf:resource="http://purl.org/dc/dcmitype/StillImage" />
        <dc:title></dc:title>
      </cc:Work>
    </rdf:RDF>
  </metadata>
  <g
     inkscape:label="Calque 1"
     inkscape:groupmode="layer"
     id="layer1"
     transform="translate(-175.47068,-309.50504)">
    <g
       transform="matrix(1.25,0,0,-1.25,-160.19695,491.46827)"
       clip-path="url(#clipPath180-87)"
       id="g178">
      <g
         transform="translate(315.4989,137.4629)"
         id="g184">
        <path
           inkscape:connector-curvature="0"
           id="path186"
           style="fill:#ca482c;fill-opacity:1;fill-rule:nonzero;stroke:none"
           d="M 0,0 C 0.545,-0.226 0.9,-0.907 1.341,-1.384 0.708,-1.842 0.12,-2.397 -0.576,-2.715 c -0.336,-0.153 -1.161,0.009 -1.273,0.253 -0.438,0.955 -0.68,2.001 -1.025,3.108 C -1.915,0.447 -0.896,0.371 0,0 m 35.985,-28.773 c -0.095,0.087 -0.132,0.374 -0.062,0.481 2.409,3.686 1.22,8.2 -2.665,10.078 -0.069,0.033 -0.15,0.139 -0.148,0.209 0.061,1.532 0.132,3.065 0.202,4.597 -0.209,0.479 -0.418,0.958 -0.628,1.437 -4.733,7.358 -15.434,3.882 -18.452,-1.878 -0.052,-0.099 -0.246,-0.19 -0.365,-0.179 -1.697,0.153 -3.403,0.258 -5.077,0.55 -0.313,0.054 -0.727,0.891 -0.695,1.338 0.155,2.153 0.267,4.335 0.723,6.435 C 10.383,1.504 6.392,7.521 -0.508,8.093 -1.342,8.163 -2.198,7.964 -3.043,7.889 -3.435,7.718 -3.827,7.547 -4.219,7.376 -5.534,6.417 -6.739,5.344 -6.387,3.513 c 0.11,-0.572 0.75,-1.021 1.026,-1.586 0.789,-1.618 2.02,-3.219 2.179,-4.911 0.684,-7.289 -1.648,-14.321 -2.176,-21.515 -0.136,-1.841 -1.511,-2.008 -2.529,-2.647 -1.016,-0.639 -2.233,-1.379 -3.343,-1.349 -1.599,0.043 -1.13,-1.088 -1.263,-1.692 -0.884,-3.999 -0.395,-7.915 0.959,-11.747 0.087,-0.245 0.16,-0.495 0.239,-0.742 0.257,-0.588 0.513,-1.176 0.77,-1.763 0.736,-1.243 1.375,-2.558 2.233,-3.711 1.07,-1.438 2.461,-2.649 3.454,-4.132 0.905,-1.353 1.626,-0.569 2.449,-0.124 2.193,1.186 4.365,2.414 6.57,3.576 0.985,0.52 1.974,0.789 3.019,0.849 0.515,0.507 1.154,0.921 1.82,1.392 -0.92,0.176 -1.893,0.358 -2.64,0.059 -3.319,-1.331 -6.523,-2.946 -9.777,-4.439 -0.154,-0.071 -0.45,-0.078 -0.552,0.02 -4.118,3.955 -6.405,8.839 -7.106,14.456 -0.278,2.228 -0.273,4.491 -0.378,6.402 1.182,0.36 2.096,0.578 2.964,0.913 3.004,1.16 4.683,3.068 4.943,6.578 0.464,6.244 2.255,12.363 1.899,18.671 0.532,0.035 1.088,0.007 1.613,0.12 1.272,0.274 2.409,0.796 2.501,2.31 0.085,1.382 -0.765,2.173 -2.006,2.483 -1.355,0.339 -2.768,0.455 -4.106,0.841 -0.62,0.179 -1.419,0.66 -1.615,1.195 -0.462,1.258 0.097,2.307 1.347,2.869 5.27,2.369 12.122,-2.476 11.709,-8.387 -0.172,-2.471 -0.849,-4.904 -1.18,-7.37 -0.276,-2.049 0.084,-3.981 1.81,-5.369 0.291,-0.234 0.828,-0.164 1.252,-0.235 3.945,-0.468 7.649,-0.079 11.065,2.006 0.516,0.316 0.766,1.068 1.139,1.618 -0.602,-0.111 -1.24,-0.13 -1.798,-0.351 -1.526,-0.606 -3.018,-1.297 -4.523,-1.954 2.832,3.85 7.754,6.13 12.087,4.727 2.846,-0.922 4.887,-3.714 4.693,-6.209 -0.209,-2.687 -2.095,-3.904 -4.269,-4.884 -0.193,-0.087 -0.45,-0.462 -0.398,-0.573 0.102,-0.217 0.391,-0.466 0.619,-0.483 1.724,-0.131 2.89,0.839 3.908,2.073 0.071,0.086 0.259,0.195 0.306,0.164 2.379,-1.587 4.179,-3.822 2.835,-6.755 -0.588,-1.282 -1.925,-2.217 -2.903,-3.326 -0.277,-0.315 -0.487,-0.688 -0.728,-1.034 0.434,-0.089 0.93,-0.356 1.29,-0.23 0.704,0.246 1.333,0.71 2.015,1.097 1.514,-1.626 1.543,-4.624 -0.232,-6.77 -0.997,-1.204 -2.336,-2.121 -3.488,-3.202 -0.178,-0.167 -0.179,-0.521 -0.262,-0.789 0.269,-0.072 0.596,-0.28 0.799,-0.193 0.902,0.384 1.769,0.852 2.619,1.275 -0.003,-0.033 -0.014,-0.193 -0.041,-0.351 -0.541,-3.213 -2.684,-5.055 -5.539,-6.077 -2.994,-1.071 -6.024,-1.589 -9.076,-1.728 0.53,-0.386 1.259,-0.706 1.627,-1.409 2.865,0.284 5.711,0.909 8.528,1.929 0.152,0.067 0.304,0.133 0.457,0.2 0.09,0.055 0.177,0.117 0.271,0.164 2.733,1.348 4.692,3.435 4.829,6.524 0.069,1.548 0.482,2.748 1.18,4.039 1.38,2.553 0.999,5.602 -0.723,7.201" />
      </g>
    </g>
    <text
       y="410.58624"
       x="176.72325"
       transform="scale(0.99510211,1.004922)"
       style="font-variant:normal;font-weight:900;font-stretch:normal;font-size:20.46875381px;font-family:'Montserrat Black';-inkscape-font-specification:Montserrat-Black;writing-mode:lr-tb;fill:#ca482c;fill-opacity:1;fill-rule:nonzero;stroke:none"
       id="text188">
      <tspan
         x="176.72325 183.51888 199.50496 213.09621 229.47121 244.8842 263.22418 270.01981 283.61105 289.03528 303.15872"
         y="410.58624"
         sodipodi:role="line"
         id="tspan190">INSOUMIS.ES</tspan>
      <tspan
         x="176.72325 191.84966 206.44386 211.76576 227.34248 241.93669 256.87888 269.1806 275.15747 289.87451 295.85138 309.15607"
         y="433.79779"
         sodipodi:role="line"
         id="tspan192">AU QUOTIDIEN</tspan>
    </text>
    <g
       id="g202"
       transform="matrix(1.25,0,0,-1.25,254.17405,361.29489)">
      <path
         d="M 0,0 C 0.166,0.424 0.667,1.703 1.652,1.67 1.725,1.655 1.989,1.585 2.237,1.345 2.629,0.964 2.809,0.306 2.755,-0.558 2.682,-1.733 2.247,-2.683 1.497,-3.304 0.867,-3.826 0.047,-4.096 -0.822,-4.069 -0.666,-2.379 -0.384,-0.982 0,0 m -1.983,1.943 c 0.248,-0.29 0.685,-0.324 0.975,-0.076 0.324,0.277 1.309,1.12 1.021,1.982 -0.136,0.403 -0.519,0.673 -1.001,0.703 l -0.002,0 c -0.927,0.057 -4.283,-0.957 -4.523,-4.813 -0.163,-2.632 1.36,-4.335 3.226,-4.943 -0.044,-1.095 0.003,-2.173 0.044,-3.14 0.023,-0.535 0.045,-1.039 0.049,-1.491 0.015,-1.771 -0.156,-4.23 -0.158,-4.255 -0.026,-0.381 0.261,-0.711 0.642,-0.738 10e-4,0 0.003,0 0.005,0 0.379,-0.024 0.706,0.262 0.733,0.641 0.007,0.103 0.177,2.538 0.161,4.365 -0.004,0.474 -0.027,0.991 -0.05,1.537 -0.038,0.882 -0.08,1.859 -0.051,2.836 1.224,-0.049 2.389,0.332 3.291,1.08 1.052,0.871 1.659,2.159 1.756,3.726 C 4.302,2.034 2.687,2.94 1.81,3.045 L 1.77,3.049 C 0.107,3.152 -0.811,1.722 -1.288,0.504 -1.712,-0.58 -2.013,-2.019 -2.184,-3.783 c -1.439,0.611 -2.032,2.086 -1.948,3.436 0.076,1.222 0.56,2.178 1.44,2.84 C -2.397,2.715 -2.1,2.871 -1.84,2.977 -1.861,2.958 -1.884,2.938 -1.907,2.918 -2.197,2.67 -2.231,2.233 -1.983,1.943"
         style="fill:#20b8d1;fill-opacity:1;fill-rule:nonzero;stroke:none"
         id="path204"
         inkscape:connector-curvature="0" />
    </g>
    <g
       id="g206"
       transform="matrix(1.25,0,0,-1.25,260.97242,378.78302)">
      <path
         d="m 0,0 c -0.464,-0.223 -0.691,0.2 -0.923,0.469 -0.099,0.114 -0.116,0.114 -0.101,0.35 0.249,4.012 1.759,6.63 3.22,9.161 1.229,2.13 2.389,4.142 2.546,6.655 0.178,2.865 -0.77,5.627 -2.67,7.778 -1.899,2.152 -4.523,3.435 -7.387,3.613 -2.864,0.178 -5.627,-0.77 -7.778,-2.67 -2.151,-1.899 -3.434,-4.523 -3.612,-7.387 -0.162,-2.594 0.766,-4.75 1.748,-7.032 1.144,-2.66 2.327,-5.41 2.079,-9.408 -0.019,-0.301 -0.11,-0.525 -0.271,-0.667 -0.256,-0.226 -0.376,0.042 -1.044,0.084 l -0.062,0.004 c 0.021,-0.49 -0.413,-1.095 -0.421,-1.584 2.346,-0.129 3.184,0.862 3.259,2.072 0.487,7.835 -4.141,11.396 -3.827,16.44 0.318,5.115 4.723,9.004 9.838,8.686 C -0.291,26.246 3.598,21.842 3.28,16.726 2.975,11.818 -2,8.718 -2.486,0.91 c -0.062,-1.01 -0.018,-2.28 2.458,-2.434 0.158,-0.01 1.111,0.17 1.411,0.168 0.1,0.483 -0.194,1.021 -0.083,1.501 L 0,0 Z"
         style="fill:#ca482c;fill-opacity:1;fill-rule:nonzero;stroke:none"
         id="path208"
         inkscape:connector-curvature="0" />
    </g>
    <g
       id="g210"
       transform="matrix(1.25,0,0,-1.25,251.43967,390.86364)">
      <path
         d="M 0,0 C 1.021,-0.063 1.962,0.337 2.621,1.019 L -2.475,1.336 C -1.905,0.577 -1.021,0.063 0,0"
         style="fill:#ca482c;fill-opacity:1;fill-rule:nonzero;stroke:none"
         id="path212"
         inkscape:connector-curvature="0" />
    </g>
    <g
       id="g214"
       transform="matrix(1.25,0,0,-1.25,255.10643,384.76652)">
      <path
         d="m 0,0 -5.358,0.333 c -0.358,0.022 -0.632,0.333 -0.609,0.69 0.022,0.357 0.332,0.631 0.689,0.609 L 0.081,1.299 C 0.438,1.277 0.712,0.966 0.69,0.609 0.668,0.252 0.357,-0.022 0,0 m -1.613,-1.856 -3.836,0.239 c -0.374,0.023 -0.661,0.348 -0.638,0.722 0.023,0.374 0.349,0.661 0.722,0.638 l 3.837,-0.239 c 0.374,-0.023 0.661,-0.348 0.637,-0.722 -0.023,-0.374 -0.348,-0.661 -0.722,-0.638 M 2.123,1.478 C 2.157,2.028 1.734,2.507 1.184,2.541 L -6.177,2.999 C -6.728,3.033 -7.207,2.611 -7.241,2.06 -7.271,1.578 -6.951,1.151 -6.501,1.029 -6.962,0.964 -7.333,0.58 -7.363,0.098 -7.391,-0.347 -7.12,-0.745 -6.724,-0.9 -7.136,-1.004 -7.454,-1.365 -7.482,-1.81 l 0,0 c -0.034,-0.551 0.389,-1.029 0.939,-1.064 l 7.361,-0.457 c 0.551,-0.035 1.03,0.388 1.064,0.939 l 0,0 c 0.028,0.445 -0.243,0.843 -0.639,0.997 0.412,0.104 0.73,0.465 0.758,0.911 0.03,0.482 -0.291,0.909 -0.74,1.03 0.461,0.066 0.832,0.449 0.862,0.932"
         style="fill:#ca482c;fill-opacity:1;fill-rule:nonzero;stroke:none"
         id="path216"
         inkscape:connector-curvature="0" />
    </g>
  </g>
</svg>
