<?xml version="1.0" encoding="UTF-8" standalone="no"?>
<!-- Created with Inkscape (http://www.inkscape.org/) -->

<svg
   xmlns:dc="http://purl.org/dc/elements/1.1/"
   xmlns:cc="http://creativecommons.org/ns#"
   xmlns:rdf="http://www.w3.org/1999/02/22-rdf-syntax-ns#"
   xmlns:svg="http://www.w3.org/2000/svg"
   xmlns="http://www.w3.org/2000/svg"
   xmlns:sodipodi="http://sodipodi.sourceforge.net/DTD/sodipodi-0.dtd"
   xmlns:inkscape="http://www.inkscape.org/namespaces/inkscape"
   width="41.521343mm"
   height="34.34132mm"
   viewBox="0 0 147.12287 121.68184"
   id="svg4504"
   version="1.1"
   inkscape:version="0.91 r13725"
   sodipodi:docname="lentre.svg">
  <defs
     id="defs4506">
    <clipPath
       clipPathUnits="userSpaceOnUse"
       id="clipPath228">
      <path
         d="m 0,310.452 411.299,0 L 411.299,0 0,0 0,310.452 Z"
         id="path230"
         inkscape:connector-curvature="0" />
    </clipPath>
  </defs>
  <sodipodi:namedview
     id="base"
     pagecolor="#ffffff"
     bordercolor="#666666"
     borderopacity="1.0"
     inkscape:pageopacity="0.0"
     inkscape:pageshadow="2"
     inkscape:zoom="0.35"
     inkscape:cx="-600.00999"
     inkscape:cy="157.98377"
     inkscape:document-units="px"
     inkscape:current-layer="layer1"
     showgrid="false"
     fit-margin-top="0"
     fit-margin-left="0"
     fit-margin-right="0"
     fit-margin-bottom="0"
     inkscape:window-width="1920"
     inkscape:window-height="1031"
     inkscape:window-x="0"
     inkscape:window-y="0"
     inkscape:window-maximized="1" />
  <metadata
     id="metadata4509">
    <rdf:RDF>
      <cc:Work
         rdf:about="">
        <dc:format>image/svg+xml</dc:format>
        <dc:type
           rdf:resource="http://purl.org/dc/dcmitype/StillImage" />
        <dc:title></dc:title>
      </cc:Work>
    </rdf:RDF>
  </metadata>
  <g
     inkscape:label="Calque 1"
     inkscape:groupmode="layer"
     id="layer1"
     transform="translate(-280.72427,-568.66413)">
    <text
       y="686.96686"
       x="280.85275"
       transform="scale(0.99510517,1.0049189)"
       style="font-variant:normal;font-weight:900;font-stretch:normal;font-size:21.97154808px;font-family:'Montserrat Black';-inkscape-font-specification:Montserrat-Black;writing-mode:lr-tb;fill:#ca482c;fill-opacity:1;fill-rule:nonzero;stroke:none"
       id="text220">
      <tspan
         x="280.85275 293.68414 299.50662 314.66699 331.82675 345.91052 361.8399 377.00024 391.08401 398.37857 413.53894"
         y="686.96686"
         sodipodi:role="line"
         id="tspan222">L’ENTRETIEN</tspan>
    </text>
    <g
       transform="matrix(1.25,0,0,-1.25,-47.447592,753.22813)"
       id="g224">
      <g
         id="g226"
         clip-path="url(#clipPath228)">
        <g
           id="g232"
           transform="translate(314.2295,133.2782)">
          <path
             d="m 0,0 -6.899,0 0,2.364 6.899,0 C 0.653,2.364 1.182,1.835 1.182,1.182 1.182,0.529 0.653,0 0,0"
             style="fill:#20b8d1;fill-opacity:1;fill-rule:nonzero;stroke:none"
             id="path234"
             inkscape:connector-curvature="0" />
        </g>
        <g
           id="g236"
           transform="translate(311.7969,128.786)">
          <path
             d="m 0,0 -3.969,0 0,2.364 3.969,0 C 0.653,2.364 1.182,1.835 1.182,1.182 1.182,0.529 0.653,0 0,0"
             style="fill:#20b8d1;fill-opacity:1;fill-rule:nonzero;stroke:none"
             id="path238"
             inkscape:connector-curvature="0" />
        </g>
        <g
           id="g240"
           transform="translate(317.653,137.1793)">
          <path
             d="m 0,0 -8.714,0 0,2.364 8.714,0 C 0.653,2.364 1.182,1.835 1.182,1.182 1.182,0.529 0.653,0 0,0"
             style="fill:#20b8d1;fill-opacity:1;fill-rule:nonzero;stroke:none"
             id="path242"
             inkscape:connector-curvature="0" />
        </g>
        <g
           id="g244"
           transform="translate(326.4936,137.1793)">
          <path
             d="m 0,0 8.714,0 0,2.364 -8.714,0 C -0.653,2.364 -1.182,1.835 -1.182,1.182 -1.182,0.529 -0.653,0 0,0"
             style="fill:#20b8d1;fill-opacity:1;fill-rule:nonzero;stroke:none"
             id="path246"
             inkscape:connector-curvature="0" />
        </g>
        <g
           id="g248"
           transform="translate(329.6345,133.2782)">
          <path
             d="m 0,0 6.899,0 0,2.364 -6.899,0 C -0.653,2.364 -1.182,1.835 -1.182,1.182 -1.182,0.529 -0.653,0 0,0"
             style="fill:#20b8d1;fill-opacity:1;fill-rule:nonzero;stroke:none"
             id="path250"
             inkscape:connector-curvature="0" />
        </g>
        <g
           id="g252"
           transform="translate(332.3496,128.786)">
          <path
             d="m 0,0 3.511,0 0,2.364 -3.511,0 C -0.653,2.364 -1.182,1.835 -1.182,1.182 -1.182,0.529 -0.653,0 0,0"
             style="fill:#20b8d1;fill-opacity:1;fill-rule:nonzero;stroke:none"
             id="path254"
             inkscape:connector-curvature="0" />
        </g>
        <g
           id="g256"
           transform="translate(330.7917,117.1773)">
          <path
             d="m 0,0 -0.177,-1.89 4.032,-0.001 2.857,0 c -0.013,-3.719 -0.031,-9.236 -0.031,-9.268 0,-8.486 -6.903,-15.518 -15.352,-15.677 -8.485,0.159 -15.388,7.191 -15.388,15.677 0,0.017 -0.005,1.665 -0.012,3.764 l -0.018,5.504 2.856,0 3.708,-0.007 -0.483,1.898 -7.979,0 0.024,-7.402 c 0.007,-2.082 0.013,-3.719 0.013,-3.757 0,-9.51 7.735,-17.39 17.279,-17.569 9.507,0.179 17.243,8.059 17.243,17.567 0,0.078 0.022,6.589 0.035,10.212 L 8.61,0 0,0 Z"
             style="fill:#ca482c;fill-opacity:1;fill-rule:nonzero;stroke:none"
             id="path258"
             inkscape:connector-curvature="0" />
        </g>
        <g
           id="g260"
           transform="translate(341.0243,122.9586)">
          <path
             d="m 0,0 -6.377,0 -1.892,0 0,-1.891 8.269,0 c 1.056,0 2.283,-0.839 2.283,-1.921 0,-0.099 -0.015,-3.803 -0.03,-7.25 -0.012,-3.004 -0.024,-5.813 -0.024,-5.879 0,-10.539 -7.853,-19.664 -18.268,-21.226 l -0.805,-0.121 0,-9.082 8.943,0 c 1.072,0 1.945,-0.873 1.945,-1.945 0,-1.072 -0.873,-1.945 -1.945,-1.945 l -22.041,0 c -1.072,0 -1.945,0.873 -1.945,1.945 0,1.072 0.873,1.945 1.945,1.945 l 8.943,0 0,9.082 -0.805,0.121 c -10.415,1.562 -18.268,10.687 -18.268,21.228 0,0.063 -0.01,2.336 -0.021,4.974 -0.015,3.67 -0.033,8.045 -0.033,8.153 0,1.082 1.227,1.921 2.283,1.921 l 8.269,0 0,0.096 C -29.992,-1.245 -30.794,0 -30.794,0 l -0.672,0 -6.377,0 c -1.974,0 -4.175,-1.566 -4.175,-3.812 0,-0.108 0.018,-4.488 0.034,-8.161 0.011,-2.635 0.02,-4.906 0.02,-4.968 0,-11.195 8.143,-20.924 19.074,-22.961 l 0,-5.577 -7.052,0 c -2.115,0 -3.836,-1.721 -3.836,-3.836 0,-2.115 1.721,-3.836 3.836,-3.836 l 22.041,0 c 2.115,0 3.836,1.721 3.836,3.836 0,2.115 -1.721,3.836 -3.836,3.836 l -7.051,0 0,5.577 c 10.93,2.037 19.073,11.766 19.073,22.961 0,0.078 0.011,2.878 0.024,5.871 0.015,3.451 0.03,7.159 0.03,7.258 C 4.175,-1.566 1.975,0 0,0"
             style="fill:#ca482c;fill-opacity:1;fill-rule:nonzero;stroke:none"
             id="path262"
             inkscape:connector-curvature="0" />
        </g>
        <g
           id="g264"
           transform="translate(327.1331,106.3672)">
          <path
             d="m 0,0 c -0.49,0 1.59,-0.096 2.247,0.554 0.363,0.358 0.801,0.921 0.9,3.141 0.251,5.613 1.88,9.402 3.698,13.061 1.53,3.079 2.975,5.987 2.975,9.508 0,4.012 -1.562,7.784 -4.399,10.621 -2.837,2.837 -6.609,4.399 -10.621,4.399 -4.013,0 -7.785,-1.562 -10.622,-4.399 -2.837,-2.837 -4.399,-6.609 -4.399,-10.621 0,-3.634 1.481,-6.561 3.049,-9.661 1.828,-3.611 3.717,-7.346 3.717,-12.946 0,-0.422 -0.126,-2.537 0.142,-2.894 0.62,-0.83 2.214,-0.768 2.214,-0.768 l 0.808,0.006 c 9.715,-0.26 7.308,1.649 7.308,1.649 0,0 -5.282,-0.381 -7.682,0.337 -0.895,0.268 -0.743,1.21 -0.743,1.67 0,10.974 -6.766,15.542 -6.766,22.607 0,7.165 5.808,12.973 12.974,12.973 7.165,0 12.973,-5.808 12.973,-12.973 C 7.773,19.388 1.1,14.631 1.1,3.695 1.1,2.28 0.275,1.751 -4.832,1.566 -5.053,1.558 -7.831,0 -7.395,0 L -3.021,-0.005 0,0 Z"
             style="fill:#20b8d1;fill-opacity:1;fill-rule:nonzero;stroke:none"
             id="path266"
             inkscape:connector-curvature="0" />
        </g>
        <g
           id="g268"
           transform="translate(322.9777,128.0572)">
          <path
             d="M 0,0 C 0.195,0.605 0.782,2.435 2.16,2.474 2.263,2.459 2.637,2.384 3.004,2.07 3.585,1.573 3.892,0.671 3.892,-0.539 3.892,-2.186 3.368,-3.549 2.375,-4.481 1.541,-5.264 0.421,-5.711 -0.794,-5.749 -0.723,-3.377 -0.451,-1.403 0,0 m -2.936,2.539 c 0.372,-0.383 0.984,-0.393 1.367,-0.021 0.428,0.415 1.73,1.677 1.253,2.853 -0.224,0.552 -0.782,0.894 -1.458,0.894 l -0.002,0 c -1.299,-10e-4 -5.893,-1.706 -5.893,-7.107 0,-3.687 2.272,-5.931 4.93,-6.617 0.033,-1.532 0.192,-3.032 0.334,-4.379 0.078,-0.743 0.152,-1.446 0.197,-2.075 0.175,-2.47 0.149,-5.916 0.149,-5.951 -0.004,-0.533 0.425,-0.97 0.959,-0.974 l 0.008,0 c 0.53,0 0.962,0.428 0.966,0.959 0.001,0.144 0.027,3.555 -0.154,6.103 -0.047,0.662 -0.123,1.381 -0.203,2.141 -0.129,1.227 -0.273,2.587 -0.316,3.952 1.711,0.038 3.303,0.671 4.498,1.793 1.391,1.307 2.127,3.157 2.127,5.351 0,3.751 -2.332,4.875 -3.565,4.945 L 2.206,4.408 c -2.331,0 -3.487,-2.075 -4.047,-3.816 -0.498,-1.55 -0.792,-3.584 -0.879,-6.059 -2.06,0.727 -3.016,2.734 -3.016,4.625 0,1.711 0.593,3.086 1.763,4.087 0.392,0.335 0.794,0.579 1.148,0.749 C -2.854,3.965 -2.883,3.936 -2.914,3.906 -3.298,3.535 -3.307,2.923 -2.936,2.539"
             style="fill:#20b8d1;fill-opacity:1;fill-rule:nonzero;stroke:none"
             id="path270"
             inkscape:connector-curvature="0" />
        </g>
        <g
           id="g272"
           transform="translate(321.9777,94.861)">
          <path
             d="m 0,0 c 1.429,0 2.709,0.64 3.569,1.649 l -7.138,0 C -2.709,0.64 -1.43,0 0,0"
             style="fill:#20b8d1;fill-opacity:1;fill-rule:nonzero;stroke:none"
             id="path274"
             inkscape:connector-curvature="0" />
        </g>
        <g
           id="g276"
           transform="translate(325.6476,101.9215)">
          <path
             d="m 0,0 -7.506,0 c -0.5,0 -0.909,0.409 -0.909,0.91 0,0.5 0.409,0.91 0.909,0.91 L 0,1.82 C 0.5,1.82 0.91,1.41 0.91,0.91 0.91,0.409 0.5,0 0,0 m -2.09,-2.729 -5.373,0 c -0.524,0 -0.952,0.428 -0.952,0.952 0,0.524 0.428,0.953 0.952,0.953 l 5.373,0 c 0.524,0 0.953,-0.429 0.953,-0.953 0,-0.524 -0.429,-0.952 -0.953,-0.952 m 4.924,4.975 c 0,0.771 -0.632,1.403 -1.403,1.403 l -10.311,0 c -0.771,0 -1.402,-0.632 -1.402,-1.403 0,-0.675 0.484,-1.243 1.122,-1.374 -0.638,-0.131 -1.122,-0.699 -1.122,-1.374 l 0,0 c 0,-0.624 0.412,-1.156 0.978,-1.336 -0.566,-0.181 -0.978,-0.713 -0.978,-1.337 l 0,0 c 0,-0.771 0.631,-1.402 1.402,-1.402 l 10.311,0 c 0.771,0 1.403,0.631 1.403,1.402 l 0,0 c 0,0.624 -0.413,1.156 -0.979,1.337 0.566,0.18 0.979,0.712 0.979,1.336 l 0,0 c 0,0.675 -0.484,1.243 -1.123,1.374 0.639,0.131 1.123,0.699 1.123,1.374"
             style="fill:#20b8d1;fill-opacity:1;fill-rule:nonzero;stroke:none"
             id="path278"
             inkscape:connector-curvature="0" />
        </g>
      </g>
    </g>
  </g>
</svg>
