<?xml version="1.0" encoding="UTF-8" standalone="no"?>
<!-- Created with Inkscape (http://www.inkscape.org/) -->

<svg
   xmlns:dc="http://purl.org/dc/elements/1.1/"
   xmlns:cc="http://creativecommons.org/ns#"
   xmlns:rdf="http://www.w3.org/1999/02/22-rdf-syntax-ns#"
   xmlns:svg="http://www.w3.org/2000/svg"
   xmlns="http://www.w3.org/2000/svg"
   xmlns:sodipodi="http://sodipodi.sourceforge.net/DTD/sodipodi-0.dtd"
   xmlns:inkscape="http://www.inkscape.org/namespaces/inkscape"
   version="1.1"
   id="svg834"
   xml:space="preserve"
   width="37.793999"
   height="35.241333"
   viewBox="0 0 37.793999 35.241333"
   sodipodi:docname="logo.svg"
   inkscape:version="0.92.2pre0 (973e216, 2017-07-25)"><metadata
     id="metadata840"><rdf:RDF><cc:Work
         rdf:about=""><dc:format>image/svg+xml</dc:format><dc:type
           rdf:resource="http://purl.org/dc/dcmitype/StillImage" /><dc:title /></cc:Work></rdf:RDF></metadata><defs
     id="defs838"><clipPath
       clipPathUnits="userSpaceOnUse"
       id="clipPath850"><path
         d="M 0,28.346 H 28.346 V 0 H 0 Z"
         id="path848"
         inkscape:connector-curvature="0" /></clipPath><clipPath
       clipPathUnits="userSpaceOnUse"
       id="clipPath958"><path
         d="M 0,28.346 H 28.346 V 0 H 0 Z"
         id="path956"
         inkscape:connector-curvature="0" /></clipPath><clipPath
       clipPathUnits="userSpaceOnUse"
       id="clipPath1066"><path
         d="M 0,28.346 H 28.346 V 0 H 0 Z"
         id="path1064"
         inkscape:connector-curvature="0" /></clipPath><clipPath
       clipPathUnits="userSpaceOnUse"
       id="clipPath1174"><path
         d="M 0,28.346 H 28.346 V 0 H 0 Z"
         id="path1172"
         inkscape:connector-curvature="0" /></clipPath><clipPath
       clipPathUnits="userSpaceOnUse"
       id="clipPath1282"><path
         d="M 0,28.346 H 28.346 V 0 H 0 Z"
         id="path1280"
         inkscape:connector-curvature="0" /></clipPath><clipPath
       clipPathUnits="userSpaceOnUse"
       id="clipPath1390"><path
         d="M 0,28.346 H 28.346 V 0 H 0 Z"
         id="path1388"
         inkscape:connector-curvature="0" /></clipPath><clipPath
       clipPathUnits="userSpaceOnUse"
       id="clipPath1498"><path
         d="M 0,28.346 H 28.346 V 0 H 0 Z"
         id="path1496"
         inkscape:connector-curvature="0" /></clipPath><clipPath
       clipPathUnits="userSpaceOnUse"
       id="clipPath1606"><path
         d="M 0,28.346 H 28.346 V 0 H 0 Z"
         id="path1604"
         inkscape:connector-curvature="0" /></clipPath></defs><sodipodi:namedview
     pagecolor="#ffffff"
     bordercolor="#666666"
     borderopacity="1"
     objecttolerance="10"
     gridtolerance="10"
     guidetolerance="10"
     inkscape:pageopacity="0"
     inkscape:pageshadow="2"
     inkscape:window-width="1920"
     inkscape:window-height="998"
     id="namedview836"
     showgrid="false"
     inkscape:zoom="1.8872541"
     inkscape:cx="-5.4109802"
     inkscape:cy="16.411176"
     inkscape:window-x="0"
     inkscape:window-y="0"
     inkscape:window-maximized="1"
     inkscape:current-layer="g842"
     fit-margin-top="0"
     fit-margin-left="0"
     fit-margin-right="0"
     fit-margin-bottom="0" /><g
     id="g842"
     inkscape:groupmode="layer"
     inkscape:label="logo_tout_les_coloris_dans_le_document_1"
     transform="matrix(1.3333333,0,0,-1.3333333,2.5822742,37.727822)"><g
       id="g1600"
       transform="translate(-1.9372057,0.90696743)"><g
         id="g1602"
         clip-path="url(#clipPath1606)"><g
           id="g1608"
           transform="translate(14.1729,27.3889)"><path
             d="m 0,0 c -7.287,0 -13.215,-5.928 -13.215,-13.216 0,-7.286 5.928,-13.215 13.215,-13.215 7.287,0 13.216,5.929 13.216,13.215 C 13.216,-5.928 7.287,0 0,0"
             style="fill:#363f41;fill-opacity:1;fill-rule:nonzero;stroke:none"
             id="path1610"
             inkscape:connector-curvature="0" /></g><g
           id="g1612"
           transform="translate(22.0322,17.0535)"><path
             d="M 0,0 H 6.314 V -2.223 -5.761 H 0 l 1.038,2.881 z"
             style="fill:#d9483b;fill-opacity:1;fill-rule:nonzero;stroke:none"
             id="path1614"
             inkscape:connector-curvature="0" /></g><g
           id="g1616"
           transform="translate(6.3145,17.0535)"><path
             d="M 0,0 H -6.314 V -2.223 -5.761 H 0 l -1.039,2.881 z"
             style="fill:#d9483b;fill-opacity:1;fill-rule:nonzero;stroke:none"
             id="path1618"
             inkscape:connector-curvature="0" /></g><g
           id="g1620"
           transform="translate(25.709,15.4773)"><path
             d="M 0,0 -0.412,-0.858 -1.333,-0.996 -0.667,-1.665 -0.824,-2.608 0,-2.162 0.823,-2.608 0.666,-1.665 1.333,-0.996 0.412,-0.858 Z"
             style="fill:#ffffff;fill-opacity:1;fill-rule:nonzero;stroke:none"
             id="path1622"
             inkscape:connector-curvature="0" /></g><g
           id="g1624"
           transform="translate(2.6372,15.4773)"><path
             d="M 0,0 0.412,-0.858 1.333,-0.996 0.668,-1.665 0.824,-2.608 0,-2.162 l -0.823,-0.446 0.157,0.943 -0.667,0.669 0.921,0.138 z"
             style="fill:#ffffff;fill-opacity:1;fill-rule:nonzero;stroke:none"
             id="path1626"
             inkscape:connector-curvature="0" /></g><g
           id="g1628"
           transform="translate(14.3911,15.0403)"><path
             d="M 0,0 C -0.39,0.321 -1.261,0.825 -0.528,1.857 0.207,2.889 0.756,3.095 0.894,3.806 1.032,4.517 0.458,5.067 -0.481,5.319 0.068,4.7 0.458,4.196 -0.184,3.554 -1.044,2.693 -1.421,2.431 -1.536,2.316 -1.651,2.201 -3.026,1.146 0,0"
             style="fill:#ffffff;fill-opacity:1;fill-rule:nonzero;stroke:none"
             id="path1630"
             inkscape:connector-curvature="0" /></g><g
           id="g1632"
           transform="translate(11.6982,14.2034)"><path
             d="M 0,0 C -0.019,-1.451 0.185,-2.477 0.371,-3.075 0.074,-2.206 -0.333,-1.244 -0.353,0 Z m 5.529,-0.885 c 0.546,-0.054 0.596,-0.324 0.596,-0.622 0,-0.405 -0.417,-0.752 -0.944,-0.82 0.153,0.445 0.271,0.929 0.348,1.442 M 4.611,-3.73 c 0.142,0.207 0.272,0.573 0.388,0.844 0.85,0.002 1.516,0.658 1.516,1.379 0,0.812 -0.475,1.013 -0.929,1.062 C 5.607,-0.228 5.623,0 5.63,0.207 h -6.46 c 0.045,-1.451 0.428,-2.901 1.019,-3.937 z"
             style="fill:#ffffff;fill-opacity:1;fill-rule:nonzero;stroke:none"
             id="path1634"
             inkscape:connector-curvature="0" /></g><g
           id="g1636"
           transform="translate(9.7363,10.0593)"><path
             d="M 0,0 1.789,-0.829 H 7.085 L 8.874,0 Z"
             style="fill:#ffffff;fill-opacity:1;fill-rule:nonzero;stroke:none"
             id="path1638"
             inkscape:connector-curvature="0" /></g><g
           id="g1640"
           transform="translate(5.4966,21.3172)"><path
             d="M 0,0 1.624,-1.404 2.313,-0.608 2.504,-0.774 1.636,-1.777 -0.18,-0.208 Z"
             style="fill:#ffffff;fill-opacity:1;fill-rule:nonzero;stroke:none"
             id="path1642"
             inkscape:connector-curvature="0" /></g><g
           id="g1644"
           transform="translate(7.0801,22.6702)"><path
             d="m 0,0 c 0.036,-0.042 0.05,-0.089 0.056,-0.143 l 0.037,-0.289 -0.114,-0.099 -0.076,0.261 c -0.057,-0.013 -0.111,0.013 -0.149,0.057 -0.066,0.075 -0.061,0.174 0.01,0.235 C -0.169,0.081 -0.069,0.081 0,0"
             style="fill:#ffffff;fill-opacity:1;fill-rule:nonzero;stroke:none"
             id="path1646"
             inkscape:connector-curvature="0" /></g><g
           id="g1648"
           transform="translate(7.979,23.5491)"><path
             d="M 0,0 1.346,-1.987 1.119,-2.141 -0.227,-0.154 Z"
             style="fill:#ffffff;fill-opacity:1;fill-rule:nonzero;stroke:none"
             id="path1650"
             inkscape:connector-curvature="0" /></g><g
           id="g1652"
           transform="translate(9.2632,24.3084)"><path
             d="M 0,0 2.071,-1.261 1.333,0.545 1.584,0.647 2.492,-1.574 2.231,-1.681 0.162,-0.423 0.898,-2.226 0.645,-2.329 -0.263,-0.107 Z"
             style="fill:#ffffff;fill-opacity:1;fill-rule:nonzero;stroke:none"
             id="path1654"
             inkscape:connector-curvature="0" /></g><g
           id="g1656"
           transform="translate(12.7905,25.0667)"><path
             d="m 0,0 c -0.306,-0.039 -0.491,-0.186 -0.466,-0.391 0.078,-0.619 1.378,-0.127 1.484,-0.992 0.048,-0.394 -0.269,-0.694 -0.78,-0.758 -0.347,-0.044 -0.706,0.063 -0.958,0.25 l 0.093,0.25 c 0.248,-0.183 0.566,-0.268 0.835,-0.234 0.344,0.043 0.541,0.209 0.511,0.441 -0.076,0.637 -1.374,0.132 -1.482,0.986 -0.047,0.374 0.254,0.654 0.747,0.716 C 0.26,0.302 0.553,0.249 0.767,0.141 L 0.682,-0.115 C 0.45,-0.002 0.191,0.024 0,0"
             style="fill:#ffffff;fill-opacity:1;fill-rule:nonzero;stroke:none"
             id="path1658"
             inkscape:connector-curvature="0" /></g><g
           id="g1660"
           transform="translate(16.167,25.2776)"><path
             d="m 0,0 -0.024,-0.253 -0.783,0.074 -0.201,-2.14 -0.274,0.026 0.202,2.139 -0.78,0.073 0.024,0.253 z"
             style="fill:#ffffff;fill-opacity:1;fill-rule:nonzero;stroke:none"
             id="path1662"
             inkscape:connector-curvature="0" /></g><g
           id="g1664"
           transform="translate(17.7148,23.2307)"><path
             d="M 0,0 -0.135,1.345 -1.032,0.337 Z m 0.025,-0.276 -1.244,0.407 -0.445,-0.501 -0.278,0.091 1.773,1.95 0.271,-0.088 0.274,-2.621 -0.283,0.093 z"
             style="fill:#ffffff;fill-opacity:1;fill-rule:nonzero;stroke:none"
             id="path1666"
             inkscape:connector-curvature="0" /></g><g
           id="g1668"
           transform="translate(19.8643,23.8884)"><path
             d="m 0,0 0.099,-2.423 1.093,1.615 0.225,-0.151 -1.347,-1.987 -0.232,0.157 -0.1,2.42 -1.092,-1.612 -0.227,0.154 1.346,1.986 z"
             style="fill:#ffffff;fill-opacity:1;fill-rule:nonzero;stroke:none"
             id="path1670"
             inkscape:connector-curvature="0" /></g><g
           id="g1672"
           transform="translate(23.1895,20.9373)"><path
             d="m 0,0 -0.189,-0.168 -0.521,0.587 -1.604,-1.423 -0.183,0.205 1.605,1.423 -0.518,0.584 0.189,0.169 z"
             style="fill:#ffffff;fill-opacity:1;fill-rule:nonzero;stroke:none"
             id="path1674"
             inkscape:connector-curvature="0" /></g><g
           id="g1676"
           transform="translate(6.7251,8.6687)"><path
             d="m 0,0 -0.187,-0.117 -0.621,1.001 -0.595,-0.369 0.554,-0.895 -0.184,-0.114 -0.555,0.893 -0.618,-0.382 0.641,-1.035 -0.187,-0.116 -0.768,1.237 1.773,1.1 z"
             style="fill:#ffffff;fill-opacity:1;fill-rule:nonzero;stroke:none"
             id="path1678"
             inkscape:connector-curvature="0" /></g><g
           id="g1680"
           transform="translate(7.2759,7.9939)"><path
             d="m 0,0 -0.29,-2.079 1.181,1.207 0.168,-0.164 -1.454,-1.485 -0.173,0.17 0.288,2.077 -1.179,-1.205 -0.17,0.167 1.453,1.484 z"
             style="fill:#ffffff;fill-opacity:1;fill-rule:nonzero;stroke:none"
             id="path1682"
             inkscape:connector-curvature="0" /></g><g
           id="g1684"
           transform="translate(10.4683,5.4812)"><path
             d="m 0,0 c -0.429,0.192 -0.924,0.014 -1.113,-0.407 -0.188,-0.418 0.004,-0.913 0.433,-1.106 0.209,-0.094 0.452,-0.098 0.665,-0.024 l 0.068,-0.204 c -0.266,-0.093 -0.572,-0.089 -0.835,0.029 -0.549,0.247 -0.793,0.866 -0.551,1.403 0.239,0.533 0.868,0.756 1.419,0.508 0.261,-0.117 0.466,-0.337 0.571,-0.59 L 0.456,-0.489 C 0.375,-0.276 0.209,-0.094 0,0"
             style="fill:#ffffff;fill-opacity:1;fill-rule:nonzero;stroke:none"
             id="path1686"
             inkscape:connector-curvature="0" /></g><g
           id="g1688"
           transform="translate(11.6104,4.1804)"><path
             d="M 0,0 C -0.076,-0.453 0.244,-0.883 0.701,-0.959 1.158,-1.035 1.594,-0.732 1.67,-0.277 1.746,0.176 1.431,0.6 0.974,0.676 0.517,0.752 0.076,0.455 0,0 M 1.91,-0.318 C 1.814,-0.895 1.263,-1.273 0.666,-1.174 0.065,-1.073 -0.333,-0.537 -0.237,0.04 -0.141,0.617 0.409,0.992 1.01,0.893 1.607,0.793 2.006,0.26 1.91,-0.318"
             style="fill:#ffffff;fill-opacity:1;fill-rule:nonzero;stroke:none"
             id="path1690"
             inkscape:connector-curvature="0" /></g><g
           id="g1692"
           transform="translate(14.5923,4.9138)"><path
             d="M 0,0 0.948,-1.398 1.505,0.195 1.793,0.232 2.061,-1.829 1.843,-1.857 1.618,-0.144 1.061,-1.737 0.919,-1.756 l -0.942,1.4 0.222,-1.714 -0.223,-0.03 -0.268,2.062 z"
             style="fill:#ffffff;fill-opacity:1;fill-rule:nonzero;stroke:none"
             id="path1694"
             inkscape:connector-curvature="0" /></g><g
           id="g1696"
           transform="translate(17.4678,5.5105)"><path
             d="M 0,0 1.339,-1.036 1.372,0.655 1.636,0.78 2.533,-1.1 2.334,-1.194 1.585,0.367 1.552,-1.323 1.423,-1.385 0.09,-0.347 0.836,-1.909 0.631,-2.007 l -0.897,1.88 z"
             style="fill:#ffffff;fill-opacity:1;fill-rule:nonzero;stroke:none"
             id="path1698"
             inkscape:connector-curvature="0" /></g><g
           id="g1700"
           transform="translate(21.5957,5.907)"><path
             d="M 0,0 C 0.294,0.264 0.312,0.6 0.039,0.904 L -0.778,1.816 -0.602,1.975 0.216,1.063 C 0.579,0.658 0.55,0.201 0.145,-0.162 c -0.408,-0.365 -0.867,-0.346 -1.23,0.058 l -0.817,0.913 0.176,0.158 0.818,-0.911 C -0.635,-0.25 -0.294,-0.265 0,0"
             style="fill:#ffffff;fill-opacity:1;fill-rule:nonzero;stroke:none"
             id="path1702"
             inkscape:connector-curvature="0" /></g><g
           id="g1704"
           transform="translate(21.6016,8.657)"><path
             d="M 0,0 2.104,0.131 0.68,1.051 0.808,1.248 2.56,0.116 2.427,-0.089 0.326,-0.222 1.747,-1.14 1.618,-1.34 -0.134,-0.208 Z"
             style="fill:#ffffff;fill-opacity:1;fill-rule:nonzero;stroke:none"
             id="path1706"
             inkscape:connector-curvature="0" /></g></g></g></g></svg>